<svg width="93" height="36" viewBox="0 0 93 36" fill="none" xmlns="http://www.w3.org/2000/svg">
<path d="M26.9279 33.6967C26.2261 33.6967 25.7571 34.1663 25.7571 34.8222C25.7571 35.5248 26.2261 35.9645 26.9279 35.9645C27.5849 35.9645 28.0521 35.5266 28.0521 34.8222C28.0521 34.1644 27.583 33.6967 26.9279 33.6967Z" fill="white"/>
<path d="M35.2982 33.9725C33.1521 33.9725 31.609 32.5358 31.609 30.4916C31.609 28.4474 33.1353 26.979 35.2982 26.979C36.8412 26.979 38.0343 27.6759 38.6095 28.8406H40.8468C40.1823 26.4628 38.0194 24.9497 35.2982 24.9497C31.972 24.9497 29.4927 27.2958 29.4927 30.4897C29.4927 33.6837 31.9869 36 35.2982 36C38.0194 36 40.1972 34.4869 40.8468 32.111H38.6095C38.0213 33.2607 36.8245 33.9725 35.2982 33.9725Z" fill="white"/>
<path d="M47.3262 24.9869C44.0224 24.9869 41.558 27.3181 41.558 30.4897C41.558 33.6613 44.0373 35.9627 47.3262 35.9627C50.6152 35.9627 53.0796 33.7377 53.0796 30.4897C53.0796 27.2417 50.6171 24.9869 47.3262 24.9869ZM47.3262 33.9501C45.1932 33.9501 43.6613 32.5227 43.6613 30.4916C43.6613 28.4604 45.1783 27.0032 47.3262 27.0032C49.4742 27.0032 50.9763 28.4176 50.9763 30.4916C50.9763 32.5656 49.504 33.9501 47.3262 33.9501Z" fill="white"/>
<path d="M63.6221 25.0001L60.1061 33.3372L56.5751 25.0001H53.7943V35.9516H55.9814V28.8947L58.9986 35.9516H61.2005L64.2178 28.9264V35.9516H66.4048V25.0001H63.624H63.6221Z" fill="white"/>
<path d="M20.2885 21.4912L15.1196 14.697C17.8409 13.4131 19.8455 10.8434 19.8455 7.77246C19.8455 3.10078 15.9646 0 11.2685 0H0V21.9366H4.38157V15.5431H10.3285L15.181 21.9366H20.6273L20.2866 21.4912H20.2885ZM11.2685 11.4379H4.38157V4.04183H11.2685C13.7106 4.04183 15.4639 5.60899 15.4639 7.77246C15.4639 9.93593 13.6808 11.4379 11.2685 11.4379Z" fill="white"/>
<path d="M37.9246 0H33.0404L22.2763 21.4912L22.053 21.9366H26.9036L29.5039 16.7636L31.5067 12.7516L35.4806 4.85429L39.4564 12.7516L41.489 16.7636L44.0893 21.9366H48.9734L37.9246 0Z" fill="white"/>
<path d="M61.4351 10.9683L71.8269 0H65.8799L57.3327 8.96321H54.8292V0H50.4476V21.9366H54.8292V12.9734H57.2415L66.537 21.9366H72.6421L61.4351 10.9683Z" fill="white"/>
<path d="M92.16 4.04183V0H74.066V21.9366H92.16V17.8631H78.4495V12.9734H91.6593V8.92966H78.4495V4.04183H92.16Z" fill="white"/>
<path d="M32.884 21.9757H38.1497L35.516 19.3408L32.884 21.9757Z" fill="white"/>
<path d="M38.1499 15.1293L35.5161 12.4925L32.8841 15.1293L30.2504 17.7642L32.8841 20.401L35.5161 17.7642L38.1499 20.401L40.7818 17.7642L38.1499 15.1293Z" fill="white"/>
</svg>