<svg width="161" height="20" viewBox="0 0 161 20" fill="none" xmlns="http://www.w3.org/2000/svg">
<path d="M18.3977 19.5086L13.7117 13.3693C16.1787 12.2087 17.9971 9.8875 17.9971 7.11281C17.9971 2.8921 14.4778 0.092041 10.2178 0.092041H0V19.9113H3.97393V14.1336H9.36894L13.7689 19.9113H18.7093L18.4009 19.5086H18.3977ZM10.2178 10.4266H3.97393V3.74195H10.2178C12.4305 3.74195 14.02 5.15625 14.02 7.11281C14.02 9.06937 12.4018 10.4234 10.2178 10.4234V10.4266Z" fill="white"/>
<path d="M34.392 0.092041H29.9634L20.2035 19.5086L20 19.9113H24.3999L26.7557 15.2371L28.571 11.6126L32.1761 4.47764L35.7813 11.6126L37.6252 15.2371L39.9809 19.9113H44.4095L34.392 0.092041Z" fill="white"/>
<path d="M55.7112 10.0017L65.1374 0.092041H59.7424L51.9916 8.19098H49.7217V0.092041H45.7478V19.9113H49.7217V11.8123H51.909L60.3401 19.9113H65.8781L55.7144 10.0017H55.7112Z" fill="white"/>
<path d="M83.5765 3.74195V0.092041H67.1689V19.9113H83.5765V16.2297H71.1429V11.8123H83.1219V8.15927H71.1429V3.74195H83.5765Z" fill="white"/>
<path d="M88.288 15.8301C87.0131 15.8301 86.1611 16.68 86.1611 17.8691C86.1611 19.1407 87.0131 19.9335 88.288 19.9335C89.4802 19.9335 90.3322 19.1407 90.3322 17.8691C90.3322 16.68 89.4802 15.8301 88.288 15.8301Z" fill="white"/>
<path d="M103.494 16.328C99.5931 16.328 96.7923 13.7277 96.7923 10.027C96.7923 6.32637 99.5645 3.67217 103.494 3.67217C106.295 3.67217 108.463 4.93109 109.509 7.04303H113.575C112.367 2.73987 108.441 6.10352e-05 103.497 6.10352e-05C97.4536 6.10352e-05 92.9519 4.24614 92.9519 10.027C92.9519 15.8079 97.4822 20.0001 103.497 20.0001C108.441 20.0001 112.396 17.2602 113.575 12.9603H109.509C108.438 15.0437 106.269 16.328 103.494 16.328Z" fill="white"/>
<path d="M125.344 0.0665894C119.342 0.0665894 114.866 4.2873 114.866 10.0269C114.866 15.7666 119.367 19.9334 125.344 19.9334C131.321 19.9334 135.794 15.9061 135.794 10.0269C135.794 4.14777 131.321 0.0665894 125.344 0.0665894ZM125.344 16.2867C121.469 16.2867 118.687 13.7022 118.687 10.0269C118.687 6.35167 121.443 3.71333 125.344 3.71333C129.245 3.71333 131.976 6.27239 131.976 10.0269C131.976 13.7815 129.302 16.2867 125.344 16.2867Z" fill="white"/>
<path d="M154.945 0.092041L148.558 15.1832L142.143 0.092041H137.091V19.9113H141.065V7.13818L146.546 19.9081H150.548L156.029 7.19526V19.9113H160.003V0.092041H154.951H154.945Z" fill="white"/>
<path d="M29.8203 19.9462H34.5954L32.2078 17.5647L29.8203 19.9462Z" fill="white"/>
<path d="M34.5955 13.7593L32.2079 11.3778L29.8204 13.7593L27.4329 16.1408L29.8204 18.5222L32.2079 16.1408L34.5955 18.5222L36.983 16.1408L34.5955 13.7593Z" fill="white"/>
</svg>
