<svg width="32" height="32" viewBox="0 0 32 32" fill="none" xmlns="http://www.w3.org/2000/svg">
<path d="M31.5 16C31.5 24.5604 24.5604 31.5 16 31.5C7.43959 31.5 0.5 24.5604 0.5 16C0.5 7.43959 7.43959 0.5 16 0.5C24.5604 0.5 31.5 7.43959 31.5 16Z" fill="#072537" stroke="white"/>
<path d="M10.8011 20.2606C10.6107 20.2606 10.4834 20.3879 10.4834 20.5659C10.4834 20.7569 10.6107 20.8758 10.8011 20.8758C10.9791 20.8758 11.1059 20.7569 11.1059 20.5659C11.1059 20.3873 10.9785 20.2606 10.8011 20.2606Z" fill="white"/>
<path d="M13.0733 20.3356C12.4908 20.3356 12.0722 19.9459 12.0722 19.3907C12.0722 18.8355 12.4866 18.437 13.0733 18.437C13.4922 18.437 13.8159 18.6262 13.9723 18.9424H14.5798C14.3993 18.2968 13.8126 17.8863 13.0736 17.8863C12.1707 17.8863 11.4978 18.5235 11.4978 19.3901C11.4978 20.2567 12.1746 20.886 13.0736 20.886C13.8123 20.886 14.4038 20.4756 14.5798 19.8306H13.9723C13.8126 20.1429 13.4877 20.3359 13.0733 20.3359V20.3353V20.3356Z" fill="white"/>
<path d="M16.3384 17.8965C15.4415 17.8965 14.7725 18.5292 14.7725 19.3904C14.7725 20.2515 15.4454 20.8758 16.3384 20.8758C17.2314 20.8758 17.9004 20.2717 17.9004 19.3904C17.9004 18.5091 17.232 17.8965 16.3384 17.8965ZM16.3384 20.3293C15.7595 20.3293 15.3433 19.9417 15.3433 19.3907C15.3433 18.8397 15.755 18.4436 16.3384 18.4436C16.9218 18.4436 17.329 18.8277 17.329 19.3907C17.329 19.9537 16.929 20.3293 16.3384 20.3293Z" fill="white"/>
<path d="M20.7618 17.9004L19.8075 20.1636L18.8494 17.9004H18.0945V20.8734H18.6881V18.958L19.5073 20.8734H20.1048L20.9239 18.9664V20.8734H21.5176V17.9004H20.7621H20.7618Z" fill="white"/>
<path d="M8.99863 16.9477L7.59546 15.1031C8.33413 14.7548 8.87822 14.0572 8.87822 13.2234C8.87883 11.9553 7.82547 11.1137 6.55082 11.1137H3.49194V17.0687H4.68132V15.3331H6.29558L7.61288 17.0687H9.09112L8.99833 16.9474H8.99893L8.99863 16.9477ZM6.55051 14.2188H4.68102V12.2112H6.55051C7.21322 12.2112 7.68915 12.6367 7.68915 13.2237C7.68915 13.8107 7.20511 14.2188 6.55051 14.2188Z" fill="white"/>
<path d="M13.7864 11.114H12.4607L9.53849 16.9477L9.47754 17.069H10.7942L11.5002 15.6646L12.044 14.5758L13.1228 12.4322L14.2023 14.5758L14.7539 15.6646L15.4599 17.069H16.7856L13.7864 11.114Z" fill="white"/>
<path d="M20.1681 14.0915L22.9891 11.114H21.3749L19.0547 13.5471H18.3752V11.114H17.1858V17.069H18.3752V14.6353H19.0301L21.5535 17.0684H23.2111L20.1687 14.0909L20.1681 14.0915Z" fill="white"/>
<path d="M28.5085 12.2112V11.114H23.5967V17.069H28.5085V15.9634H24.7867V14.6362H28.3722V13.5384H24.7867V12.2115H28.5085V12.2112Z" fill="white"/>
<path d="M12.4177 17.0795H13.8473L13.1327 16.3642L12.4183 17.0795H12.4177Z" fill="white"/>
<path d="M13.8475 15.2211L13.1329 14.5052L12.4185 15.2211L11.7039 15.9363L12.4185 16.6522L13.1329 15.9363L13.8475 16.6522L14.5618 15.9363L13.8475 15.2211Z" fill="white"/>
</svg>
