<svg width="20px" height="20px" viewBox="0 0 20 20" xmlns="http://www.w3.org/2000/svg" xmlns:xlink="http://www.w3.org/1999/xlink" size="20" color="hsl(225.70000000000005, 15.6%, 58.8%)" left="-4" class="css-14hxppr"><g id="link" stroke="none" stroke-width="1" fill="none" fill-rule="evenodd"><g transform="translate(3.000000, 3.000000)" fill="currentColor" fill-rule="nonzero" id="Path"><path d="M7.023,10.368 L6.103,11.288 C5.15466384,12.143027 3.70288438,12.1058147 2.79959713,11.2033266 C1.89630988,10.3008385 1.8578127,8.84909256 2.712,7.9 L3.632,6.98 C4.02522674,6.58732554 4.02567446,5.95022674 3.633,5.557 C3.24032554,5.16377326 2.60322674,5.16332554 2.21,5.556 L1.291,6.476 C-0.430195423,8.19719542 -0.430195423,10.9878046 1.291,12.709 C3.01219542,14.4301954 5.80280458,14.4301954 7.524,12.709 L8.444,11.79 C8.83667445,11.3976017 8.8368983,10.7611745 8.44449999,10.3685 C8.05210168,9.97582556 7.41567446,9.9756017 7.023,10.368 Z"></path><path d="M7.711,4.868 L4.868,7.711 C4.4756017,8.10339832 4.4756017,8.73960168 4.86800001,9.13199999 C5.26039832,9.5243983 5.89660168,9.5243983 6.289,9.132 L9.132,6.289 C9.5243983,5.89660168 9.5243983,5.26039832 9.13199999,4.86800001 C8.73960168,4.4756017 8.10339832,4.4756017 7.711,4.868 L7.711,4.868 Z"></path><path d="M12.709,1.291 C11.8825044,0.464355626 10.7614465,-6.08558574e-05 9.5925,-6.08558574e-05 C8.4235535,-6.08558574e-05 7.30249561,0.464355626 6.476,1.291 L5.556,2.21 C5.16332554,2.60239831 5.16310169,3.23882554 5.5555,3.6315 C5.94789831,4.02417446 6.58432554,4.02439831 6.977,3.632 L7.897,2.712 C8.84533616,1.856973 10.2971156,1.89418525 11.2004029,2.79667337 C12.1036901,3.69916148 12.1421873,5.15090744 11.288,6.1 L10.368,7.02 C9.97477328,7.41267446 9.97432558,8.04977324 10.367,8.44299998 C10.7596745,8.83622671 11.3967733,8.83667443 11.79,8.444 L12.709,7.524 C13.5356444,6.69750439 14.0000609,5.5764465 14.0000609,4.4075 C14.0000609,3.2385535 13.5356444,2.11749561 12.709,1.291 L12.709,1.291 Z"></path></g></g></svg>