<svg width="14" height="14" viewBox="0 0 14 14" fill="none" xmlns="http://www.w3.org/2000/svg">
<path d="M12.5543 5.52889C12.517 5.41945 12.4464 5.32444 12.3523 5.25719C12.2583 5.18993 12.1455 5.15382 12.0299 5.15392H8.36815L7.19664 1.47292C7.16105 1.36069 7.09065 1.2627 6.99564 1.19315C6.90063 1.12361 6.78594 1.08612 6.6682 1.08612C6.55046 1.08612 6.43577 1.12361 6.34076 1.19315C6.24575 1.2627 6.17535 1.36069 6.13976 1.47292L4.96824 5.15394H1.30575C1.19024 5.15409 1.07765 5.19027 0.983677 5.25745C0.889705 5.32463 0.819031 5.41945 0.781507 5.52869C0.743983 5.63794 0.741477 5.75618 0.77434 5.86692C0.807202 5.97766 0.873795 6.07539 0.964838 6.14648L4.00158 8.50871L2.98981 12.2193C2.95886 12.3328 2.96482 12.4533 3.00684 12.5633C3.04886 12.6732 3.12476 12.767 3.22357 12.8309C3.32237 12.8949 3.43896 12.9258 3.55649 12.9192C3.67401 12.9125 3.78637 12.8687 3.87733 12.794L6.66782 10.4953L9.45906 12.794C9.55002 12.8687 9.66238 12.9125 9.7799 12.9192C9.89743 12.9258 10.014 12.8949 10.1128 12.8309C10.2116 12.767 10.2875 12.6732 10.3295 12.5633C10.3716 12.4533 10.3775 12.3328 10.3466 12.2193L9.33482 8.50871L12.3709 6.14646C12.4621 6.07553 12.5288 5.97785 12.5617 5.8671C12.5946 5.75636 12.592 5.6381 12.5543 5.52889ZM8.36077 7.86009C8.27449 7.92738 8.21005 8.0187 8.17557 8.12255C8.14108 8.22639 8.1381 8.33812 8.167 8.44365L8.81706 10.8274L7.02062 9.34817C6.92137 9.26642 6.79678 9.22171 6.6682 9.22171C6.53962 9.22171 6.41504 9.26642 6.31579 9.34817L4.51931 10.8274L5.16942 8.44366C5.19836 8.33806 5.19532 8.22625 5.1607 8.12237C5.12607 8.0185 5.06141 7.92722 4.9749 7.8601L2.92251 6.2633H5.37354C5.49128 6.26355 5.60604 6.22626 5.70114 6.15683C5.79624 6.0874 5.86672 5.98946 5.90236 5.87724L6.66784 3.47058L7.43406 5.87724C7.46962 5.98936 7.53999 6.08723 7.63495 6.15665C7.7299 6.22607 7.84451 6.26343 7.96214 6.2633H10.4139L8.36077 7.86009Z" fill="#8CA3B8"/>
</svg>
