<svg width="13" height="13" viewBox="0 0 13 13" fill="none" xmlns="http://www.w3.org/2000/svg">
<path d="M0.509521 6.90795C0.509521 3.63705 3.17055 0.976685 6.44078 0.976685C9.71101 0.976685 12.372 3.63705 12.372 6.90795C12.372 10.1782 9.71101 12.8386 6.44078 12.8386C3.17055 12.8386 0.509521 10.1782 0.509521 6.90795ZM1.62184 6.90795C1.62184 9.56499 3.78376 11.7269 6.44078 11.7269C9.09846 11.7269 11.2604 9.56499 11.2604 6.90795C11.2604 4.25026 9.09846 2.08834 6.44078 2.08834C3.78376 2.08834 1.62184 4.25026 1.62184 6.90795ZM5.88495 7.13816V3.94198H6.99661V6.67775L8.31644 7.99759L7.53039 8.78364L5.88495 7.13816Z" fill="#8CA3B8"/>
</svg>
