<svg width="25" height="24" viewBox="0 0 25 24" fill="none" xmlns="http://www.w3.org/2000/svg">
<g clip-path="url(#clip0_3102_35398)">
<path d="M21.3098 4.49994H14.3348L18.0459 1.319C18.3609 1.04947 18.3975 0.576499 18.1279 0.261968C17.857 -0.0536882 17.3836 -0.0881413 17.0704 0.180687L12.3098 4.26181L7.54731 0.180827C7.23531 -0.0879539 6.76216 -0.0535476 6.48981 0.262109C6.22075 0.576499 6.25825 1.04947 6.57231 1.319L10.2848 4.49994H3.30981C1.65278 4.49994 0.309814 5.84291 0.309814 7.45775V20.9156C0.309814 22.6546 1.65278 23.9999 3.30981 23.9999H21.3098C22.9668 23.9999 24.3098 22.657 24.3098 21.0421V7.49994C24.3098 5.84525 22.9645 4.49994 21.3098 4.49994ZM22.8098 20.9999C22.8098 21.8268 22.1367 22.4999 21.3098 22.4999H3.30981C2.48294 22.4999 1.80981 21.8268 1.80981 20.9999V7.49994C1.80981 6.67306 2.48294 5.99994 3.30981 5.99994H21.3098C22.1367 5.99994 22.8098 6.67306 22.8098 7.49994V20.9999ZM15.3145 7.49994H6.3145C4.65747 7.49994 3.3145 8.84291 3.3145 10.4999V17.9999C3.3145 19.657 4.65747 20.9999 6.3145 20.9999L15.2723 20.9999C16.9293 20.9999 18.2728 19.657 18.2728 17.9999V10.4999C18.3145 8.84525 16.9692 7.49994 15.3145 7.49994ZM16.8098 17.9999C16.8098 18.8268 16.1367 19.4999 15.3098 19.4999H6.30981C5.48294 19.4999 4.80981 18.8268 4.80981 17.9999V10.4999C4.80981 9.67306 5.48294 8.99994 6.30981 8.99994H15.3098C16.1367 8.99994 16.8098 9.67306 16.8098 10.4999V17.9999ZM20.5598 8.62494C19.9387 8.62494 19.4348 9.12837 19.4348 9.74994C19.4348 10.371 19.9387 10.8749 20.5598 10.8749C21.1814 10.8749 21.6848 10.371 21.6848 9.74994C21.6848 9.1265 21.1833 8.62494 20.5598 8.62494ZM20.5598 11.6249C19.9387 11.6249 19.4348 12.1284 19.4348 12.7499C19.4348 13.371 19.9387 13.8749 20.5598 13.8749C21.1814 13.8749 21.6848 13.371 21.6848 12.7499C21.6848 12.1265 21.1833 11.6249 20.5598 11.6249Z" fill="#8CA3B8"/>
</g>
<defs>
<clipPath id="clip0_3102_35398">
<rect width="24" height="24" fill="white" transform="translate(0.309814)"/>
</clipPath>
</defs>
</svg>
