<svg width="24" height="24" viewBox="0 0 24 24" fill="none" xmlns="http://www.w3.org/2000/svg">
<path d="M20.2241 10.8036C19.4573 10.8036 18.564 10.9745 17.553 11.3429C16.2979 6.52115 11.7604 2.3999 10.7966 2.3999C10.377 2.3999 9.9915 2.69983 9.9105 3.1379C8.94375 8.39165 7.16888 10.7354 6.55238 11.3842C6.08325 11.208 4.93013 10.8037 3.7725 10.8037C0.3105 10.8037 0 13.8967 0 14.7674C0 17.8484 2.51362 21.5999 7.16625 21.5999C9.17813 21.5999 10.7839 20.9047 11.9663 19.8708C13.149 20.9032 14.7529 21.5999 16.7625 21.5999C21.45 21.5999 23.9663 17.8462 23.9663 14.7674C24.0004 13.8936 23.6891 10.8036 20.2241 10.8036ZM11.3779 4.92665C12.6488 6.0629 14.6869 8.25702 15.6379 11.2041C14.6396 10.8838 13.8945 10.7991 13.3691 10.7991C12.8546 10.7991 12.4118 10.8929 12.0064 11.0295C11.5954 10.8936 11.1416 10.8036 10.6241 10.8036C10.1483 10.8036 9.6255 10.8697 9.05625 11.0059C9.75413 9.79115 10.6991 7.8449 11.3779 4.92665ZM1.80113 14.7674C1.80113 13.8959 2.03936 12.6003 3.7725 12.6003C4.91438 12.6003 6.003 13.0806 7.19775 13.606C8.45887 13.0514 9.47625 12.6003 10.6223 12.6003C12.3555 12.6003 12.5944 13.8955 12.5944 14.7674C12.5944 15.5084 11.8781 19.7999 7.19813 19.7999C2.49712 19.7999 1.80113 15.4911 1.80113 14.7674ZM22.1666 14.7674C22.1666 15.5031 21.453 19.7999 16.7629 19.7999C15.0446 19.7999 13.8806 19.1605 13.1501 18.5294C13.9459 17.3579 14.3618 16.0094 14.3618 14.7644C14.3618 13.6578 14.0223 12.931 13.8683 12.637C14.9483 12.7724 15.8678 13.2104 16.7629 13.6038C18.021 13.051 19.0444 12.5984 20.1904 12.5984C21.9641 12.5999 22.1666 13.9011 22.1666 14.7674Z" fill="#8CA3B8"/>
</svg>
