<svg width="25" height="24" viewBox="0 0 25 24" fill="none" xmlns="http://www.w3.org/2000/svg">
<g clip-path="url(#clip0_3102_35366)">
<path d="M23.341 5.56508C22.8997 5.33658 22.3672 5.36674 21.9597 5.65254L17.6764 8.6542C17.3743 8.86512 17.3014 9.28129 17.5123 9.58254C17.6868 9.88425 18.1368 9.95508 18.441 9.74675L22.7243 6.74674V17.4092L18.441 14.4134C18.1382 14.2031 17.7234 14.2754 17.5126 14.5775C17.3017 14.8789 17.3746 15.295 17.6767 15.5058L21.96 18.505C22.1892 18.6652 22.4575 18.7461 22.7259 18.7461C22.9362 18.7461 23.1475 18.696 23.3417 18.595C23.7826 18.3634 24.0576 17.8759 24.0576 17.3759V6.74674C24.0576 6.24674 23.7826 5.79674 23.341 5.56508ZM13.3909 4.08008H2.72428C1.25137 4.08008 0.0576172 5.27383 0.0576172 6.74674V17.4134C0.0576172 18.8863 1.25137 20.0801 2.72428 20.0801H13.3909C14.8639 20.0801 16.0576 18.8863 16.0576 17.4134V6.74674C16.0576 5.27383 14.8618 4.08008 13.3909 4.08008ZM14.7243 17.4134C14.7243 18.1484 14.1259 18.7467 13.3909 18.7467H2.72428C1.98928 18.7467 1.39095 18.1484 1.39095 17.4134V6.74674C1.39095 6.01174 1.98928 5.41341 2.72428 5.41341H13.3909C14.1259 5.41341 14.7243 6.01174 14.7243 6.74674V17.4134Z" fill="#8CA3B8"/>
</g>
<defs>
<clipPath id="clip0_3102_35366">
<rect width="24" height="24" fill="white" transform="translate(0.0576172)"/>
</clipPath>
</defs>
</svg>
