<svg width="17" height="16" viewBox="0 0 17 16" fill="none" xmlns="http://www.w3.org/2000/svg">
<path d="M16.0854 0.251958C16.2328 0.399539 16.3202 0.596533 16.3308 0.804852C16.3414 1.01317 16.2744 1.21801 16.1427 1.37978L16.0854 1.44384L1.77998 15.7487C1.62756 15.9034 1.42133 15.9932 1.20427 15.9996C0.987206 16.006 0.776064 15.9283 0.614852 15.7828C0.453641 15.6373 0.354798 15.4352 0.338926 15.2187C0.323054 15.0021 0.391379 14.7877 0.529657 14.6203L0.587537 14.5562L14.8929 0.251958C14.9712 0.173629 15.0642 0.111492 15.1665 0.0690975C15.2688 0.0267033 15.3784 0.00488281 15.4892 0.00488281C15.5999 0.00488281 15.7096 0.0267033 15.8119 0.0690975C15.9142 0.111492 16.0071 0.173629 16.0854 0.251958Z" fill="#8CA3B8"/>
<path d="M16.0854 14.5563C16.2387 14.709 16.3274 14.9148 16.3331 15.1311C16.3388 15.3474 16.2611 15.5577 16.1161 15.7183C15.9711 15.8789 15.7699 15.9776 15.5541 15.9939C15.3384 16.0102 15.1246 15.943 14.957 15.806L14.893 15.7487L0.588683 1.44331C0.434007 1.29089 0.344122 1.08466 0.337764 0.867598C0.331406 0.650536 0.409065 0.439395 0.554554 0.278183C0.700043 0.116971 0.902136 0.0181278 1.11871 0.00225605C1.33528 -0.0136157 1.54963 0.0547086 1.71707 0.192987L1.78113 0.250867L16.0854 14.5563Z" fill="#8CA3B8"/>
</svg>
