<svg width="18" height="18" viewBox="0 0 18 18" fill="none" xmlns="http://www.w3.org/2000/svg">
<path d="M13.4297 13.2188C10.2129 13.2188 8.33555 9.55547 8.24766 9.37969C8.22656 9.34102 6.74648 6.46875 4.57031 6.46875C3.13594 6.46875 1.96875 7.6043 1.96875 9C1.96875 10.3957 3.13594 11.5312 4.57031 11.5312C5.32617 11.5312 6.06094 11.2219 6.75703 10.6137C7.10859 10.3078 7.63945 10.343 7.94883 10.6945C8.25469 11.0461 8.21953 11.577 7.86797 11.8863C6.86953 12.7582 5.72695 13.2188 4.57031 13.2188C2.2043 13.2188 0.28125 11.3273 0.28125 9C0.28125 6.67266 2.2043 4.78125 4.57031 4.78125C7.78711 4.78125 9.66445 8.44453 9.75234 8.62031C9.77344 8.65898 11.2535 11.5312 13.4297 11.5312C14.8641 11.5312 16.0312 10.3957 16.0312 9C16.0312 7.6043 14.8641 6.46875 13.4297 6.46875C12.709 6.46875 11.932 6.7957 11.2359 7.38984C10.8809 7.69219 10.35 7.65 10.0477 7.29844C9.74531 6.94336 9.7875 6.4125 10.1391 6.11016C10.8457 5.50547 11.9918 4.78125 13.4297 4.78125C15.7957 4.78125 17.7188 6.67266 17.7188 9C17.7188 11.3273 15.7957 13.2188 13.4297 13.2188Z" fill="#8CA3B8"/>
</svg>
