<svg width="16" height="16" viewBox="0 0 16 16" fill="none" xmlns="http://www.w3.org/2000/svg">
<path fill-rule="evenodd" clip-rule="evenodd" d="M13.1382 3.8047C13.3985 3.54435 13.3985 3.12224 13.1382 2.86189C12.8778 2.60154 12.4557 2.60154 12.1953 2.86189L2.86201 12.1952C2.60166 12.4556 2.60166 12.8777 2.86201 13.138C3.12236 13.3984 3.54447 13.3984 3.80482 13.138L13.1382 3.8047ZM4.66675 3.99996C4.29856 3.99996 4.00008 4.29844 4.00008 4.66663C4.00008 5.03482 4.29856 5.33329 4.66675 5.33329C5.03494 5.33329 5.33341 5.03482 5.33341 4.66663C5.33341 4.29844 5.03494 3.99996 4.66675 3.99996ZM2.66675 4.66663C2.66675 3.56206 3.56218 2.66663 4.66675 2.66663C5.77132 2.66663 6.66675 3.56206 6.66675 4.66663C6.66675 5.7712 5.77132 6.66663 4.66675 6.66663C3.56218 6.66663 2.66675 5.7712 2.66675 4.66663ZM11.3334 10.6666C10.9652 10.6666 10.6667 10.9651 10.6667 11.3333C10.6667 11.7015 10.9652 12 11.3334 12C11.7016 12 12.0001 11.7015 12.0001 11.3333C12.0001 10.9651 11.7016 10.6666 11.3334 10.6666ZM9.33342 11.3333C9.33342 10.2287 10.2288 9.33329 11.3334 9.33329C12.438 9.33329 13.3334 10.2287 13.3334 11.3333C13.3334 12.4379 12.438 13.3333 11.3334 13.3333C10.2288 13.3333 9.33342 12.4379 9.33342 11.3333Z" fill="#8CA3B8"/>
</svg>
