<svg width="17" height="16" viewBox="0 0 17 16" fill="none" xmlns="http://www.w3.org/2000/svg">
<path d="M12.173 1.07289C13.3782 1.79611 14.3711 2.84876 15.0447 4.11729C15.084 4.18808 15.1094 4.26633 15.1194 4.34747C15.1294 4.42861 15.1238 4.51102 15.1028 4.58986C15.0819 4.66871 15.0461 4.74241 14.9976 4.80666C14.949 4.87091 14.8886 4.92441 14.82 4.96405C14.7514 5.00367 14.6759 5.02863 14.5979 5.03746C14.5199 5.04629 14.441 5.03882 14.3658 5.01547C14.2906 4.99212 14.2207 4.95337 14.16 4.90148C14.0994 4.8496 14.0493 4.78562 14.0126 4.71329C13.4428 3.64027 12.6027 2.74998 11.583 2.13855C8.47893 0.269746 4.50989 1.37889 2.71751 4.61608C0.925528 7.85327 1.98908 11.9925 5.09319 13.8617C8.19731 15.7305 12.1663 14.6213 13.9587 11.3842C14.039 11.2472 14.1674 11.1484 14.3166 11.1088C14.4658 11.0692 14.6239 11.092 14.7572 11.1723C14.8905 11.2526 14.9884 11.384 15.0301 11.5385C15.0717 11.6931 15.0538 11.8585 14.9802 11.9994C12.8621 15.8252 8.17174 17.1358 4.50321 14.9269C0.83467 12.7185 -0.422788 7.82661 1.69566 4.00121C3.81371 0.174993 8.50449 -1.13555 12.173 1.07248V1.07289Z" fill="#8CA3B8"/>
<path d="M11.9701 4.62387C12.0104 4.47689 12.1017 4.35082 12.2262 4.27022C12.3508 4.18961 12.4996 4.16025 12.6438 4.18785L12.6993 4.20138L15.4526 5.02175C15.5977 5.06566 15.7212 5.16599 15.7975 5.30204C15.8738 5.43809 15.8971 5.59948 15.8626 5.75294C15.8282 5.9064 15.7386 6.04023 15.6123 6.12681C15.486 6.21339 15.3327 6.24612 15.1839 6.21827L15.1285 6.20473L12.3752 5.38436C12.2248 5.33951 12.0976 5.2342 12.0216 5.09159C11.9457 4.94898 11.9271 4.78075 11.9701 4.62387Z" fill="#8CA3B8"/>
<path d="M15.51 2.5729C15.5521 2.42153 15.6483 2.29278 15.7787 2.2132C15.9092 2.13363 16.0639 2.1093 16.2111 2.14523C16.3583 2.18116 16.4866 2.27462 16.5696 2.40632C16.6526 2.53802 16.684 2.69792 16.6573 2.85305L16.6443 2.91089L15.8577 5.78219C15.8156 5.93356 15.7194 6.06231 15.5889 6.14189C15.4584 6.22146 15.3037 6.24579 15.1565 6.20986C15.0094 6.17392 14.8811 6.08047 14.798 5.94877C14.715 5.81707 14.6836 5.65717 14.7103 5.50204L14.7233 5.4442L15.51 2.5729Z" fill="#8CA3B8"/>
</svg>
