<svg width="24" height="24" viewBox="0 0 24 24" fill="none" xmlns="http://www.w3.org/2000/svg">
<path d="M12 22C17.5228 22 22 17.5228 22 12C22 6.47715 17.5228 2 12 2C6.47715 2 2 6.47715 2 12C2 17.5228 6.47715 22 12 22Z" fill="#1A6DFF"/>
<path d="M11.8 5.5C12.2 5.5 12.6 5.8 12.6 6.3V6.8C13.7 6.9 14.7 7.7 15 8.8C15.1 9.2 14.9 9.6 14.5 9.7C14.1 9.8 13.7 9.6 13.6 9.2C13.5 8.7 13 8.3 12.4 8.3H11.5C10.7 8.3 10.1 8.9 10.1 9.7C10.1 10.5 10.7 11.1 11.5 11.1H12.5C14.2 11.1 15.6 12.5 15.6 14.2C15.6 15.9 14.3 17.3 12.6 17.3V17.8C12.6 18.2 12.3 18.6 11.8 18.6C11.3 18.6 11 18.2 11 17.8V17.3C9.90002 17.2 8.90003 16.4 8.60003 15.3C8.50003 14.9 8.70003 14.5 9.10003 14.4C9.50003 14.3 9.90002 14.5 10 14.9C10.1 15.5 10.6 15.8 11.2 15.8H12.3C13.2 15.8 13.9 15.1 13.9 14.2C13.9 13.3 13.2 12.6 12.3 12.6H11.3C9.70002 12.6 8.40002 11.3 8.40002 9.7C8.50002 8.2 9.60002 7 11 6.8V6.2C11 5.8 11.3 5.5 11.8 5.5Z" fill="white"/>
</svg>
