<svg width="18" height="18" viewBox="0 0 18 18" fill="none" xmlns="http://www.w3.org/2000/svg">
<g clip-path="url(#clip0_4620_140917)">
<path d="M9 18C13.9875 18 18 13.9875 18 9C18 4.01247 13.9875 0 9 0C4.01247 0 0 4.01247 0 9C0 13.9875 4.01247 18 9 18Z" fill="#2775CA"/>
<path d="M11.475 10.4242C11.475 9.11175 10.6875 8.66175 9.11248 8.47428C7.98748 8.32425 7.76248 8.02428 7.76248 7.49922C7.76248 6.97416 8.13751 6.63675 8.88748 6.63675C9.56248 6.63675 9.93751 6.86175 10.125 7.42425C10.1625 7.53675 10.275 7.61172 10.3875 7.61172H10.9875C11.1375 7.61172 11.25 7.49922 11.25 7.34928V7.31175C11.1 6.48672 10.425 5.84925 9.56248 5.77428V4.87428C9.56248 4.72425 9.44998 4.61175 9.26251 4.57422H8.70001C8.54998 4.57422 8.43748 4.68672 8.39995 4.87428V5.73675C7.27495 5.88678 6.56251 6.63675 6.56251 7.57428C6.56251 8.81178 7.31248 9.29922 8.88748 9.48678C9.93751 9.67425 10.275 9.89925 10.275 10.4993C10.275 11.0993 9.74995 11.5118 9.03751 11.5118C8.06245 11.5118 7.72495 11.0992 7.61245 10.5367C7.57501 10.3868 7.46251 10.3117 7.35001 10.3117H6.71245C6.56251 10.3117 6.45001 10.4242 6.45001 10.5742V10.6118C6.59995 11.5492 7.19998 12.2242 8.43748 12.4118V13.3118C8.43748 13.4617 8.54998 13.5742 8.73745 13.6117H9.29995C9.44998 13.6117 9.56248 13.4992 9.60001 13.3118V12.4118C10.725 12.2242 11.475 11.4367 11.475 10.4242Z" fill="white"/>
<path d="M7.0875 14.3624C4.1625 13.3125 2.66247 10.05 3.75003 7.16244C4.31253 5.58744 5.55003 4.38747 7.0875 3.82497C7.23753 3.75 7.3125 3.6375 7.3125 3.44994V2.92497C7.3125 2.77494 7.23753 2.66244 7.0875 2.625C7.04997 2.625 6.975 2.625 6.93747 2.66244C3.375 3.78744 1.42497 7.575 2.54997 11.1375C3.22497 13.2374 4.8375 14.85 6.93747 15.525C7.0875 15.5999 7.23753 15.525 7.27497 15.3749C7.3125 15.3375 7.3125 15.3 7.3125 15.225V14.6999C7.3125 14.5874 7.2 14.4375 7.0875 14.3624ZM11.0625 2.66244C10.9125 2.58747 10.7625 2.66244 10.725 2.81247C10.6875 2.85 10.6875 2.88744 10.6875 2.9625V3.48747C10.6875 3.6375 10.8 3.78744 10.9125 3.8625C13.8375 4.91244 15.3375 8.17494 14.25 11.0625C13.6875 12.6375 12.45 13.8375 10.9125 14.4C10.7625 14.4749 10.6875 14.5874 10.6875 14.775V15.3C10.6875 15.45 10.7625 15.5625 10.9125 15.5999C10.95 15.5999 11.025 15.5999 11.0625 15.5625C14.625 14.4375 16.575 10.6499 15.45 7.08747C14.775 4.94997 13.125 3.33744 11.0625 2.66244Z" fill="white"/>
</g>
<defs>
<clipPath id="clip0_4620_140917">
<rect width="18" height="18" fill="white"/>
</clipPath>
</defs>
</svg>
