<svg xmlns="http://www.w3.org/2000/svg" width="108" height="100" viewBox="0 0 108 100" fill="none"><script xmlns=""/>
<g filter="url(#filter0_f_87_3471)">
<path d="M78.0806 35.2275H80.8229V56.7179H78.0806V35.2275Z" fill="url(#paint0_linear_87_3471)"/>
<path d="M78.0806 38.0441L80.8229 40.7864V35.2275H78.0806V38.0441Z" fill="url(#paint1_linear_87_3471)"/>
<path d="M79.4517 38.2443C81.9637 38.2443 84 36.208 84 33.6961C84 31.1841 81.9637 29.1478 79.4517 29.1478C76.9398 29.1478 74.9035 31.1841 74.9035 33.6961C74.9035 36.208 76.9398 38.2443 79.4517 38.2443Z" fill="url(#paint2_linear_87_3471)"/>
<path d="M79.4518 37.4919C81.5482 37.4919 83.2476 35.7925 83.2476 33.6961C83.2476 31.5997 81.5482 29.9002 79.4518 29.9002C77.3554 29.9002 75.6559 31.5997 75.6559 33.6961C75.6559 35.7925 77.3554 37.4919 79.4518 37.4919Z" fill="url(#paint3_linear_87_3471)"/>
<path d="M81.4864 29.6275C81.8027 30.259 81.9669 30.9557 81.966 31.6621C81.966 34.1739 79.9296 36.2103 77.4178 36.2103C76.6864 36.2103 75.9954 36.0374 75.3832 35.7306C76.13 37.2211 77.6713 38.2443 79.4518 38.2443C81.9638 38.2443 84 36.2079 84 33.6961C84 31.9156 82.9767 30.3742 81.4864 29.6275Z" fill="url(#paint4_linear_87_3471)"/>
<path d="M78.9488 60.6331H76.8984V53.2709H78.9488C80.2134 53.2709 81.2386 54.2961 81.2386 55.5606V58.3434C81.2386 59.6079 80.2134 60.6331 78.9488 60.6331Z" fill="url(#paint5_linear_87_3471)"/>
<path d="M77.7108 53.2709H76.8984V60.6331H78.9488C80.2134 60.6331 81.2386 59.6079 81.2386 58.3434V56.7986L77.7108 53.2709Z" fill="url(#paint6_linear_87_3471)"/>
<path d="M75.5853 62.5276H71.1513V51.3763H75.5853C76.7671 51.3763 77.7252 52.3343 77.7252 53.5162V60.3877C77.7252 61.5696 76.7672 62.5276 75.5853 62.5276Z" fill="url(#paint7_linear_87_3471)"/>
<path d="M73.3974 51.4111L73.4487 51.3763H71.1514V62.5276H75.5854C76.7672 62.5276 77.7253 61.5696 77.7253 60.3877V55.7389L73.3974 51.4111Z" fill="url(#paint8_linear_87_3471)"/>
<path d="M54.646 39.0997H42.7549V35.0933C42.7549 31.8097 45.4168 29.1478 48.7006 29.1478C51.9844 29.1478 54.6461 31.8097 54.6461 35.0933L54.646 39.0997Z" fill="url(#paint9_linear_87_3471)"/>
<path d="M51.4222 29.8071C50.3174 29.2374 49.0219 29.2374 47.9171 29.8071C46.0025 30.7944 44.6932 32.7906 44.6932 35.0933V39.0997H54.6461V35.0933C54.646 32.7906 53.3368 30.7945 51.4222 29.8071Z" fill="url(#paint10_linear_87_3471)"/>
<path d="M48.7005 29.1478C48.2866 29.1478 47.8826 29.1903 47.4926 29.2709C50.1971 29.829 52.2304 32.2237 52.2304 35.0935V39.0998H54.646V35.0935C54.646 31.8097 51.9841 29.1478 48.7005 29.1478Z" fill="url(#paint11_linear_87_3471)"/>
<path d="M48.7004 35.5885C50.9937 35.5885 52.8528 34.245 52.8528 32.5876C52.8528 30.9302 50.9937 29.5866 48.7004 29.5866C46.4072 29.5866 44.5481 30.9302 44.5481 32.5876C44.5481 34.245 46.4072 35.5885 48.7004 35.5885Z" fill="url(#paint12_linear_87_3471)"/>
<path d="M56.5842 40.2879H40.8167V37.0493C40.8167 36.0409 41.6342 35.2234 42.6427 35.2234H54.7582C55.7667 35.2234 56.5842 36.0409 56.5842 37.0493V40.2879Z" fill="url(#paint13_linear_87_3471)"/>
<path d="M56.5843 40.2879V37.0493C56.5843 36.6704 56.4687 36.3185 56.2712 36.0268C56.0241 35.9063 55.7529 35.8437 55.478 35.8436H43.3625C42.354 35.8436 41.5365 36.6611 41.5365 37.6696V40.2879H56.5843Z" fill="url(#paint14_linear_87_3471)"/>
<path d="M68.0776 75.8632H29.3233C27.6256 75.8632 26.2495 74.4871 26.2495 72.7895V41.1145C26.2495 39.4169 27.6256 38.0408 29.3233 38.0408H68.0776C69.7752 38.0408 71.1514 39.4169 71.1514 41.1145V72.7895C71.1514 74.487 69.7752 75.8632 68.0776 75.8632Z" fill="url(#paint15_linear_87_3471)"/>
<path d="M57.3887 43.0926H40.0122C39.2134 43.0926 38.5657 42.445 38.5657 41.6462C38.5657 40.8474 39.2134 40.1997 40.0122 40.1997H57.3887C58.1875 40.1997 58.8351 40.8474 58.8351 41.6462C58.8351 42.4451 58.1875 43.0926 57.3887 43.0926Z" fill="url(#paint16_linear_87_3471)"/>
<path d="M30.6269 39.3444C28.9294 39.3444 27.5532 40.7205 27.5532 42.4182V74.0931C27.5532 74.6062 27.6795 75.0893 27.9018 75.5146C28.3404 75.7442 28.8282 75.8638 29.3233 75.8632H68.0776C69.7752 75.8632 71.1514 74.4871 71.1514 72.7895V41.1145C71.1514 40.6015 71.025 40.1183 70.8028 39.693C70.3642 39.4635 69.8764 39.3439 69.3813 39.3444H30.6269Z" fill="url(#paint17_linear_87_3471)"/>
<path d="M26.2501 66.9439V68.5377L33.5761 75.8637H68.0781C69.7746 75.8637 71.1507 74.4876 71.1507 72.7898V66.9439H26.2501Z" fill="url(#paint18_linear_87_3471)"/>
<path d="M24 47.6937V66.2104C24 67.3625 24.8479 68.3409 25.9888 68.501C41.0969 70.6216 56.304 70.6217 71.4122 68.501C72.5531 68.3409 73.4011 67.3624 73.4011 66.2104V47.6937C73.4011 46.5416 72.5532 45.5632 71.4122 45.4031C56.3041 43.2825 41.0969 43.2824 25.9888 45.4031C24.8479 45.5632 24 46.5416 24 47.6937Z" fill="url(#paint19_linear_87_3471)"/>
<path d="M27.0436 46.2822C25.9028 46.4423 25.0548 47.4208 25.0548 48.5728V67.0895C25.0548 67.5508 25.1925 67.9829 25.4287 68.3471C25.6081 68.4219 25.7963 68.4736 25.9887 68.501C41.0968 70.6216 56.3039 70.6217 71.4121 68.501C72.5529 68.3409 73.4009 67.3624 73.4009 66.2104V47.6937C73.4009 47.2324 73.2633 46.8003 73.027 46.4361C72.8477 46.3612 72.6595 46.3095 72.467 46.2822C57.3589 44.1615 42.1518 44.1615 27.0436 46.2822Z" fill="url(#paint20_linear_87_3471)"/>
<path d="M39.2886 48.7961V65.1079C39.2886 65.5215 38.8853 65.8508 38.4083 65.8242C35.0449 65.6365 31.6873 65.358 28.339 64.9891C27.9254 64.9436 27.616 64.6378 27.616 64.2772V49.6269C27.616 49.2662 27.9254 48.9605 28.339 48.915C31.6873 48.5461 35.0449 48.2676 38.4083 48.0799C38.8853 48.0534 39.2886 48.3825 39.2886 48.7961Z" fill="url(#paint21_linear_87_3471)"/>
<path d="M54.5368 48.5792V65.3248C54.5368 65.7113 54.1825 66.0297 53.736 66.0421C52.0545 66.0889 50.3753 66.1118 48.7019 66.1118H48.7006C47.026 66.1118 45.3467 66.0888 43.6652 66.0421C43.2186 66.0296 42.8644 65.7113 42.8644 65.3248V48.5792C42.8644 48.1926 43.2187 47.8743 43.6652 47.8619C47.0215 47.7687 50.3797 47.7687 53.736 47.8619C54.1825 47.8743 54.5368 48.1926 54.5368 48.5792Z" fill="url(#paint22_linear_87_3471)"/>
<path d="M69.785 49.6269V64.2771C69.785 64.6378 69.4755 64.9435 69.062 64.989C65.7137 65.3579 62.3561 65.6364 58.9927 65.8241C58.5158 65.8506 58.1124 65.5215 58.1124 65.1078V48.7961C58.1124 48.3825 58.5157 48.0532 58.9927 48.0798C62.3561 48.2675 65.7137 48.546 69.062 48.9149C69.4755 48.9605 69.785 49.2662 69.785 49.6269Z" fill="url(#paint23_linear_87_3471)"/>
<path d="M39.2886 48.7963V52.6157C35.3858 52.8414 31.4925 53.2075 27.616 53.7135V49.6274C27.616 49.2661 27.925 48.961 28.3385 48.915C31.6868 48.5466 35.0445 48.2682 38.4078 48.0802C38.8853 48.0534 39.2886 48.3826 39.2886 48.7963Z" fill="url(#paint24_linear_87_3471)"/>
<path d="M54.5368 48.5792V52.4484C50.6472 52.308 46.7539 52.308 42.8643 52.4484V48.5792C42.8643 48.1924 43.2191 47.8746 43.6646 47.8618C45.3471 47.8145 47.0257 47.7916 48.7005 47.7916C50.3753 47.7916 52.0539 47.8145 53.7364 47.8618C54.1819 47.8746 54.5368 48.1924 54.5368 48.5792Z" fill="url(#paint25_linear_87_3471)"/>
<path d="M69.785 49.6272V53.7134C65.9086 53.2072 62.0152 52.8411 58.1124 52.6156V48.7962C58.1124 48.3825 58.5158 48.0532 58.9932 48.0801C62.3565 48.2681 65.7141 48.5464 69.0625 48.9149C69.476 48.9609 69.785 49.2661 69.785 49.6272Z" fill="url(#paint26_linear_87_3471)"/>
<path d="M39.2886 65.1079V52.4679L37.7223 50.9017C37.6556 50.8101 37.5606 50.7223 37.4349 50.6385C37.167 50.4599 36.8961 50.3707 36.6223 50.3707H30.2822C29.9725 50.3707 29.6927 50.4599 29.4428 50.6385C29.068 50.9064 29.0677 51.0136 29.0677 51.2278V53.9962C29.0679 54.2064 29.1723 54.3887 29.3808 54.543L32.7941 57.9576L30.6572 61.6581C30.5738 61.813 30.5321 61.9678 30.5322 62.1224C30.5322 62.4869 30.6903 62.7995 31.0029 63.0615L33.4201 65.4787C35.0812 65.6161 36.744 65.7312 38.4082 65.8241C38.8853 65.8508 39.2886 65.5215 39.2886 65.1079Z" fill="url(#paint27_linear_87_3471)"/>
<path d="M29.0677 53.9962V51.2278C29.0677 51.0135 29.1928 50.817 29.4428 50.6385C29.6928 50.4599 29.9726 50.3707 30.2822 50.3707H36.6225C36.8963 50.3707 37.1671 50.4599 37.435 50.6385C37.703 50.8171 37.8369 51.0136 37.8369 51.2278V53.4603C37.8369 53.8772 37.6464 54.4427 37.2654 55.157L33.0861 63.1582C32.955 63.4082 32.6931 63.5332 32.3002 63.5332C31.8477 63.5334 31.4399 63.3965 31.0769 63.1224C30.7136 62.8487 30.5321 62.5153 30.5322 62.1223C30.5322 61.9676 30.5739 61.8128 30.6572 61.6579L35.0507 54.0496V52.7995H31.8539V53.9961C31.8539 54.2344 31.711 54.4368 31.4252 54.6032C31.1393 54.7701 30.8119 54.8534 30.4429 54.8534C30.0618 54.8534 29.7374 54.7701 29.4695 54.6032C29.2017 54.4369 29.0677 54.2345 29.0677 53.9962Z" fill="url(#paint28_linear_87_3471)"/>
<path d="M32.3003 63.1228C31.9359 63.1228 31.6167 63.0155 31.3243 62.7949C30.9823 62.5372 30.9429 62.2878 30.9429 62.1225C30.9429 62.0374 30.9669 61.9506 31.0162 61.8576L35.4614 54.1598V52.389H31.4432V53.9962C31.4432 54.0768 31.3675 54.1617 31.2183 54.2486C30.9944 54.3794 30.7409 54.4429 30.4428 54.4429C30.1369 54.4429 29.8896 54.3814 29.6866 54.2549C29.4783 54.1254 29.4783 54.0316 29.4783 53.9962V51.2278C29.4783 51.1319 29.6055 51.0268 29.6814 50.9726C29.8617 50.8438 30.0583 50.7812 30.2822 50.7812H36.6224C36.8152 50.7812 37.0065 50.8463 37.2073 50.9802C37.3444 51.0716 37.4263 51.1642 37.4263 51.2278V53.4603C37.4263 53.6985 37.3355 54.1526 36.9032 54.9638L32.7223 62.9682C32.7023 63.0059 32.6412 63.1228 32.3003 63.1228Z" fill="url(#paint29_linear_87_3471)"/>
<path d="M54.5369 52.4676V65.3248C54.5369 65.7116 54.1819 66.0293 53.7365 66.0422C52.2545 66.0843 50.775 66.1061 49.3006 66.1111L46.265 63.0755L46.251 63.0615C45.9383 62.7998 45.7799 62.487 45.7799 62.1219C45.7799 61.9675 45.822 61.813 45.905 61.6585L48.0419 57.9578L44.6285 54.5431C44.4204 54.3886 44.3158 54.2061 44.3158 53.9955V51.2279C44.3158 51.0135 44.4409 50.8169 44.6911 50.6382C45.0664 50.3701 45.2209 50.3701 45.5311 50.3701H51.8704C52.1449 50.3701 52.4154 50.4595 52.6836 50.6382C52.8086 50.7224 52.9044 50.8105 52.9707 50.9011L54.5369 52.4676Z" fill="url(#paint30_linear_87_3471)"/>
<path d="M54.5368 52.4676V65.3248C54.5368 65.7116 54.1819 66.0294 53.7365 66.0422C52.2545 66.0843 50.775 66.1061 49.3006 66.1111L46.265 63.0755C46.2841 63.0908 46.3045 63.1074 46.325 63.1228C46.6887 63.3972 47.096 63.5338 47.5492 63.5338C47.941 63.5338 48.2027 63.4087 48.3342 63.1585L52.5137 55.1572C52.8941 54.4424 53.0855 53.8769 53.0855 53.4608V51.2281C53.0855 51.1157 53.0485 51.0072 52.9732 50.9038L54.5368 52.4676Z" fill="url(#paint31_linear_87_3471)"/>
<path d="M44.3159 53.9962V51.2278C44.3159 51.0135 44.4409 50.817 44.6909 50.6385C44.9409 50.4599 45.2207 50.3707 45.5303 50.3707H51.8706C52.1444 50.3707 52.4152 50.4599 52.6832 50.6385C53.085 50.9064 53.085 51.0136 53.085 51.2278V53.4603C53.085 53.8772 52.8945 54.4427 52.5135 55.157L48.3343 63.1582C48.2033 63.4082 47.9413 63.5332 47.5484 63.5332C47.0958 63.5334 46.688 63.3965 46.325 63.1224C45.9617 62.8487 45.7802 62.5153 45.7803 62.1223C45.7803 61.9676 45.822 61.8128 45.9053 61.6579L50.2988 54.0496V52.7995H47.1019V53.9961C47.1019 54.2344 46.959 54.4368 46.6732 54.6032C46.3873 54.7701 46.0599 54.8534 45.6909 54.8534C45.3098 54.8534 44.9853 54.7701 44.7175 54.6032C44.4497 54.4369 44.3159 54.2345 44.3159 53.9962Z" fill="url(#paint32_linear_87_3471)"/>
<path d="M47.5484 63.1228C47.184 63.1228 46.8648 63.0155 46.5724 62.7949C46.2304 62.5372 46.1909 62.2878 46.1909 62.1225C46.1909 62.0374 46.2149 61.9506 46.2642 61.8576L50.7094 54.1598V52.389H46.6913V53.9962C46.6913 54.0768 46.6156 54.1617 46.4664 54.2486C46.2426 54.3794 45.989 54.4429 45.6909 54.4429C45.385 54.4429 45.1377 54.3814 44.9347 54.2549C44.7264 54.1254 44.7264 54.0316 44.7264 53.9962V51.2278C44.7264 51.1319 44.8536 51.0268 44.9295 50.9726C45.1099 50.8438 45.3064 50.7812 45.5303 50.7812H51.8706C52.0633 50.7812 52.2546 50.8463 52.4554 50.9802C52.5926 51.0716 52.6744 51.1642 52.6744 51.2278V53.4603C52.6744 53.6985 52.5836 54.1526 52.1513 54.9638L47.9704 62.9682C47.9506 63.0059 47.8893 63.1228 47.5484 63.1228Z" fill="url(#paint33_linear_87_3471)"/>
<path d="M69.785 52.4676V64.2768C69.785 64.6381 69.476 64.9431 69.0625 64.9891C67.3593 65.1765 65.6537 65.3407 63.9461 65.4818H63.9435C63.9346 65.4805 63.9257 65.4805 63.9167 65.4792L61.499 63.0615C61.1863 62.7998 61.0279 62.487 61.0279 62.1219C61.0279 61.9675 61.07 61.813 61.153 61.6585L63.2899 57.9578L59.8765 54.5431C59.6684 54.3886 59.5638 54.2061 59.5638 53.9955V51.2279C59.5638 51.0135 59.6889 50.8169 59.9391 50.6382C60.3144 50.3701 60.4688 50.3701 60.7791 50.3701H67.1184C67.3928 50.3701 67.6634 50.4595 67.9315 50.6382C68.0566 50.7224 68.1524 50.8105 68.2187 50.9011L69.785 52.4676Z" fill="url(#paint34_linear_87_3471)"/>
<path d="M69.7849 52.4676V64.2768C69.7849 64.6381 69.476 64.9431 69.0625 64.9891C67.3585 65.1765 65.6521 65.3407 63.9437 65.4818C63.9347 65.4805 63.9258 65.4805 63.9168 65.4792L61.5131 63.0755C61.5322 63.0908 61.5526 63.1074 61.5731 63.1228C61.9368 63.3972 62.3441 63.5338 62.7973 63.5338C63.1891 63.5338 63.4508 63.4087 63.5824 63.1585L67.7618 55.1572C68.1421 54.4424 68.3337 53.8769 68.3337 53.4608V51.2281C68.3337 51.1157 68.2966 51.0072 68.2213 50.9038L69.7849 52.4676Z" fill="url(#paint35_linear_87_3471)"/>
<path d="M59.564 53.9962V51.2278C59.564 51.0135 59.689 50.817 59.9391 50.6385C60.189 50.4599 60.4688 50.3707 60.7785 50.3707H67.1187C67.3925 50.3707 67.6634 50.4599 67.9313 50.6385C68.3332 50.9064 68.3332 51.0136 68.3332 51.2278V53.4603C68.3332 53.8772 68.1427 54.4427 67.7617 55.157L63.5825 63.1582C63.4514 63.4082 63.1895 63.5332 62.7966 63.5332C62.344 63.5334 61.9362 63.3965 61.5733 63.1224C61.21 62.8487 61.0285 62.5153 61.0286 62.1223C61.0286 61.9676 61.0703 61.8128 61.1536 61.6579L65.5471 54.0496V52.7995H62.3501V53.9961C62.3501 54.2344 62.2072 54.4368 61.9214 54.6032C61.6356 54.7701 61.3081 54.8534 60.9392 54.8534C60.5582 54.8534 60.2337 54.7701 59.9658 54.6032C59.6979 54.4369 59.564 54.2345 59.564 53.9962Z" fill="url(#paint36_linear_87_3471)"/>
<path d="M62.7966 63.1228C62.4321 63.1228 62.113 63.0155 61.8206 62.7949C61.4786 62.5372 61.4392 62.2878 61.4392 62.1225C61.4392 62.0374 61.4632 61.9506 61.5125 61.8576L65.9577 54.1598V52.389H61.9396V53.9962C61.9396 54.0768 61.8639 54.1617 61.7147 54.2486C61.491 54.3794 61.2373 54.4429 60.9392 54.4429C60.6333 54.4429 60.386 54.3814 60.183 54.2549C59.9747 54.1254 59.9747 54.0316 59.9747 53.9962V51.2278C59.9747 51.1319 60.1019 51.0268 60.1778 50.9726C60.3581 50.8438 60.5547 50.7812 60.7786 50.7812H67.1188C67.3116 50.7812 67.5029 50.8463 67.7036 50.9802C67.8407 51.0716 67.9226 51.1642 67.9226 51.2278V53.4603C67.9226 53.6985 67.8318 54.1526 67.3994 54.9638L63.2186 62.9682C63.1987 63.0059 63.1376 63.1228 62.7966 63.1228Z" fill="url(#paint37_linear_87_3471)"/>
<path d="M39.2886 52.4676V65.1078C39.2886 65.5214 38.8852 65.8508 38.4078 65.8239C36.7438 65.7314 35.0812 65.6165 33.4204 65.4792L31.0167 63.0755C31.0359 63.0908 31.0563 63.1074 31.0767 63.1228C31.4405 63.3972 31.8478 63.5338 32.301 63.5338C32.6929 63.5338 32.9546 63.4087 33.086 63.1585L37.2654 55.1572C37.6458 54.4424 37.8373 53.8769 37.8373 53.4608V51.2281C37.8373 51.1157 37.8003 51.0072 37.725 50.9038L39.2886 52.4676Z" fill="url(#paint38_linear_87_3471)"/>
<path d="M49.6199 26.8337V24.9194C49.6199 24.6755 49.523 24.4417 49.3506 24.2692C49.1782 24.0968 48.9443 23.9999 48.7005 23.9999C48.4566 23.9999 48.2228 24.0968 48.0504 24.2692C47.8779 24.4417 47.7811 24.6755 47.7811 24.9194V26.8337C47.7811 26.9544 47.8048 27.074 47.851 27.1856C47.8972 27.2971 47.9649 27.3985 48.0503 27.4839C48.1357 27.5692 48.2371 27.637 48.3486 27.6832C48.4602 27.7294 48.5797 27.7531 48.7005 27.7531C48.8212 27.7531 48.9408 27.7294 49.0523 27.6832C49.1639 27.637 49.2653 27.5692 49.3506 27.4839C49.436 27.3985 49.5037 27.2971 49.5499 27.1856C49.5961 27.074 49.6199 26.9544 49.6199 26.8337Z" fill="url(#paint39_linear_87_3471)"/>
<path d="M56.1074 33.8828H58.0218C58.2656 33.8828 58.4995 33.7859 58.6719 33.6135C58.8443 33.441 58.9412 33.2072 58.9412 32.9633C58.9412 32.7195 58.8443 32.4856 58.6719 32.3132C58.4995 32.1408 58.2656 32.0439 58.0218 32.0439H56.1074C55.8636 32.0439 55.6297 32.1408 55.4573 32.3132C55.2849 32.4856 55.188 32.7195 55.188 32.9633C55.188 33.2072 55.2849 33.441 55.4573 33.6135C55.6297 33.7859 55.8636 33.8828 56.1074 33.8828Z" fill="url(#paint40_linear_87_3471)"/>
<path d="M39.3792 33.8828H41.2937C41.5375 33.8828 41.7714 33.7859 41.9438 33.6135C42.1162 33.441 42.2131 33.2072 42.2131 32.9633C42.2131 32.7195 42.1162 32.4856 41.9438 32.3132C41.7714 32.1408 41.5375 32.0439 41.2937 32.0439H39.3792C39.1353 32.0439 38.9015 32.1408 38.7291 32.3132C38.5566 32.4856 38.4598 32.7195 38.4598 32.9633C38.4598 33.2072 38.5566 33.441 38.7291 33.6135C38.9015 33.7859 39.1353 33.8828 39.3792 33.8828Z" fill="url(#paint41_linear_87_3471)"/>
<path d="M54.4366 29.2939L55.7902 27.9403C55.8756 27.8549 55.9433 27.7535 55.9895 27.642C56.0357 27.5304 56.0595 27.4109 56.0595 27.2901C56.0595 27.1694 56.0357 27.0498 55.9895 26.9383C55.9433 26.8267 55.8756 26.7254 55.7902 26.64C55.7048 26.5546 55.6034 26.4869 55.4919 26.4407C55.3803 26.3945 55.2608 26.3707 55.14 26.3707C55.0193 26.3707 54.8997 26.3945 54.7882 26.4407C54.6766 26.4869 54.5753 26.5547 54.4899 26.6401L53.1362 27.9937C52.9676 28.1669 52.874 28.3996 52.8756 28.6413C52.8773 28.883 52.974 29.1144 53.145 29.2853C53.3159 29.4563 53.5473 29.553 53.789 29.5546C54.0308 29.5562 54.2634 29.4626 54.4366 29.2939Z" fill="url(#paint42_linear_87_3471)"/>
<path d="M41.6107 27.9402L42.9644 29.2938C43.1376 29.4624 43.3703 29.5561 43.612 29.5544C43.8537 29.5528 44.0851 29.456 44.256 29.2851C44.4269 29.1142 44.5237 28.8828 44.5253 28.641C44.5269 28.3993 44.4332 28.1667 44.2646 27.9935L42.911 26.6398C42.7377 26.4712 42.5051 26.3776 42.2634 26.3792C42.0216 26.3808 41.7903 26.4776 41.6193 26.6485C41.4484 26.8195 41.3517 27.0509 41.3501 27.2926C41.3484 27.5343 41.4421 27.767 41.6107 27.9402Z" fill="url(#paint43_linear_87_3471)"/>
</g>
<g clip-path="url(#clip1_87_3471)">
<path d="M78.0806 35.4289H80.8229V56.9194H78.0806V35.4289Z" fill="url(#paint44_linear_87_3471)"/>
<path d="M78.0806 38.2455L80.8229 40.9878V35.4289H78.0806V38.2455Z" fill="url(#paint45_linear_87_3471)"/>
<path d="M79.4517 38.4457C81.9637 38.4457 84 36.4094 84 33.8975C84 31.3856 81.9637 29.3492 79.4517 29.3492C76.9398 29.3492 74.9035 31.3856 74.9035 33.8975C74.9035 36.4094 76.9398 38.4457 79.4517 38.4457Z" fill="url(#paint46_linear_87_3471)"/>
<path d="M79.4518 37.6934C81.5482 37.6934 83.2476 35.9939 83.2476 33.8975C83.2476 31.8011 81.5482 30.1016 79.4518 30.1016C77.3554 30.1016 75.6559 31.8011 75.6559 33.8975C75.6559 35.9939 77.3554 37.6934 79.4518 37.6934Z" fill="url(#paint47_linear_87_3471)"/>
<path d="M81.4864 29.8289C81.8027 30.4604 81.9669 31.1572 81.966 31.8635C81.966 34.3754 79.9296 36.4117 77.4178 36.4117C76.6864 36.4117 75.9954 36.2388 75.3832 35.9321C76.13 37.4225 77.6713 38.4457 79.4518 38.4457C81.9638 38.4457 84 36.4094 84 33.8975C84 32.117 82.9767 30.5756 81.4864 29.8289Z" fill="url(#paint48_linear_87_3471)"/>
<path d="M78.9488 60.8345H76.8984V53.4723H78.9488C80.2134 53.4723 81.2386 54.4975 81.2386 55.7621V58.5448C81.2386 59.8094 80.2134 60.8345 78.9488 60.8345Z" fill="url(#paint49_linear_87_3471)"/>
<path d="M77.7108 53.4723H76.8984V60.8345H78.9488C80.2134 60.8345 81.2386 59.8094 81.2386 58.5448V57.0001L77.7108 53.4723Z" fill="url(#paint50_linear_87_3471)"/>
<path d="M75.5853 62.729H71.1513V51.5777H75.5853C76.7671 51.5777 77.7252 52.5357 77.7252 53.7176V60.5891C77.7252 61.771 76.7672 62.729 75.5853 62.729Z" fill="url(#paint51_linear_87_3471)"/>
<path d="M73.3974 51.6125L73.4487 51.5777H71.1514V62.729H75.5854C76.7672 62.729 77.7253 61.771 77.7253 60.5891V55.9403L73.3974 51.6125Z" fill="url(#paint52_linear_87_3471)"/>
<path d="M54.646 39.3011H42.7549V35.2948C42.7549 32.0111 45.4168 29.3492 48.7006 29.3492C51.9844 29.3492 54.6461 32.0111 54.6461 35.2948L54.646 39.3011Z" fill="url(#paint53_linear_87_3471)"/>
<path d="M51.4222 30.0085C50.3174 29.4388 49.0219 29.4388 47.9171 30.0085C46.0025 30.9958 44.6932 32.9921 44.6932 35.2948V39.3011H54.6461V35.2948C54.646 32.9921 53.3368 30.9959 51.4222 30.0085Z" fill="url(#paint54_linear_87_3471)"/>
<path d="M48.7005 29.3492C48.2866 29.3492 47.8826 29.3917 47.4926 29.4723C50.1971 30.0304 52.2304 32.4251 52.2304 35.2949V39.3012H54.646V35.2949C54.646 32.0111 51.9841 29.3492 48.7005 29.3492Z" fill="url(#paint55_linear_87_3471)"/>
<path d="M48.7004 35.7899C50.9937 35.7899 52.8528 34.4464 52.8528 32.789C52.8528 31.1316 50.9937 29.7881 48.7004 29.7881C46.4072 29.7881 44.5481 31.1316 44.5481 32.789C44.5481 34.4464 46.4072 35.7899 48.7004 35.7899Z" fill="url(#paint56_linear_87_3471)"/>
<path d="M56.5842 40.4894H40.8167V37.2508C40.8167 36.2423 41.6342 35.4248 42.6427 35.4248H54.7582C55.7667 35.4248 56.5842 36.2423 56.5842 37.2508V40.4894Z" fill="url(#paint57_linear_87_3471)"/>
<path d="M56.5843 40.4894V37.2508C56.5843 36.8718 56.4687 36.5199 56.2712 36.2282C56.0241 36.1077 55.7529 36.0451 55.478 36.045H43.3625C42.354 36.045 41.5365 36.8625 41.5365 37.871V40.4894H56.5843Z" fill="url(#paint58_linear_87_3471)"/>
<path d="M68.0776 76.0647H29.3233C27.6256 76.0647 26.2495 74.6885 26.2495 72.9909V41.3159C26.2495 39.6183 27.6256 38.2422 29.3233 38.2422H68.0776C69.7752 38.2422 71.1514 39.6183 71.1514 41.3159V72.9909C71.1514 74.6884 69.7752 76.0647 68.0776 76.0647Z" fill="url(#paint59_linear_87_3471)"/>
<path d="M57.3887 43.2941H40.0122C39.2134 43.2941 38.5657 42.6464 38.5657 41.8476C38.5657 41.0488 39.2134 40.4011 40.0122 40.4011H57.3887C58.1875 40.4011 58.8351 41.0488 58.8351 41.8476C58.8351 42.6465 58.1875 43.2941 57.3887 43.2941Z" fill="url(#paint60_linear_87_3471)"/>
<path d="M30.6269 39.5458C28.9294 39.5458 27.5532 40.9219 27.5532 42.6196V74.2945C27.5532 74.8076 27.6795 75.2908 27.9018 75.7161C28.3404 75.9456 28.8282 76.0652 29.3233 76.0646H68.0776C69.7752 76.0646 71.1514 74.6885 71.1514 72.9909V41.3159C71.1514 40.8029 71.025 40.3197 70.8028 39.8944C70.3642 39.6649 69.8764 39.5453 69.3813 39.5458H30.6269Z" fill="url(#paint61_linear_87_3471)"/>
<path d="M26.2501 67.1454V68.7391L33.5761 76.0651H68.0781C69.7746 76.0651 71.1507 74.689 71.1507 72.9912V67.1454H26.2501Z" fill="url(#paint62_linear_87_3471)"/>
<path d="M24 47.8951V66.4118C24 67.5639 24.8479 68.5423 25.9888 68.7024C41.0969 70.823 56.304 70.8231 71.4122 68.7024C72.5531 68.5423 73.4011 67.5638 73.4011 66.4118V47.8951C73.4011 46.743 72.5532 45.7646 71.4122 45.6045C56.3041 43.4839 41.0969 43.4838 25.9888 45.6045C24.8479 45.7646 24 46.743 24 47.8951Z" fill="url(#paint63_linear_87_3471)"/>
<path d="M27.0436 46.4836C25.9028 46.6437 25.0548 47.6222 25.0548 48.7742V67.2909C25.0548 67.7522 25.1925 68.1843 25.4287 68.5485C25.6081 68.6233 25.7963 68.675 25.9887 68.7024C41.0968 70.823 56.3039 70.8231 71.4121 68.7024C72.5529 68.5423 73.4009 67.5638 73.4009 66.4118V47.8951C73.4009 47.4338 73.2633 47.0017 73.027 46.6375C72.8477 46.5627 72.6595 46.511 72.467 46.4836C57.3589 44.3629 42.1518 44.3629 27.0436 46.4836Z" fill="url(#paint64_linear_87_3471)"/>
<path d="M39.2886 48.9975V65.3094C39.2886 65.7229 38.8853 66.0522 38.4083 66.0256C35.0449 65.8379 31.6873 65.5594 28.339 65.1905C27.9254 65.145 27.616 64.8392 27.616 64.4787V49.8283C27.616 49.4676 27.9254 49.1619 28.339 49.1164C31.6873 48.7475 35.0449 48.4691 38.4083 48.2814C38.8853 48.2548 39.2886 48.5839 39.2886 48.9975Z" fill="url(#paint65_linear_87_3471)"/>
<path d="M54.5368 48.7806V65.5262C54.5368 65.9128 54.1825 66.2311 53.736 66.2435C52.0545 66.2903 50.3753 66.3132 48.7019 66.3132H48.7006C47.026 66.3132 45.3467 66.2902 43.6652 66.2435C43.2186 66.231 42.8644 65.9128 42.8644 65.5262V48.7806C42.8644 48.3941 43.2187 48.0757 43.6652 48.0634C47.0215 47.9702 50.3797 47.9702 53.736 48.0634C54.1825 48.0757 54.5368 48.3941 54.5368 48.7806Z" fill="url(#paint66_linear_87_3471)"/>
<path d="M69.785 49.8283V64.4785C69.785 64.8392 69.4755 65.1449 69.062 65.1904C65.7137 65.5593 62.3561 65.8378 58.9927 66.0255C58.5158 66.0521 58.1124 65.7229 58.1124 65.3092V48.9975C58.1124 48.5839 58.5157 48.2546 58.9927 48.2812C62.3561 48.4689 65.7137 48.7474 69.062 49.1163C69.4755 49.1619 69.785 49.4676 69.785 49.8283Z" fill="url(#paint67_linear_87_3471)"/>
<path d="M39.2886 48.9977V52.8171C35.3858 53.0428 31.4925 53.409 27.616 53.9149V49.8288C27.616 49.4675 27.925 49.1624 28.3385 49.1164C31.6868 48.748 35.0445 48.4696 38.4078 48.2816C38.8853 48.2548 39.2886 48.5841 39.2886 48.9977Z" fill="url(#paint68_linear_87_3471)"/>
<path d="M54.5368 48.7807V52.6498C50.6472 52.5094 46.7539 52.5094 42.8643 52.6498V48.7807C42.8643 48.3938 43.2191 48.0761 43.6646 48.0632C45.3471 48.0159 47.0257 47.993 48.7005 47.993C50.3753 47.993 52.0539 48.0159 53.7364 48.0632C54.1819 48.0761 54.5368 48.3938 54.5368 48.7807Z" fill="url(#paint69_linear_87_3471)"/>
<path d="M69.785 49.8287V53.9148C65.9086 53.4086 62.0152 53.0425 58.1124 52.817V48.9976C58.1124 48.5839 58.5158 48.2547 58.9932 48.2815C62.3565 48.4695 65.7141 48.7479 69.0625 49.1163C69.476 49.1623 69.785 49.4675 69.785 49.8287Z" fill="url(#paint70_linear_87_3471)"/>
<path d="M39.2886 65.3094V52.6694L37.7223 51.1031C37.6556 51.0115 37.5606 50.9237 37.4349 50.8399C37.167 50.6614 36.8961 50.5721 36.6223 50.5721H30.2822C29.9725 50.5721 29.6927 50.6614 29.4428 50.8399C29.068 51.1078 29.0677 51.215 29.0677 51.4292V54.1976C29.0679 54.4078 29.1723 54.5901 29.3808 54.7444L32.7941 58.159L30.6572 61.8595C30.5738 62.0145 30.5321 62.1692 30.5322 62.3238C30.5322 62.6883 30.6903 63.0009 31.0029 63.2629L33.4201 65.6801C35.0812 65.8175 36.744 65.9326 38.4082 66.0255C38.8853 66.0522 39.2886 65.7229 39.2886 65.3094Z" fill="url(#paint71_linear_87_3471)"/>
<path d="M29.0677 54.1976V51.4292C29.0677 51.2149 29.1928 51.0185 29.4428 50.8399C29.6928 50.6614 29.9726 50.5721 30.2822 50.5721H36.6225C36.8963 50.5721 37.1671 50.6614 37.435 50.8399C37.703 51.0185 37.8369 51.215 37.8369 51.4292V53.6617C37.8369 54.0786 37.6464 54.6441 37.2654 55.3584L33.0861 63.3596C32.955 63.6096 32.6931 63.7347 32.3002 63.7347C31.8477 63.7348 31.4399 63.5979 31.0769 63.3238C30.7136 63.0501 30.5321 62.7167 30.5322 62.3237C30.5322 62.169 30.5739 62.0143 30.6572 61.8594L35.0507 54.251V53.0009H31.8539V54.1975C31.8539 54.4358 31.711 54.6382 31.4252 54.8047C31.1393 54.9715 30.8119 55.0549 30.4429 55.0548C30.0618 55.0549 29.7374 54.9715 29.4695 54.8047C29.2017 54.6383 29.0677 54.4359 29.0677 54.1976Z" fill="url(#paint72_linear_87_3471)"/>
<path d="M32.3003 63.3242C31.9359 63.3242 31.6167 63.2169 31.3243 62.9963C30.9823 62.7387 30.9429 62.4892 30.9429 62.3239C30.9429 62.2388 30.9669 62.1521 31.0162 62.059L35.4614 54.3612V52.5904H31.4432V54.1976C31.4432 54.2782 31.3675 54.3631 31.2183 54.4501C30.9944 54.5808 30.7409 54.6443 30.4428 54.6443C30.1369 54.6443 29.8896 54.5828 29.6866 54.4563C29.4783 54.3268 29.4783 54.233 29.4783 54.1976V51.4292C29.4783 51.3334 29.6055 51.2282 29.6814 51.1741C29.8617 51.0452 30.0583 50.9827 30.2822 50.9827H36.6224C36.8152 50.9827 37.0065 51.0477 37.2073 51.1816C37.3444 51.273 37.4263 51.3656 37.4263 51.4292V53.6617C37.4263 53.8999 37.3355 54.3541 36.9032 55.1652L32.7223 63.1696C32.7023 63.2074 32.6412 63.3242 32.3003 63.3242Z" fill="url(#paint73_linear_87_3471)"/>
<path d="M54.5369 52.669V65.5262C54.5369 65.913 54.1819 66.2308 53.7365 66.2436C52.2545 66.2857 50.775 66.3075 49.3006 66.3125L46.265 63.2769L46.251 63.2629C45.9383 63.0012 45.7799 62.6884 45.7799 62.3234C45.7799 62.1689 45.822 62.0144 45.905 61.8599L48.0419 58.1592L44.6285 54.7445C44.4204 54.5901 44.3158 54.4075 44.3158 54.1969V51.4294C44.3158 51.2149 44.4409 51.0183 44.6911 50.8396C45.0664 50.5715 45.2209 50.5715 45.5311 50.5715H51.8704C52.1449 50.5715 52.4154 50.6609 52.6836 50.8396C52.8086 50.9238 52.9044 51.0119 52.9707 51.1025L54.5369 52.669Z" fill="url(#paint74_linear_87_3471)"/>
<path d="M54.5368 52.669V65.5262C54.5368 65.913 54.1819 66.2308 53.7365 66.2436C52.2545 66.2857 50.775 66.3075 49.3006 66.3125L46.265 63.2769C46.2841 63.2922 46.3045 63.3088 46.325 63.3242C46.6887 63.5987 47.096 63.7352 47.5492 63.7352C47.941 63.7352 48.2027 63.6101 48.3342 63.3599L52.5137 55.3587C52.8941 54.6438 53.0855 54.0783 53.0855 53.6622V51.4295C53.0855 51.3171 53.0485 51.2087 52.9732 51.1052L54.5368 52.669Z" fill="url(#paint75_linear_87_3471)"/>
<path d="M44.3159 54.1976V51.4292C44.3159 51.2149 44.4409 51.0185 44.6909 50.8399C44.9409 50.6614 45.2207 50.5721 45.5303 50.5721H51.8706C52.1444 50.5721 52.4152 50.6614 52.6832 50.8399C53.085 51.1078 53.085 51.215 53.085 51.4292V53.6617C53.085 54.0786 52.8945 54.6441 52.5135 55.3584L48.3343 63.3596C48.2033 63.6096 47.9413 63.7347 47.5484 63.7347C47.0958 63.7348 46.688 63.5979 46.325 63.3238C45.9617 63.0501 45.7802 62.7167 45.7803 62.3237C45.7803 62.169 45.822 62.0143 45.9053 61.8594L50.2988 54.251V53.0009H47.1019V54.1975C47.1019 54.4358 46.959 54.6382 46.6732 54.8047C46.3873 54.9715 46.0599 55.0549 45.6909 55.0548C45.3098 55.0549 44.9853 54.9715 44.7175 54.8047C44.4497 54.6383 44.3159 54.4359 44.3159 54.1976Z" fill="url(#paint76_linear_87_3471)"/>
<path d="M47.5484 63.3242C47.184 63.3242 46.8648 63.2169 46.5724 62.9963C46.2304 62.7387 46.1909 62.4892 46.1909 62.3239C46.1909 62.2388 46.2149 62.1521 46.2642 62.059L50.7094 54.3612V52.5904H46.6913V54.1976C46.6913 54.2782 46.6156 54.3631 46.4664 54.4501C46.2426 54.5808 45.989 54.6443 45.6909 54.6443C45.385 54.6443 45.1377 54.5828 44.9347 54.4563C44.7264 54.3268 44.7264 54.233 44.7264 54.1976V51.4292C44.7264 51.3334 44.8536 51.2282 44.9295 51.1741C45.1099 51.0452 45.3064 50.9827 45.5303 50.9827H51.8706C52.0633 50.9827 52.2546 51.0477 52.4554 51.1816C52.5926 51.273 52.6744 51.3656 52.6744 51.4292V53.6617C52.6744 53.8999 52.5836 54.3541 52.1513 55.1652L47.9704 63.1696C47.9506 63.2074 47.8893 63.3242 47.5484 63.3242Z" fill="url(#paint77_linear_87_3471)"/>
<path d="M69.785 52.669V64.4782C69.785 64.8395 69.476 65.1445 69.0625 65.1905C67.3593 65.3779 65.6537 65.5422 63.9461 65.6832H63.9435C63.9346 65.6819 63.9257 65.6819 63.9167 65.6806L61.499 63.2629C61.1863 63.0012 61.0279 62.6884 61.0279 62.3234C61.0279 62.1689 61.07 62.0144 61.153 61.8599L63.2899 58.1592L59.8765 54.7445C59.6684 54.5901 59.5638 54.4075 59.5638 54.1969V51.4294C59.5638 51.2149 59.6889 51.0183 59.9391 50.8396C60.3144 50.5715 60.4688 50.5715 60.7791 50.5715H67.1184C67.3928 50.5715 67.6634 50.6609 67.9315 50.8396C68.0566 50.9238 68.1524 51.0119 68.2187 51.1025L69.785 52.669Z" fill="url(#paint78_linear_87_3471)"/>
<path d="M69.7849 52.669V64.4782C69.7849 64.8395 69.476 65.1445 69.0625 65.1905C67.3585 65.3779 65.6521 65.5422 63.9437 65.6832C63.9347 65.6819 63.9258 65.6819 63.9168 65.6807L61.5131 63.2769C61.5322 63.2922 61.5526 63.3088 61.5731 63.3242C61.9368 63.5987 62.3441 63.7352 62.7973 63.7352C63.1891 63.7352 63.4508 63.6101 63.5824 63.3599L67.7618 55.3587C68.1421 54.6438 68.3337 54.0783 68.3337 53.6622V51.4295C68.3337 51.3171 68.2966 51.2087 68.2213 51.1052L69.7849 52.669Z" fill="url(#paint79_linear_87_3471)"/>
<path d="M59.564 54.1976V51.4292C59.564 51.2149 59.689 51.0185 59.9391 50.8399C60.189 50.6614 60.4688 50.5721 60.7785 50.5721H67.1187C67.3925 50.5721 67.6634 50.6614 67.9313 50.8399C68.3332 51.1078 68.3332 51.215 68.3332 51.4292V53.6617C68.3332 54.0786 68.1427 54.6441 67.7617 55.3584L63.5825 63.3596C63.4514 63.6096 63.1895 63.7347 62.7966 63.7347C62.344 63.7348 61.9362 63.5979 61.5733 63.3238C61.21 63.0501 61.0285 62.7167 61.0286 62.3237C61.0286 62.169 61.0703 62.0143 61.1536 61.8594L65.5471 54.251V53.0009H62.3501V54.1975C62.3501 54.4358 62.2072 54.6382 61.9214 54.8047C61.6356 54.9715 61.3081 55.0549 60.9392 55.0548C60.5582 55.0549 60.2337 54.9715 59.9658 54.8047C59.6979 54.6383 59.564 54.4359 59.564 54.1976Z" fill="url(#paint80_linear_87_3471)"/>
<path d="M62.7966 63.3242C62.4321 63.3242 62.113 63.2169 61.8206 62.9963C61.4786 62.7387 61.4392 62.4892 61.4392 62.3239C61.4392 62.2388 61.4632 62.1521 61.5125 62.059L65.9577 54.3612V52.5904H61.9396V54.1976C61.9396 54.2782 61.8639 54.3631 61.7147 54.4501C61.491 54.5808 61.2373 54.6443 60.9392 54.6443C60.6333 54.6443 60.386 54.5828 60.183 54.4563C59.9747 54.3268 59.9747 54.233 59.9747 54.1976V51.4292C59.9747 51.3334 60.1019 51.2282 60.1778 51.1741C60.3581 51.0452 60.5547 50.9827 60.7786 50.9827H67.1188C67.3116 50.9827 67.5029 51.0477 67.7036 51.1816C67.8407 51.273 67.9226 51.3656 67.9226 51.4292V53.6617C67.9226 53.8999 67.8318 54.3541 67.3994 55.1652L63.2186 63.1696C63.1987 63.2074 63.1376 63.3242 62.7966 63.3242Z" fill="url(#paint81_linear_87_3471)"/>
<path d="M39.2886 52.669V65.3092C39.2886 65.7228 38.8852 66.0522 38.4078 66.0254C36.7438 65.9328 35.0812 65.8179 33.4204 65.6807L31.0167 63.2769C31.0359 63.2922 31.0563 63.3088 31.0767 63.3242C31.4405 63.5987 31.8478 63.7352 32.301 63.7352C32.6929 63.7352 32.9546 63.6101 33.086 63.3599L37.2654 55.3587C37.6458 54.6438 37.8373 54.0783 37.8373 53.6622V51.4295C37.8373 51.3171 37.8003 51.2087 37.725 51.1052L39.2886 52.669Z" fill="url(#paint82_linear_87_3471)"/>
<path d="M49.6199 27.0351V25.1208C49.6199 24.8769 49.523 24.6431 49.3506 24.4706C49.1782 24.2982 48.9443 24.2014 48.7005 24.2014C48.4566 24.2014 48.2228 24.2982 48.0504 24.4706C47.8779 24.6431 47.7811 24.8769 47.7811 25.1208V27.0351C47.7811 27.1559 47.8048 27.2754 47.851 27.387C47.8972 27.4985 47.9649 27.5999 48.0503 27.6853C48.1357 27.7707 48.2371 27.8384 48.3486 27.8846C48.4602 27.9308 48.5797 27.9545 48.7005 27.9545C48.8212 27.9545 48.9408 27.9308 49.0523 27.8846C49.1639 27.8384 49.2653 27.7707 49.3506 27.6853C49.436 27.5999 49.5037 27.4985 49.5499 27.387C49.5961 27.2754 49.6199 27.1559 49.6199 27.0351Z" fill="url(#paint83_linear_87_3471)"/>
<path d="M56.1074 34.0842H58.0218C58.2656 34.0842 58.4995 33.9873 58.6719 33.8149C58.8443 33.6425 58.9412 33.4086 58.9412 33.1648C58.9412 32.9209 58.8443 32.6871 58.6719 32.5146C58.4995 32.3422 58.2656 32.2454 58.0218 32.2454H56.1074C55.8636 32.2454 55.6297 32.3422 55.4573 32.5146C55.2849 32.6871 55.188 32.9209 55.188 33.1648C55.188 33.4086 55.2849 33.6425 55.4573 33.8149C55.6297 33.9873 55.8636 34.0842 56.1074 34.0842Z" fill="url(#paint84_linear_87_3471)"/>
<path d="M39.3792 34.0842H41.2937C41.5375 34.0842 41.7714 33.9873 41.9438 33.8149C42.1162 33.6425 42.2131 33.4086 42.2131 33.1648C42.2131 32.9209 42.1162 32.6871 41.9438 32.5146C41.7714 32.3422 41.5375 32.2454 41.2937 32.2454H39.3792C39.1353 32.2454 38.9015 32.3422 38.7291 32.5146C38.5566 32.6871 38.4598 32.9209 38.4598 33.1648C38.4598 33.4086 38.5566 33.6425 38.7291 33.8149C38.9015 33.9873 39.1353 34.0842 39.3792 34.0842Z" fill="url(#paint85_linear_87_3471)"/>
<path d="M54.4366 29.4954L55.7902 28.1417C55.8756 28.0563 55.9433 27.955 55.9895 27.8434C56.0357 27.7319 56.0595 27.6123 56.0595 27.4915C56.0595 27.3708 56.0357 27.2512 55.9895 27.1397C55.9433 27.0281 55.8756 26.9268 55.7902 26.8414C55.7048 26.756 55.6034 26.6883 55.4919 26.6421C55.3803 26.5959 55.2608 26.5721 55.14 26.5721C55.0193 26.5721 54.8997 26.5959 54.7882 26.6421C54.6766 26.6884 54.5753 26.7561 54.4899 26.8415L53.1362 28.1951C52.9676 28.3683 52.874 28.601 52.8756 28.8427C52.8773 29.0845 52.974 29.3158 53.145 29.4868C53.3159 29.6577 53.5473 29.7544 53.789 29.756C54.0308 29.7576 54.2634 29.664 54.4366 29.4954Z" fill="url(#paint86_linear_87_3471)"/>
<path d="M41.6107 28.1416L42.9644 29.4952C43.1376 29.6639 43.3703 29.7575 43.612 29.7559C43.8537 29.7542 44.0851 29.6575 44.256 29.4865C44.4269 29.3156 44.5237 29.0842 44.5253 28.8425C44.5269 28.6007 44.4332 28.3681 44.2646 28.1949L42.911 26.8412C42.7377 26.6726 42.5051 26.579 42.2634 26.5806C42.0216 26.5822 41.7903 26.679 41.6193 26.85C41.4484 27.0209 41.3517 27.2523 41.3501 27.494C41.3484 27.7357 41.4421 27.9684 41.6107 28.1416Z" fill="url(#paint87_linear_87_3471)"/>
</g>
<defs>
<filter id="filter0_f_87_3471" x="0" y="-6.10352e-05" width="108" height="99.8638" filterUnits="userSpaceOnUse" color-interpolation-filters="sRGB">
<feFlood flood-opacity="0" result="BackgroundImageFix"/>
<feBlend mode="normal" in="SourceGraphic" in2="BackgroundImageFix" result="shape"/>
<feGaussianBlur stdDeviation="12" result="effect1_foregroundBlur_87_3471"/>
</filter>
<linearGradient id="paint0_linear_87_3471" x1="78.434" y1="45.9728" x2="80.7487" y2="45.9728" gradientUnits="userSpaceOnUse">
<stop stop-color="#E4F2FF"/>
<stop offset="1" stop-color="#B2CBFF"/>
</linearGradient>
<linearGradient id="paint1_linear_87_3471" x1="83.1007" y1="40.3092" x2="77.1056" y2="34.2739" gradientUnits="userSpaceOnUse">
<stop stop-color="#3F3CED" stop-opacity="0"/>
<stop offset="0.28" stop-color="#3C3DE4" stop-opacity="0.28"/>
<stop offset="0.731" stop-color="#3541CC" stop-opacity="0.731"/>
<stop offset="1" stop-color="#2F43BB"/>
</linearGradient>
<linearGradient id="paint2_linear_87_3471" x1="77.75" y1="31.9943" x2="83.6407" y2="37.8851" gradientUnits="userSpaceOnUse">
<stop stop-color="#91F27F"/>
<stop offset="1" stop-color="#00B302"/>
</linearGradient>
<linearGradient id="paint3_linear_87_3471" x1="79.9048" y1="34.1491" x2="75.7888" y2="30.0331" gradientUnits="userSpaceOnUse">
<stop stop-color="#91F27F" stop-opacity="0"/>
<stop offset="1" stop-color="#FFED82"/>
</linearGradient>
<linearGradient id="paint4_linear_87_3471" x1="79.2789" y1="35.5583" x2="91.4066" y2="25.7075" gradientUnits="userSpaceOnUse">
<stop stop-color="#005A01" stop-opacity="0"/>
<stop offset="1" stop-color="#005A01"/>
</linearGradient>
<linearGradient id="paint5_linear_87_3471" x1="79.0684" y1="55.5522" x2="79.0684" y2="61.2772" gradientUnits="userSpaceOnUse">
<stop stop-color="#9B62CD"/>
<stop offset="0.3" stop-color="#985DCB"/>
<stop offset="0.672" stop-color="#8F4EC7"/>
<stop offset="1" stop-color="#833AC1"/>
</linearGradient>
<linearGradient id="paint6_linear_87_3471" x1="80.1096" y1="58.4346" x2="74.9228" y2="55.693" gradientUnits="userSpaceOnUse">
<stop stop-color="#833AC1" stop-opacity="0"/>
<stop offset="1" stop-color="#6E566E"/>
</linearGradient>
<linearGradient id="paint7_linear_87_3471" x1="74.4384" y1="54.8318" x2="74.4384" y2="63.5032" gradientUnits="userSpaceOnUse">
<stop stop-color="#FF7044"/>
<stop offset="1" stop-color="#F82814"/>
</linearGradient>
<linearGradient id="paint8_linear_87_3471" x1="76.4664" y1="59.1542" x2="68.2364" y2="54.8041" gradientUnits="userSpaceOnUse">
<stop stop-color="#F82814" stop-opacity="0"/>
<stop offset="1" stop-color="#C0272D"/>
</linearGradient>
<linearGradient id="paint9_linear_87_3471" x1="48.7005" y1="30.765" x2="48.7005" y2="41.3883" gradientUnits="userSpaceOnUse">
<stop stop-color="#FF7044"/>
<stop offset="1" stop-color="#F82814"/>
</linearGradient>
<linearGradient id="paint10_linear_87_3471" x1="48.8719" y1="35.0304" x2="44.9385" y2="29.5771" gradientUnits="userSpaceOnUse">
<stop stop-color="#FF7044" stop-opacity="0"/>
<stop offset="1" stop-color="#FFA325"/>
</linearGradient>
<linearGradient id="paint11_linear_87_3471" x1="51.0693" y1="29.3231" x2="51.0693" y2="39.9465" gradientUnits="userSpaceOnUse">
<stop stop-color="#F82814" stop-opacity="0"/>
<stop offset="1" stop-color="#C0272D"/>
</linearGradient>
<linearGradient id="paint12_linear_87_3471" x1="48.7004" y1="32.8702" x2="48.7004" y2="23.1497" gradientUnits="userSpaceOnUse">
<stop stop-color="white" stop-opacity="0"/>
<stop offset="1" stop-color="white"/>
</linearGradient>
<linearGradient id="paint13_linear_87_3471" x1="48.7005" y1="36.0464" x2="48.7005" y2="41.4526" gradientUnits="userSpaceOnUse">
<stop stop-color="#8A7889"/>
<stop offset="1" stop-color="#6E566E"/>
</linearGradient>
<linearGradient id="paint14_linear_87_3471" x1="50.2834" y1="40.139" x2="44.9697" y2="32.5064" gradientUnits="userSpaceOnUse">
<stop stop-color="#8A7889" stop-opacity="0"/>
<stop offset="1" stop-color="#9D8B91"/>
</linearGradient>
<linearGradient id="paint15_linear_87_3471" x1="36.7682" y1="44.9411" x2="60.5776" y2="68.9074" gradientUnits="userSpaceOnUse">
<stop stop-color="#9B62CD"/>
<stop offset="0.3" stop-color="#985DCB"/>
<stop offset="0.672" stop-color="#8F4EC7"/>
<stop offset="1" stop-color="#833AC1"/>
</linearGradient>
<linearGradient id="paint16_linear_87_3471" x1="48.7004" y1="42.6061" x2="48.7004" y2="39.3962" gradientUnits="userSpaceOnUse">
<stop stop-color="#9B62CD"/>
<stop offset="0.145" stop-color="#965ACB"/>
<stop offset="0.672" stop-color="#8843C4"/>
<stop offset="1" stop-color="#833AC1"/>
</linearGradient>
<linearGradient id="paint17_linear_87_3471" x1="59.754" y1="64.7402" x2="13.9409" y2="33.3086" gradientUnits="userSpaceOnUse">
<stop stop-color="#9B62CD" stop-opacity="0"/>
<stop offset="1" stop-color="#FF75C8"/>
</linearGradient>
<linearGradient id="paint18_linear_87_3471" x1="48.9309" y1="77.8801" x2="48.6394" y2="65.0556" gradientUnits="userSpaceOnUse">
<stop stop-color="#833AC1" stop-opacity="0"/>
<stop offset="1" stop-color="#6E566E"/>
</linearGradient>
<linearGradient id="paint19_linear_87_3471" x1="47.8906" y1="51.4174" x2="50.9171" y2="72.0988" gradientUnits="userSpaceOnUse">
<stop stop-color="#FFD945"/>
<stop offset="0.304" stop-color="#FFCD3E"/>
<stop offset="0.856" stop-color="#FFAD2B"/>
<stop offset="1" stop-color="#FFA325"/>
</linearGradient>
<linearGradient id="paint20_linear_87_3471" x1="52.481" y1="62.9721" x2="37.0327" y2="36.4712" gradientUnits="userSpaceOnUse">
<stop stop-color="#FFD945" stop-opacity="0"/>
<stop offset="1" stop-color="#FBED21"/>
</linearGradient>
<linearGradient id="paint21_linear_87_3471" x1="33.4524" y1="53.2531" x2="33.4524" y2="63.6624" gradientUnits="userSpaceOnUse">
<stop stop-color="white"/>
<stop offset="1" stop-color="#E4F2FF"/>
</linearGradient>
<linearGradient id="paint22_linear_87_3471" x1="48.7005" y1="53.2531" x2="48.7005" y2="63.6624" gradientUnits="userSpaceOnUse">
<stop stop-color="white"/>
<stop offset="1" stop-color="#E4F2FF"/>
</linearGradient>
<linearGradient id="paint23_linear_87_3471" x1="63.9486" y1="53.2531" x2="63.9486" y2="63.6624" gradientUnits="userSpaceOnUse">
<stop stop-color="white"/>
<stop offset="1" stop-color="#E4F2FF"/>
</linearGradient>
<linearGradient id="paint24_linear_87_3471" x1="33.4524" y1="49.247" x2="33.4524" y2="45.9664" gradientUnits="userSpaceOnUse">
<stop stop-color="#3F3CED" stop-opacity="0"/>
<stop offset="0.28" stop-color="#3C3DE4" stop-opacity="0.28"/>
<stop offset="0.731" stop-color="#3541CC" stop-opacity="0.731"/>
<stop offset="1" stop-color="#2F43BB"/>
</linearGradient>
<linearGradient id="paint25_linear_87_3471" x1="48.7005" y1="49.247" x2="48.7005" y2="45.9664" gradientUnits="userSpaceOnUse">
<stop stop-color="#3F3CED" stop-opacity="0"/>
<stop offset="0.28" stop-color="#3C3DE4" stop-opacity="0.28"/>
<stop offset="0.731" stop-color="#3541CC" stop-opacity="0.731"/>
<stop offset="1" stop-color="#2F43BB"/>
</linearGradient>
<linearGradient id="paint26_linear_87_3471" x1="63.9486" y1="49.247" x2="63.9486" y2="45.9664" gradientUnits="userSpaceOnUse">
<stop stop-color="#3F3CED" stop-opacity="0"/>
<stop offset="0.28" stop-color="#3C3DE4" stop-opacity="0.28"/>
<stop offset="0.731" stop-color="#3541CC" stop-opacity="0.731"/>
<stop offset="1" stop-color="#2F43BB"/>
</linearGradient>
<linearGradient id="paint27_linear_87_3471" x1="33.9376" y1="56.5341" x2="27.9554" y2="50.4105" gradientUnits="userSpaceOnUse">
<stop stop-color="#3F3CED" stop-opacity="0"/>
<stop offset="0.28" stop-color="#3C3DE4" stop-opacity="0.28"/>
<stop offset="0.731" stop-color="#3541CC" stop-opacity="0.731"/>
<stop offset="1" stop-color="#2F43BB"/>
</linearGradient>
<linearGradient id="paint28_linear_87_3471" x1="29.0677" y1="56.9521" x2="37.8369" y2="56.9521" gradientUnits="userSpaceOnUse">
<stop stop-color="#FFD945"/>
<stop offset="0.304" stop-color="#FFCD3E"/>
<stop offset="0.856" stop-color="#FFAD2B"/>
<stop offset="1" stop-color="#FFA325"/>
</linearGradient>
<linearGradient id="paint29_linear_87_3471" x1="29.4783" y1="56.9521" x2="37.4263" y2="56.9521" gradientUnits="userSpaceOnUse">
<stop stop-color="#FF7044"/>
<stop offset="1" stop-color="#F82814"/>
</linearGradient>
<linearGradient id="paint30_linear_87_3471" x1="49.2316" y1="56.5809" x2="43.196" y2="50.4029" gradientUnits="userSpaceOnUse">
<stop stop-color="#3F3CED" stop-opacity="0"/>
<stop offset="0.28" stop-color="#3C3DE4" stop-opacity="0.28"/>
<stop offset="0.731" stop-color="#3541CC" stop-opacity="0.731"/>
<stop offset="1" stop-color="#2F43BB"/>
</linearGradient>
<linearGradient id="paint31_linear_87_3471" x1="52.4797" y1="59.3485" x2="45.4815" y2="54.9655" gradientUnits="userSpaceOnUse">
<stop stop-color="#3F3CED" stop-opacity="0"/>
<stop offset="0.28" stop-color="#3C3DE4" stop-opacity="0.28"/>
<stop offset="0.731" stop-color="#3541CC" stop-opacity="0.731"/>
<stop offset="1" stop-color="#2F43BB"/>
</linearGradient>
<linearGradient id="paint32_linear_87_3471" x1="44.3159" y1="56.9521" x2="53.085" y2="56.9521" gradientUnits="userSpaceOnUse">
<stop stop-color="#FFD945"/>
<stop offset="0.304" stop-color="#FFCD3E"/>
<stop offset="0.856" stop-color="#FFAD2B"/>
<stop offset="1" stop-color="#FFA325"/>
</linearGradient>
<linearGradient id="paint33_linear_87_3471" x1="44.7264" y1="56.9521" x2="52.6744" y2="56.9521" gradientUnits="userSpaceOnUse">
<stop stop-color="#FF7044"/>
<stop offset="1" stop-color="#F82814"/>
</linearGradient>
<linearGradient id="paint34_linear_87_3471" x1="64.2871" y1="56.1482" x2="58.3191" y2="48.9351" gradientUnits="userSpaceOnUse">
<stop stop-color="#3F3CED" stop-opacity="0"/>
<stop offset="0.28" stop-color="#3C3DE4" stop-opacity="0.28"/>
<stop offset="0.731" stop-color="#3541CC" stop-opacity="0.731"/>
<stop offset="1" stop-color="#2F43BB"/>
</linearGradient>
<linearGradient id="paint35_linear_87_3471" x1="67.57" y1="59.1316" x2="61.0005" y2="55.017" gradientUnits="userSpaceOnUse">
<stop stop-color="#3F3CED" stop-opacity="0"/>
<stop offset="0.28" stop-color="#3C3DE4" stop-opacity="0.28"/>
<stop offset="0.731" stop-color="#3541CC" stop-opacity="0.731"/>
<stop offset="1" stop-color="#2F43BB"/>
</linearGradient>
<linearGradient id="paint36_linear_87_3471" x1="59.564" y1="56.9521" x2="68.3332" y2="56.9521" gradientUnits="userSpaceOnUse">
<stop stop-color="#FFD945"/>
<stop offset="0.304" stop-color="#FFCD3E"/>
<stop offset="0.856" stop-color="#FFAD2B"/>
<stop offset="1" stop-color="#FFA325"/>
</linearGradient>
<linearGradient id="paint37_linear_87_3471" x1="59.9747" y1="56.9521" x2="67.9226" y2="56.9521" gradientUnits="userSpaceOnUse">
<stop stop-color="#FF7044"/>
<stop offset="1" stop-color="#F82814"/>
</linearGradient>
<linearGradient id="paint38_linear_87_3471" x1="37.241" y1="59.2364" x2="30.3315" y2="54.9089" gradientUnits="userSpaceOnUse">
<stop stop-color="#3F3CED" stop-opacity="0"/>
<stop offset="0.28" stop-color="#3C3DE4" stop-opacity="0.28"/>
<stop offset="0.731" stop-color="#3541CC" stop-opacity="0.731"/>
<stop offset="1" stop-color="#2F43BB"/>
</linearGradient>
<linearGradient id="paint39_linear_87_3471" x1="-231.259" y1="25.8765" x2="-233.151" y2="25.8765" gradientUnits="userSpaceOnUse">
<stop stop-color="#FFD945"/>
<stop offset="0.304" stop-color="#FFCD3E"/>
<stop offset="0.856" stop-color="#FFAD2B"/>
<stop offset="1" stop-color="#FFA325"/>
</linearGradient>
<linearGradient id="paint40_linear_87_3471" x1="57.0646" y1="32.7492" x2="57.0646" y2="34.6411" gradientUnits="userSpaceOnUse">
<stop stop-color="#FFD945"/>
<stop offset="0.304" stop-color="#FFCD3E"/>
<stop offset="0.856" stop-color="#FFAD2B"/>
<stop offset="1" stop-color="#FFA325"/>
</linearGradient>
<linearGradient id="paint41_linear_87_3471" x1="40.3364" y1="32.7492" x2="40.3364" y2="34.6411" gradientUnits="userSpaceOnUse">
<stop stop-color="#FFD945"/>
<stop offset="0.304" stop-color="#FFCD3E"/>
<stop offset="0.856" stop-color="#FFAD2B"/>
<stop offset="1" stop-color="#FFA325"/>
</linearGradient>
<linearGradient id="paint42_linear_87_3471" x1="54.2909" y1="27.8128" x2="55.6288" y2="29.1506" gradientUnits="userSpaceOnUse">
<stop stop-color="#FFD945"/>
<stop offset="0.304" stop-color="#FFCD3E"/>
<stop offset="0.856" stop-color="#FFAD2B"/>
<stop offset="1" stop-color="#FFA325"/>
</linearGradient>
<linearGradient id="paint43_linear_87_3471" x1="43.0971" y1="27.7907" x2="41.7593" y2="29.1285" gradientUnits="userSpaceOnUse">
<stop stop-color="#FFD945"/>
<stop offset="0.304" stop-color="#FFCD3E"/>
<stop offset="0.856" stop-color="#FFAD2B"/>
<stop offset="1" stop-color="#FFA325"/>
</linearGradient>
<linearGradient id="paint44_linear_87_3471" x1="78.434" y1="46.1742" x2="80.7487" y2="46.1742" gradientUnits="userSpaceOnUse">
<stop stop-color="#E4F2FF"/>
<stop offset="1" stop-color="#B2CBFF"/>
</linearGradient>
<linearGradient id="paint45_linear_87_3471" x1="83.1007" y1="40.5107" x2="77.1056" y2="34.4754" gradientUnits="userSpaceOnUse">
<stop stop-color="#3F3CED" stop-opacity="0"/>
<stop offset="0.28" stop-color="#3C3DE4" stop-opacity="0.28"/>
<stop offset="0.731" stop-color="#3541CC" stop-opacity="0.731"/>
<stop offset="1" stop-color="#2F43BB"/>
</linearGradient>
<linearGradient id="paint46_linear_87_3471" x1="77.75" y1="32.1957" x2="83.6407" y2="38.0865" gradientUnits="userSpaceOnUse">
<stop stop-color="#91F27F"/>
<stop offset="1" stop-color="#00B302"/>
</linearGradient>
<linearGradient id="paint47_linear_87_3471" x1="79.9048" y1="34.3505" x2="75.7888" y2="30.2345" gradientUnits="userSpaceOnUse">
<stop stop-color="#91F27F" stop-opacity="0"/>
<stop offset="1" stop-color="#FFED82"/>
</linearGradient>
<linearGradient id="paint48_linear_87_3471" x1="79.2789" y1="35.7597" x2="91.4066" y2="25.9089" gradientUnits="userSpaceOnUse">
<stop stop-color="#005A01" stop-opacity="0"/>
<stop offset="1" stop-color="#005A01"/>
</linearGradient>
<linearGradient id="paint49_linear_87_3471" x1="79.0684" y1="55.7536" x2="79.0684" y2="61.4787" gradientUnits="userSpaceOnUse">
<stop stop-color="#9B62CD"/>
<stop offset="0.3" stop-color="#985DCB"/>
<stop offset="0.672" stop-color="#8F4EC7"/>
<stop offset="1" stop-color="#833AC1"/>
</linearGradient>
<linearGradient id="paint50_linear_87_3471" x1="80.1096" y1="58.6361" x2="74.9228" y2="55.8944" gradientUnits="userSpaceOnUse">
<stop stop-color="#833AC1" stop-opacity="0"/>
<stop offset="1" stop-color="#6E566E"/>
</linearGradient>
<linearGradient id="paint51_linear_87_3471" x1="74.4384" y1="55.0332" x2="74.4384" y2="63.7047" gradientUnits="userSpaceOnUse">
<stop stop-color="#FF7044"/>
<stop offset="1" stop-color="#F82814"/>
</linearGradient>
<linearGradient id="paint52_linear_87_3471" x1="76.4664" y1="59.3556" x2="68.2364" y2="55.0055" gradientUnits="userSpaceOnUse">
<stop stop-color="#F82814" stop-opacity="0"/>
<stop offset="1" stop-color="#C0272D"/>
</linearGradient>
<linearGradient id="paint53_linear_87_3471" x1="48.7005" y1="30.9664" x2="48.7005" y2="41.5897" gradientUnits="userSpaceOnUse">
<stop stop-color="#FF7044"/>
<stop offset="1" stop-color="#F82814"/>
</linearGradient>
<linearGradient id="paint54_linear_87_3471" x1="48.8719" y1="35.2318" x2="44.9385" y2="29.7785" gradientUnits="userSpaceOnUse">
<stop stop-color="#FF7044" stop-opacity="0"/>
<stop offset="1" stop-color="#FFA325"/>
</linearGradient>
<linearGradient id="paint55_linear_87_3471" x1="51.0693" y1="29.5245" x2="51.0693" y2="40.1479" gradientUnits="userSpaceOnUse">
<stop stop-color="#F82814" stop-opacity="0"/>
<stop offset="1" stop-color="#C0272D"/>
</linearGradient>
<linearGradient id="paint56_linear_87_3471" x1="48.7004" y1="33.0716" x2="48.7004" y2="23.3511" gradientUnits="userSpaceOnUse">
<stop stop-color="white" stop-opacity="0"/>
<stop offset="1" stop-color="white"/>
</linearGradient>
<linearGradient id="paint57_linear_87_3471" x1="48.7005" y1="36.2478" x2="48.7005" y2="41.6541" gradientUnits="userSpaceOnUse">
<stop stop-color="#8A7889"/>
<stop offset="1" stop-color="#6E566E"/>
</linearGradient>
<linearGradient id="paint58_linear_87_3471" x1="50.2834" y1="40.3404" x2="44.9697" y2="32.7078" gradientUnits="userSpaceOnUse">
<stop stop-color="#8A7889" stop-opacity="0"/>
<stop offset="1" stop-color="#9D8B91"/>
</linearGradient>
<linearGradient id="paint59_linear_87_3471" x1="36.7682" y1="45.1425" x2="60.5776" y2="69.1088" gradientUnits="userSpaceOnUse">
<stop stop-color="#9B62CD"/>
<stop offset="0.3" stop-color="#985DCB"/>
<stop offset="0.672" stop-color="#8F4EC7"/>
<stop offset="1" stop-color="#833AC1"/>
</linearGradient>
<linearGradient id="paint60_linear_87_3471" x1="48.7004" y1="42.8075" x2="48.7004" y2="39.5976" gradientUnits="userSpaceOnUse">
<stop stop-color="#9B62CD"/>
<stop offset="0.145" stop-color="#965ACB"/>
<stop offset="0.672" stop-color="#8843C4"/>
<stop offset="1" stop-color="#833AC1"/>
</linearGradient>
<linearGradient id="paint61_linear_87_3471" x1="59.754" y1="64.9416" x2="13.9409" y2="33.5101" gradientUnits="userSpaceOnUse">
<stop stop-color="#9B62CD" stop-opacity="0"/>
<stop offset="1" stop-color="#FF75C8"/>
</linearGradient>
<linearGradient id="paint62_linear_87_3471" x1="48.9309" y1="78.0815" x2="48.6394" y2="65.257" gradientUnits="userSpaceOnUse">
<stop stop-color="#833AC1" stop-opacity="0"/>
<stop offset="1" stop-color="#6E566E"/>
</linearGradient>
<linearGradient id="paint63_linear_87_3471" x1="47.8906" y1="51.6188" x2="50.9171" y2="72.3002" gradientUnits="userSpaceOnUse">
<stop stop-color="#FFD945"/>
<stop offset="0.304" stop-color="#FFCD3E"/>
<stop offset="0.856" stop-color="#FFAD2B"/>
<stop offset="1" stop-color="#FFA325"/>
</linearGradient>
<linearGradient id="paint64_linear_87_3471" x1="52.481" y1="63.1735" x2="37.0327" y2="36.6726" gradientUnits="userSpaceOnUse">
<stop stop-color="#FFD945" stop-opacity="0"/>
<stop offset="1" stop-color="#FBED21"/>
</linearGradient>
<linearGradient id="paint65_linear_87_3471" x1="33.4524" y1="53.4545" x2="33.4524" y2="63.8638" gradientUnits="userSpaceOnUse">
<stop stop-color="white"/>
<stop offset="1" stop-color="#E4F2FF"/>
</linearGradient>
<linearGradient id="paint66_linear_87_3471" x1="48.7005" y1="53.4545" x2="48.7005" y2="63.8638" gradientUnits="userSpaceOnUse">
<stop stop-color="white"/>
<stop offset="1" stop-color="#E4F2FF"/>
</linearGradient>
<linearGradient id="paint67_linear_87_3471" x1="63.9486" y1="53.4545" x2="63.9486" y2="63.8638" gradientUnits="userSpaceOnUse">
<stop stop-color="white"/>
<stop offset="1" stop-color="#E4F2FF"/>
</linearGradient>
<linearGradient id="paint68_linear_87_3471" x1="33.4524" y1="49.4484" x2="33.4524" y2="46.1678" gradientUnits="userSpaceOnUse">
<stop stop-color="#3F3CED" stop-opacity="0"/>
<stop offset="0.28" stop-color="#3C3DE4" stop-opacity="0.28"/>
<stop offset="0.731" stop-color="#3541CC" stop-opacity="0.731"/>
<stop offset="1" stop-color="#2F43BB"/>
</linearGradient>
<linearGradient id="paint69_linear_87_3471" x1="48.7005" y1="49.4484" x2="48.7005" y2="46.1678" gradientUnits="userSpaceOnUse">
<stop stop-color="#3F3CED" stop-opacity="0"/>
<stop offset="0.28" stop-color="#3C3DE4" stop-opacity="0.28"/>
<stop offset="0.731" stop-color="#3541CC" stop-opacity="0.731"/>
<stop offset="1" stop-color="#2F43BB"/>
</linearGradient>
<linearGradient id="paint70_linear_87_3471" x1="63.9486" y1="49.4484" x2="63.9486" y2="46.1678" gradientUnits="userSpaceOnUse">
<stop stop-color="#3F3CED" stop-opacity="0"/>
<stop offset="0.28" stop-color="#3C3DE4" stop-opacity="0.28"/>
<stop offset="0.731" stop-color="#3541CC" stop-opacity="0.731"/>
<stop offset="1" stop-color="#2F43BB"/>
</linearGradient>
<linearGradient id="paint71_linear_87_3471" x1="33.9376" y1="56.7355" x2="27.9554" y2="50.6119" gradientUnits="userSpaceOnUse">
<stop stop-color="#3F3CED" stop-opacity="0"/>
<stop offset="0.28" stop-color="#3C3DE4" stop-opacity="0.28"/>
<stop offset="0.731" stop-color="#3541CC" stop-opacity="0.731"/>
<stop offset="1" stop-color="#2F43BB"/>
</linearGradient>
<linearGradient id="paint72_linear_87_3471" x1="29.0677" y1="57.1535" x2="37.8369" y2="57.1535" gradientUnits="userSpaceOnUse">
<stop stop-color="#FFD945"/>
<stop offset="0.304" stop-color="#FFCD3E"/>
<stop offset="0.856" stop-color="#FFAD2B"/>
<stop offset="1" stop-color="#FFA325"/>
</linearGradient>
<linearGradient id="paint73_linear_87_3471" x1="29.4783" y1="57.1535" x2="37.4263" y2="57.1535" gradientUnits="userSpaceOnUse">
<stop stop-color="#FF7044"/>
<stop offset="1" stop-color="#F82814"/>
</linearGradient>
<linearGradient id="paint74_linear_87_3471" x1="49.2316" y1="56.7823" x2="43.196" y2="50.6043" gradientUnits="userSpaceOnUse">
<stop stop-color="#3F3CED" stop-opacity="0"/>
<stop offset="0.28" stop-color="#3C3DE4" stop-opacity="0.28"/>
<stop offset="0.731" stop-color="#3541CC" stop-opacity="0.731"/>
<stop offset="1" stop-color="#2F43BB"/>
</linearGradient>
<linearGradient id="paint75_linear_87_3471" x1="52.4797" y1="59.5499" x2="45.4815" y2="55.1669" gradientUnits="userSpaceOnUse">
<stop stop-color="#3F3CED" stop-opacity="0"/>
<stop offset="0.28" stop-color="#3C3DE4" stop-opacity="0.28"/>
<stop offset="0.731" stop-color="#3541CC" stop-opacity="0.731"/>
<stop offset="1" stop-color="#2F43BB"/>
</linearGradient>
<linearGradient id="paint76_linear_87_3471" x1="44.3159" y1="57.1535" x2="53.085" y2="57.1535" gradientUnits="userSpaceOnUse">
<stop stop-color="#FFD945"/>
<stop offset="0.304" stop-color="#FFCD3E"/>
<stop offset="0.856" stop-color="#FFAD2B"/>
<stop offset="1" stop-color="#FFA325"/>
</linearGradient>
<linearGradient id="paint77_linear_87_3471" x1="44.7264" y1="57.1535" x2="52.6744" y2="57.1535" gradientUnits="userSpaceOnUse">
<stop stop-color="#FF7044"/>
<stop offset="1" stop-color="#F82814"/>
</linearGradient>
<linearGradient id="paint78_linear_87_3471" x1="64.2871" y1="56.3496" x2="58.3191" y2="49.1365" gradientUnits="userSpaceOnUse">
<stop stop-color="#3F3CED" stop-opacity="0"/>
<stop offset="0.28" stop-color="#3C3DE4" stop-opacity="0.28"/>
<stop offset="0.731" stop-color="#3541CC" stop-opacity="0.731"/>
<stop offset="1" stop-color="#2F43BB"/>
</linearGradient>
<linearGradient id="paint79_linear_87_3471" x1="67.57" y1="59.333" x2="61.0005" y2="55.2184" gradientUnits="userSpaceOnUse">
<stop stop-color="#3F3CED" stop-opacity="0"/>
<stop offset="0.28" stop-color="#3C3DE4" stop-opacity="0.28"/>
<stop offset="0.731" stop-color="#3541CC" stop-opacity="0.731"/>
<stop offset="1" stop-color="#2F43BB"/>
</linearGradient>
<linearGradient id="paint80_linear_87_3471" x1="59.564" y1="57.1535" x2="68.3332" y2="57.1535" gradientUnits="userSpaceOnUse">
<stop stop-color="#FFD945"/>
<stop offset="0.304" stop-color="#FFCD3E"/>
<stop offset="0.856" stop-color="#FFAD2B"/>
<stop offset="1" stop-color="#FFA325"/>
</linearGradient>
<linearGradient id="paint81_linear_87_3471" x1="59.9747" y1="57.1535" x2="67.9226" y2="57.1535" gradientUnits="userSpaceOnUse">
<stop stop-color="#FF7044"/>
<stop offset="1" stop-color="#F82814"/>
</linearGradient>
<linearGradient id="paint82_linear_87_3471" x1="37.241" y1="59.4378" x2="30.3315" y2="55.1103" gradientUnits="userSpaceOnUse">
<stop stop-color="#3F3CED" stop-opacity="0"/>
<stop offset="0.28" stop-color="#3C3DE4" stop-opacity="0.28"/>
<stop offset="0.731" stop-color="#3541CC" stop-opacity="0.731"/>
<stop offset="1" stop-color="#2F43BB"/>
</linearGradient>
<linearGradient id="paint83_linear_87_3471" x1="-231.259" y1="26.0779" x2="-233.151" y2="26.0779" gradientUnits="userSpaceOnUse">
<stop stop-color="#FFD945"/>
<stop offset="0.304" stop-color="#FFCD3E"/>
<stop offset="0.856" stop-color="#FFAD2B"/>
<stop offset="1" stop-color="#FFA325"/>
</linearGradient>
<linearGradient id="paint84_linear_87_3471" x1="57.0646" y1="32.9506" x2="57.0646" y2="34.8425" gradientUnits="userSpaceOnUse">
<stop stop-color="#FFD945"/>
<stop offset="0.304" stop-color="#FFCD3E"/>
<stop offset="0.856" stop-color="#FFAD2B"/>
<stop offset="1" stop-color="#FFA325"/>
</linearGradient>
<linearGradient id="paint85_linear_87_3471" x1="40.3364" y1="32.9506" x2="40.3364" y2="34.8425" gradientUnits="userSpaceOnUse">
<stop stop-color="#FFD945"/>
<stop offset="0.304" stop-color="#FFCD3E"/>
<stop offset="0.856" stop-color="#FFAD2B"/>
<stop offset="1" stop-color="#FFA325"/>
</linearGradient>
<linearGradient id="paint86_linear_87_3471" x1="54.2909" y1="28.0142" x2="55.6288" y2="29.352" gradientUnits="userSpaceOnUse">
<stop stop-color="#FFD945"/>
<stop offset="0.304" stop-color="#FFCD3E"/>
<stop offset="0.856" stop-color="#FFAD2B"/>
<stop offset="1" stop-color="#FFA325"/>
</linearGradient>
<linearGradient id="paint87_linear_87_3471" x1="43.0971" y1="27.9921" x2="41.7593" y2="29.3299" gradientUnits="userSpaceOnUse">
<stop stop-color="#FFD945"/>
<stop offset="0.304" stop-color="#FFCD3E"/>
<stop offset="0.856" stop-color="#FFAD2B"/>
<stop offset="1" stop-color="#FFA325"/>
</linearGradient>
<clipPath id="clip0_87_3471">
<rect width="60" height="51.8638" fill="white" transform="translate(24 23.9999)"/>
</clipPath>
<clipPath id="clip1_87_3471">
<rect width="60" height="51.8638" fill="white" transform="translate(24 24.2014)"/>
</clipPath>
</defs>
<script xmlns=""/></svg>