<svg xmlns="http://www.w3.org/2000/svg" width="108" height="94" viewBox="0 0 108 94" fill="none"><script xmlns=""/>
<g filter="url(#filter0_f_87_3942)">
<path d="M45.8415 69.4444H25.1879C24.4253 69.4444 23.8604 68.7357 24.0305 67.9922L25.7498 60.4752C25.8608 59.9896 26.1333 59.5562 26.5228 59.2457C26.9123 58.9353 27.3956 58.7663 27.8937 58.7664H43.1359C43.6339 58.7664 44.1172 58.9354 44.5067 59.2458C44.8961 59.5563 45.1687 59.9897 45.2798 60.4752L46.9991 67.9922C47.169 68.7357 46.6041 69.4444 45.8415 69.4444Z" fill="url(#paint0_linear_87_3942)"/>
<path d="M60.8071 52.2866C61.0483 52.0126 61.1649 51.6307 61.075 51.238L59.3557 43.7211C59.2447 43.2355 58.9722 42.8021 58.5827 42.4916C58.1932 42.1812 57.7099 42.0122 57.2119 42.0122H41.9696C41.1067 42.0122 40.3419 42.5152 39.9841 43.2699L26.1346 59.6461C25.9493 59.8923 25.8182 60.1749 25.7497 60.4753L24.0303 67.9922C23.8603 68.7356 24.4251 69.4444 25.1877 69.4444H45.8414C46.364 69.4444 46.7934 69.1115 46.9575 68.6628L60.8071 52.2866Z" fill="url(#paint1_linear_87_3942)"/>
<path d="M59.3558 43.7211C59.3468 43.6821 59.3352 43.6446 59.3244 43.6066C59.0597 43.497 58.776 43.4405 58.4895 43.4402H43.2473C42.3844 43.4402 41.6195 43.9432 41.2618 44.6979L27.4122 61.074C27.227 61.3202 27.0959 61.6028 27.0274 61.9032L25.308 69.4201C25.3061 69.4282 25.3057 69.4362 25.3039 69.4444H45.8414C46.364 69.4444 46.7934 69.1115 46.9575 68.6628L60.8071 52.2866C61.0482 52.0126 61.1648 51.6307 61.0749 51.238L59.3558 43.7211Z" fill="url(#paint2_linear_87_3942)"/>
<path d="M45.8415 69.4444H25.1879C24.4253 69.4444 23.8604 68.7357 24.0305 67.9922L25.7498 60.4752C25.8608 59.9896 26.1333 59.5562 26.5228 59.2457C26.9123 58.9353 27.3956 58.7663 27.8937 58.7664H43.1359C43.6339 58.7664 44.1172 58.9354 44.5067 59.2458C44.8961 59.5563 45.1687 59.9897 45.2798 60.4752L46.9991 67.9922C47.169 68.7357 46.6041 69.4444 45.8415 69.4444Z" fill="url(#paint3_linear_87_3942)"/>
<path d="M45.2797 60.4752C45.2536 60.3633 45.2189 60.2535 45.1759 60.1469C44.9155 60.0413 44.6371 59.9869 44.3561 59.9866H29.1139C28.6158 59.9866 28.1326 60.1556 27.7431 60.4661C27.3536 60.7765 27.0811 61.2099 26.97 61.6954L25.2507 69.2124C25.2328 69.2904 25.2248 69.3678 25.2226 69.4441H45.8415C46.6041 69.4441 47.1691 68.7354 46.9989 67.992L45.2797 60.4752Z" fill="url(#paint4_linear_87_3942)"/>
<path d="M59.3557 43.7211C59.2427 43.2264 58.9617 42.7862 58.5606 42.4754L26.4371 59.2884L26.1346 59.6461C25.9493 59.8923 25.8182 60.1749 25.7497 60.4753L24.0303 67.9922C23.8603 68.7356 24.4251 69.4444 25.1879 69.4444H45.8415C46.3641 69.4444 46.7935 69.1115 46.9576 68.6628L60.8071 52.2866C61.0483 52.0126 61.1649 51.6307 61.075 51.238L59.3557 43.7211Z" fill="url(#paint5_linear_87_3942)"/>
<path d="M68.7363 69.4444H48.0826C47.32 69.4444 46.7551 68.7357 46.9252 67.9922L48.6445 60.4752C48.7555 59.9896 49.028 59.5562 49.4175 59.2457C49.807 58.9353 50.2903 58.7663 50.7884 58.7664H66.0306C66.5286 58.7664 67.0119 58.9354 67.4014 59.2458C67.7909 59.5563 68.0634 59.9897 68.1745 60.4752L69.8938 67.9922C70.0637 68.7357 69.4988 69.4444 68.7363 69.4444Z" fill="url(#paint6_linear_87_3942)"/>
<path d="M83.7019 52.2866C83.943 52.0126 84.0596 51.6307 83.9698 51.238L82.2505 43.7211C82.1395 43.2355 81.8669 42.8021 81.4774 42.4916C81.088 42.1812 80.6046 42.0122 80.1066 42.0122H64.8643C64.0014 42.0122 63.2366 42.5152 62.8788 43.2699L49.0293 59.6461C48.8441 59.8923 48.7129 60.1749 48.6445 60.4753L46.9252 67.9922C46.7552 68.7356 47.32 69.4444 48.0826 69.4444H68.7362C69.2588 69.4444 69.6882 69.1115 69.8523 68.6628L83.7019 52.2866Z" fill="url(#paint7_linear_87_3942)"/>
<path d="M82.2505 43.7211C82.2415 43.6821 82.2299 43.6446 82.2191 43.6066C81.9544 43.497 81.6707 43.4405 81.3843 43.4402H66.142C65.2791 43.4402 64.5143 43.9432 64.1565 44.6979L50.307 61.074C50.1217 61.3202 49.9906 61.6028 49.9221 61.9032L48.2027 69.4201C48.2008 69.4282 48.2004 69.4362 48.1986 69.4444H68.7361C69.2587 69.4444 69.6881 69.1115 69.8523 68.6628L83.7018 52.2866C83.943 52.0126 84.0596 51.6307 83.9697 51.238L82.2505 43.7211Z" fill="url(#paint8_linear_87_3942)"/>
<path d="M68.7363 69.4444H48.0826C47.32 69.4444 46.7551 68.7357 46.9252 67.9922L48.6445 60.4752C48.7555 59.9896 49.028 59.5562 49.4175 59.2457C49.807 58.9353 50.2903 58.7663 50.7884 58.7664H66.0306C66.5286 58.7664 67.0119 58.9354 67.4014 59.2458C67.7909 59.5563 68.0634 59.9897 68.1745 60.4752L69.8938 67.9922C70.0637 68.7357 69.4988 69.4444 68.7363 69.4444Z" fill="url(#paint9_linear_87_3942)"/>
<path d="M68.1744 60.4752C68.1483 60.3633 68.1136 60.2535 68.0706 60.1469C67.8102 60.0413 67.5319 59.9869 67.2508 59.9866H52.0086C51.5106 59.9866 51.0273 60.1556 50.6378 60.4661C50.2484 60.7765 49.9758 61.2099 49.8647 61.6954L48.1454 69.2124C48.1275 69.2904 48.1195 69.3678 48.1173 69.4441H68.7363C69.4988 69.4441 70.0638 68.7354 69.8937 67.992L68.1744 60.4752Z" fill="url(#paint10_linear_87_3942)"/>
<path d="M82.2505 43.7211C82.1374 43.2264 81.8564 42.7862 81.4553 42.4754L49.3319 59.2884L49.0293 59.6461C48.8441 59.8923 48.7129 60.1749 48.6444 60.4753L46.925 67.9922C46.755 68.7356 47.3199 69.4444 48.0826 69.4444H68.7362C69.2588 69.4444 69.6882 69.1115 69.8523 68.6628L83.7019 52.2866C83.943 52.0126 84.0596 51.6307 83.9697 51.238L82.2505 43.7211Z" fill="url(#paint11_linear_87_3942)"/>
<path d="M72.2992 42.0198L72.3038 42.0122H64.8644C64.0014 42.0122 63.2366 42.5152 62.8788 43.2699L60.0245 46.6449L59.3557 43.7211C59.2447 43.2355 58.9721 42.8021 58.5826 42.4916C58.1932 42.1812 57.7098 42.0122 57.2118 42.0122H43.9326L37.4784 49.644C37.2931 49.8902 37.162 50.1728 37.0935 50.4732L35.3742 57.9901C35.2561 58.5065 35.4929 59.0055 35.904 59.2625L46.0644 69.4228C46.4839 69.3435 46.8175 69.0458 46.9575 68.6629L46.9638 68.6557C47.1258 69.108 47.5572 69.4445 48.0826 69.4445H68.7362C69.2588 69.4445 69.6882 69.1117 69.8524 68.6629L83.1815 52.9021L72.2992 42.0198Z" fill="url(#paint12_linear_87_3942)"/>
<path d="M57.1853 59.4421H36.5316C35.7691 59.4421 35.2041 58.7334 35.3742 57.99L37.0935 50.4729C37.2045 49.9874 37.4771 49.5539 37.8665 49.2435C38.256 48.9331 38.7393 48.764 39.2374 48.7641H54.4796C54.9777 48.7641 55.461 48.9332 55.8504 49.2436C56.2399 49.554 56.5125 49.9874 56.6235 50.4729L58.3428 57.99C58.5128 58.7334 57.9479 59.4421 57.1853 59.4421Z" fill="url(#paint13_linear_87_3942)"/>
<path d="M72.151 42.2845C72.3921 42.0105 72.5087 41.6286 72.4188 41.2359L70.6996 33.7189C70.5886 33.2334 70.316 32.7999 69.9265 32.4895C69.5371 32.1791 69.0537 32.01 68.5557 32.0101H53.3134C52.4505 32.0101 51.6857 32.5131 51.3279 33.2678L37.4784 49.6439C37.2932 49.8901 37.162 50.1727 37.0936 50.4731L35.3743 57.9901C35.2043 58.7335 35.7691 59.4422 36.5317 59.4422H57.1853C57.7079 59.4422 58.1373 59.1094 58.3014 58.6607L72.151 42.2845Z" fill="url(#paint14_linear_87_3942)"/>
<path d="M70.6995 33.7188C70.6906 33.6799 70.6789 33.6424 70.6681 33.6044C70.4034 33.4948 70.1198 33.4383 69.8333 33.438H54.5911C53.7281 33.438 52.9633 33.9409 52.6055 34.6956L38.756 51.0718C38.5708 51.318 38.4396 51.6005 38.3712 51.9009L36.6518 59.418C36.6499 59.4261 36.6494 59.4341 36.6476 59.4422H57.1852C57.7078 59.4422 58.1372 59.1094 58.3013 58.6607L72.1509 42.2845C72.3921 42.0105 72.5087 41.6286 72.4188 41.2359L70.6995 33.7188Z" fill="url(#paint15_linear_87_3942)"/>
<path d="M57.1853 59.4421H36.5316C35.7691 59.4421 35.2041 58.7334 35.3742 57.99L37.0935 50.4729C37.2045 49.9874 37.4771 49.5539 37.8665 49.2435C38.256 48.9331 38.7393 48.764 39.2374 48.7641H54.4796C54.9777 48.7641 55.461 48.9332 55.8504 49.2436C56.2399 49.554 56.5125 49.9874 56.6235 50.4729L58.3428 57.99C58.5128 58.7334 57.9479 59.4421 57.1853 59.4421Z" fill="url(#paint16_linear_87_3942)"/>
<path d="M56.6234 50.4731C56.5973 50.3611 56.5626 50.2514 56.5196 50.1448C56.2592 50.0392 55.9809 49.9848 55.6999 49.9845H40.4576C39.9596 49.9845 39.4763 50.1535 39.0869 50.464C38.6974 50.7744 38.4248 51.2078 38.3138 51.6933L36.5945 59.2102C36.5766 59.2882 36.5686 59.3656 36.5663 59.442H57.1853C57.9479 59.442 58.5128 58.7333 58.3428 57.9899L56.6234 50.4731Z" fill="url(#paint17_linear_87_3942)"/>
<path d="M70.6996 33.7188C70.5865 33.2241 70.3055 32.784 69.9044 32.4732L37.781 49.2861L37.4784 49.6439C37.2932 49.8901 37.162 50.1727 37.0935 50.4731L35.3741 57.99C35.2041 58.7334 35.769 59.4421 36.5317 59.4421H57.1853C57.7079 59.4421 58.1373 59.1093 58.3014 58.6606L72.151 42.2845C72.3921 42.0105 72.5087 41.6286 72.4188 41.2359L70.6996 33.7188Z" fill="url(#paint18_linear_87_3942)"/>
<path d="M41.8933 38.4128C40.4023 39.385 39.1335 40.6613 38.1701 42.158C37.9536 42.4944 37.4541 42.4934 37.2389 42.1564C36.281 40.6562 35.0169 39.3753 33.5295 38.3976C33.1996 38.1809 33.2006 37.6882 33.5312 37.4728C35.0221 36.5006 36.2908 35.2243 37.2542 33.7276C37.4707 33.3913 37.9702 33.3921 38.1854 33.7293C39.1433 35.2295 40.4075 36.5104 41.8949 37.488C42.2248 37.7047 42.224 38.1974 41.8933 38.4128Z" fill="url(#paint19_linear_87_3942)"/>
<path d="M34.6866 31.1992C33.6322 31.8867 32.7349 32.7892 32.0536 33.8476C31.9006 34.0855 31.5473 34.0848 31.3951 33.8465C30.7179 32.7855 29.8239 31.8797 28.772 31.1885C28.5387 31.0353 28.5394 30.6868 28.7731 30.5345C29.8276 29.8471 30.7248 28.9445 31.406 27.886C31.559 27.6481 31.9123 27.6488 32.0644 27.8872C32.7418 28.9482 33.6357 29.854 34.6877 30.5452C34.921 30.6985 34.9203 31.0468 34.6866 31.1992Z" fill="url(#paint20_linear_87_3942)"/>
<path d="M50.2036 27.4912C49.1493 28.1787 48.252 29.0812 47.5707 30.1396C47.4176 30.3775 47.0644 30.3768 46.9122 30.1385C46.235 29.0775 45.341 28.1717 44.2891 27.4805C44.0558 27.3273 44.0565 26.9788 44.2902 26.8265C45.3447 26.1391 46.2419 25.2365 46.9231 24.178C47.0761 23.9401 47.4294 23.9408 47.5815 24.1792C48.2588 25.2402 49.1528 26.146 50.2048 26.8372C50.4381 26.9904 50.4375 27.3388 50.2036 27.4912Z" fill="url(#paint21_linear_87_3942)"/>
<path d="M79.709 37.5169C78.6545 38.2043 77.7573 39.1069 77.0761 40.1654C76.9231 40.4033 76.5698 40.4026 76.4177 40.1642C75.7404 39.1033 74.8465 38.1974 73.7945 37.5062C73.5612 37.3531 73.5619 37.0046 73.7957 36.8522C74.8501 36.1648 75.7474 35.2623 76.4285 34.2038C76.5816 33.9659 76.9348 33.9665 77.087 34.2049C77.7644 35.2658 78.6583 36.1716 79.7101 36.8629C79.9434 37.0162 79.9427 37.3646 79.709 37.5169Z" fill="url(#paint22_linear_87_3942)"/>
<path d="M76.5765 27.4912C75.5221 28.1787 74.6248 29.0812 73.9435 30.1396C73.7905 30.3775 73.4372 30.3768 73.285 30.1385C72.6078 29.0775 71.7138 28.1717 70.6619 27.4805C70.4286 27.3273 70.4293 26.9788 70.663 26.8265C71.7175 26.1391 72.6147 25.2365 73.2959 24.178C73.4489 23.9401 73.8022 23.9408 73.9543 24.1792C74.6316 25.2402 75.5256 26.146 76.5776 26.8372C76.8109 26.9904 76.8102 27.3388 76.5765 27.4912Z" fill="url(#paint23_linear_87_3942)"/>
</g>
<g clip-path="url(#clip1_87_3942)">
<path d="M45.8415 69.4444H25.1879C24.4253 69.4444 23.8604 68.7357 24.0305 67.9922L25.7498 60.4752C25.8608 59.9896 26.1333 59.5562 26.5228 59.2457C26.9123 58.9353 27.3956 58.7663 27.8937 58.7664H43.1359C43.6339 58.7664 44.1172 58.9354 44.5067 59.2458C44.8961 59.5563 45.1687 59.9897 45.2798 60.4752L46.9991 67.9922C47.169 68.7357 46.6041 69.4444 45.8415 69.4444Z" fill="url(#paint24_linear_87_3942)"/>
<path d="M60.8071 52.2866C61.0483 52.0126 61.1649 51.6307 61.075 51.238L59.3557 43.7211C59.2447 43.2355 58.9722 42.8021 58.5827 42.4916C58.1932 42.1812 57.7099 42.0122 57.2119 42.0122H41.9696C41.1067 42.0122 40.3419 42.5152 39.9841 43.2699L26.1346 59.6461C25.9493 59.8923 25.8182 60.1749 25.7497 60.4753L24.0303 67.9922C23.8603 68.7356 24.4251 69.4444 25.1877 69.4444H45.8414C46.364 69.4444 46.7934 69.1115 46.9575 68.6628L60.8071 52.2866Z" fill="url(#paint25_linear_87_3942)"/>
<path d="M59.3558 43.7211C59.3468 43.6821 59.3352 43.6446 59.3244 43.6066C59.0597 43.497 58.776 43.4405 58.4895 43.4402H43.2473C42.3844 43.4402 41.6195 43.9432 41.2618 44.6979L27.4122 61.074C27.227 61.3202 27.0959 61.6028 27.0274 61.9032L25.308 69.4201C25.3061 69.4282 25.3057 69.4362 25.3039 69.4444H45.8414C46.364 69.4444 46.7934 69.1115 46.9575 68.6628L60.8071 52.2866C61.0482 52.0126 61.1648 51.6307 61.0749 51.238L59.3558 43.7211Z" fill="url(#paint26_linear_87_3942)"/>
<path d="M45.8415 69.4444H25.1879C24.4253 69.4444 23.8604 68.7357 24.0305 67.9922L25.7498 60.4752C25.8608 59.9896 26.1333 59.5562 26.5228 59.2457C26.9123 58.9353 27.3956 58.7663 27.8937 58.7664H43.1359C43.6339 58.7664 44.1172 58.9354 44.5067 59.2458C44.8961 59.5563 45.1687 59.9897 45.2798 60.4752L46.9991 67.9922C47.169 68.7357 46.6041 69.4444 45.8415 69.4444Z" fill="url(#paint27_linear_87_3942)"/>
<path d="M45.2797 60.4752C45.2536 60.3633 45.2189 60.2535 45.1759 60.1469C44.9155 60.0413 44.6371 59.9869 44.3561 59.9866H29.1139C28.6158 59.9866 28.1326 60.1556 27.7431 60.4661C27.3536 60.7765 27.0811 61.2099 26.97 61.6954L25.2507 69.2124C25.2328 69.2904 25.2248 69.3678 25.2226 69.4441H45.8415C46.6041 69.4441 47.1691 68.7354 46.9989 67.992L45.2797 60.4752Z" fill="url(#paint28_linear_87_3942)"/>
<path d="M59.3557 43.7211C59.2427 43.2264 58.9617 42.7862 58.5606 42.4754L26.4371 59.2884L26.1346 59.6461C25.9493 59.8923 25.8182 60.1749 25.7497 60.4753L24.0303 67.9922C23.8603 68.7356 24.4251 69.4444 25.1879 69.4444H45.8415C46.3641 69.4444 46.7935 69.1115 46.9576 68.6628L60.8071 52.2866C61.0483 52.0126 61.1649 51.6307 61.075 51.238L59.3557 43.7211Z" fill="url(#paint29_linear_87_3942)"/>
<path d="M68.7363 69.4444H48.0826C47.32 69.4444 46.7551 68.7357 46.9252 67.9922L48.6445 60.4752C48.7555 59.9896 49.028 59.5562 49.4175 59.2457C49.807 58.9353 50.2903 58.7663 50.7884 58.7664H66.0306C66.5286 58.7664 67.0119 58.9354 67.4014 59.2458C67.7909 59.5563 68.0634 59.9897 68.1745 60.4752L69.8938 67.9922C70.0637 68.7357 69.4988 69.4444 68.7363 69.4444Z" fill="url(#paint30_linear_87_3942)"/>
<path d="M83.7019 52.2866C83.943 52.0126 84.0596 51.6307 83.9698 51.238L82.2505 43.7211C82.1395 43.2355 81.8669 42.8021 81.4774 42.4916C81.088 42.1812 80.6046 42.0122 80.1066 42.0122H64.8643C64.0014 42.0122 63.2366 42.5152 62.8788 43.2699L49.0293 59.6461C48.8441 59.8923 48.7129 60.1749 48.6445 60.4753L46.9252 67.9922C46.7552 68.7356 47.32 69.4444 48.0826 69.4444H68.7362C69.2588 69.4444 69.6882 69.1115 69.8523 68.6628L83.7019 52.2866Z" fill="url(#paint31_linear_87_3942)"/>
<path d="M82.2505 43.7211C82.2415 43.6821 82.2299 43.6446 82.2191 43.6066C81.9544 43.497 81.6707 43.4405 81.3843 43.4402H66.142C65.2791 43.4402 64.5143 43.9432 64.1565 44.6979L50.307 61.074C50.1217 61.3202 49.9906 61.6028 49.9221 61.9032L48.2027 69.4201C48.2008 69.4282 48.2004 69.4362 48.1986 69.4444H68.7361C69.2587 69.4444 69.6881 69.1115 69.8523 68.6628L83.7018 52.2866C83.943 52.0126 84.0596 51.6307 83.9697 51.238L82.2505 43.7211Z" fill="url(#paint32_linear_87_3942)"/>
<path d="M68.7363 69.4444H48.0826C47.32 69.4444 46.7551 68.7357 46.9252 67.9922L48.6445 60.4752C48.7555 59.9896 49.028 59.5562 49.4175 59.2457C49.807 58.9353 50.2903 58.7663 50.7884 58.7664H66.0306C66.5286 58.7664 67.0119 58.9354 67.4014 59.2458C67.7909 59.5563 68.0634 59.9897 68.1745 60.4752L69.8938 67.9922C70.0637 68.7357 69.4988 69.4444 68.7363 69.4444Z" fill="url(#paint33_linear_87_3942)"/>
<path d="M68.1744 60.4752C68.1483 60.3633 68.1136 60.2535 68.0706 60.1469C67.8102 60.0413 67.5319 59.9869 67.2508 59.9866H52.0086C51.5106 59.9866 51.0273 60.1556 50.6378 60.4661C50.2484 60.7765 49.9758 61.2099 49.8647 61.6954L48.1454 69.2124C48.1275 69.2904 48.1195 69.3678 48.1173 69.4441H68.7363C69.4988 69.4441 70.0638 68.7354 69.8937 67.992L68.1744 60.4752Z" fill="url(#paint34_linear_87_3942)"/>
<path d="M82.2505 43.7211C82.1374 43.2264 81.8564 42.7862 81.4553 42.4754L49.3319 59.2884L49.0293 59.6461C48.8441 59.8923 48.7129 60.1749 48.6444 60.4753L46.925 67.9922C46.755 68.7356 47.3199 69.4444 48.0826 69.4444H68.7362C69.2588 69.4444 69.6882 69.1115 69.8523 68.6628L83.7019 52.2866C83.943 52.0126 84.0596 51.6307 83.9697 51.238L82.2505 43.7211Z" fill="url(#paint35_linear_87_3942)"/>
<path d="M72.2992 42.0198L72.3038 42.0122H64.8644C64.0014 42.0122 63.2366 42.5152 62.8788 43.2699L60.0245 46.6449L59.3557 43.7211C59.2447 43.2355 58.9721 42.8021 58.5826 42.4916C58.1932 42.1812 57.7098 42.0122 57.2118 42.0122H43.9326L37.4784 49.644C37.2931 49.8902 37.162 50.1728 37.0935 50.4732L35.3742 57.9901C35.2561 58.5065 35.4929 59.0055 35.904 59.2625L46.0644 69.4228C46.4839 69.3435 46.8175 69.0458 46.9575 68.6629L46.9638 68.6557C47.1258 69.108 47.5572 69.4445 48.0826 69.4445H68.7362C69.2588 69.4445 69.6882 69.1117 69.8524 68.6629L83.1815 52.9021L72.2992 42.0198Z" fill="url(#paint36_linear_87_3942)"/>
<path d="M57.1853 59.4421H36.5316C35.7691 59.4421 35.2041 58.7334 35.3742 57.99L37.0935 50.4729C37.2045 49.9874 37.4771 49.5539 37.8665 49.2435C38.256 48.9331 38.7393 48.764 39.2374 48.7641H54.4796C54.9777 48.7641 55.461 48.9332 55.8504 49.2436C56.2399 49.554 56.5125 49.9874 56.6235 50.4729L58.3428 57.99C58.5128 58.7334 57.9479 59.4421 57.1853 59.4421Z" fill="url(#paint37_linear_87_3942)"/>
<path d="M72.151 42.2845C72.3921 42.0105 72.5087 41.6286 72.4188 41.2359L70.6996 33.7189C70.5886 33.2334 70.316 32.7999 69.9265 32.4895C69.5371 32.1791 69.0537 32.01 68.5557 32.0101H53.3134C52.4505 32.0101 51.6857 32.5131 51.3279 33.2678L37.4784 49.6439C37.2932 49.8901 37.162 50.1727 37.0936 50.4731L35.3743 57.9901C35.2043 58.7335 35.7691 59.4422 36.5317 59.4422H57.1853C57.7079 59.4422 58.1373 59.1094 58.3014 58.6607L72.151 42.2845Z" fill="url(#paint38_linear_87_3942)"/>
<path d="M70.6995 33.7188C70.6906 33.6799 70.6789 33.6424 70.6681 33.6044C70.4034 33.4948 70.1198 33.4383 69.8333 33.438H54.5911C53.7281 33.438 52.9633 33.9409 52.6055 34.6956L38.756 51.0718C38.5708 51.318 38.4396 51.6005 38.3712 51.9009L36.6518 59.418C36.6499 59.4261 36.6494 59.4341 36.6476 59.4422H57.1852C57.7078 59.4422 58.1372 59.1094 58.3013 58.6607L72.1509 42.2845C72.3921 42.0105 72.5087 41.6286 72.4188 41.2359L70.6995 33.7188Z" fill="url(#paint39_linear_87_3942)"/>
<path d="M57.1853 59.4421H36.5316C35.7691 59.4421 35.2041 58.7334 35.3742 57.99L37.0935 50.4729C37.2045 49.9874 37.4771 49.5539 37.8665 49.2435C38.256 48.9331 38.7393 48.764 39.2374 48.7641H54.4796C54.9777 48.7641 55.461 48.9332 55.8504 49.2436C56.2399 49.554 56.5125 49.9874 56.6235 50.4729L58.3428 57.99C58.5128 58.7334 57.9479 59.4421 57.1853 59.4421Z" fill="url(#paint40_linear_87_3942)"/>
<path d="M56.6234 50.4731C56.5973 50.3611 56.5626 50.2514 56.5196 50.1448C56.2592 50.0392 55.9809 49.9848 55.6999 49.9845H40.4576C39.9596 49.9845 39.4763 50.1535 39.0869 50.464C38.6974 50.7744 38.4248 51.2078 38.3138 51.6933L36.5945 59.2102C36.5766 59.2882 36.5686 59.3656 36.5663 59.442H57.1853C57.9479 59.442 58.5128 58.7333 58.3428 57.9899L56.6234 50.4731Z" fill="url(#paint41_linear_87_3942)"/>
<path d="M70.6996 33.7188C70.5865 33.2241 70.3055 32.784 69.9044 32.4732L37.781 49.2861L37.4784 49.6439C37.2932 49.8901 37.162 50.1727 37.0935 50.4731L35.3741 57.99C35.2041 58.7334 35.769 59.4421 36.5317 59.4421H57.1853C57.7079 59.4421 58.1373 59.1093 58.3014 58.6606L72.151 42.2845C72.3921 42.0105 72.5087 41.6286 72.4188 41.2359L70.6996 33.7188Z" fill="url(#paint42_linear_87_3942)"/>
<path d="M41.8933 38.4128C40.4023 39.385 39.1335 40.6613 38.1701 42.158C37.9536 42.4944 37.4541 42.4934 37.2389 42.1564C36.281 40.6562 35.0169 39.3753 33.5295 38.3976C33.1996 38.1809 33.2006 37.6882 33.5312 37.4728C35.0221 36.5006 36.2908 35.2243 37.2542 33.7276C37.4707 33.3913 37.9702 33.3921 38.1854 33.7293C39.1433 35.2295 40.4075 36.5104 41.8949 37.488C42.2248 37.7047 42.224 38.1974 41.8933 38.4128Z" fill="url(#paint43_linear_87_3942)"/>
<path d="M34.6866 31.1992C33.6322 31.8867 32.7349 32.7892 32.0536 33.8476C31.9006 34.0855 31.5473 34.0848 31.3951 33.8465C30.7179 32.7855 29.8239 31.8797 28.772 31.1885C28.5387 31.0353 28.5394 30.6868 28.7731 30.5345C29.8276 29.8471 30.7248 28.9445 31.406 27.886C31.559 27.6481 31.9123 27.6488 32.0644 27.8872C32.7418 28.9482 33.6357 29.854 34.6877 30.5452C34.921 30.6985 34.9203 31.0468 34.6866 31.1992Z" fill="url(#paint44_linear_87_3942)"/>
<path d="M50.2036 27.4912C49.1493 28.1787 48.252 29.0812 47.5707 30.1396C47.4176 30.3775 47.0644 30.3768 46.9122 30.1385C46.235 29.0775 45.341 28.1717 44.2891 27.4805C44.0558 27.3273 44.0565 26.9788 44.2902 26.8265C45.3447 26.1391 46.2419 25.2365 46.9231 24.178C47.0761 23.9401 47.4294 23.9408 47.5815 24.1792C48.2588 25.2402 49.1528 26.146 50.2048 26.8372C50.4381 26.9904 50.4375 27.3388 50.2036 27.4912Z" fill="url(#paint45_linear_87_3942)"/>
<path d="M79.709 37.5169C78.6545 38.2043 77.7573 39.1069 77.0761 40.1654C76.9231 40.4033 76.5698 40.4026 76.4177 40.1642C75.7404 39.1033 74.8465 38.1974 73.7945 37.5062C73.5612 37.3531 73.5619 37.0046 73.7957 36.8522C74.8501 36.1648 75.7474 35.2623 76.4285 34.2038C76.5816 33.9659 76.9348 33.9665 77.087 34.2049C77.7644 35.2658 78.6583 36.1716 79.7101 36.8629C79.9434 37.0162 79.9427 37.3646 79.709 37.5169Z" fill="url(#paint46_linear_87_3942)"/>
<path d="M76.5765 27.4912C75.5221 28.1787 74.6248 29.0812 73.9435 30.1396C73.7905 30.3775 73.4372 30.3768 73.285 30.1385C72.6078 29.0775 71.7138 28.1717 70.6619 27.4805C70.4286 27.3273 70.4293 26.9788 70.663 26.8265C71.7175 26.1391 72.6147 25.2365 73.2959 24.178C73.4489 23.9401 73.8022 23.9408 73.9543 24.1792C74.6316 25.2402 75.5256 26.146 76.5776 26.8372C76.8109 26.9904 76.8102 27.3388 76.5765 27.4912Z" fill="url(#paint47_linear_87_3942)"/>
</g>
<defs>
<filter id="filter0_f_87_3942" x="0" y="0" width="108" height="93.4445" filterUnits="userSpaceOnUse" color-interpolation-filters="sRGB">
<feFlood flood-opacity="0" result="BackgroundImageFix"/>
<feBlend mode="normal" in="SourceGraphic" in2="BackgroundImageFix" result="shape"/>
<feGaussianBlur stdDeviation="12" result="effect1_foregroundBlur_87_3942"/>
</filter>
<linearGradient id="paint0_linear_87_3942" x1="24" y1="64.1054" x2="47.0294" y2="64.1054" gradientUnits="userSpaceOnUse">
<stop stop-color="#FFD945"/>
<stop offset="0.304" stop-color="#FFCD3E"/>
<stop offset="0.856" stop-color="#FFAD2B"/>
<stop offset="1" stop-color="#FFA325"/>
</linearGradient>
<linearGradient id="paint1_linear_87_3942" x1="41.5026" y1="55.8286" x2="48.2342" y2="61.214" gradientUnits="userSpaceOnUse">
<stop stop-color="#FFD945"/>
<stop offset="0.304" stop-color="#FFCD3E"/>
<stop offset="0.856" stop-color="#FFAD2B"/>
<stop offset="1" stop-color="#FFA325"/>
</linearGradient>
<linearGradient id="paint2_linear_87_3942" x1="43.4717" y1="58.1771" x2="36.2301" y2="47.8446" gradientUnits="userSpaceOnUse">
<stop stop-color="#FFD945" stop-opacity="0"/>
<stop offset="1" stop-color="#FBED21"/>
</linearGradient>
<linearGradient id="paint3_linear_87_3942" x1="29.9526" y1="60.7353" x2="45.5314" y2="72.7189" gradientUnits="userSpaceOnUse">
<stop stop-color="#FFD945"/>
<stop offset="0.304" stop-color="#FFCD3E"/>
<stop offset="0.856" stop-color="#FFAD2B"/>
<stop offset="1" stop-color="#FFA325"/>
</linearGradient>
<linearGradient id="paint4_linear_87_3942" x1="36.7733" y1="67.6914" x2="30.9657" y2="57.0075" gradientUnits="userSpaceOnUse">
<stop stop-color="#FFD945" stop-opacity="0"/>
<stop offset="1" stop-color="#FBED21"/>
</linearGradient>
<linearGradient id="paint5_linear_87_3942" x1="42.6163" y1="55.5539" x2="43.1007" y2="22.6118" gradientUnits="userSpaceOnUse">
<stop stop-color="white" stop-opacity="0"/>
<stop offset="1" stop-color="white"/>
</linearGradient>
<linearGradient id="paint6_linear_87_3942" x1="46.8947" y1="64.1054" x2="69.9241" y2="64.1054" gradientUnits="userSpaceOnUse">
<stop stop-color="#FFD945"/>
<stop offset="0.304" stop-color="#FFCD3E"/>
<stop offset="0.856" stop-color="#FFAD2B"/>
<stop offset="1" stop-color="#FFA325"/>
</linearGradient>
<linearGradient id="paint7_linear_87_3942" x1="64.3973" y1="55.8286" x2="71.1289" y2="61.214" gradientUnits="userSpaceOnUse">
<stop stop-color="#FFD945"/>
<stop offset="0.304" stop-color="#FFCD3E"/>
<stop offset="0.856" stop-color="#FFAD2B"/>
<stop offset="1" stop-color="#FFA325"/>
</linearGradient>
<linearGradient id="paint8_linear_87_3942" x1="66.3664" y1="58.1771" x2="59.1248" y2="47.8446" gradientUnits="userSpaceOnUse">
<stop stop-color="#FFD945" stop-opacity="0"/>
<stop offset="1" stop-color="#FBED21"/>
</linearGradient>
<linearGradient id="paint9_linear_87_3942" x1="52.8473" y1="60.7353" x2="68.4261" y2="72.7189" gradientUnits="userSpaceOnUse">
<stop stop-color="#FFD945"/>
<stop offset="0.304" stop-color="#FFCD3E"/>
<stop offset="0.856" stop-color="#FFAD2B"/>
<stop offset="1" stop-color="#FFA325"/>
</linearGradient>
<linearGradient id="paint10_linear_87_3942" x1="59.668" y1="67.6914" x2="53.8604" y2="57.0075" gradientUnits="userSpaceOnUse">
<stop stop-color="#FFD945" stop-opacity="0"/>
<stop offset="1" stop-color="#FBED21"/>
</linearGradient>
<linearGradient id="paint11_linear_87_3942" x1="65.5109" y1="55.5539" x2="65.9954" y2="22.6118" gradientUnits="userSpaceOnUse">
<stop stop-color="white" stop-opacity="0"/>
<stop offset="1" stop-color="white"/>
</linearGradient>
<linearGradient id="paint12_linear_87_3942" x1="62.3586" y1="63.8489" x2="52.3134" y2="37.3662" gradientUnits="userSpaceOnUse">
<stop stop-color="#E87264" stop-opacity="0"/>
<stop offset="1" stop-color="#FF7044"/>
</linearGradient>
<linearGradient id="paint13_linear_87_3942" x1="35.3438" y1="54.1032" x2="58.3732" y2="54.1032" gradientUnits="userSpaceOnUse">
<stop stop-color="#FFD945"/>
<stop offset="0.304" stop-color="#FFCD3E"/>
<stop offset="0.856" stop-color="#FFAD2B"/>
<stop offset="1" stop-color="#FFA325"/>
</linearGradient>
<linearGradient id="paint14_linear_87_3942" x1="52.8464" y1="45.8265" x2="59.578" y2="51.2118" gradientUnits="userSpaceOnUse">
<stop stop-color="#FFD945"/>
<stop offset="0.304" stop-color="#FFCD3E"/>
<stop offset="0.856" stop-color="#FFAD2B"/>
<stop offset="1" stop-color="#FFA325"/>
</linearGradient>
<linearGradient id="paint15_linear_87_3942" x1="54.8155" y1="48.1748" x2="47.5739" y2="37.8424" gradientUnits="userSpaceOnUse">
<stop stop-color="#FFD945" stop-opacity="0"/>
<stop offset="1" stop-color="#FBED21"/>
</linearGradient>
<linearGradient id="paint16_linear_87_3942" x1="41.2963" y1="50.7331" x2="56.8752" y2="62.7168" gradientUnits="userSpaceOnUse">
<stop stop-color="#FFD945"/>
<stop offset="0.304" stop-color="#FFCD3E"/>
<stop offset="0.856" stop-color="#FFAD2B"/>
<stop offset="1" stop-color="#FFA325"/>
</linearGradient>
<linearGradient id="paint17_linear_87_3942" x1="48.1171" y1="57.6892" x2="42.3094" y2="47.0054" gradientUnits="userSpaceOnUse">
<stop stop-color="#FFD945" stop-opacity="0"/>
<stop offset="1" stop-color="#FBED21"/>
</linearGradient>
<linearGradient id="paint18_linear_87_3942" x1="53.9601" y1="45.5518" x2="54.4445" y2="12.6095" gradientUnits="userSpaceOnUse">
<stop stop-color="white" stop-opacity="0"/>
<stop offset="1" stop-color="white"/>
</linearGradient>
<linearGradient id="paint19_linear_87_3942" x1="36.3033" y1="35.9867" x2="41.0026" y2="42.2526" gradientUnits="userSpaceOnUse">
<stop stop-color="#65E0DB"/>
<stop offset="1" stop-color="#119786"/>
</linearGradient>
<linearGradient id="paint20_linear_87_3942" x1="30.7321" y1="29.4867" x2="34.0553" y2="33.9178" gradientUnits="userSpaceOnUse">
<stop stop-color="#65E0DB"/>
<stop offset="1" stop-color="#119786"/>
</linearGradient>
<linearGradient id="paint21_linear_87_3942" x1="46.2425" y1="25.7508" x2="49.5658" y2="30.1818" gradientUnits="userSpaceOnUse">
<stop stop-color="#65E0DB"/>
<stop offset="1" stop-color="#119786"/>
</linearGradient>
<linearGradient id="paint22_linear_87_3942" x1="75.7657" y1="35.7234" x2="79.089" y2="40.1544" gradientUnits="userSpaceOnUse">
<stop stop-color="#65E0DB"/>
<stop offset="1" stop-color="#119786"/>
</linearGradient>
<linearGradient id="paint23_linear_87_3942" x1="72.6152" y1="25.7033" x2="75.9383" y2="30.1342" gradientUnits="userSpaceOnUse">
<stop stop-color="#65E0DB"/>
<stop offset="1" stop-color="#119786"/>
</linearGradient>
<linearGradient id="paint24_linear_87_3942" x1="24" y1="64.1054" x2="47.0294" y2="64.1054" gradientUnits="userSpaceOnUse">
<stop stop-color="#FFD945"/>
<stop offset="0.304" stop-color="#FFCD3E"/>
<stop offset="0.856" stop-color="#FFAD2B"/>
<stop offset="1" stop-color="#FFA325"/>
</linearGradient>
<linearGradient id="paint25_linear_87_3942" x1="41.5026" y1="55.8286" x2="48.2342" y2="61.214" gradientUnits="userSpaceOnUse">
<stop stop-color="#FFD945"/>
<stop offset="0.304" stop-color="#FFCD3E"/>
<stop offset="0.856" stop-color="#FFAD2B"/>
<stop offset="1" stop-color="#FFA325"/>
</linearGradient>
<linearGradient id="paint26_linear_87_3942" x1="43.4717" y1="58.1771" x2="36.2301" y2="47.8446" gradientUnits="userSpaceOnUse">
<stop stop-color="#FFD945" stop-opacity="0"/>
<stop offset="1" stop-color="#FBED21"/>
</linearGradient>
<linearGradient id="paint27_linear_87_3942" x1="29.9526" y1="60.7353" x2="45.5314" y2="72.7189" gradientUnits="userSpaceOnUse">
<stop stop-color="#FFD945"/>
<stop offset="0.304" stop-color="#FFCD3E"/>
<stop offset="0.856" stop-color="#FFAD2B"/>
<stop offset="1" stop-color="#FFA325"/>
</linearGradient>
<linearGradient id="paint28_linear_87_3942" x1="36.7733" y1="67.6914" x2="30.9657" y2="57.0075" gradientUnits="userSpaceOnUse">
<stop stop-color="#FFD945" stop-opacity="0"/>
<stop offset="1" stop-color="#FBED21"/>
</linearGradient>
<linearGradient id="paint29_linear_87_3942" x1="42.6163" y1="55.5539" x2="43.1007" y2="22.6118" gradientUnits="userSpaceOnUse">
<stop stop-color="white" stop-opacity="0"/>
<stop offset="1" stop-color="white"/>
</linearGradient>
<linearGradient id="paint30_linear_87_3942" x1="46.8947" y1="64.1054" x2="69.9241" y2="64.1054" gradientUnits="userSpaceOnUse">
<stop stop-color="#FFD945"/>
<stop offset="0.304" stop-color="#FFCD3E"/>
<stop offset="0.856" stop-color="#FFAD2B"/>
<stop offset="1" stop-color="#FFA325"/>
</linearGradient>
<linearGradient id="paint31_linear_87_3942" x1="64.3973" y1="55.8286" x2="71.1289" y2="61.214" gradientUnits="userSpaceOnUse">
<stop stop-color="#FFD945"/>
<stop offset="0.304" stop-color="#FFCD3E"/>
<stop offset="0.856" stop-color="#FFAD2B"/>
<stop offset="1" stop-color="#FFA325"/>
</linearGradient>
<linearGradient id="paint32_linear_87_3942" x1="66.3664" y1="58.1771" x2="59.1248" y2="47.8446" gradientUnits="userSpaceOnUse">
<stop stop-color="#FFD945" stop-opacity="0"/>
<stop offset="1" stop-color="#FBED21"/>
</linearGradient>
<linearGradient id="paint33_linear_87_3942" x1="52.8473" y1="60.7353" x2="68.4261" y2="72.7189" gradientUnits="userSpaceOnUse">
<stop stop-color="#FFD945"/>
<stop offset="0.304" stop-color="#FFCD3E"/>
<stop offset="0.856" stop-color="#FFAD2B"/>
<stop offset="1" stop-color="#FFA325"/>
</linearGradient>
<linearGradient id="paint34_linear_87_3942" x1="59.668" y1="67.6914" x2="53.8604" y2="57.0075" gradientUnits="userSpaceOnUse">
<stop stop-color="#FFD945" stop-opacity="0"/>
<stop offset="1" stop-color="#FBED21"/>
</linearGradient>
<linearGradient id="paint35_linear_87_3942" x1="65.5109" y1="55.5539" x2="65.9954" y2="22.6118" gradientUnits="userSpaceOnUse">
<stop stop-color="white" stop-opacity="0"/>
<stop offset="1" stop-color="white"/>
</linearGradient>
<linearGradient id="paint36_linear_87_3942" x1="62.3586" y1="63.8489" x2="52.3134" y2="37.3662" gradientUnits="userSpaceOnUse">
<stop stop-color="#E87264" stop-opacity="0"/>
<stop offset="1" stop-color="#FF7044"/>
</linearGradient>
<linearGradient id="paint37_linear_87_3942" x1="35.3438" y1="54.1032" x2="58.3732" y2="54.1032" gradientUnits="userSpaceOnUse">
<stop stop-color="#FFD945"/>
<stop offset="0.304" stop-color="#FFCD3E"/>
<stop offset="0.856" stop-color="#FFAD2B"/>
<stop offset="1" stop-color="#FFA325"/>
</linearGradient>
<linearGradient id="paint38_linear_87_3942" x1="52.8464" y1="45.8265" x2="59.578" y2="51.2118" gradientUnits="userSpaceOnUse">
<stop stop-color="#FFD945"/>
<stop offset="0.304" stop-color="#FFCD3E"/>
<stop offset="0.856" stop-color="#FFAD2B"/>
<stop offset="1" stop-color="#FFA325"/>
</linearGradient>
<linearGradient id="paint39_linear_87_3942" x1="54.8155" y1="48.1748" x2="47.5739" y2="37.8424" gradientUnits="userSpaceOnUse">
<stop stop-color="#FFD945" stop-opacity="0"/>
<stop offset="1" stop-color="#FBED21"/>
</linearGradient>
<linearGradient id="paint40_linear_87_3942" x1="41.2963" y1="50.7331" x2="56.8752" y2="62.7168" gradientUnits="userSpaceOnUse">
<stop stop-color="#FFD945"/>
<stop offset="0.304" stop-color="#FFCD3E"/>
<stop offset="0.856" stop-color="#FFAD2B"/>
<stop offset="1" stop-color="#FFA325"/>
</linearGradient>
<linearGradient id="paint41_linear_87_3942" x1="48.1171" y1="57.6892" x2="42.3094" y2="47.0054" gradientUnits="userSpaceOnUse">
<stop stop-color="#FFD945" stop-opacity="0"/>
<stop offset="1" stop-color="#FBED21"/>
</linearGradient>
<linearGradient id="paint42_linear_87_3942" x1="53.9601" y1="45.5518" x2="54.4445" y2="12.6095" gradientUnits="userSpaceOnUse">
<stop stop-color="white" stop-opacity="0"/>
<stop offset="1" stop-color="white"/>
</linearGradient>
<linearGradient id="paint43_linear_87_3942" x1="36.3033" y1="35.9867" x2="41.0026" y2="42.2526" gradientUnits="userSpaceOnUse">
<stop stop-color="#65E0DB"/>
<stop offset="1" stop-color="#119786"/>
</linearGradient>
<linearGradient id="paint44_linear_87_3942" x1="30.7321" y1="29.4867" x2="34.0553" y2="33.9178" gradientUnits="userSpaceOnUse">
<stop stop-color="#65E0DB"/>
<stop offset="1" stop-color="#119786"/>
</linearGradient>
<linearGradient id="paint45_linear_87_3942" x1="46.2425" y1="25.7508" x2="49.5658" y2="30.1818" gradientUnits="userSpaceOnUse">
<stop stop-color="#65E0DB"/>
<stop offset="1" stop-color="#119786"/>
</linearGradient>
<linearGradient id="paint46_linear_87_3942" x1="75.7657" y1="35.7234" x2="79.089" y2="40.1544" gradientUnits="userSpaceOnUse">
<stop stop-color="#65E0DB"/>
<stop offset="1" stop-color="#119786"/>
</linearGradient>
<linearGradient id="paint47_linear_87_3942" x1="72.6152" y1="25.7033" x2="75.9383" y2="30.1342" gradientUnits="userSpaceOnUse">
<stop stop-color="#65E0DB"/>
<stop offset="1" stop-color="#119786"/>
</linearGradient>
<clipPath id="clip0_87_3942">
<rect width="60" height="45.4445" fill="white" transform="translate(24 24)"/>
</clipPath>
<clipPath id="clip1_87_3942">
<rect width="60" height="45.4445" fill="white" transform="translate(24 24)"/>
</clipPath>
</defs>
<script xmlns=""/></svg>