<svg xmlns="http://www.w3.org/2000/svg" width="104" height="90" viewBox="0 0 104 90" fill="none"><script xmlns=""/>
<g filter="url(#filter0_f_87_3565)">
<path d="M24 38.9333V55.8271C24 60.9299 28.1366 65.0666 33.2395 65.0666C35.69 65.0665 38.0401 64.0931 39.7728 62.3604L48.5869 53.5464C49.577 52.5562 50.1332 51.2133 50.1333 49.813V38.9333H24ZM79.9999 38.9333V55.8271C79.9999 60.9299 75.8632 65.0666 70.7604 65.0666C68.3099 65.0665 65.9598 64.0931 64.2271 62.3604L55.413 53.5464C54.4229 52.5562 53.8667 51.2133 53.8666 49.813V38.9333H79.9999Z" fill="#A5C3DC"/>
<path d="M66.9332 25.8667H37.0666C29.8501 25.8667 24 31.7168 24 38.9333V53.4137C24 57.7875 27.5457 61.3332 31.9196 61.3332C32.9596 61.3333 33.9894 61.1284 34.9502 60.7304C35.9111 60.3324 36.7841 59.7491 37.5195 59.0137L42.9869 53.5463L43.0004 53.5328C43.9567 52.5694 45.239 51.9999 46.5965 51.9999H57.4035C58.7609 51.9999 60.0433 52.5694 60.9996 53.5328L61.0131 53.5463L66.4805 59.0137C67.2159 59.7491 68.0889 60.3324 69.0498 60.7304C70.0106 61.1284 71.0404 61.3333 72.0804 61.3332C76.4543 61.3332 80 57.7875 80 53.4137V38.9333C79.9999 31.7168 74.1498 25.8667 66.9332 25.8667Z" fill="#D7E6F0"/>
<path d="M56.2545 31.4666H47.7453C47.3536 31.4667 46.9717 31.3434 46.6539 31.1143C46.3361 30.8853 46.0984 30.562 45.9745 30.1903L44.5333 25.8667H59.4666L58.0254 30.1903C57.9015 30.562 57.6638 30.8853 57.346 31.1143C57.0282 31.3434 56.6463 31.4667 56.2545 31.4666Z" fill="#A5C3DC"/>
<path d="M44.5333 50.1333C47.1106 50.1333 49.1999 48.0439 49.1999 45.4666C49.1999 42.8893 47.1106 40.8 44.5333 40.8C41.956 40.8 39.8666 42.8893 39.8666 45.4666C39.8666 48.0439 41.956 50.1333 44.5333 50.1333Z" fill="#A5C3DC"/>
<path d="M47.3333 44.0666H45.9333V42.6666C45.9333 42.4191 45.835 42.1817 45.6599 42.0067C45.4849 41.8316 45.2475 41.7333 45 41.7333H44.0666C43.8191 41.7333 43.5817 41.8316 43.4067 42.0067C43.2316 42.1817 43.1333 42.4191 43.1333 42.6666V44.0666H41.7333C41.4858 44.0666 41.2484 44.165 41.0733 44.34C40.8983 44.515 40.8 44.7524 40.8 45V45.9333C40.8 46.1808 40.8983 46.4182 41.0733 46.5932C41.2484 46.7683 41.4858 46.8666 41.7333 46.8666H43.1333V48.2666C43.1333 48.5141 43.2316 48.7515 43.4067 48.9266C43.5817 49.1016 43.8191 49.1999 44.0666 49.1999H45C45.2475 49.1999 45.4849 49.1016 45.6599 48.9266C45.835 48.7515 45.9333 48.5141 45.9333 48.2666V46.8666H47.3333C47.5808 46.8666 47.8182 46.7683 47.9932 46.5932C48.1683 46.4182 48.2666 46.1808 48.2666 45.9333V45C48.2666 44.7524 48.1683 44.515 47.9932 44.34C47.8182 44.165 47.5808 44.0666 47.3333 44.0666Z" fill="#555A6E"/>
<path d="M59.4666 50.1333C62.0439 50.1333 64.1332 48.0439 64.1332 45.4666C64.1332 42.8893 62.0439 40.8 59.4666 40.8C56.8893 40.8 54.7999 42.8893 54.7999 45.4666C54.7999 48.0439 56.8893 50.1333 59.4666 50.1333Z" fill="#463C4B"/>
<path d="M59.4666 48.2666C61.013 48.2666 62.2666 47.013 62.2666 45.4666C62.2666 43.9202 61.013 42.6666 59.4666 42.6666C57.9202 42.6666 56.6666 43.9202 56.6666 45.4666C56.6666 47.013 57.9202 48.2666 59.4666 48.2666Z" fill="#555A6E"/>
<path d="M35.2 41.4221C37.7773 41.4221 39.8666 39.3328 39.8666 36.7555C39.8666 34.1782 37.7773 32.0888 35.2 32.0888C32.6227 32.0888 30.5333 34.1782 30.5333 36.7555C30.5333 39.3328 32.6227 41.4221 35.2 41.4221Z" fill="#463C4B"/>
<path d="M35.2 39.5555C36.7464 39.5555 38 38.3019 38 36.7555C38 35.2091 36.7464 33.9555 35.2 33.9555C33.6536 33.9555 32.4 35.2091 32.4 36.7555C32.4 38.3019 33.6536 39.5555 35.2 39.5555Z" fill="#555A6E"/>
<path d="M68.7999 34.5778C69.8308 34.5778 70.6666 33.7421 70.6666 32.7111C70.6666 31.6802 69.8308 30.8445 68.7999 30.8445C67.769 30.8445 66.9332 31.6802 66.9332 32.7111C66.9332 33.7421 67.769 34.5778 68.7999 34.5778Z" fill="#00D2D2"/>
<path d="M68.7999 42.0444C69.8308 42.0444 70.6666 41.2087 70.6666 40.1778C70.6666 39.1469 69.8308 38.3111 68.7999 38.3111C67.769 38.3111 66.9332 39.1469 66.9332 40.1778C66.9332 41.2087 67.769 42.0444 68.7999 42.0444Z" fill="#00D2D2"/>
<path d="M65.0666 38.3111C66.0975 38.3111 66.9332 37.4754 66.9332 36.4445C66.9332 35.4135 66.0975 34.5778 65.0666 34.5778C64.0357 34.5778 63.1999 35.4135 63.1999 36.4445C63.1999 37.4754 64.0357 38.3111 65.0666 38.3111Z" fill="#FF6E91"/>
<path d="M72.5332 38.3111C73.5642 38.3111 74.3999 37.4754 74.3999 36.4445C74.3999 35.4135 73.5642 34.5778 72.5332 34.5778C71.5023 34.5778 70.6666 35.4135 70.6666 36.4445C70.6666 37.4754 71.5023 38.3111 72.5332 38.3111Z" fill="#FF6E91"/>
<path d="M48.2666 38C49.2975 38 50.1333 37.1642 50.1333 36.1333C50.1333 35.1024 49.2975 34.2666 48.2666 34.2666C47.2357 34.2666 46.3999 35.1024 46.3999 36.1333C46.3999 37.1642 47.2357 38 48.2666 38Z" fill="#A5C3DC"/>
<path d="M55.7333 38C56.7642 38 57.5999 37.1642 57.5999 36.1333C57.5999 35.1024 56.7642 34.2666 55.7333 34.2666C54.7023 34.2666 53.8666 35.1024 53.8666 36.1333C53.8666 37.1642 54.7023 38 55.7333 38Z" fill="#A5C3DC"/>
<path d="M42.6666 24H38.9333C37.9023 24 37.0666 24.8357 37.0666 25.8667H44.5333C44.5333 24.8357 43.6976 24 42.6666 24ZM65.0666 24H61.3333C60.3023 24 59.4666 24.8357 59.4666 25.8667H66.9332C66.9332 24.8357 66.0976 24 65.0666 24Z" fill="#555A6E"/>
</g>
<g clip-path="url(#clip1_87_3565)">
<path d="M24 38.9333V55.8271C24 60.9299 28.1366 65.0666 33.2395 65.0666C35.69 65.0665 38.0401 64.0931 39.7728 62.3604L48.5869 53.5464C49.577 52.5562 50.1332 51.2133 50.1333 49.813V38.9333H24ZM79.9999 38.9333V55.8271C79.9999 60.9299 75.8632 65.0666 70.7604 65.0666C68.3099 65.0665 65.9598 64.0931 64.2271 62.3604L55.413 53.5464C54.4229 52.5562 53.8667 51.2133 53.8666 49.813V38.9333H79.9999Z" fill="#A5C3DC"/>
<path d="M66.9332 25.8667H37.0666C29.8501 25.8667 24 31.7168 24 38.9333V53.4137C24 57.7875 27.5457 61.3332 31.9196 61.3332C32.9596 61.3333 33.9894 61.1284 34.9502 60.7304C35.9111 60.3324 36.7841 59.7491 37.5195 59.0137L42.9869 53.5463L43.0004 53.5328C43.9567 52.5694 45.239 51.9999 46.5965 51.9999H57.4035C58.7609 51.9999 60.0433 52.5694 60.9996 53.5328L61.0131 53.5463L66.4805 59.0137C67.2159 59.7491 68.0889 60.3324 69.0498 60.7304C70.0106 61.1284 71.0404 61.3333 72.0804 61.3332C76.4543 61.3332 80 57.7875 80 53.4137V38.9333C79.9999 31.7168 74.1498 25.8667 66.9332 25.8667Z" fill="#D7E6F0"/>
<path d="M56.2545 31.4666H47.7453C47.3536 31.4667 46.9717 31.3434 46.6539 31.1143C46.3361 30.8853 46.0984 30.562 45.9745 30.1903L44.5333 25.8667H59.4666L58.0254 30.1903C57.9015 30.562 57.6638 30.8853 57.346 31.1143C57.0282 31.3434 56.6463 31.4667 56.2545 31.4666Z" fill="#A5C3DC"/>
<path d="M44.5333 50.1333C47.1106 50.1333 49.1999 48.0439 49.1999 45.4666C49.1999 42.8893 47.1106 40.8 44.5333 40.8C41.956 40.8 39.8666 42.8893 39.8666 45.4666C39.8666 48.0439 41.956 50.1333 44.5333 50.1333Z" fill="#A5C3DC"/>
<path d="M47.3333 44.0666H45.9333V42.6666C45.9333 42.4191 45.835 42.1817 45.6599 42.0067C45.4849 41.8316 45.2475 41.7333 45 41.7333H44.0666C43.8191 41.7333 43.5817 41.8316 43.4067 42.0067C43.2316 42.1817 43.1333 42.4191 43.1333 42.6666V44.0666H41.7333C41.4858 44.0666 41.2484 44.165 41.0733 44.34C40.8983 44.515 40.8 44.7524 40.8 45V45.9333C40.8 46.1808 40.8983 46.4182 41.0733 46.5932C41.2484 46.7683 41.4858 46.8666 41.7333 46.8666H43.1333V48.2666C43.1333 48.5141 43.2316 48.7515 43.4067 48.9266C43.5817 49.1016 43.8191 49.1999 44.0666 49.1999H45C45.2475 49.1999 45.4849 49.1016 45.6599 48.9266C45.835 48.7515 45.9333 48.5141 45.9333 48.2666V46.8666H47.3333C47.5808 46.8666 47.8182 46.7683 47.9932 46.5932C48.1683 46.4182 48.2666 46.1808 48.2666 45.9333V45C48.2666 44.7524 48.1683 44.515 47.9932 44.34C47.8182 44.165 47.5808 44.0666 47.3333 44.0666Z" fill="#555A6E"/>
<path d="M59.4666 50.1333C62.0439 50.1333 64.1332 48.0439 64.1332 45.4666C64.1332 42.8893 62.0439 40.8 59.4666 40.8C56.8893 40.8 54.7999 42.8893 54.7999 45.4666C54.7999 48.0439 56.8893 50.1333 59.4666 50.1333Z" fill="#463C4B"/>
<path d="M59.4666 48.2666C61.013 48.2666 62.2666 47.013 62.2666 45.4666C62.2666 43.9202 61.013 42.6666 59.4666 42.6666C57.9202 42.6666 56.6666 43.9202 56.6666 45.4666C56.6666 47.013 57.9202 48.2666 59.4666 48.2666Z" fill="#555A6E"/>
<path d="M35.2 41.4221C37.7773 41.4221 39.8666 39.3328 39.8666 36.7555C39.8666 34.1782 37.7773 32.0888 35.2 32.0888C32.6227 32.0888 30.5333 34.1782 30.5333 36.7555C30.5333 39.3328 32.6227 41.4221 35.2 41.4221Z" fill="#463C4B"/>
<path d="M35.2 39.5555C36.7464 39.5555 38 38.3019 38 36.7555C38 35.2091 36.7464 33.9555 35.2 33.9555C33.6536 33.9555 32.4 35.2091 32.4 36.7555C32.4 38.3019 33.6536 39.5555 35.2 39.5555Z" fill="#555A6E"/>
<path d="M68.7999 34.5778C69.8308 34.5778 70.6666 33.7421 70.6666 32.7111C70.6666 31.6802 69.8308 30.8445 68.7999 30.8445C67.769 30.8445 66.9332 31.6802 66.9332 32.7111C66.9332 33.7421 67.769 34.5778 68.7999 34.5778Z" fill="#00D2D2"/>
<path d="M68.7999 42.0444C69.8308 42.0444 70.6666 41.2087 70.6666 40.1778C70.6666 39.1469 69.8308 38.3111 68.7999 38.3111C67.769 38.3111 66.9332 39.1469 66.9332 40.1778C66.9332 41.2087 67.769 42.0444 68.7999 42.0444Z" fill="#00D2D2"/>
<path d="M65.0666 38.3111C66.0975 38.3111 66.9332 37.4754 66.9332 36.4445C66.9332 35.4135 66.0975 34.5778 65.0666 34.5778C64.0357 34.5778 63.1999 35.4135 63.1999 36.4445C63.1999 37.4754 64.0357 38.3111 65.0666 38.3111Z" fill="#FF6E91"/>
<path d="M72.5332 38.3111C73.5642 38.3111 74.3999 37.4754 74.3999 36.4445C74.3999 35.4135 73.5642 34.5778 72.5332 34.5778C71.5023 34.5778 70.6666 35.4135 70.6666 36.4445C70.6666 37.4754 71.5023 38.3111 72.5332 38.3111Z" fill="#FF6E91"/>
<path d="M48.2666 38C49.2975 38 50.1333 37.1642 50.1333 36.1333C50.1333 35.1024 49.2975 34.2666 48.2666 34.2666C47.2357 34.2666 46.3999 35.1024 46.3999 36.1333C46.3999 37.1642 47.2357 38 48.2666 38Z" fill="#A5C3DC"/>
<path d="M55.7333 38C56.7642 38 57.5999 37.1642 57.5999 36.1333C57.5999 35.1024 56.7642 34.2666 55.7333 34.2666C54.7023 34.2666 53.8666 35.1024 53.8666 36.1333C53.8666 37.1642 54.7023 38 55.7333 38Z" fill="#A5C3DC"/>
<path d="M42.6666 24H38.9333C37.9023 24 37.0666 24.8357 37.0666 25.8667H44.5333C44.5333 24.8357 43.6976 24 42.6666 24ZM65.0666 24H61.3333C60.3023 24 59.4666 24.8357 59.4666 25.8667H66.9332C66.9332 24.8357 66.0976 24 65.0666 24Z" fill="#555A6E"/>
</g>
<defs>
<filter id="filter0_f_87_3565" x="0" y="0" width="104" height="89.0666" filterUnits="userSpaceOnUse" color-interpolation-filters="sRGB">
<feFlood flood-opacity="0" result="BackgroundImageFix"/>
<feBlend mode="normal" in="SourceGraphic" in2="BackgroundImageFix" result="shape"/>
<feGaussianBlur stdDeviation="12" result="effect1_foregroundBlur_87_3565"/>
</filter>
<clipPath id="clip0_87_3565">
<rect width="56" height="41.0666" fill="white" transform="translate(24 24)"/>
</clipPath>
<clipPath id="clip1_87_3565">
<rect width="56" height="41.0666" fill="white" transform="translate(24 24)"/>
</clipPath>
</defs>
<script xmlns=""/></svg>