<svg xmlns="http://www.w3.org/2000/svg" width="108" height="108" viewBox="0 0 108 108" fill="none"><script xmlns=""/>
<g filter="url(#filter0_f_87_3604)">
<path d="M84 50.8288C84 36.0116 70.5686 24 54 24C37.4314 24 24 36.0116 24 50.8288V57.1713C24 71.9884 37.4314 84 54 84C70.5686 84 84 71.9884 84 57.1713V50.8288Z" fill="url(#paint0_linear_87_3604)"/>
<path d="M78.7078 35.6109C73.2962 28.5974 64.2492 24 54 24C43.7508 24 34.7039 28.5974 29.2922 35.6109V72.3892C34.7039 79.4026 43.7508 84 54 84C64.2492 84 73.2962 79.4026 78.7078 72.3892V35.6109Z" fill="url(#paint1_linear_87_3604)"/>
<path d="M36.404 78.9006C41.3472 82.1075 47.426 84 54 84C60.574 84 66.6528 82.1075 71.5961 78.9006V29.0994C66.6528 25.8925 60.574 24 54 24C47.426 24 41.3472 25.8925 36.4039 29.0994L36.404 78.9006Z" fill="url(#paint2_linear_87_3604)"/>
<path d="M47.1842 83.3041C49.3739 83.7591 51.6555 84 54 84C56.3445 84 58.6261 83.7591 60.8159 83.3041V24.6959C58.6261 24.2409 56.3446 24 54 24C51.6554 24 49.3739 24.2409 47.1841 24.6959L47.1842 83.3041Z" fill="url(#paint3_linear_87_3604)"/>
<path d="M54 77.6574C70.5685 77.6574 84 65.6458 84 50.8287C84 36.0116 70.5685 24 54 24C37.4315 24 24 36.0116 24 50.8287C24 65.6458 37.4315 77.6574 54 77.6574Z" fill="url(#paint4_radial_87_3604)"/>
<path d="M54 73.376C67.9245 73.376 79.2125 63.2812 79.2125 50.8287C79.2125 38.3762 67.9245 28.2814 54 28.2814C40.0755 28.2814 28.7875 38.3762 28.7875 50.8287C28.7875 63.2812 40.0755 73.376 54 73.376Z" fill="url(#paint5_radial_87_3604)"/>
<path d="M54 71.2406C66.6057 71.2406 76.8246 62.1019 76.8246 50.8287C76.8246 39.5555 66.6057 30.4168 54 30.4168C41.3943 30.4168 31.1754 39.5555 31.1754 50.8287C31.1754 62.1019 41.3943 71.2406 54 71.2406Z" fill="url(#paint6_radial_87_3604)"/>
<path d="M54 75.9741C69.529 75.9741 82.1178 64.7161 82.1178 50.8287C82.1178 36.9413 69.529 25.6833 54 25.6833C38.471 25.6833 25.8822 36.9413 25.8822 50.8287C25.8822 64.7161 38.471 75.9741 54 75.9741Z" fill="url(#paint7_linear_87_3604)"/>
</g>
<g clip-path="url(#clip1_87_3604)">
<path d="M84 50.8288C84 36.0116 70.5686 24 54 24C37.4314 24 24 36.0116 24 50.8288V57.1713C24 71.9884 37.4314 84 54 84C70.5686 84 84 71.9884 84 57.1713V50.8288Z" fill="url(#paint8_linear_87_3604)"/>
<path d="M78.7078 35.6109C73.2962 28.5974 64.2492 24 54 24C43.7508 24 34.7039 28.5974 29.2922 35.6109V72.3892C34.7039 79.4026 43.7508 84 54 84C64.2492 84 73.2962 79.4026 78.7078 72.3892V35.6109Z" fill="url(#paint9_linear_87_3604)"/>
<path d="M36.404 78.9006C41.3472 82.1075 47.426 84 54 84C60.574 84 66.6528 82.1075 71.5961 78.9006V29.0994C66.6528 25.8925 60.574 24 54 24C47.426 24 41.3472 25.8925 36.4039 29.0994L36.404 78.9006Z" fill="url(#paint10_linear_87_3604)"/>
<path d="M47.1842 83.3041C49.3739 83.7591 51.6555 84 54 84C56.3445 84 58.6261 83.7591 60.8159 83.3041V24.6959C58.6261 24.2409 56.3446 24 54 24C51.6554 24 49.3739 24.2409 47.1841 24.6959L47.1842 83.3041Z" fill="url(#paint11_linear_87_3604)"/>
<path d="M54 77.6574C70.5685 77.6574 84 65.6458 84 50.8287C84 36.0116 70.5685 24 54 24C37.4315 24 24 36.0116 24 50.8287C24 65.6458 37.4315 77.6574 54 77.6574Z" fill="url(#paint12_radial_87_3604)"/>
<path d="M54 73.376C67.9245 73.376 79.2125 63.2812 79.2125 50.8287C79.2125 38.3762 67.9245 28.2814 54 28.2814C40.0755 28.2814 28.7875 38.3762 28.7875 50.8287C28.7875 63.2812 40.0755 73.376 54 73.376Z" fill="url(#paint13_radial_87_3604)"/>
<path d="M54 71.2406C66.6057 71.2406 76.8246 62.1019 76.8246 50.8287C76.8246 39.5555 66.6057 30.4168 54 30.4168C41.3943 30.4168 31.1754 39.5555 31.1754 50.8287C31.1754 62.1019 41.3943 71.2406 54 71.2406Z" fill="url(#paint14_radial_87_3604)"/>
<path d="M54 75.9741C69.529 75.9741 82.1178 64.7161 82.1178 50.8287C82.1178 36.9413 69.529 25.6833 54 25.6833C38.471 25.6833 25.8822 36.9413 25.8822 50.8287C25.8822 64.7161 38.471 75.9741 54 75.9741Z" fill="url(#paint15_linear_87_3604)"/>
<g clip-path="url(#clip2_87_3604)">
<path d="M47.0551 56.1683C46.806 56.1683 46.6396 56.3378 46.6396 56.5747C46.6396 56.8284 46.806 56.9872 47.0551 56.9872C47.2882 56.9872 47.454 56.829 47.454 56.5747C47.454 56.3371 47.2875 56.1683 47.0551 56.1683Z" fill="#04141E"/>
<path d="M50.0252 56.2678C49.2636 56.2678 48.7161 55.749 48.7161 55.0109C48.7161 54.2727 49.2577 53.7424 50.0252 53.7424C50.5727 53.7424 50.996 53.9941 51.2001 54.4147H51.994C51.7582 53.556 50.9908 53.0096 50.0252 53.0096C48.8449 53.0096 47.9651 53.8568 47.9651 55.0102C47.9651 56.1636 48.8502 57 50.0252 57C50.9908 57 51.7635 56.4536 51.994 55.5956H51.2001C50.9914 56.0108 50.5668 56.2678 50.0252 56.2678Z" fill="#04141E"/>
<path d="M54.2932 53.023C53.1209 53.023 52.2464 53.8649 52.2464 55.0102C52.2464 56.1555 53.1262 56.9865 54.2932 56.9865C55.4602 56.9865 56.3347 56.1831 56.3347 55.0102C56.3347 53.8373 55.4609 53.023 54.2932 53.023ZM54.2932 56.2598C53.5363 56.2598 52.9927 55.7443 52.9927 55.0109C52.9927 54.2774 53.531 53.7512 54.2932 53.7512C55.0554 53.7512 55.5884 54.2619 55.5884 55.0109C55.5884 55.7598 55.0659 56.2598 54.2932 56.2598Z" fill="#04141E"/>
<path d="M60.0756 53.0278L58.828 56.0384L57.575 53.0278H56.5883V56.9825H57.3644V54.4342L58.435 56.9825H59.2163L60.2869 54.4456V56.9825H61.063V53.0278H60.0762H60.0756Z" fill="#04141E"/>
<path d="M44.6991 51.7607L42.865 49.3073C43.8306 48.8436 44.542 47.9157 44.542 46.8067C44.542 45.1197 43.1649 44 41.4985 44H37.5V51.9216H39.0548V49.6128H41.165L42.8868 51.9216H44.8194L44.6985 51.7607H44.6991ZM41.4985 48.1304H39.0548V45.4595H41.4985C42.3651 45.4595 42.9872 46.0255 42.9872 46.8067C42.9872 47.588 42.3545 48.1304 41.4985 48.1304Z" fill="#04141E"/>
<path d="M50.9571 44H49.224L45.4045 51.7607L45.3253 51.9216H47.0464L47.9691 50.0535L48.6798 48.6047L50.0899 45.7529L51.5007 48.6047L52.2219 50.0535L53.1446 51.9216H54.8777L50.9571 44Z" fill="#04141E"/>
<path d="M59.2995 47.9608L62.987 44H60.8767L57.8439 47.2367H56.9555V44H55.4008V51.9216H56.9555V48.6848H57.8115L61.1099 51.9216H63.2762L59.2995 47.9608Z" fill="#04141E"/>
<path d="M70.2019 45.4595V44H63.7815V51.9216H70.2019V50.4506H65.3369V48.6848H70.0243V47.2246H65.3369V45.4595H70.2019Z" fill="#04141E"/>
<path d="M49.1685 51.9357H51.037L50.1025 50.9842L49.1685 51.9357Z" fill="#04141E"/>
<path d="M51.0371 49.4634L50.1025 48.5112L49.1685 49.4634L48.234 50.4149L49.1685 51.367L50.1025 50.4149L51.0371 51.367L51.971 50.4149L51.0371 49.4634Z" fill="#04141E"/>
</g>
</g>
<defs>
<filter id="filter0_f_87_3604" x="0" y="0" width="108" height="108" filterUnits="userSpaceOnUse" color-interpolation-filters="sRGB">
<feFlood flood-opacity="0" result="BackgroundImageFix"/>
<feBlend mode="normal" in="SourceGraphic" in2="BackgroundImageFix" result="shape"/>
<feGaussianBlur stdDeviation="12" result="effect1_foregroundBlur_87_3604"/>
</filter>
<linearGradient id="paint0_linear_87_3604" x1="24" y1="54" x2="84" y2="54" gradientUnits="userSpaceOnUse">
<stop stop-color="#FFC738"/>
<stop offset="0.234" stop-color="#FEC33A"/>
<stop offset="0.445" stop-color="#FBB840"/>
<stop offset="0.647" stop-color="#F6A649"/>
<stop offset="0.843" stop-color="#F08D56"/>
<stop offset="1" stop-color="#E97264"/>
</linearGradient>
<linearGradient id="paint1_linear_87_3604" x1="51.1442" y1="48.5082" x2="75.8025" y2="95.9279" gradientUnits="userSpaceOnUse">
<stop stop-color="#FCA17A" stop-opacity="0"/>
<stop offset="0.152" stop-color="#F69373" stop-opacity="0.152"/>
<stop offset="0.416" stop-color="#EF816B" stop-opacity="0.416"/>
<stop offset="0.693" stop-color="#EA7666" stop-opacity="0.693"/>
<stop offset="1" stop-color="#E97264"/>
</linearGradient>
<linearGradient id="paint2_linear_87_3604" x1="53.077" y1="63.3619" x2="50.1646" y2="92.9022" gradientUnits="userSpaceOnUse">
<stop stop-color="#E97264" stop-opacity="0"/>
<stop offset="1" stop-color="#B53759"/>
</linearGradient>
<linearGradient id="paint3_linear_87_3604" x1="48.0581" y1="64.8675" x2="39.0549" y2="81.3338" gradientUnits="userSpaceOnUse">
<stop stop-color="#E97264" stop-opacity="0"/>
<stop offset="1" stop-color="#B53759"/>
</linearGradient>
<radialGradient id="paint4_radial_87_3604" cx="0" cy="0" r="1" gradientUnits="userSpaceOnUse" gradientTransform="translate(45.6235 31.3854) scale(56.5634 50.5677)">
<stop stop-color="#FFC738"/>
<stop offset="0.234" stop-color="#FEC33A"/>
<stop offset="0.445" stop-color="#FBB840"/>
<stop offset="0.647" stop-color="#F6A649"/>
<stop offset="0.843" stop-color="#F08D56"/>
<stop offset="1" stop-color="#E97264"/>
</radialGradient>
<radialGradient id="paint5_radial_87_3604" cx="0" cy="0" r="1" gradientUnits="userSpaceOnUse" gradientTransform="translate(55.9525 56.9274) rotate(180) scale(39.4599 35.2771)">
<stop stop-color="#FFC738"/>
<stop offset="0.234" stop-color="#FEC33A"/>
<stop offset="0.445" stop-color="#FBB840"/>
<stop offset="0.647" stop-color="#F6A649"/>
<stop offset="0.843" stop-color="#F08D56"/>
<stop offset="1" stop-color="#E97264"/>
</radialGradient>
<radialGradient id="paint6_radial_87_3604" cx="0" cy="0" r="1" gradientUnits="userSpaceOnUse" gradientTransform="translate(50.1173 38.3132) scale(44.4247 39.7157)">
<stop stop-color="#FFC738"/>
<stop offset="0.234" stop-color="#FEC33A"/>
<stop offset="0.445" stop-color="#FBB840"/>
<stop offset="0.647" stop-color="#F6A649"/>
<stop offset="0.843" stop-color="#F08D56"/>
<stop offset="1" stop-color="#E97264"/>
</radialGradient>
<linearGradient id="paint7_linear_87_3604" x1="67.2872" y1="64.7609" x2="24.7375" y2="20.1456" gradientUnits="userSpaceOnUse">
<stop stop-color="#FFD945" stop-opacity="0"/>
<stop offset="1" stop-color="#FBED21"/>
</linearGradient>
<linearGradient id="paint8_linear_87_3604" x1="24" y1="54" x2="84" y2="54" gradientUnits="userSpaceOnUse">
<stop stop-color="#FFC738"/>
<stop offset="0.234" stop-color="#FEC33A"/>
<stop offset="0.445" stop-color="#FBB840"/>
<stop offset="0.647" stop-color="#F6A649"/>
<stop offset="0.843" stop-color="#F08D56"/>
<stop offset="1" stop-color="#E97264"/>
</linearGradient>
<linearGradient id="paint9_linear_87_3604" x1="51.1442" y1="48.5082" x2="75.8025" y2="95.9279" gradientUnits="userSpaceOnUse">
<stop stop-color="#FCA17A" stop-opacity="0"/>
<stop offset="0.152" stop-color="#F69373" stop-opacity="0.152"/>
<stop offset="0.416" stop-color="#EF816B" stop-opacity="0.416"/>
<stop offset="0.693" stop-color="#EA7666" stop-opacity="0.693"/>
<stop offset="1" stop-color="#E97264"/>
</linearGradient>
<linearGradient id="paint10_linear_87_3604" x1="53.077" y1="63.3619" x2="50.1646" y2="92.9022" gradientUnits="userSpaceOnUse">
<stop stop-color="#E97264" stop-opacity="0"/>
<stop offset="1" stop-color="#B53759"/>
</linearGradient>
<linearGradient id="paint11_linear_87_3604" x1="48.0581" y1="64.8675" x2="39.0549" y2="81.3338" gradientUnits="userSpaceOnUse">
<stop stop-color="#E97264" stop-opacity="0"/>
<stop offset="1" stop-color="#B53759"/>
</linearGradient>
<radialGradient id="paint12_radial_87_3604" cx="0" cy="0" r="1" gradientUnits="userSpaceOnUse" gradientTransform="translate(45.6235 31.3854) scale(56.5634 50.5677)">
<stop stop-color="#FFC738"/>
<stop offset="0.234" stop-color="#FEC33A"/>
<stop offset="0.445" stop-color="#FBB840"/>
<stop offset="0.647" stop-color="#F6A649"/>
<stop offset="0.843" stop-color="#F08D56"/>
<stop offset="1" stop-color="#E97264"/>
</radialGradient>
<radialGradient id="paint13_radial_87_3604" cx="0" cy="0" r="1" gradientUnits="userSpaceOnUse" gradientTransform="translate(55.9525 56.9274) rotate(180) scale(39.4599 35.2771)">
<stop stop-color="#FFC738"/>
<stop offset="0.234" stop-color="#FEC33A"/>
<stop offset="0.445" stop-color="#FBB840"/>
<stop offset="0.647" stop-color="#F6A649"/>
<stop offset="0.843" stop-color="#F08D56"/>
<stop offset="1" stop-color="#E97264"/>
</radialGradient>
<radialGradient id="paint14_radial_87_3604" cx="0" cy="0" r="1" gradientUnits="userSpaceOnUse" gradientTransform="translate(50.1173 38.3132) scale(44.4247 39.7157)">
<stop stop-color="#FFC738"/>
<stop offset="0.234" stop-color="#FEC33A"/>
<stop offset="0.445" stop-color="#FBB840"/>
<stop offset="0.647" stop-color="#F6A649"/>
<stop offset="0.843" stop-color="#F08D56"/>
<stop offset="1" stop-color="#E97264"/>
</radialGradient>
<linearGradient id="paint15_linear_87_3604" x1="67.2872" y1="64.7609" x2="24.7375" y2="20.1456" gradientUnits="userSpaceOnUse">
<stop stop-color="#FFD945" stop-opacity="0"/>
<stop offset="1" stop-color="#FBED21"/>
</linearGradient>
<clipPath id="clip0_87_3604">
<rect width="60" height="60" fill="white" transform="translate(24 24)"/>
</clipPath>
<clipPath id="clip1_87_3604">
<rect width="60" height="60" fill="white" transform="translate(24 24)"/>
</clipPath>
<clipPath id="clip2_87_3604">
<rect width="33" height="13" fill="white" transform="translate(37.5 44)"/>
</clipPath>
</defs>
<script xmlns=""/></svg>