<svg xmlns="http://www.w3.org/2000/svg" width="108" height="99" viewBox="0 0 108 99" fill="none"><script xmlns=""/>
<g filter="url(#filter0_f_87_3351)">
<path d="M62.3385 71.7046C74.3018 71.7046 84 62.0064 84 50.0431C84 38.0796 74.3018 28.3814 62.3385 28.3814C50.3752 28.3814 40.6769 38.0796 40.6769 50.0429C40.6769 62.0064 50.3751 71.7046 62.3385 71.7046Z" fill="url(#paint0_linear_87_3351)"/>
<path d="M83.5277 45.5272L74.3661 47.4861C73.7087 47.6265 73.0284 47.6191 72.3742 47.4644C71.72 47.3097 71.1083 47.0116 70.5834 46.5917L63.8199 41.1788C63.2891 40.7537 62.8605 40.2147 62.5659 39.6018C62.2712 38.9888 62.118 38.3175 62.1176 37.6374V37.6289L62.132 28.3825C62.2009 28.3818 62.2697 28.3815 62.3385 28.3816C72.753 28.3814 81.4516 35.732 83.5277 45.5272Z" fill="url(#paint1_linear_87_3351)"/>
<path d="M62.1175 37.6288V37.6373C62.1172 38.3173 61.9641 38.9886 61.6696 39.6015C61.3751 40.2145 60.9467 40.7535 60.416 41.1787L53.6525 46.5915C52.7355 47.325 51.57 47.6745 50.4007 47.5667C50.222 47.5502 50.0445 47.5233 49.8689 47.486L42.1218 45.8295L41.1295 45.6172C43.1572 35.8508 51.7615 28.4927 62.103 28.3831L62.1175 37.6288Z" fill="url(#paint2_linear_87_3351)"/>
<path d="M54.6209 60.918L54.5632 60.9834L49.3822 66.7241C49.2602 66.8595 49.1282 66.9856 48.9873 67.1013C43.9279 63.1359 40.6769 56.9696 40.6769 50.0431C40.676 48.6555 40.808 47.2711 41.0711 45.9087C41.4158 45.8326 41.7696 45.806 42.1219 45.8296C42.2952 45.8415 42.4701 45.8653 42.6434 45.9027L50.2062 47.5193C50.2717 47.5338 50.3371 47.5491 50.4007 47.5668C50.9957 47.7281 51.5411 48.0353 51.9874 48.4606C52.4338 48.8858 52.767 49.4157 52.9568 50.0022L55.3379 57.3595C55.5336 57.9644 55.5705 58.6094 55.4449 59.2326C55.3194 59.8557 55.0356 60.4362 54.6209 60.918Z" fill="url(#paint3_linear_87_3351)"/>
<path d="M84 50.0431C84 56.9697 80.7491 63.136 75.6896 67.1013C75.5487 66.9856 75.4167 66.8595 75.2947 66.7241L70.1138 60.9834L70.056 60.918C69.6413 60.4362 69.3576 59.8557 69.232 59.2326C69.1064 58.6094 69.1433 57.9644 69.339 57.3595L71.7201 50.0022C71.9203 49.3834 72.2799 48.8281 72.7628 48.3922C73.2456 47.9564 73.8346 47.6553 74.4707 47.5192L82.0335 45.9026C82.552 45.7921 83.0882 45.7941 83.6059 45.9086C83.869 47.271 84.0009 48.6555 84 50.0431Z" fill="url(#paint4_linear_87_3351)"/>
<path d="M75.5035 67.2466C71.855 70.0431 67.2908 71.7046 62.3383 71.7046C57.3859 71.7046 52.8216 70.0431 49.1732 67.2466C49.329 66.9626 49.5159 66.6968 49.7305 66.454L54.563 60.9834L54.6208 60.918L54.7032 60.8254C55.1169 60.3571 55.6255 59.982 56.1952 59.7251C56.7649 59.4683 57.3827 59.3354 58.0076 59.3354H66.6688C67.2937 59.3354 67.9115 59.4683 68.4812 59.7251C69.0509 59.982 69.5595 60.3571 69.9733 60.8254L70.0557 60.918L70.1135 60.9834L74.9461 66.454C75.1608 66.6966 75.3478 66.9625 75.5035 67.2466Z" fill="url(#paint5_linear_87_3351)"/>
<path d="M59.9606 41.5234L54.4439 45.5315C53.7528 46.0337 53.2383 46.7418 52.9743 47.5543C52.7103 48.3668 52.7103 49.2421 52.9742 50.0546L55.0814 56.5399C55.3455 57.3524 55.8599 58.0604 56.5511 58.5626C57.2423 59.0648 58.0746 59.3352 58.929 59.3353H65.748C67.5006 59.3353 69.0539 58.2067 69.5955 56.5399L71.7027 50.0546C71.9667 49.2421 71.9666 48.3668 71.7026 47.5543C71.4386 46.7418 70.9242 46.0337 70.2331 45.5315L64.7164 41.5234C64.0252 41.0212 63.1928 40.7507 62.3385 40.7507C61.4842 40.7507 60.6518 41.0212 59.9606 41.5234Z" fill="url(#paint6_linear_87_3351)"/>
<path d="M67.9671 29.1196L64.7161 31.4812C64.0251 31.9834 63.1927 32.2539 62.3384 32.2539C61.4841 32.2539 60.6518 31.9834 59.9607 31.4812L56.7098 29.1196C58.5047 28.638 60.3914 28.3814 62.3384 28.3814C64.2853 28.3814 66.1721 28.638 67.9671 29.1196Z" fill="url(#paint7_linear_87_3351)"/>
<path d="M83.9847 49.2284L82.527 48.2124C81.0889 47.2108 80.4593 45.3964 80.9681 43.7195L81.8847 40.6962C83.1301 43.2956 83.8726 46.1813 83.9847 49.2284Z" fill="url(#paint8_linear_87_3351)"/>
<path d="M42.1499 48.2124L40.6921 49.2284C40.8043 46.1813 41.5467 43.2956 42.792 40.6962L43.7086 43.7195C44.2176 45.3964 43.588 47.2108 42.1499 48.2124Z" fill="url(#paint9_linear_87_3351)"/>
<path d="M54.1793 70.1152C50.7796 68.7322 47.8108 66.51 45.5291 63.7059L49.6948 63.9582C51.4447 64.0645 52.9271 65.2842 53.3662 66.9807L54.1793 70.1152Z" fill="url(#paint10_linear_87_3351)"/>
<path d="M79.1478 63.7059C76.8662 66.51 73.8972 68.7322 70.4977 70.1152L71.3106 66.9806C71.7498 65.2842 73.2321 64.0644 74.982 63.9581L79.1478 63.7059Z" fill="url(#paint11_linear_87_3351)"/>
<path d="M64.3394 30.3825C52.3761 30.3825 42.6779 40.0807 42.6779 52.044C42.6779 57.5165 44.7081 62.5141 48.0553 66.3272C51.8683 69.6743 56.866 71.7046 62.3384 71.7046C74.3017 71.7046 84 62.0064 84 50.0431C84 44.5706 81.9697 39.5729 78.6226 35.7599C74.8095 32.4127 69.8119 30.3825 64.3394 30.3825Z" fill="url(#paint12_linear_87_3351)"/>
<path d="M73.8957 31.7204C76.01 35.0651 77.2346 39.0281 77.2346 43.2776C77.2346 55.2409 67.5363 64.9392 55.573 64.9392C51.3235 64.9392 47.3606 63.7145 44.0157 61.6004C47.8535 67.6719 54.6246 71.7046 62.3383 71.7046C74.3017 71.7046 84 62.0064 84 50.0431C84 42.3292 79.9672 35.5581 73.8957 31.7204Z" fill="url(#paint13_linear_87_3351)"/>
<path d="M41.1638 67.946H24.5741C24.4219 67.946 24.2758 67.8855 24.1682 67.7778C24.0605 67.6702 24 67.5241 24 67.3719V64.7156C24 64.5634 24.0605 64.4173 24.1682 64.3097C24.2758 64.202 24.4219 64.1415 24.5741 64.1415H41.1636C41.3159 64.1415 41.4619 64.202 41.5696 64.3097C41.6773 64.4173 41.7378 64.5634 41.7378 64.7156V67.3719C41.7378 67.5241 41.6773 67.6701 41.5697 67.7778C41.462 67.8855 41.316 67.946 41.1638 67.946Z" fill="url(#paint14_linear_87_3351)"/>
<path d="M39.0579 67.946H26.68C26.5478 67.9459 26.421 67.8934 26.3275 67.7999C26.234 67.7064 26.1815 67.5796 26.1814 67.4474V64.64C26.1815 64.5078 26.234 64.381 26.3275 64.2875C26.421 64.194 26.5478 64.1415 26.68 64.1414H39.0577C39.19 64.1415 39.3167 64.194 39.4102 64.2875C39.5037 64.381 39.5563 64.5078 39.5563 64.64V67.4474C39.5564 67.5129 39.5435 67.5777 39.5184 67.6382C39.4934 67.6987 39.4567 67.7537 39.4104 67.8C39.3641 67.8463 39.3091 67.883 39.2487 67.908C39.1882 67.9331 39.1233 67.946 39.0579 67.946Z" fill="url(#paint15_linear_87_3351)"/>
<path d="M35.0001 67.946H30.7378C30.658 67.946 30.5815 67.9143 30.5251 67.8579C30.4688 67.8015 30.4371 67.725 30.4371 67.6453V64.4421C30.4371 64.4026 30.4449 64.3635 30.46 64.3271C30.4751 64.2906 30.4972 64.2574 30.5252 64.2295C30.5531 64.2016 30.5862 64.1795 30.6227 64.1644C30.6592 64.1493 30.6983 64.1415 30.7378 64.1415H35.0001C35.0799 64.1415 35.1563 64.1732 35.2127 64.2296C35.2691 64.2859 35.3008 64.3624 35.3008 64.4421V67.6453C35.3008 67.725 35.2691 67.8015 35.2127 67.8579C35.1563 67.9143 35.0799 67.946 35.0001 67.946Z" fill="url(#paint16_linear_87_3351)"/>
<path d="M25.0749 64.6045C24.9226 64.6045 24.7766 64.665 24.6689 64.7726C24.5612 64.8803 24.5007 65.0263 24.5007 65.1786V67.8348C24.5009 67.8717 24.5044 67.9076 24.5112 67.9425C24.5319 67.9448 24.5529 67.946 24.5743 67.9461H41.1638C41.3161 67.9461 41.4621 67.8856 41.5698 67.778C41.6774 67.6703 41.7379 67.5243 41.7379 67.372V64.7158C41.7378 64.6789 41.7343 64.643 41.7274 64.6081C41.7065 64.6058 41.6854 64.6046 41.6644 64.6045H25.0749Z" fill="url(#paint17_linear_87_3351)"/>
<path d="M41.1638 64.1415H24.5741C24.4219 64.1415 24.2758 64.081 24.1682 63.9734C24.0605 63.8657 24 63.7197 24 63.5674V60.9112C24 60.7589 24.0605 60.6129 24.1682 60.5052C24.2758 60.3975 24.4219 60.3371 24.5741 60.3371H41.1636C41.3159 60.3371 41.4619 60.3975 41.5696 60.5052C41.6773 60.6129 41.7378 60.7589 41.7378 60.9112V63.5674C41.7378 63.7197 41.6773 63.8657 41.5697 63.9733C41.462 64.081 41.316 64.1415 41.1638 64.1415Z" fill="url(#paint18_linear_87_3351)"/>
<path d="M39.0579 64.1415H26.68C26.5478 64.1415 26.421 64.0889 26.3275 63.9954C26.234 63.9019 26.1815 63.7752 26.1814 63.6429V60.8355C26.1814 60.77 26.1943 60.7052 26.2193 60.6447C26.2444 60.5842 26.2811 60.5292 26.3274 60.4829C26.3737 60.4366 26.4287 60.3999 26.4892 60.3749C26.5497 60.3498 26.6145 60.3369 26.68 60.3369H39.0577C39.19 60.337 39.3167 60.3896 39.4102 60.483C39.5037 60.5765 39.5563 60.7033 39.5563 60.8355V63.6429C39.5564 63.7084 39.5435 63.7732 39.5184 63.8337C39.4934 63.8942 39.4567 63.9492 39.4104 63.9955C39.3641 64.0418 39.3091 64.0785 39.2487 64.1036C39.1882 64.1286 39.1233 64.1415 39.0579 64.1415Z" fill="url(#paint19_linear_87_3351)"/>
<path d="M35.0001 64.1415H30.7378C30.658 64.1415 30.5815 64.1098 30.5251 64.0535C30.4688 63.9971 30.4371 63.9206 30.4371 63.8408V60.6376C30.4371 60.5982 30.4449 60.5591 30.46 60.5226C30.4751 60.4861 30.4972 60.453 30.5252 60.4251C30.5531 60.3971 30.5862 60.375 30.6227 60.3599C30.6592 60.3448 30.6983 60.337 30.7378 60.3371H35.0001C35.0799 60.3371 35.1563 60.3687 35.2127 60.4251C35.2691 60.4815 35.3008 60.5579 35.3008 60.6376V63.8408C35.3008 63.9206 35.2691 63.997 35.2127 64.0534C35.1563 64.1098 35.0799 64.1415 35.0001 64.1415Z" fill="url(#paint20_linear_87_3351)"/>
<path d="M25.0749 60.7999C24.9226 60.7999 24.7766 60.8604 24.6689 60.968C24.5612 61.0757 24.5007 61.2217 24.5007 61.374V64.0302C24.5009 64.0671 24.5044 64.103 24.5112 64.1379C24.5319 64.1402 24.5529 64.1415 24.5743 64.1415H41.1638C41.3161 64.1415 41.4621 64.081 41.5698 63.9734C41.6774 63.8657 41.7379 63.7197 41.7379 63.5674V60.9112C41.7378 60.8743 41.7343 60.8384 41.7274 60.8035C41.7065 60.8012 41.6854 60.8 41.6644 60.7999H25.0749Z" fill="url(#paint21_linear_87_3351)"/>
<path d="M41.1638 60.3371H24.5741C24.4219 60.3371 24.2758 60.2766 24.1682 60.1689C24.0605 60.0612 24 59.9152 24 59.7629V57.1067C24 56.9544 24.0605 56.8084 24.1682 56.7007C24.2758 56.5931 24.4219 56.5326 24.5741 56.5326H41.1636C41.3159 56.5326 41.4619 56.5931 41.5696 56.7007C41.6773 56.8084 41.7378 56.9544 41.7378 57.1067V59.7629C41.7378 59.9152 41.6773 60.0612 41.5697 60.1689C41.462 60.2765 41.316 60.337 41.1638 60.3371Z" fill="url(#paint22_linear_87_3351)"/>
<path d="M39.0579 60.3371H26.68C26.5478 60.337 26.421 60.2844 26.3275 60.191C26.234 60.0975 26.1815 59.9707 26.1814 59.8385V57.0312C26.1814 56.9657 26.1943 56.9009 26.2193 56.8404C26.2444 56.7799 26.2811 56.7249 26.3274 56.6786C26.3737 56.6323 26.4287 56.5956 26.4892 56.5705C26.5497 56.5455 26.6145 56.5326 26.68 56.5326H39.0577C39.19 56.5326 39.3167 56.5852 39.4102 56.6787C39.5037 56.7722 39.5563 56.899 39.5563 57.0312V59.8385C39.5564 59.9039 39.5435 59.9688 39.5184 60.0293C39.4934 60.0898 39.4567 60.1447 39.4104 60.191C39.3641 60.2373 39.3091 60.274 39.2487 60.2991C39.1882 60.3242 39.1233 60.3371 39.0579 60.3371Z" fill="url(#paint23_linear_87_3351)"/>
<path d="M35.0001 60.3371H30.7378C30.658 60.3371 30.5815 60.3054 30.5251 60.249C30.4688 60.1926 30.4371 60.1161 30.4371 60.0364V56.8332C30.4371 56.7937 30.4449 56.7546 30.46 56.7181C30.4751 56.6816 30.4972 56.6485 30.5252 56.6206C30.5531 56.5927 30.5862 56.5705 30.6227 56.5554C30.6592 56.5403 30.6983 56.5326 30.7378 56.5326H35.0001C35.0799 56.5326 35.1563 56.5643 35.2127 56.6206C35.2691 56.677 35.3008 56.7534 35.3008 56.8332V60.0364C35.3008 60.1161 35.2691 60.1926 35.2127 60.2489C35.1563 60.3053 35.0799 60.337 35.0001 60.3371Z" fill="url(#paint24_linear_87_3351)"/>
<path d="M25.0749 56.9954C24.9226 56.9954 24.7766 57.0559 24.6689 57.1636C24.5612 57.2712 24.5007 57.4173 24.5007 57.5695V60.2258C24.5009 60.2626 24.5044 60.2985 24.5112 60.3334C24.5319 60.3358 24.5529 60.337 24.5743 60.3371H41.1638C41.3161 60.3371 41.4621 60.2766 41.5698 60.1689C41.6774 60.0612 41.7379 59.9152 41.7379 59.7629V57.1067C41.7378 57.0698 41.7343 57.034 41.7274 56.9991C41.7065 56.9967 41.6854 56.9955 41.6644 56.9954H25.0749Z" fill="url(#paint25_linear_87_3351)"/>
<path d="M41.1638 56.5326H24.5741C24.4219 56.5326 24.2758 56.4721 24.1682 56.3644C24.0605 56.2568 24 56.1107 24 55.9585V53.3022C24 53.15 24.0605 53.0039 24.1682 52.8963C24.2758 52.7886 24.4219 52.7281 24.5741 52.7281H41.1636C41.3159 52.7281 41.4619 52.7886 41.5696 52.8963C41.6773 53.0039 41.7378 53.15 41.7378 53.3022V55.9585C41.7378 56.1107 41.6773 56.2567 41.5697 56.3644C41.462 56.4721 41.316 56.5326 41.1638 56.5326Z" fill="url(#paint26_linear_87_3351)"/>
<path d="M39.0579 56.5326H26.68C26.5478 56.5325 26.421 56.48 26.3275 56.3865C26.234 56.293 26.1815 56.1662 26.1814 56.034V53.2267C26.1814 53.1612 26.1943 53.0964 26.2193 53.0359C26.2444 52.9754 26.2811 52.9204 26.3274 52.8741C26.3737 52.8278 26.4287 52.7911 26.4892 52.766C26.5497 52.741 26.6145 52.7281 26.68 52.7281H39.0577C39.19 52.7282 39.3167 52.7807 39.4102 52.8742C39.5037 52.9677 39.5563 53.0945 39.5563 53.2267V56.034C39.5564 56.0995 39.5435 56.1643 39.5184 56.2248C39.4934 56.2853 39.4567 56.3402 39.4104 56.3865C39.3641 56.4328 39.3091 56.4696 39.2487 56.4946C39.1882 56.5197 39.1233 56.5326 39.0579 56.5326Z" fill="url(#paint27_linear_87_3351)"/>
<path d="M35.0001 56.5326H30.7378C30.658 56.5326 30.5815 56.5009 30.5251 56.4445C30.4688 56.3881 30.4371 56.3116 30.4371 56.2319V53.0287C30.4371 52.949 30.4688 52.8725 30.5251 52.8161C30.5815 52.7597 30.658 52.728 30.7378 52.728H35.0001C35.0799 52.728 35.1564 52.7597 35.2128 52.8161C35.2692 52.8725 35.3008 52.949 35.3008 53.0287V56.2319C35.3008 56.3116 35.2691 56.3881 35.2127 56.4445C35.1563 56.5009 35.0799 56.5326 35.0001 56.5326Z" fill="url(#paint28_linear_87_3351)"/>
<path d="M25.0749 53.1909C24.9226 53.1909 24.7766 53.2514 24.6689 53.3591C24.5612 53.4668 24.5007 53.6128 24.5007 53.7651V56.4213C24.5009 56.4582 24.5044 56.494 24.5112 56.5289C24.5319 56.5313 24.5529 56.5325 24.5743 56.5326H41.1638C41.3161 56.5326 41.4621 56.4721 41.5698 56.3644C41.6774 56.2568 41.7379 56.1107 41.7379 55.9585V53.3022C41.7378 53.2654 41.7343 53.2295 41.7274 53.1946C41.7065 53.1922 41.6854 53.191 41.6644 53.1909H25.0749Z" fill="url(#paint29_linear_87_3351)"/>
<path d="M41.1638 52.7281H24.5741C24.4219 52.7281 24.2758 52.6676 24.1682 52.56C24.0605 52.4523 24 52.3063 24 52.154V49.4979C24 49.3456 24.0605 49.1996 24.1682 49.0919C24.2758 48.9843 24.4219 48.9238 24.5741 48.9238H41.1636C41.3159 48.9238 41.4619 48.9843 41.5696 49.0919C41.6773 49.1996 41.7378 49.3456 41.7378 49.4979V52.154C41.7378 52.3062 41.6773 52.4523 41.5697 52.5599C41.462 52.6676 41.316 52.7281 41.1638 52.7281Z" fill="url(#paint30_linear_87_3351)"/>
<path d="M39.0579 52.7281H26.68C26.5478 52.7281 26.421 52.6755 26.3275 52.582C26.234 52.4885 26.1815 52.3617 26.1814 52.2295V49.4221C26.1815 49.2899 26.234 49.1631 26.3275 49.0696C26.421 48.9761 26.5478 48.9236 26.68 48.9235H39.0577C39.19 48.9236 39.3167 48.9761 39.4102 49.0696C39.5037 49.1631 39.5563 49.2899 39.5563 49.4221V52.2295C39.5564 52.295 39.5435 52.3598 39.5184 52.4203C39.4934 52.4808 39.4567 52.5358 39.4104 52.5821C39.3641 52.6284 39.3091 52.6651 39.2487 52.6902C39.1882 52.7152 39.1233 52.7281 39.0579 52.7281Z" fill="url(#paint31_linear_87_3351)"/>
<path d="M35.0001 52.7281H30.7378C30.658 52.7281 30.5815 52.6964 30.5251 52.64C30.4688 52.5836 30.4371 52.5072 30.4371 52.4274V49.2242C30.4371 49.1848 30.4449 49.1457 30.46 49.1092C30.4751 49.0727 30.4972 49.0396 30.5252 49.0116C30.5531 48.9837 30.5862 48.9616 30.6227 48.9465C30.6592 48.9314 30.6983 48.9236 30.7378 48.9236H35.0001C35.0799 48.9236 35.1563 48.9553 35.2127 49.0117C35.2691 49.068 35.3008 49.1445 35.3008 49.2242V52.4274C35.3008 52.5072 35.2691 52.5836 35.2127 52.64C35.1563 52.6964 35.0799 52.7281 35.0001 52.7281Z" fill="url(#paint32_linear_87_3351)"/>
<path d="M25.0749 49.3865C24.9226 49.3865 24.7766 49.447 24.6689 49.5546C24.5612 49.6623 24.5007 49.8083 24.5007 49.9606V52.6168C24.5009 52.6537 24.5044 52.6896 24.5112 52.7245C24.5319 52.7268 24.5529 52.728 24.5743 52.7281H41.1638C41.3161 52.7281 41.4621 52.6676 41.5698 52.56C41.6774 52.4523 41.7379 52.3063 41.7379 52.154V49.4978C41.7378 49.4609 41.7343 49.425 41.7274 49.3901C41.7065 49.3878 41.6854 49.3866 41.6644 49.3865H25.0749Z" fill="url(#paint33_linear_87_3351)"/>
<path d="M41.1638 48.9235H24.5741C24.4219 48.9235 24.2758 48.863 24.1682 48.7554C24.0605 48.6477 24 48.5017 24 48.3494V45.6932C24 45.5409 24.0605 45.3949 24.1682 45.2872C24.2758 45.1796 24.4219 45.1191 24.5741 45.1191H41.1636C41.3159 45.1191 41.4619 45.1796 41.5696 45.2872C41.6773 45.3949 41.7378 45.5409 41.7378 45.6932V48.3494C41.7378 48.5017 41.6773 48.6477 41.5697 48.7553C41.462 48.863 41.316 48.9235 41.1638 48.9235Z" fill="url(#paint34_linear_87_3351)"/>
<path d="M39.0579 48.9235H26.68C26.5478 48.9235 26.421 48.8709 26.3275 48.7774C26.234 48.6839 26.1815 48.5572 26.1814 48.4249V45.6175C26.1815 45.4853 26.234 45.3585 26.3275 45.265C26.421 45.1716 26.5478 45.119 26.68 45.1189H39.0577C39.19 45.119 39.3167 45.1716 39.4102 45.265C39.5037 45.3585 39.5563 45.4853 39.5563 45.6175V48.4249C39.5564 48.4904 39.5435 48.5552 39.5184 48.6157C39.4934 48.6762 39.4567 48.7312 39.4104 48.7775C39.3641 48.8238 39.3091 48.8605 39.2487 48.8856C39.1882 48.9106 39.1233 48.9235 39.0579 48.9235Z" fill="url(#paint35_linear_87_3351)"/>
<path d="M35.0001 48.9235H30.7378C30.658 48.9235 30.5816 48.8919 30.5252 48.8355C30.4688 48.7791 30.4371 48.7027 30.4371 48.6229V45.4198C30.4371 45.3803 30.4449 45.3412 30.46 45.3047C30.4751 45.2682 30.4972 45.2351 30.5252 45.2072C30.5531 45.1793 30.5862 45.1571 30.6227 45.142C30.6592 45.1269 30.6983 45.1192 30.7378 45.1192H35.0001C35.0799 45.1192 35.1563 45.1508 35.2127 45.2072C35.2691 45.2636 35.3008 45.34 35.3008 45.4198V48.6229C35.3008 48.7027 35.2691 48.7791 35.2127 48.8355C35.1563 48.8918 35.0799 48.9235 35.0001 48.9235Z" fill="url(#paint36_linear_87_3351)"/>
<path d="M25.0749 45.5819C24.9226 45.5819 24.7766 45.6424 24.6689 45.75C24.5612 45.8577 24.5007 46.0037 24.5007 46.156V48.8121C24.5009 48.849 24.5044 48.8849 24.5112 48.9198C24.5319 48.9221 24.5529 48.9233 24.5743 48.9234H41.1638C41.3161 48.9234 41.4621 48.8629 41.5698 48.7553C41.6774 48.6476 41.7379 48.5016 41.7379 48.3493V45.6932C41.7378 45.6563 41.7343 45.6204 41.7274 45.5855C41.7065 45.5832 41.6854 45.582 41.6644 45.5819H25.0749Z" fill="url(#paint37_linear_87_3351)"/>
<path d="M74.2473 68.1382C77.3167 66.1141 79.8404 63.3306 81.551 60.0546L74.2473 52.7509V68.1382Z" fill="url(#paint38_linear_87_3351)"/>
<path d="M73.3439 73.6862H36.4569C36.3146 73.6863 36.1737 73.6583 36.0422 73.6038C35.9107 73.5494 35.7912 73.4695 35.6905 73.3689C35.5899 73.2682 35.5101 73.1488 35.4556 73.0173C35.4011 72.8857 35.3731 72.7448 35.3732 72.6025V53.3489C35.3731 53.2066 35.4011 53.0657 35.4556 52.9342C35.5101 52.8027 35.5899 52.6832 35.6905 52.5825C35.7912 52.4819 35.9107 52.4021 36.0422 52.3476C36.1737 52.2932 36.3146 52.2652 36.4569 52.2652H73.3439C73.4862 52.2652 73.6271 52.2932 73.7587 52.3476C73.8902 52.4021 74.0096 52.4819 74.1103 52.5825C74.2109 52.6832 74.2908 52.8027 74.3452 52.9342C74.3997 53.0657 74.4277 53.2066 74.4276 53.3489V72.6025C74.4277 72.7448 74.3997 72.8857 74.3452 73.0173C74.2908 73.1488 74.2109 73.2682 74.1103 73.3689C74.0096 73.4695 73.8902 73.5494 73.7587 73.6038C73.6271 73.6583 73.4862 73.6863 73.3439 73.6862Z" fill="url(#paint39_linear_87_3351)"/>
<path d="M72.542 72.9435H37.2588C36.9877 72.9435 36.7278 72.8358 36.5361 72.6441C36.3445 72.4524 36.2368 72.1925 36.2367 71.9214V54.03C36.2368 53.7589 36.3445 53.499 36.5361 53.3073C36.7278 53.1157 36.9877 53.0079 37.2588 53.0079H72.5419C72.8129 53.0079 73.0729 53.1157 73.2645 53.3073C73.4562 53.499 73.5639 53.7589 73.564 54.03V71.9214C73.564 72.0556 73.5376 72.1886 73.4863 72.3126C73.4349 72.4366 73.3596 72.5493 73.2647 72.6442C73.1698 72.7391 73.0571 72.8144 72.9331 72.8658C72.8091 72.9171 72.6762 72.9435 72.542 72.9435Z" fill="url(#paint40_linear_87_3351)"/>
<path d="M71.1521 58.8164C69.343 58.8164 67.8766 57.3499 67.8766 55.5408C67.8766 55.4665 67.879 55.3928 67.884 55.3198C67.8898 55.2369 67.8784 55.1536 67.8506 55.0753C67.8229 54.9969 67.7793 54.9251 67.7226 54.8644C67.6659 54.8036 67.5973 54.7551 67.5211 54.722C67.4449 54.6889 67.3626 54.6718 67.2795 54.6718H42.5214C42.4383 54.6718 42.356 54.6889 42.2798 54.722C42.2036 54.7551 42.135 54.8036 42.0783 54.8644C42.0216 54.9251 41.978 54.9969 41.9502 55.0753C41.9225 55.1536 41.9111 55.2369 41.9169 55.3198C41.9219 55.3928 41.9243 55.4665 41.9243 55.5408C41.9243 57.3499 40.4579 58.8164 38.6488 58.8164H38.6423C38.3026 58.8157 38.0236 59.0831 38.0236 59.4228V66.5287C38.0236 66.8685 38.3026 67.1359 38.6423 67.1352H38.6488C40.4579 67.1352 41.9243 68.6017 41.9243 70.4107C41.9243 70.4851 41.9219 70.5587 41.9169 70.6318C41.9111 70.7147 41.9225 70.7979 41.9502 70.8763C41.978 70.9546 42.0216 71.0264 42.0783 71.0872C42.135 71.1479 42.2036 71.1964 42.2798 71.2295C42.356 71.2627 42.4383 71.2798 42.5214 71.2798H67.2795C67.3626 71.2798 67.4449 71.2627 67.5211 71.2295C67.5973 71.1964 67.6659 71.1479 67.7226 71.0872C67.7793 71.0264 67.8229 70.9546 67.8506 70.8763C67.8784 70.7979 67.8898 70.7147 67.884 70.6318C67.879 70.5582 67.8766 70.4845 67.8766 70.4107C67.8766 68.6017 69.343 67.1352 71.1521 67.1352H71.1584C71.4982 67.1359 71.7771 66.8685 71.7771 66.5287V59.4228C71.7771 59.0831 71.4982 58.8157 71.1584 58.8164H71.1521Z" fill="url(#paint41_linear_87_3351)"/>
<path d="M54.9005 70.4375C59.0215 70.4375 62.3623 67.0968 62.3623 62.9758C62.3623 58.8547 59.0215 55.514 54.9005 55.514C50.7795 55.514 47.4387 58.8547 47.4387 62.9758C47.4387 67.0968 50.7795 70.4375 54.9005 70.4375Z" fill="url(#paint42_linear_87_3351)"/>
<path d="M57.8303 58.4707C57.7167 58.2932 57.4972 58.1454 57.1701 58.0278C56.8176 57.9013 56.442 57.8153 56.044 57.7681C56.0231 57.7549 56.0013 57.7431 55.9789 57.7326L55.3894 57.1009C55.2968 57.0329 55.1971 56.9989 55.0902 56.9988C54.9734 56.9989 54.8736 57.0329 54.791 57.1009C54.7083 57.1692 54.6669 57.247 54.6669 57.3345V57.7578C53.8788 57.8454 53.2195 58.1081 52.6892 58.5459C52.1588 58.9838 51.8937 59.6255 51.8938 60.4707C51.8938 60.7718 51.9278 61.0462 51.9959 61.2938C52.0639 61.5414 52.1759 61.7574 52.3316 61.9419C52.4872 62.1264 52.6356 62.2842 52.7768 62.4153L52.78 62.418L54.6163 64.2544C54.6334 64.2726 54.6501 64.2896 54.667 64.3072V66.7486C54.2358 66.7195 53.856 66.6078 53.5276 66.4135C53.1993 66.2194 52.9412 66.0373 52.7534 65.8673C52.5656 65.6974 52.4139 65.6124 52.2985 65.6124C52.1243 65.6124 51.9696 65.7046 51.8341 65.8892C51.6309 66.166 51.6312 66.2582 51.6312 66.4427C51.6312 66.7376 51.7974 67.0283 52.1298 67.3148L58.5009 73.686H73.0459L57.8303 58.4707Z" fill="url(#paint43_linear_87_3351)"/>
<path d="M51.6309 66.4429C51.6309 66.2585 51.6986 66.074 51.8339 65.8894C51.9692 65.7049 52.1239 65.6126 52.2982 65.6126C52.4137 65.6126 52.5653 65.6976 52.7532 65.8675C52.9411 66.0376 53.1992 66.2196 53.5274 66.4138C53.8558 66.608 54.2356 66.7197 54.6668 66.7488V63.3259C54.3748 63.2191 54.151 63.1342 53.9954 63.0709C53.8396 63.008 53.6329 62.9157 53.3752 62.7942C53.1172 62.6729 52.9177 62.5466 52.7767 62.4154C52.6355 62.2843 52.4871 62.1265 52.3315 61.942C52.1757 61.7575 52.0638 61.5415 51.9957 61.2939C51.9277 61.0463 51.8936 60.7719 51.8936 60.4708C51.8935 59.6256 52.1587 58.984 52.689 58.546C53.2193 58.1081 53.8785 57.8454 54.6667 57.7579V57.3346C54.6667 57.247 54.7081 57.1691 54.7908 57.1011C54.8735 57.0331 54.9732 56.999 55.09 56.9989C55.197 56.999 55.2967 57.0331 55.3892 57.1011C55.4815 57.1692 55.5278 57.2471 55.5279 57.3346V57.7287C56.1213 57.7483 56.6686 57.848 57.1699 58.0279C57.671 58.208 57.9215 58.4585 57.9215 58.7795C57.9214 58.9547 57.8625 59.1372 57.7448 59.3268C57.6271 59.5166 57.4701 59.6115 57.2739 59.6114C57.1962 59.6114 56.9832 59.5287 56.6347 59.3633C56.287 59.1983 55.9117 59.0993 55.5279 59.0714V62.0293C55.9149 62.175 56.2366 62.3134 56.493 62.4446C56.8776 62.6413 57.0206 62.7578 57.3061 62.9908C57.5916 63.2239 57.8069 63.5176 57.952 63.872C58.0971 64.2265 58.1697 64.6416 58.1697 65.1174C58.1697 65.9867 57.9326 66.6778 57.4583 67.1905C56.9841 67.7032 56.3406 68.0181 55.5279 68.1353V68.6229C55.5279 68.7089 55.4816 68.7854 55.3892 68.8524C55.2967 68.9193 55.197 68.9528 55.09 68.9527C54.9731 68.9526 54.8734 68.9193 54.7908 68.8526C54.7081 68.7856 54.6667 68.7091 54.6667 68.6232V68.1792C53.8202 68.1694 53.1026 67.9758 52.5139 67.5981C51.9252 67.2204 51.6309 66.8353 51.6309 66.4429ZM53.3387 60.3252C53.3387 60.704 53.4566 60.9929 53.6926 61.1918C53.9283 61.3909 54.2823 61.5778 54.7543 61.7526V59.0992C53.8105 59.2159 53.3386 59.6245 53.3387 60.3252ZM55.4404 66.7195C56.2967 66.5642 56.7248 66.0836 56.7249 65.2775C56.7249 64.8503 56.613 64.5154 56.3892 64.2727C56.1653 64.03 55.8491 63.8212 55.4404 63.6462V66.7195Z" fill="url(#paint44_linear_87_3351)"/>
<path d="M38.9975 57.8101C39.8532 57.8101 40.5468 57.1165 40.5468 56.2608C40.5468 55.4052 39.8532 54.7115 38.9975 54.7115C38.1419 54.7115 37.4482 55.4052 37.4482 56.2608C37.4482 57.1165 38.1419 57.8101 38.9975 57.8101Z" fill="url(#paint45_linear_87_3351)"/>
<path d="M70.8033 57.8101C71.659 57.8101 72.3526 57.1165 72.3526 56.2608C72.3526 55.4052 71.659 54.7115 70.8033 54.7115C69.9477 54.7115 69.254 55.4052 69.254 56.2608C69.254 57.1165 69.9477 57.8101 70.8033 57.8101Z" fill="url(#paint46_linear_87_3351)"/>
<path d="M38.9975 71.24C39.8532 71.24 40.5468 70.5464 40.5468 69.6907C40.5468 68.8351 39.8532 68.1414 38.9975 68.1414C38.1419 68.1414 37.4482 68.8351 37.4482 69.6907C37.4482 70.5464 38.1419 71.24 38.9975 71.24Z" fill="url(#paint47_linear_87_3351)"/>
<path d="M70.8033 71.24C71.659 71.24 72.3526 70.5464 72.3526 69.6907C72.3526 68.8351 71.659 68.1414 70.8033 68.1414C69.9477 68.1414 69.254 68.8351 69.254 69.6907C69.254 70.5464 69.9477 71.24 70.8033 71.24Z" fill="url(#paint48_linear_87_3351)"/>
<path d="M59.6095 73.6862H73.3439C73.4862 73.6863 73.6271 73.6583 73.7586 73.6038C73.8901 73.5494 74.0096 73.4695 74.1103 73.3689C74.2109 73.2682 74.2907 73.1488 74.3452 73.0173C74.3996 72.8857 74.4276 72.7448 74.4276 72.6025V64.4669L62.2257 52.2652H59.6095V73.6862Z" fill="url(#paint49_linear_87_3351)"/>
<path d="M61.2478 74.2663H48.5531C48.2575 74.2663 47.974 74.1489 47.765 73.9399C47.556 73.7309 47.4386 73.4475 47.4386 73.1519V52.7995C47.4386 52.504 47.556 52.2205 47.765 52.0115C47.974 51.8025 48.2575 51.6851 48.5531 51.6851H61.2478C61.5434 51.6851 61.8268 51.8025 62.0358 52.0115C62.2448 52.2205 62.3622 52.504 62.3622 52.7995V73.152C62.3622 73.7674 61.8633 74.2663 61.2478 74.2663Z" fill="url(#paint50_linear_87_3351)"/>
<path d="M49.6189 52.7509C49.4726 52.7509 49.3277 52.7798 49.1924 52.8358C49.0572 52.8918 48.9344 52.9739 48.8309 53.0774C48.7274 53.1809 48.6453 53.3037 48.5893 53.4389C48.5333 53.5741 48.5045 53.7191 48.5045 53.8654V74.2179C48.5045 74.2335 48.5061 74.2487 48.5068 74.2641C48.5222 74.2647 48.5374 74.2665 48.553 74.2665H61.2477C61.5433 74.2665 61.8268 74.1491 62.0358 73.9401C62.2448 73.7311 62.3622 73.4476 62.3622 73.152V52.7995C62.3622 52.7839 62.3606 52.7687 62.3599 52.7533C62.3445 52.7527 62.3293 52.7509 62.3136 52.7509H49.6189Z" fill="url(#paint51_linear_87_3351)"/>
<path d="M62.3622 73.152V63.0026L57.8303 58.4707C57.7167 58.2932 57.4972 58.1454 57.1701 58.0278C56.8176 57.9013 56.442 57.8153 56.044 57.7681C56.0231 57.7549 56.0013 57.7431 55.9789 57.7326L55.3894 57.1009C55.2968 57.0329 55.1971 56.9989 55.0902 56.9988C54.9734 56.9989 54.8736 57.0329 54.791 57.1009C54.7083 57.1692 54.6669 57.247 54.6669 57.3345V57.7578C53.8788 57.8454 53.2195 58.1081 52.6892 58.5459C52.1588 58.9838 51.8937 59.6255 51.8938 60.4707C51.8938 60.7718 51.9278 61.0462 51.9959 61.2938C52.0639 61.5414 52.1759 61.7574 52.3316 61.9419C52.4872 62.1264 52.6356 62.2842 52.7768 62.4153L52.78 62.418L54.6163 64.2544C54.6334 64.2726 54.6501 64.2896 54.667 64.3072V66.7486C54.2358 66.7195 53.856 66.6078 53.5276 66.4135C53.1993 66.2194 52.9412 66.0373 52.7534 65.8673C52.5656 65.6974 52.4139 65.6124 52.2985 65.6124C52.1243 65.6124 51.9696 65.7046 51.8341 65.8892C51.6309 66.166 51.6312 66.2582 51.6312 66.4427C51.6312 66.7376 51.7974 67.0283 52.1298 67.3148L59.081 74.2662H61.2479C61.8633 74.2664 62.3622 73.7674 62.3622 73.152Z" fill="url(#paint52_linear_87_3351)"/>
<path d="M51.6309 66.4429C51.6309 66.2585 51.6986 66.074 51.8339 65.8894C51.9692 65.7049 52.1239 65.6126 52.2982 65.6126C52.4137 65.6126 52.5653 65.6976 52.7532 65.8675C52.9411 66.0376 53.1992 66.2196 53.5274 66.4138C53.8558 66.608 54.2356 66.7197 54.6668 66.7488V63.3259C54.3748 63.2191 54.151 63.1342 53.9954 63.0709C53.8396 63.008 53.6329 62.9157 53.3752 62.7942C53.1172 62.6729 52.9177 62.5466 52.7767 62.4154C52.6355 62.2843 52.4871 62.1265 52.3315 61.942C52.1757 61.7575 52.0638 61.5415 51.9957 61.2939C51.9277 61.0463 51.8936 60.7719 51.8936 60.4708C51.8935 59.6256 52.1587 58.984 52.689 58.546C53.2193 58.1081 53.8785 57.8454 54.6667 57.7579V57.3346C54.6667 57.247 54.7081 57.1691 54.7908 57.1011C54.8735 57.0331 54.9732 56.999 55.09 56.9989C55.197 56.999 55.2967 57.0331 55.3892 57.1011C55.4815 57.1692 55.5278 57.2471 55.5279 57.3346V57.7287C56.1213 57.7483 56.6686 57.848 57.1699 58.0279C57.671 58.208 57.9215 58.4585 57.9215 58.7795C57.9214 58.9547 57.8625 59.1372 57.7448 59.3268C57.6271 59.5166 57.4701 59.6115 57.2739 59.6114C57.1962 59.6114 56.9832 59.5287 56.6347 59.3633C56.287 59.1983 55.9117 59.0993 55.5279 59.0714V62.0293C55.9149 62.175 56.2366 62.3134 56.493 62.4446C56.8776 62.6413 57.0206 62.7578 57.3061 62.9908C57.5916 63.2239 57.8069 63.5176 57.952 63.872C58.0971 64.2265 58.1697 64.6416 58.1697 65.1174C58.1697 65.9867 57.9326 66.6778 57.4583 67.1905C56.9841 67.7032 56.3406 68.0181 55.5279 68.1353V68.6229C55.5279 68.7089 55.4816 68.7854 55.3892 68.8524C55.2967 68.9193 55.197 68.9528 55.09 68.9527C54.9731 68.9526 54.8734 68.9193 54.7908 68.8526C54.7081 68.7856 54.6667 68.7091 54.6667 68.6232V68.1792C53.8202 68.1694 53.1026 67.9758 52.5139 67.5981C51.9252 67.2204 51.6309 66.8353 51.6309 66.4429ZM53.3387 60.3252C53.3387 60.704 53.4566 60.9929 53.6926 61.1918C53.9283 61.3909 54.2823 61.5778 54.7543 61.7526V59.0992C53.8105 59.2159 53.3386 59.6245 53.3387 60.3252ZM55.4404 66.7195C56.2967 66.5642 56.7248 66.0836 56.7249 65.2775C56.7249 64.8503 56.613 64.5154 56.3892 64.2727C56.1653 64.03 55.8491 63.8212 55.4404 63.6462V66.7195Z" fill="url(#paint53_linear_87_3351)"/>
<path d="M42.085 38.4129C40.594 39.3852 39.3253 40.6615 38.3619 42.1582C38.1454 42.4946 37.6459 42.4937 37.4307 42.1566C36.4728 40.6564 35.2087 39.3755 33.7213 38.3979C33.3914 38.1812 33.3923 37.6885 33.7229 37.4731C35.2139 36.5008 36.4826 35.2246 37.446 33.7279C37.6625 33.3915 38.162 33.3924 38.3772 33.7295C39.3351 35.2297 40.5992 36.5106 42.0867 37.4882C42.4166 37.7048 42.4156 38.1974 42.085 38.4129Z" fill="url(#paint54_linear_87_3351)"/>
<path d="M34.8782 31.1993C33.8238 31.8868 32.9266 32.7893 32.2453 33.8478C32.0922 34.0856 31.7389 34.0849 31.5868 33.8466C30.9095 32.7856 30.0156 31.8798 28.9636 31.1886C28.7303 31.0354 28.731 30.6869 28.9648 30.5346C30.0193 29.8472 30.9165 28.9446 31.5976 27.8861C31.7507 27.6482 32.104 27.6489 32.2561 27.8873C32.9334 28.9483 33.8274 29.8541 34.8794 30.5453C35.1127 30.6985 35.1121 31.0469 34.8782 31.1993Z" fill="url(#paint55_linear_87_3351)"/>
<path d="M50.3954 27.4912C49.341 28.1787 48.4438 29.0812 47.7625 30.1396C47.6094 30.3775 47.2561 30.3768 47.104 30.1385C46.4267 29.0775 45.5328 28.1717 44.4808 27.4805C44.2475 27.3273 44.2482 26.9788 44.482 26.8265C45.5365 26.1391 46.4337 25.2365 47.1148 24.178C47.2679 23.9401 47.6212 23.9408 47.7733 24.1792C48.4506 25.2402 49.3446 26.146 50.3966 26.8372C50.6298 26.9905 50.6292 27.3388 50.3954 27.4912Z" fill="url(#paint56_linear_87_3351)"/>
</g>
<g clip-path="url(#clip1_87_3351)">
<path d="M62.3385 71.7046C74.3018 71.7046 84 62.0064 84 50.0431C84 38.0796 74.3018 28.3814 62.3385 28.3814C50.3752 28.3814 40.6769 38.0796 40.6769 50.0429C40.6769 62.0064 50.3751 71.7046 62.3385 71.7046Z" fill="url(#paint57_linear_87_3351)"/>
<path d="M83.5277 45.5272L74.3661 47.4861C73.7087 47.6265 73.0284 47.6191 72.3742 47.4644C71.72 47.3097 71.1083 47.0116 70.5834 46.5917L63.8199 41.1788C63.2891 40.7537 62.8605 40.2147 62.5659 39.6018C62.2712 38.9888 62.118 38.3175 62.1176 37.6374V37.6289L62.132 28.3825C62.2009 28.3818 62.2697 28.3815 62.3385 28.3816C72.753 28.3814 81.4516 35.732 83.5277 45.5272Z" fill="url(#paint58_linear_87_3351)"/>
<path d="M62.1175 37.6288V37.6373C62.1172 38.3173 61.9641 38.9886 61.6696 39.6015C61.3751 40.2145 60.9467 40.7535 60.416 41.1787L53.6525 46.5915C52.7355 47.325 51.57 47.6745 50.4007 47.5667C50.222 47.5502 50.0445 47.5233 49.8689 47.486L42.1218 45.8295L41.1295 45.6172C43.1572 35.8508 51.7615 28.4927 62.103 28.3831L62.1175 37.6288Z" fill="url(#paint59_linear_87_3351)"/>
<path d="M54.6209 60.918L54.5632 60.9834L49.3822 66.7241C49.2602 66.8595 49.1282 66.9856 48.9873 67.1013C43.9279 63.1359 40.6769 56.9696 40.6769 50.0431C40.676 48.6555 40.808 47.2711 41.0711 45.9087C41.4158 45.8326 41.7696 45.806 42.1219 45.8296C42.2952 45.8415 42.4701 45.8653 42.6434 45.9027L50.2062 47.5193C50.2717 47.5338 50.3371 47.5491 50.4007 47.5668C50.9957 47.7281 51.5411 48.0353 51.9874 48.4606C52.4338 48.8858 52.767 49.4157 52.9568 50.0022L55.3379 57.3595C55.5336 57.9644 55.5705 58.6094 55.4449 59.2326C55.3194 59.8557 55.0356 60.4362 54.6209 60.918Z" fill="url(#paint60_linear_87_3351)"/>
<path d="M84 50.0431C84 56.9697 80.7491 63.136 75.6896 67.1013C75.5487 66.9856 75.4167 66.8595 75.2947 66.7241L70.1138 60.9834L70.056 60.918C69.6413 60.4362 69.3576 59.8557 69.232 59.2326C69.1064 58.6094 69.1433 57.9644 69.339 57.3595L71.7201 50.0022C71.9203 49.3834 72.2799 48.8281 72.7628 48.3922C73.2456 47.9564 73.8346 47.6553 74.4707 47.5192L82.0335 45.9026C82.552 45.7921 83.0882 45.7941 83.6059 45.9086C83.869 47.271 84.0009 48.6555 84 50.0431Z" fill="url(#paint61_linear_87_3351)"/>
<path d="M75.5035 67.2466C71.855 70.0431 67.2908 71.7046 62.3383 71.7046C57.3859 71.7046 52.8216 70.0431 49.1732 67.2466C49.329 66.9626 49.5159 66.6968 49.7305 66.454L54.563 60.9834L54.6208 60.918L54.7032 60.8254C55.1169 60.3571 55.6255 59.982 56.1952 59.7251C56.7649 59.4683 57.3827 59.3354 58.0076 59.3354H66.6688C67.2937 59.3354 67.9115 59.4683 68.4812 59.7251C69.0509 59.982 69.5595 60.3571 69.9733 60.8254L70.0557 60.918L70.1135 60.9834L74.9461 66.454C75.1608 66.6966 75.3478 66.9625 75.5035 67.2466Z" fill="url(#paint62_linear_87_3351)"/>
<path d="M59.9606 41.5234L54.4439 45.5315C53.7528 46.0337 53.2383 46.7418 52.9743 47.5543C52.7103 48.3668 52.7103 49.2421 52.9742 50.0546L55.0814 56.5399C55.3455 57.3524 55.8599 58.0604 56.5511 58.5626C57.2423 59.0648 58.0746 59.3352 58.929 59.3353H65.748C67.5006 59.3353 69.0539 58.2067 69.5955 56.5399L71.7027 50.0546C71.9667 49.2421 71.9666 48.3668 71.7026 47.5543C71.4386 46.7418 70.9242 46.0337 70.2331 45.5315L64.7164 41.5234C64.0252 41.0212 63.1928 40.7507 62.3385 40.7507C61.4842 40.7507 60.6518 41.0212 59.9606 41.5234Z" fill="url(#paint63_linear_87_3351)"/>
<path d="M67.9671 29.1196L64.7161 31.4812C64.0251 31.9834 63.1927 32.2539 62.3384 32.2539C61.4841 32.2539 60.6518 31.9834 59.9607 31.4812L56.7098 29.1196C58.5047 28.638 60.3914 28.3814 62.3384 28.3814C64.2853 28.3814 66.1721 28.638 67.9671 29.1196Z" fill="url(#paint64_linear_87_3351)"/>
<path d="M83.9847 49.2284L82.527 48.2124C81.0889 47.2108 80.4593 45.3964 80.9681 43.7195L81.8847 40.6962C83.1301 43.2956 83.8726 46.1813 83.9847 49.2284Z" fill="url(#paint65_linear_87_3351)"/>
<path d="M42.1499 48.2124L40.6921 49.2284C40.8043 46.1813 41.5467 43.2956 42.792 40.6962L43.7086 43.7195C44.2176 45.3964 43.588 47.2108 42.1499 48.2124Z" fill="url(#paint66_linear_87_3351)"/>
<path d="M54.1793 70.1152C50.7796 68.7322 47.8108 66.51 45.5291 63.7059L49.6948 63.9582C51.4447 64.0645 52.9271 65.2842 53.3662 66.9807L54.1793 70.1152Z" fill="url(#paint67_linear_87_3351)"/>
<path d="M79.1478 63.7059C76.8662 66.51 73.8972 68.7322 70.4977 70.1152L71.3106 66.9806C71.7498 65.2842 73.2321 64.0644 74.982 63.9581L79.1478 63.7059Z" fill="url(#paint68_linear_87_3351)"/>
<path d="M64.3394 30.3825C52.3761 30.3825 42.6779 40.0807 42.6779 52.044C42.6779 57.5165 44.7081 62.5141 48.0553 66.3272C51.8683 69.6743 56.866 71.7046 62.3384 71.7046C74.3017 71.7046 84 62.0064 84 50.0431C84 44.5706 81.9697 39.5729 78.6226 35.7599C74.8095 32.4127 69.8119 30.3825 64.3394 30.3825Z" fill="url(#paint69_linear_87_3351)"/>
<path d="M73.8957 31.7204C76.01 35.0651 77.2346 39.0281 77.2346 43.2776C77.2346 55.2409 67.5363 64.9392 55.573 64.9392C51.3235 64.9392 47.3606 63.7145 44.0157 61.6004C47.8535 67.6719 54.6246 71.7046 62.3383 71.7046C74.3017 71.7046 84 62.0064 84 50.0431C84 42.3292 79.9672 35.5581 73.8957 31.7204Z" fill="url(#paint70_linear_87_3351)"/>
<path d="M41.1638 67.946H24.5741C24.4219 67.946 24.2758 67.8855 24.1682 67.7778C24.0605 67.6702 24 67.5241 24 67.3719V64.7156C24 64.5634 24.0605 64.4173 24.1682 64.3097C24.2758 64.202 24.4219 64.1415 24.5741 64.1415H41.1636C41.3159 64.1415 41.4619 64.202 41.5696 64.3097C41.6773 64.4173 41.7378 64.5634 41.7378 64.7156V67.3719C41.7378 67.5241 41.6773 67.6701 41.5697 67.7778C41.462 67.8855 41.316 67.946 41.1638 67.946Z" fill="url(#paint71_linear_87_3351)"/>
<path d="M39.0579 67.946H26.68C26.5478 67.9459 26.421 67.8934 26.3275 67.7999C26.234 67.7064 26.1815 67.5796 26.1814 67.4474V64.64C26.1815 64.5078 26.234 64.381 26.3275 64.2875C26.421 64.194 26.5478 64.1415 26.68 64.1414H39.0577C39.19 64.1415 39.3167 64.194 39.4102 64.2875C39.5037 64.381 39.5563 64.5078 39.5563 64.64V67.4474C39.5564 67.5129 39.5435 67.5777 39.5184 67.6382C39.4934 67.6987 39.4567 67.7537 39.4104 67.8C39.3641 67.8463 39.3091 67.883 39.2487 67.908C39.1882 67.9331 39.1233 67.946 39.0579 67.946Z" fill="url(#paint72_linear_87_3351)"/>
<path d="M35.0001 67.946H30.7378C30.658 67.946 30.5815 67.9143 30.5251 67.8579C30.4688 67.8015 30.4371 67.725 30.4371 67.6453V64.4421C30.4371 64.4026 30.4449 64.3635 30.46 64.3271C30.4751 64.2906 30.4972 64.2574 30.5252 64.2295C30.5531 64.2016 30.5862 64.1795 30.6227 64.1644C30.6592 64.1493 30.6983 64.1415 30.7378 64.1415H35.0001C35.0799 64.1415 35.1563 64.1732 35.2127 64.2296C35.2691 64.2859 35.3008 64.3624 35.3008 64.4421V67.6453C35.3008 67.725 35.2691 67.8015 35.2127 67.8579C35.1563 67.9143 35.0799 67.946 35.0001 67.946Z" fill="url(#paint73_linear_87_3351)"/>
<path d="M25.0749 64.6045C24.9226 64.6045 24.7766 64.665 24.6689 64.7726C24.5612 64.8803 24.5007 65.0263 24.5007 65.1786V67.8348C24.5009 67.8717 24.5044 67.9076 24.5112 67.9425C24.5319 67.9448 24.5529 67.946 24.5743 67.9461H41.1638C41.3161 67.9461 41.4621 67.8856 41.5698 67.778C41.6774 67.6703 41.7379 67.5243 41.7379 67.372V64.7158C41.7378 64.6789 41.7343 64.643 41.7274 64.6081C41.7065 64.6058 41.6854 64.6046 41.6644 64.6045H25.0749Z" fill="url(#paint74_linear_87_3351)"/>
<path d="M41.1638 64.1415H24.5741C24.4219 64.1415 24.2758 64.081 24.1682 63.9734C24.0605 63.8657 24 63.7197 24 63.5674V60.9112C24 60.7589 24.0605 60.6129 24.1682 60.5052C24.2758 60.3975 24.4219 60.3371 24.5741 60.3371H41.1636C41.3159 60.3371 41.4619 60.3975 41.5696 60.5052C41.6773 60.6129 41.7378 60.7589 41.7378 60.9112V63.5674C41.7378 63.7197 41.6773 63.8657 41.5697 63.9733C41.462 64.081 41.316 64.1415 41.1638 64.1415Z" fill="url(#paint75_linear_87_3351)"/>
<path d="M39.0579 64.1415H26.68C26.5478 64.1415 26.421 64.0889 26.3275 63.9954C26.234 63.9019 26.1815 63.7752 26.1814 63.6429V60.8355C26.1814 60.77 26.1943 60.7052 26.2193 60.6447C26.2444 60.5842 26.2811 60.5292 26.3274 60.4829C26.3737 60.4366 26.4287 60.3999 26.4892 60.3749C26.5497 60.3498 26.6145 60.3369 26.68 60.3369H39.0577C39.19 60.337 39.3167 60.3896 39.4102 60.483C39.5037 60.5765 39.5563 60.7033 39.5563 60.8355V63.6429C39.5564 63.7084 39.5435 63.7732 39.5184 63.8337C39.4934 63.8942 39.4567 63.9492 39.4104 63.9955C39.3641 64.0418 39.3091 64.0785 39.2487 64.1036C39.1882 64.1286 39.1233 64.1415 39.0579 64.1415Z" fill="url(#paint76_linear_87_3351)"/>
<path d="M35.0001 64.1415H30.7378C30.658 64.1415 30.5815 64.1098 30.5251 64.0535C30.4688 63.9971 30.4371 63.9206 30.4371 63.8408V60.6376C30.4371 60.5982 30.4449 60.5591 30.46 60.5226C30.4751 60.4861 30.4972 60.453 30.5252 60.4251C30.5531 60.3971 30.5862 60.375 30.6227 60.3599C30.6592 60.3448 30.6983 60.337 30.7378 60.3371H35.0001C35.0799 60.3371 35.1563 60.3687 35.2127 60.4251C35.2691 60.4815 35.3008 60.5579 35.3008 60.6376V63.8408C35.3008 63.9206 35.2691 63.997 35.2127 64.0534C35.1563 64.1098 35.0799 64.1415 35.0001 64.1415Z" fill="url(#paint77_linear_87_3351)"/>
<path d="M25.0749 60.7999C24.9226 60.7999 24.7766 60.8604 24.6689 60.968C24.5612 61.0757 24.5007 61.2217 24.5007 61.374V64.0302C24.5009 64.0671 24.5044 64.103 24.5112 64.1379C24.5319 64.1402 24.5529 64.1415 24.5743 64.1415H41.1638C41.3161 64.1415 41.4621 64.081 41.5698 63.9734C41.6774 63.8657 41.7379 63.7197 41.7379 63.5674V60.9112C41.7378 60.8743 41.7343 60.8384 41.7274 60.8035C41.7065 60.8012 41.6854 60.8 41.6644 60.7999H25.0749Z" fill="url(#paint78_linear_87_3351)"/>
<path d="M41.1638 60.3371H24.5741C24.4219 60.3371 24.2758 60.2766 24.1682 60.1689C24.0605 60.0612 24 59.9152 24 59.7629V57.1067C24 56.9544 24.0605 56.8084 24.1682 56.7007C24.2758 56.5931 24.4219 56.5326 24.5741 56.5326H41.1636C41.3159 56.5326 41.4619 56.5931 41.5696 56.7007C41.6773 56.8084 41.7378 56.9544 41.7378 57.1067V59.7629C41.7378 59.9152 41.6773 60.0612 41.5697 60.1689C41.462 60.2765 41.316 60.337 41.1638 60.3371Z" fill="url(#paint79_linear_87_3351)"/>
<path d="M39.0579 60.3371H26.68C26.5478 60.337 26.421 60.2844 26.3275 60.191C26.234 60.0975 26.1815 59.9707 26.1814 59.8385V57.0312C26.1814 56.9657 26.1943 56.9009 26.2193 56.8404C26.2444 56.7799 26.2811 56.7249 26.3274 56.6786C26.3737 56.6323 26.4287 56.5956 26.4892 56.5705C26.5497 56.5455 26.6145 56.5326 26.68 56.5326H39.0577C39.19 56.5326 39.3167 56.5852 39.4102 56.6787C39.5037 56.7722 39.5563 56.899 39.5563 57.0312V59.8385C39.5564 59.9039 39.5435 59.9688 39.5184 60.0293C39.4934 60.0898 39.4567 60.1447 39.4104 60.191C39.3641 60.2373 39.3091 60.274 39.2487 60.2991C39.1882 60.3242 39.1233 60.3371 39.0579 60.3371Z" fill="url(#paint80_linear_87_3351)"/>
<path d="M35.0001 60.3371H30.7378C30.658 60.3371 30.5815 60.3054 30.5251 60.249C30.4688 60.1926 30.4371 60.1161 30.4371 60.0364V56.8332C30.4371 56.7937 30.4449 56.7546 30.46 56.7181C30.4751 56.6816 30.4972 56.6485 30.5252 56.6206C30.5531 56.5927 30.5862 56.5705 30.6227 56.5554C30.6592 56.5403 30.6983 56.5326 30.7378 56.5326H35.0001C35.0799 56.5326 35.1563 56.5643 35.2127 56.6206C35.2691 56.677 35.3008 56.7534 35.3008 56.8332V60.0364C35.3008 60.1161 35.2691 60.1926 35.2127 60.2489C35.1563 60.3053 35.0799 60.337 35.0001 60.3371Z" fill="url(#paint81_linear_87_3351)"/>
<path d="M25.0749 56.9954C24.9226 56.9954 24.7766 57.0559 24.6689 57.1636C24.5612 57.2712 24.5007 57.4173 24.5007 57.5695V60.2258C24.5009 60.2626 24.5044 60.2985 24.5112 60.3334C24.5319 60.3358 24.5529 60.337 24.5743 60.3371H41.1638C41.3161 60.3371 41.4621 60.2766 41.5698 60.1689C41.6774 60.0612 41.7379 59.9152 41.7379 59.7629V57.1067C41.7378 57.0698 41.7343 57.034 41.7274 56.9991C41.7065 56.9967 41.6854 56.9955 41.6644 56.9954H25.0749Z" fill="url(#paint82_linear_87_3351)"/>
<path d="M41.1638 56.5326H24.5741C24.4219 56.5326 24.2758 56.4721 24.1682 56.3644C24.0605 56.2568 24 56.1107 24 55.9585V53.3022C24 53.15 24.0605 53.0039 24.1682 52.8963C24.2758 52.7886 24.4219 52.7281 24.5741 52.7281H41.1636C41.3159 52.7281 41.4619 52.7886 41.5696 52.8963C41.6773 53.0039 41.7378 53.15 41.7378 53.3022V55.9585C41.7378 56.1107 41.6773 56.2567 41.5697 56.3644C41.462 56.4721 41.316 56.5326 41.1638 56.5326Z" fill="url(#paint83_linear_87_3351)"/>
<path d="M39.0579 56.5326H26.68C26.5478 56.5325 26.421 56.48 26.3275 56.3865C26.234 56.293 26.1815 56.1662 26.1814 56.034V53.2267C26.1814 53.1612 26.1943 53.0964 26.2193 53.0359C26.2444 52.9754 26.2811 52.9204 26.3274 52.8741C26.3737 52.8278 26.4287 52.7911 26.4892 52.766C26.5497 52.741 26.6145 52.7281 26.68 52.7281H39.0577C39.19 52.7282 39.3167 52.7807 39.4102 52.8742C39.5037 52.9677 39.5563 53.0945 39.5563 53.2267V56.034C39.5564 56.0995 39.5435 56.1643 39.5184 56.2248C39.4934 56.2853 39.4567 56.3402 39.4104 56.3865C39.3641 56.4328 39.3091 56.4696 39.2487 56.4946C39.1882 56.5197 39.1233 56.5326 39.0579 56.5326Z" fill="url(#paint84_linear_87_3351)"/>
<path d="M35.0001 56.5326H30.7378C30.658 56.5326 30.5815 56.5009 30.5251 56.4445C30.4688 56.3881 30.4371 56.3116 30.4371 56.2319V53.0287C30.4371 52.949 30.4688 52.8725 30.5251 52.8161C30.5815 52.7597 30.658 52.728 30.7378 52.728H35.0001C35.0799 52.728 35.1564 52.7597 35.2128 52.8161C35.2692 52.8725 35.3008 52.949 35.3008 53.0287V56.2319C35.3008 56.3116 35.2691 56.3881 35.2127 56.4445C35.1563 56.5009 35.0799 56.5326 35.0001 56.5326Z" fill="url(#paint85_linear_87_3351)"/>
<path d="M25.0749 53.1909C24.9226 53.1909 24.7766 53.2514 24.6689 53.3591C24.5612 53.4668 24.5007 53.6128 24.5007 53.7651V56.4213C24.5009 56.4582 24.5044 56.494 24.5112 56.5289C24.5319 56.5313 24.5529 56.5325 24.5743 56.5326H41.1638C41.3161 56.5326 41.4621 56.4721 41.5698 56.3644C41.6774 56.2568 41.7379 56.1107 41.7379 55.9585V53.3022C41.7378 53.2654 41.7343 53.2295 41.7274 53.1946C41.7065 53.1922 41.6854 53.191 41.6644 53.1909H25.0749Z" fill="url(#paint86_linear_87_3351)"/>
<path d="M41.1638 52.7281H24.5741C24.4219 52.7281 24.2758 52.6676 24.1682 52.56C24.0605 52.4523 24 52.3063 24 52.154V49.4979C24 49.3456 24.0605 49.1996 24.1682 49.0919C24.2758 48.9843 24.4219 48.9238 24.5741 48.9238H41.1636C41.3159 48.9238 41.4619 48.9843 41.5696 49.0919C41.6773 49.1996 41.7378 49.3456 41.7378 49.4979V52.154C41.7378 52.3062 41.6773 52.4523 41.5697 52.5599C41.462 52.6676 41.316 52.7281 41.1638 52.7281Z" fill="url(#paint87_linear_87_3351)"/>
<path d="M39.0579 52.7281H26.68C26.5478 52.7281 26.421 52.6755 26.3275 52.582C26.234 52.4885 26.1815 52.3617 26.1814 52.2295V49.4221C26.1815 49.2899 26.234 49.1631 26.3275 49.0696C26.421 48.9761 26.5478 48.9236 26.68 48.9235H39.0577C39.19 48.9236 39.3167 48.9761 39.4102 49.0696C39.5037 49.1631 39.5563 49.2899 39.5563 49.4221V52.2295C39.5564 52.295 39.5435 52.3598 39.5184 52.4203C39.4934 52.4808 39.4567 52.5358 39.4104 52.5821C39.3641 52.6284 39.3091 52.6651 39.2487 52.6902C39.1882 52.7152 39.1233 52.7281 39.0579 52.7281Z" fill="url(#paint88_linear_87_3351)"/>
<path d="M35.0001 52.7281H30.7378C30.658 52.7281 30.5815 52.6964 30.5251 52.64C30.4688 52.5836 30.4371 52.5072 30.4371 52.4274V49.2242C30.4371 49.1848 30.4449 49.1457 30.46 49.1092C30.4751 49.0727 30.4972 49.0396 30.5252 49.0116C30.5531 48.9837 30.5862 48.9616 30.6227 48.9465C30.6592 48.9314 30.6983 48.9236 30.7378 48.9236H35.0001C35.0799 48.9236 35.1563 48.9553 35.2127 49.0117C35.2691 49.068 35.3008 49.1445 35.3008 49.2242V52.4274C35.3008 52.5072 35.2691 52.5836 35.2127 52.64C35.1563 52.6964 35.0799 52.7281 35.0001 52.7281Z" fill="url(#paint89_linear_87_3351)"/>
<path d="M25.0749 49.3865C24.9226 49.3865 24.7766 49.447 24.6689 49.5546C24.5612 49.6623 24.5007 49.8083 24.5007 49.9606V52.6168C24.5009 52.6537 24.5044 52.6896 24.5112 52.7245C24.5319 52.7268 24.5529 52.728 24.5743 52.7281H41.1638C41.3161 52.7281 41.4621 52.6676 41.5698 52.56C41.6774 52.4523 41.7379 52.3063 41.7379 52.154V49.4978C41.7378 49.4609 41.7343 49.425 41.7274 49.3901C41.7065 49.3878 41.6854 49.3866 41.6644 49.3865H25.0749Z" fill="url(#paint90_linear_87_3351)"/>
<path d="M41.1638 48.9235H24.5741C24.4219 48.9235 24.2758 48.863 24.1682 48.7554C24.0605 48.6477 24 48.5017 24 48.3494V45.6932C24 45.5409 24.0605 45.3949 24.1682 45.2872C24.2758 45.1796 24.4219 45.1191 24.5741 45.1191H41.1636C41.3159 45.1191 41.4619 45.1796 41.5696 45.2872C41.6773 45.3949 41.7378 45.5409 41.7378 45.6932V48.3494C41.7378 48.5017 41.6773 48.6477 41.5697 48.7553C41.462 48.863 41.316 48.9235 41.1638 48.9235Z" fill="url(#paint91_linear_87_3351)"/>
<path d="M39.0579 48.9235H26.68C26.5478 48.9235 26.421 48.8709 26.3275 48.7774C26.234 48.6839 26.1815 48.5572 26.1814 48.4249V45.6175C26.1815 45.4853 26.234 45.3585 26.3275 45.265C26.421 45.1716 26.5478 45.119 26.68 45.1189H39.0577C39.19 45.119 39.3167 45.1716 39.4102 45.265C39.5037 45.3585 39.5563 45.4853 39.5563 45.6175V48.4249C39.5564 48.4904 39.5435 48.5552 39.5184 48.6157C39.4934 48.6762 39.4567 48.7312 39.4104 48.7775C39.3641 48.8238 39.3091 48.8605 39.2487 48.8856C39.1882 48.9106 39.1233 48.9235 39.0579 48.9235Z" fill="url(#paint92_linear_87_3351)"/>
<path d="M35.0001 48.9235H30.7378C30.658 48.9235 30.5816 48.8919 30.5252 48.8355C30.4688 48.7791 30.4371 48.7027 30.4371 48.6229V45.4198C30.4371 45.3803 30.4449 45.3412 30.46 45.3047C30.4751 45.2682 30.4972 45.2351 30.5252 45.2072C30.5531 45.1793 30.5862 45.1571 30.6227 45.142C30.6592 45.1269 30.6983 45.1192 30.7378 45.1192H35.0001C35.0799 45.1192 35.1563 45.1508 35.2127 45.2072C35.2691 45.2636 35.3008 45.34 35.3008 45.4198V48.6229C35.3008 48.7027 35.2691 48.7791 35.2127 48.8355C35.1563 48.8918 35.0799 48.9235 35.0001 48.9235Z" fill="url(#paint93_linear_87_3351)"/>
<path d="M25.0749 45.5819C24.9226 45.5819 24.7766 45.6424 24.6689 45.75C24.5612 45.8577 24.5007 46.0037 24.5007 46.156V48.8121C24.5009 48.849 24.5044 48.8849 24.5112 48.9198C24.5319 48.9221 24.5529 48.9233 24.5743 48.9234H41.1638C41.3161 48.9234 41.4621 48.8629 41.5698 48.7553C41.6774 48.6476 41.7379 48.5016 41.7379 48.3493V45.6932C41.7378 45.6563 41.7343 45.6204 41.7274 45.5855C41.7065 45.5832 41.6854 45.582 41.6644 45.5819H25.0749Z" fill="url(#paint94_linear_87_3351)"/>
<path d="M74.2473 68.1382C77.3167 66.1141 79.8404 63.3306 81.551 60.0546L74.2473 52.7509V68.1382Z" fill="url(#paint95_linear_87_3351)"/>
<path d="M73.3439 73.6862H36.4569C36.3146 73.6863 36.1737 73.6583 36.0422 73.6038C35.9107 73.5494 35.7912 73.4695 35.6905 73.3689C35.5899 73.2682 35.5101 73.1488 35.4556 73.0173C35.4011 72.8857 35.3731 72.7448 35.3732 72.6025V53.3489C35.3731 53.2066 35.4011 53.0657 35.4556 52.9342C35.5101 52.8027 35.5899 52.6832 35.6905 52.5825C35.7912 52.4819 35.9107 52.4021 36.0422 52.3476C36.1737 52.2932 36.3146 52.2652 36.4569 52.2652H73.3439C73.4862 52.2652 73.6271 52.2932 73.7587 52.3476C73.8902 52.4021 74.0096 52.4819 74.1103 52.5825C74.2109 52.6832 74.2908 52.8027 74.3452 52.9342C74.3997 53.0657 74.4277 53.2066 74.4276 53.3489V72.6025C74.4277 72.7448 74.3997 72.8857 74.3452 73.0173C74.2908 73.1488 74.2109 73.2682 74.1103 73.3689C74.0096 73.4695 73.8902 73.5494 73.7587 73.6038C73.6271 73.6583 73.4862 73.6863 73.3439 73.6862Z" fill="url(#paint96_linear_87_3351)"/>
<path d="M72.542 72.9435H37.2588C36.9877 72.9435 36.7278 72.8358 36.5361 72.6441C36.3445 72.4524 36.2368 72.1925 36.2367 71.9214V54.03C36.2368 53.7589 36.3445 53.499 36.5361 53.3073C36.7278 53.1157 36.9877 53.0079 37.2588 53.0079H72.5419C72.8129 53.0079 73.0729 53.1157 73.2645 53.3073C73.4562 53.499 73.5639 53.7589 73.564 54.03V71.9214C73.564 72.0556 73.5376 72.1886 73.4863 72.3126C73.4349 72.4366 73.3596 72.5493 73.2647 72.6442C73.1698 72.7391 73.0571 72.8144 72.9331 72.8658C72.8091 72.9171 72.6762 72.9435 72.542 72.9435Z" fill="url(#paint97_linear_87_3351)"/>
<path d="M71.1521 58.8164C69.343 58.8164 67.8766 57.3499 67.8766 55.5408C67.8766 55.4665 67.879 55.3928 67.884 55.3198C67.8898 55.2369 67.8784 55.1536 67.8506 55.0753C67.8229 54.9969 67.7793 54.9251 67.7226 54.8644C67.6659 54.8036 67.5973 54.7551 67.5211 54.722C67.4449 54.6889 67.3626 54.6718 67.2795 54.6718H42.5214C42.4383 54.6718 42.356 54.6889 42.2798 54.722C42.2036 54.7551 42.135 54.8036 42.0783 54.8644C42.0216 54.9251 41.978 54.9969 41.9502 55.0753C41.9225 55.1536 41.9111 55.2369 41.9169 55.3198C41.9219 55.3928 41.9243 55.4665 41.9243 55.5408C41.9243 57.3499 40.4579 58.8164 38.6488 58.8164H38.6423C38.3026 58.8157 38.0236 59.0831 38.0236 59.4228V66.5287C38.0236 66.8685 38.3026 67.1359 38.6423 67.1352H38.6488C40.4579 67.1352 41.9243 68.6017 41.9243 70.4107C41.9243 70.4851 41.9219 70.5587 41.9169 70.6318C41.9111 70.7147 41.9225 70.7979 41.9502 70.8763C41.978 70.9546 42.0216 71.0264 42.0783 71.0872C42.135 71.1479 42.2036 71.1964 42.2798 71.2295C42.356 71.2627 42.4383 71.2798 42.5214 71.2798H67.2795C67.3626 71.2798 67.4449 71.2627 67.5211 71.2295C67.5973 71.1964 67.6659 71.1479 67.7226 71.0872C67.7793 71.0264 67.8229 70.9546 67.8506 70.8763C67.8784 70.7979 67.8898 70.7147 67.884 70.6318C67.879 70.5582 67.8766 70.4845 67.8766 70.4107C67.8766 68.6017 69.343 67.1352 71.1521 67.1352H71.1584C71.4982 67.1359 71.7771 66.8685 71.7771 66.5287V59.4228C71.7771 59.0831 71.4982 58.8157 71.1584 58.8164H71.1521Z" fill="url(#paint98_linear_87_3351)"/>
<path d="M54.9005 70.4375C59.0215 70.4375 62.3623 67.0968 62.3623 62.9758C62.3623 58.8547 59.0215 55.514 54.9005 55.514C50.7795 55.514 47.4387 58.8547 47.4387 62.9758C47.4387 67.0968 50.7795 70.4375 54.9005 70.4375Z" fill="url(#paint99_linear_87_3351)"/>
<path d="M57.8303 58.4707C57.7167 58.2932 57.4972 58.1454 57.1701 58.0278C56.8176 57.9013 56.442 57.8153 56.044 57.7681C56.0231 57.7549 56.0013 57.7431 55.9789 57.7326L55.3894 57.1009C55.2968 57.0329 55.1971 56.9989 55.0902 56.9988C54.9734 56.9989 54.8736 57.0329 54.791 57.1009C54.7083 57.1692 54.6669 57.247 54.6669 57.3345V57.7578C53.8788 57.8454 53.2195 58.1081 52.6892 58.5459C52.1588 58.9838 51.8937 59.6255 51.8938 60.4707C51.8938 60.7718 51.9278 61.0462 51.9959 61.2938C52.0639 61.5414 52.1759 61.7574 52.3316 61.9419C52.4872 62.1264 52.6356 62.2842 52.7768 62.4153L52.78 62.418L54.6163 64.2544C54.6334 64.2726 54.6501 64.2896 54.667 64.3072V66.7486C54.2358 66.7195 53.856 66.6078 53.5276 66.4135C53.1993 66.2194 52.9412 66.0373 52.7534 65.8673C52.5656 65.6974 52.4139 65.6124 52.2985 65.6124C52.1243 65.6124 51.9696 65.7046 51.8341 65.8892C51.6309 66.166 51.6312 66.2582 51.6312 66.4427C51.6312 66.7376 51.7974 67.0283 52.1298 67.3148L58.5009 73.686H73.0459L57.8303 58.4707Z" fill="url(#paint100_linear_87_3351)"/>
<path d="M51.6309 66.4429C51.6309 66.2585 51.6986 66.074 51.8339 65.8894C51.9692 65.7049 52.1239 65.6126 52.2982 65.6126C52.4137 65.6126 52.5653 65.6976 52.7532 65.8675C52.9411 66.0376 53.1992 66.2196 53.5274 66.4138C53.8558 66.608 54.2356 66.7197 54.6668 66.7488V63.3259C54.3748 63.2191 54.151 63.1342 53.9954 63.0709C53.8396 63.008 53.6329 62.9157 53.3752 62.7942C53.1172 62.6729 52.9177 62.5466 52.7767 62.4154C52.6355 62.2843 52.4871 62.1265 52.3315 61.942C52.1757 61.7575 52.0638 61.5415 51.9957 61.2939C51.9277 61.0463 51.8936 60.7719 51.8936 60.4708C51.8935 59.6256 52.1587 58.984 52.689 58.546C53.2193 58.1081 53.8785 57.8454 54.6667 57.7579V57.3346C54.6667 57.247 54.7081 57.1691 54.7908 57.1011C54.8735 57.0331 54.9732 56.999 55.09 56.9989C55.197 56.999 55.2967 57.0331 55.3892 57.1011C55.4815 57.1692 55.5278 57.2471 55.5279 57.3346V57.7287C56.1213 57.7483 56.6686 57.848 57.1699 58.0279C57.671 58.208 57.9215 58.4585 57.9215 58.7795C57.9214 58.9547 57.8625 59.1372 57.7448 59.3268C57.6271 59.5166 57.4701 59.6115 57.2739 59.6114C57.1962 59.6114 56.9832 59.5287 56.6347 59.3633C56.287 59.1983 55.9117 59.0993 55.5279 59.0714V62.0293C55.9149 62.175 56.2366 62.3134 56.493 62.4446C56.8776 62.6413 57.0206 62.7578 57.3061 62.9908C57.5916 63.2239 57.8069 63.5176 57.952 63.872C58.0971 64.2265 58.1697 64.6416 58.1697 65.1174C58.1697 65.9867 57.9326 66.6778 57.4583 67.1905C56.9841 67.7032 56.3406 68.0181 55.5279 68.1353V68.6229C55.5279 68.7089 55.4816 68.7854 55.3892 68.8524C55.2967 68.9193 55.197 68.9528 55.09 68.9527C54.9731 68.9526 54.8734 68.9193 54.7908 68.8526C54.7081 68.7856 54.6667 68.7091 54.6667 68.6232V68.1792C53.8202 68.1694 53.1026 67.9758 52.5139 67.5981C51.9252 67.2204 51.6309 66.8353 51.6309 66.4429ZM53.3387 60.3252C53.3387 60.704 53.4566 60.9929 53.6926 61.1918C53.9283 61.3909 54.2823 61.5778 54.7543 61.7526V59.0992C53.8105 59.2159 53.3386 59.6245 53.3387 60.3252ZM55.4404 66.7195C56.2967 66.5642 56.7248 66.0836 56.7249 65.2775C56.7249 64.8503 56.613 64.5154 56.3892 64.2727C56.1653 64.03 55.8491 63.8212 55.4404 63.6462V66.7195Z" fill="url(#paint101_linear_87_3351)"/>
<path d="M38.9975 57.8101C39.8532 57.8101 40.5468 57.1165 40.5468 56.2608C40.5468 55.4052 39.8532 54.7115 38.9975 54.7115C38.1419 54.7115 37.4482 55.4052 37.4482 56.2608C37.4482 57.1165 38.1419 57.8101 38.9975 57.8101Z" fill="url(#paint102_linear_87_3351)"/>
<path d="M70.8033 57.8101C71.659 57.8101 72.3526 57.1165 72.3526 56.2608C72.3526 55.4052 71.659 54.7115 70.8033 54.7115C69.9477 54.7115 69.254 55.4052 69.254 56.2608C69.254 57.1165 69.9477 57.8101 70.8033 57.8101Z" fill="url(#paint103_linear_87_3351)"/>
<path d="M38.9975 71.24C39.8532 71.24 40.5468 70.5464 40.5468 69.6907C40.5468 68.8351 39.8532 68.1414 38.9975 68.1414C38.1419 68.1414 37.4482 68.8351 37.4482 69.6907C37.4482 70.5464 38.1419 71.24 38.9975 71.24Z" fill="url(#paint104_linear_87_3351)"/>
<path d="M70.8033 71.24C71.659 71.24 72.3526 70.5464 72.3526 69.6907C72.3526 68.8351 71.659 68.1414 70.8033 68.1414C69.9477 68.1414 69.254 68.8351 69.254 69.6907C69.254 70.5464 69.9477 71.24 70.8033 71.24Z" fill="url(#paint105_linear_87_3351)"/>
<path d="M59.6095 73.6862H73.3439C73.4862 73.6863 73.6271 73.6583 73.7586 73.6038C73.8901 73.5494 74.0096 73.4695 74.1103 73.3689C74.2109 73.2682 74.2907 73.1488 74.3452 73.0173C74.3996 72.8857 74.4276 72.7448 74.4276 72.6025V64.4669L62.2257 52.2652H59.6095V73.6862Z" fill="url(#paint106_linear_87_3351)"/>
<path d="M61.2478 74.2663H48.5531C48.2575 74.2663 47.974 74.1489 47.765 73.9399C47.556 73.7309 47.4386 73.4475 47.4386 73.1519V52.7995C47.4386 52.504 47.556 52.2205 47.765 52.0115C47.974 51.8025 48.2575 51.6851 48.5531 51.6851H61.2478C61.5434 51.6851 61.8268 51.8025 62.0358 52.0115C62.2448 52.2205 62.3622 52.504 62.3622 52.7995V73.152C62.3622 73.7674 61.8633 74.2663 61.2478 74.2663Z" fill="url(#paint107_linear_87_3351)"/>
<path d="M49.6189 52.7509C49.4726 52.7509 49.3277 52.7798 49.1924 52.8358C49.0572 52.8918 48.9344 52.9739 48.8309 53.0774C48.7274 53.1809 48.6453 53.3037 48.5893 53.4389C48.5333 53.5741 48.5045 53.7191 48.5045 53.8654V74.2179C48.5045 74.2335 48.5061 74.2487 48.5068 74.2641C48.5222 74.2647 48.5374 74.2665 48.553 74.2665H61.2477C61.5433 74.2665 61.8268 74.1491 62.0358 73.9401C62.2448 73.7311 62.3622 73.4476 62.3622 73.152V52.7995C62.3622 52.7839 62.3606 52.7687 62.3599 52.7533C62.3445 52.7527 62.3293 52.7509 62.3136 52.7509H49.6189Z" fill="url(#paint108_linear_87_3351)"/>
<path d="M62.3622 73.152V63.0026L57.8303 58.4707C57.7167 58.2932 57.4972 58.1454 57.1701 58.0278C56.8176 57.9013 56.442 57.8153 56.044 57.7681C56.0231 57.7549 56.0013 57.7431 55.9789 57.7326L55.3894 57.1009C55.2968 57.0329 55.1971 56.9989 55.0902 56.9988C54.9734 56.9989 54.8736 57.0329 54.791 57.1009C54.7083 57.1692 54.6669 57.247 54.6669 57.3345V57.7578C53.8788 57.8454 53.2195 58.1081 52.6892 58.5459C52.1588 58.9838 51.8937 59.6255 51.8938 60.4707C51.8938 60.7718 51.9278 61.0462 51.9959 61.2938C52.0639 61.5414 52.1759 61.7574 52.3316 61.9419C52.4872 62.1264 52.6356 62.2842 52.7768 62.4153L52.78 62.418L54.6163 64.2544C54.6334 64.2726 54.6501 64.2896 54.667 64.3072V66.7486C54.2358 66.7195 53.856 66.6078 53.5276 66.4135C53.1993 66.2194 52.9412 66.0373 52.7534 65.8673C52.5656 65.6974 52.4139 65.6124 52.2985 65.6124C52.1243 65.6124 51.9696 65.7046 51.8341 65.8892C51.6309 66.166 51.6312 66.2582 51.6312 66.4427C51.6312 66.7376 51.7974 67.0283 52.1298 67.3148L59.081 74.2662H61.2479C61.8633 74.2664 62.3622 73.7674 62.3622 73.152Z" fill="url(#paint109_linear_87_3351)"/>
<path d="M51.6309 66.4429C51.6309 66.2585 51.6986 66.074 51.8339 65.8894C51.9692 65.7049 52.1239 65.6126 52.2982 65.6126C52.4137 65.6126 52.5653 65.6976 52.7532 65.8675C52.9411 66.0376 53.1992 66.2196 53.5274 66.4138C53.8558 66.608 54.2356 66.7197 54.6668 66.7488V63.3259C54.3748 63.2191 54.151 63.1342 53.9954 63.0709C53.8396 63.008 53.6329 62.9157 53.3752 62.7942C53.1172 62.6729 52.9177 62.5466 52.7767 62.4154C52.6355 62.2843 52.4871 62.1265 52.3315 61.942C52.1757 61.7575 52.0638 61.5415 51.9957 61.2939C51.9277 61.0463 51.8936 60.7719 51.8936 60.4708C51.8935 59.6256 52.1587 58.984 52.689 58.546C53.2193 58.1081 53.8785 57.8454 54.6667 57.7579V57.3346C54.6667 57.247 54.7081 57.1691 54.7908 57.1011C54.8735 57.0331 54.9732 56.999 55.09 56.9989C55.197 56.999 55.2967 57.0331 55.3892 57.1011C55.4815 57.1692 55.5278 57.2471 55.5279 57.3346V57.7287C56.1213 57.7483 56.6686 57.848 57.1699 58.0279C57.671 58.208 57.9215 58.4585 57.9215 58.7795C57.9214 58.9547 57.8625 59.1372 57.7448 59.3268C57.6271 59.5166 57.4701 59.6115 57.2739 59.6114C57.1962 59.6114 56.9832 59.5287 56.6347 59.3633C56.287 59.1983 55.9117 59.0993 55.5279 59.0714V62.0293C55.9149 62.175 56.2366 62.3134 56.493 62.4446C56.8776 62.6413 57.0206 62.7578 57.3061 62.9908C57.5916 63.2239 57.8069 63.5176 57.952 63.872C58.0971 64.2265 58.1697 64.6416 58.1697 65.1174C58.1697 65.9867 57.9326 66.6778 57.4583 67.1905C56.9841 67.7032 56.3406 68.0181 55.5279 68.1353V68.6229C55.5279 68.7089 55.4816 68.7854 55.3892 68.8524C55.2967 68.9193 55.197 68.9528 55.09 68.9527C54.9731 68.9526 54.8734 68.9193 54.7908 68.8526C54.7081 68.7856 54.6667 68.7091 54.6667 68.6232V68.1792C53.8202 68.1694 53.1026 67.9758 52.5139 67.5981C51.9252 67.2204 51.6309 66.8353 51.6309 66.4429ZM53.3387 60.3252C53.3387 60.704 53.4566 60.9929 53.6926 61.1918C53.9283 61.3909 54.2823 61.5778 54.7543 61.7526V59.0992C53.8105 59.2159 53.3386 59.6245 53.3387 60.3252ZM55.4404 66.7195C56.2967 66.5642 56.7248 66.0836 56.7249 65.2775C56.7249 64.8503 56.613 64.5154 56.3892 64.2727C56.1653 64.03 55.8491 63.8212 55.4404 63.6462V66.7195Z" fill="url(#paint110_linear_87_3351)"/>
<path d="M42.085 38.4129C40.594 39.3852 39.3253 40.6615 38.3619 42.1582C38.1454 42.4946 37.6459 42.4937 37.4307 42.1566C36.4728 40.6564 35.2087 39.3755 33.7213 38.3979C33.3914 38.1812 33.3923 37.6885 33.7229 37.4731C35.2139 36.5008 36.4826 35.2246 37.446 33.7279C37.6625 33.3915 38.162 33.3924 38.3772 33.7295C39.3351 35.2297 40.5992 36.5106 42.0867 37.4882C42.4166 37.7048 42.4156 38.1974 42.085 38.4129Z" fill="url(#paint111_linear_87_3351)"/>
<path d="M34.8782 31.1993C33.8238 31.8868 32.9266 32.7893 32.2453 33.8478C32.0922 34.0856 31.7389 34.0849 31.5868 33.8466C30.9095 32.7856 30.0156 31.8798 28.9636 31.1886C28.7303 31.0354 28.731 30.6869 28.9648 30.5346C30.0193 29.8472 30.9165 28.9446 31.5976 27.8861C31.7507 27.6482 32.104 27.6489 32.2561 27.8873C32.9334 28.9483 33.8274 29.8541 34.8794 30.5453C35.1127 30.6985 35.1121 31.0469 34.8782 31.1993Z" fill="url(#paint112_linear_87_3351)"/>
<path d="M50.3954 27.4912C49.341 28.1787 48.4438 29.0812 47.7625 30.1396C47.6094 30.3775 47.2561 30.3768 47.104 30.1385C46.4267 29.0775 45.5328 28.1717 44.4808 27.4805C44.2475 27.3273 44.2482 26.9788 44.482 26.8265C45.5365 26.1391 46.4337 25.2365 47.1148 24.178C47.2679 23.9401 47.6212 23.9408 47.7733 24.1792C48.4506 25.2402 49.3446 26.146 50.3966 26.8372C50.6298 26.9905 50.6292 27.3388 50.3954 27.4912Z" fill="url(#paint113_linear_87_3351)"/>
</g>
<defs>
<filter id="filter0_f_87_3351" x="0" y="0" width="108" height="98.2665" filterUnits="userSpaceOnUse" color-interpolation-filters="sRGB">
<feFlood flood-opacity="0" result="BackgroundImageFix"/>
<feBlend mode="normal" in="SourceGraphic" in2="BackgroundImageFix" result="shape"/>
<feGaussianBlur stdDeviation="12" result="effect1_foregroundBlur_87_3351"/>
</filter>
<linearGradient id="paint0_linear_87_3351" x1="58.5558" y1="46.2604" x2="71.2425" y2="58.9471" gradientUnits="userSpaceOnUse">
<stop stop-color="#E4F2FF"/>
<stop offset="1" stop-color="#B2CBFF"/>
</linearGradient>
<linearGradient id="paint1_linear_87_3351" x1="61.4734" y1="28.7078" x2="80.897" y2="48.1312" gradientUnits="userSpaceOnUse">
<stop stop-color="#E4F2FF"/>
<stop offset="1" stop-color="#B2CBFF"/>
</linearGradient>
<linearGradient id="paint2_linear_87_3351" x1="50.2754" y1="35.6592" x2="59.1254" y2="44.5093" gradientUnits="userSpaceOnUse">
<stop stop-color="#E4F2FF"/>
<stop offset="1" stop-color="#B2CBFF"/>
</linearGradient>
<linearGradient id="paint3_linear_87_3351" x1="45.2722" y1="52.6768" x2="51.3048" y2="58.7095" gradientUnits="userSpaceOnUse">
<stop stop-color="#E4F2FF"/>
<stop offset="1" stop-color="#B2CBFF"/>
</linearGradient>
<linearGradient id="paint4_linear_87_3351" x1="72.0447" y1="48.9144" x2="83.0651" y2="59.9346" gradientUnits="userSpaceOnUse">
<stop stop-color="#E4F2FF"/>
<stop offset="1" stop-color="#B2CBFF"/>
</linearGradient>
<linearGradient id="paint5_linear_87_3351" x1="56.0569" y1="60.5135" x2="67.0401" y2="71.4967" gradientUnits="userSpaceOnUse">
<stop stop-color="#E4F2FF"/>
<stop offset="1" stop-color="#B2CBFF"/>
</linearGradient>
<linearGradient id="paint6_linear_87_3351" x1="60.6805" y1="49.3354" x2="66.2412" y2="54.8961" gradientUnits="userSpaceOnUse">
<stop stop-color="#8A7889"/>
<stop offset="1" stop-color="#6E566E"/>
</linearGradient>
<linearGradient id="paint7_linear_87_3351" x1="61.6434" y1="28.4246" x2="63.9745" y2="30.7556" gradientUnits="userSpaceOnUse">
<stop stop-color="#8A7889"/>
<stop offset="1" stop-color="#6E566E"/>
</linearGradient>
<linearGradient id="paint8_linear_87_3351" x1="82.1456" y1="44.4388" x2="84.3471" y2="46.6404" gradientUnits="userSpaceOnUse">
<stop stop-color="#8A7889"/>
<stop offset="1" stop-color="#6E566E"/>
</linearGradient>
<linearGradient id="paint9_linear_87_3351" x1="41.4451" y1="44.6653" x2="42.8871" y2="46.1072" gradientUnits="userSpaceOnUse">
<stop stop-color="#8A7889"/>
<stop offset="1" stop-color="#6E566E"/>
</linearGradient>
<linearGradient id="paint10_linear_87_3351" x1="49.662" y1="65.2432" x2="52.7803" y2="68.3615" gradientUnits="userSpaceOnUse">
<stop stop-color="#8A7889"/>
<stop offset="1" stop-color="#6E566E"/>
</linearGradient>
<linearGradient id="paint11_linear_87_3351" x1="73.7447" y1="65.8325" x2="74.8865" y2="66.9742" gradientUnits="userSpaceOnUse">
<stop stop-color="#8A7889"/>
<stop offset="1" stop-color="#6E566E"/>
</linearGradient>
<linearGradient id="paint12_linear_87_3351" x1="67.6227" y1="56.6615" x2="38.2481" y2="18.1374" gradientUnits="userSpaceOnUse">
<stop stop-color="white" stop-opacity="0"/>
<stop offset="1" stop-color="white"/>
</linearGradient>
<linearGradient id="paint13_linear_87_3351" x1="63.6647" y1="51.4799" x2="128.407" y2="55.1141" gradientUnits="userSpaceOnUse">
<stop stop-color="#3F3CED" stop-opacity="0"/>
<stop offset="0.28" stop-color="#3C3DE4" stop-opacity="0.28"/>
<stop offset="0.731" stop-color="#3541CC" stop-opacity="0.731"/>
<stop offset="1" stop-color="#2F43BB"/>
</linearGradient>
<linearGradient id="paint14_linear_87_3351" x1="32.8689" y1="64.22" x2="32.8689" y2="69.1526" gradientUnits="userSpaceOnUse">
<stop stop-color="#FFD945"/>
<stop offset="0.304" stop-color="#FFCD3E"/>
<stop offset="0.856" stop-color="#FFAD2B"/>
<stop offset="1" stop-color="#FFA325"/>
</linearGradient>
<linearGradient id="paint15_linear_87_3351" x1="32.8689" y1="64.2915" x2="32.8689" y2="72.5872" gradientUnits="userSpaceOnUse">
<stop stop-color="#E87264" stop-opacity="0"/>
<stop offset="1" stop-color="#FF7044"/>
</linearGradient>
<linearGradient id="paint16_linear_87_3351" x1="32.869" y1="64.2915" x2="32.869" y2="72.5872" gradientUnits="userSpaceOnUse">
<stop stop-color="#E87264" stop-opacity="0"/>
<stop offset="1" stop-color="#FF7044"/>
</linearGradient>
<linearGradient id="paint17_linear_87_3351" x1="32.8485" y1="65.6205" x2="30.8817" y2="60.8641" gradientUnits="userSpaceOnUse">
<stop stop-color="#FFD945" stop-opacity="0"/>
<stop offset="1" stop-color="#FBED21"/>
</linearGradient>
<linearGradient id="paint18_linear_87_3351" x1="32.8689" y1="60.4154" x2="32.8689" y2="65.3481" gradientUnits="userSpaceOnUse">
<stop stop-color="#FFD945"/>
<stop offset="0.304" stop-color="#FFCD3E"/>
<stop offset="0.856" stop-color="#FFAD2B"/>
<stop offset="1" stop-color="#FFA325"/>
</linearGradient>
<linearGradient id="paint19_linear_87_3351" x1="32.8689" y1="60.4869" x2="32.8689" y2="68.7826" gradientUnits="userSpaceOnUse">
<stop stop-color="#E87264" stop-opacity="0"/>
<stop offset="1" stop-color="#FF7044"/>
</linearGradient>
<linearGradient id="paint20_linear_87_3351" x1="32.869" y1="60.4869" x2="32.869" y2="68.7826" gradientUnits="userSpaceOnUse">
<stop stop-color="#E87264" stop-opacity="0"/>
<stop offset="1" stop-color="#FF7044"/>
</linearGradient>
<linearGradient id="paint21_linear_87_3351" x1="32.8485" y1="61.8159" x2="30.8817" y2="57.0596" gradientUnits="userSpaceOnUse">
<stop stop-color="#FFD945" stop-opacity="0"/>
<stop offset="1" stop-color="#FBED21"/>
</linearGradient>
<linearGradient id="paint22_linear_87_3351" x1="32.8689" y1="56.6109" x2="32.8689" y2="61.5436" gradientUnits="userSpaceOnUse">
<stop stop-color="#FFD945"/>
<stop offset="0.304" stop-color="#FFCD3E"/>
<stop offset="0.856" stop-color="#FFAD2B"/>
<stop offset="1" stop-color="#FFA325"/>
</linearGradient>
<linearGradient id="paint23_linear_87_3351" x1="32.8689" y1="56.6825" x2="32.8689" y2="64.9781" gradientUnits="userSpaceOnUse">
<stop stop-color="#E87264" stop-opacity="0"/>
<stop offset="1" stop-color="#FF7044"/>
</linearGradient>
<linearGradient id="paint24_linear_87_3351" x1="32.869" y1="56.6825" x2="32.869" y2="64.9781" gradientUnits="userSpaceOnUse">
<stop stop-color="#E87264" stop-opacity="0"/>
<stop offset="1" stop-color="#FF7044"/>
</linearGradient>
<linearGradient id="paint25_linear_87_3351" x1="32.8485" y1="58.0114" x2="30.8817" y2="53.2551" gradientUnits="userSpaceOnUse">
<stop stop-color="#FFD945" stop-opacity="0"/>
<stop offset="1" stop-color="#FBED21"/>
</linearGradient>
<linearGradient id="paint26_linear_87_3351" x1="32.8689" y1="52.8065" x2="32.8689" y2="57.7392" gradientUnits="userSpaceOnUse">
<stop stop-color="#FFD945"/>
<stop offset="0.304" stop-color="#FFCD3E"/>
<stop offset="0.856" stop-color="#FFAD2B"/>
<stop offset="1" stop-color="#FFA325"/>
</linearGradient>
<linearGradient id="paint27_linear_87_3351" x1="32.8689" y1="52.878" x2="32.8689" y2="61.1736" gradientUnits="userSpaceOnUse">
<stop stop-color="#E87264" stop-opacity="0"/>
<stop offset="1" stop-color="#FF7044"/>
</linearGradient>
<linearGradient id="paint28_linear_87_3351" x1="32.869" y1="52.878" x2="32.869" y2="61.1736" gradientUnits="userSpaceOnUse">
<stop stop-color="#E87264" stop-opacity="0"/>
<stop offset="1" stop-color="#FF7044"/>
</linearGradient>
<linearGradient id="paint29_linear_87_3351" x1="32.8485" y1="54.2069" x2="30.8817" y2="49.4506" gradientUnits="userSpaceOnUse">
<stop stop-color="#FFD945" stop-opacity="0"/>
<stop offset="1" stop-color="#FBED21"/>
</linearGradient>
<linearGradient id="paint30_linear_87_3351" x1="32.8689" y1="49.002" x2="32.8689" y2="53.9346" gradientUnits="userSpaceOnUse">
<stop stop-color="#FFD945"/>
<stop offset="0.304" stop-color="#FFCD3E"/>
<stop offset="0.856" stop-color="#FFAD2B"/>
<stop offset="1" stop-color="#FFA325"/>
</linearGradient>
<linearGradient id="paint31_linear_87_3351" x1="32.8689" y1="49.0735" x2="32.8689" y2="57.3692" gradientUnits="userSpaceOnUse">
<stop stop-color="#E87264" stop-opacity="0"/>
<stop offset="1" stop-color="#FF7044"/>
</linearGradient>
<linearGradient id="paint32_linear_87_3351" x1="32.869" y1="49.0735" x2="32.869" y2="57.3692" gradientUnits="userSpaceOnUse">
<stop stop-color="#E87264" stop-opacity="0"/>
<stop offset="1" stop-color="#FF7044"/>
</linearGradient>
<linearGradient id="paint33_linear_87_3351" x1="32.8485" y1="50.4025" x2="30.8817" y2="45.6461" gradientUnits="userSpaceOnUse">
<stop stop-color="#FFD945" stop-opacity="0"/>
<stop offset="1" stop-color="#FBED21"/>
</linearGradient>
<linearGradient id="paint34_linear_87_3351" x1="32.8689" y1="45.1974" x2="32.8689" y2="50.1301" gradientUnits="userSpaceOnUse">
<stop stop-color="#FFD945"/>
<stop offset="0.304" stop-color="#FFCD3E"/>
<stop offset="0.856" stop-color="#FFAD2B"/>
<stop offset="1" stop-color="#FFA325"/>
</linearGradient>
<linearGradient id="paint35_linear_87_3351" x1="32.8689" y1="45.2689" x2="32.8689" y2="53.5647" gradientUnits="userSpaceOnUse">
<stop stop-color="#E87264" stop-opacity="0"/>
<stop offset="1" stop-color="#FF7044"/>
</linearGradient>
<linearGradient id="paint36_linear_87_3351" x1="32.869" y1="45.2689" x2="32.869" y2="53.5647" gradientUnits="userSpaceOnUse">
<stop stop-color="#E87264" stop-opacity="0"/>
<stop offset="1" stop-color="#FF7044"/>
</linearGradient>
<linearGradient id="paint37_linear_87_3351" x1="32.8485" y1="46.598" x2="30.8817" y2="41.8416" gradientUnits="userSpaceOnUse">
<stop stop-color="#FFD945" stop-opacity="0"/>
<stop offset="1" stop-color="#FBED21"/>
</linearGradient>
<linearGradient id="paint38_linear_87_3351" x1="81.4746" y1="62.7192" x2="71.3886" y2="59.5448" gradientUnits="userSpaceOnUse">
<stop stop-color="#3F3CED" stop-opacity="0"/>
<stop offset="0.28" stop-color="#3C3DE4" stop-opacity="0.28"/>
<stop offset="0.731" stop-color="#3541CC" stop-opacity="0.731"/>
<stop offset="1" stop-color="#2F43BB"/>
</linearGradient>
<linearGradient id="paint39_linear_87_3351" x1="52.8483" y1="57.784" x2="63.798" y2="85.4858" gradientUnits="userSpaceOnUse">
<stop stop-color="#4AB272"/>
<stop offset="1" stop-color="#077565"/>
</linearGradient>
<linearGradient id="paint40_linear_87_3351" x1="56.5474" y1="66.5186" x2="35.4903" y2="21.2226" gradientUnits="userSpaceOnUse">
<stop stop-color="#92F37F" stop-opacity="0"/>
<stop offset="1" stop-color="#FFEE83"/>
</linearGradient>
<linearGradient id="paint41_linear_87_3351" x1="53.5481" y1="58.8737" x2="59.6469" y2="77.3735" gradientUnits="userSpaceOnUse">
<stop stop-color="#91F27F"/>
<stop offset="1" stop-color="#00B302"/>
</linearGradient>
<linearGradient id="paint42_linear_87_3351" x1="60.6243" y1="66.6962" x2="38.1692" y2="52.1005" gradientUnits="userSpaceOnUse">
<stop stop-color="#92F37F"/>
<stop offset="1" stop-color="#4AB272"/>
</linearGradient>
<linearGradient id="paint43_linear_87_3351" x1="60.163" y1="66.8108" x2="44.378" y2="59.8229" gradientUnits="userSpaceOnUse">
<stop stop-color="#4AB272" stop-opacity="0"/>
<stop offset="1" stop-color="#009245"/>
</linearGradient>
<linearGradient id="paint44_linear_87_3351" x1="54.1913" y1="62.3365" x2="60.3056" y2="66.4543" gradientUnits="userSpaceOnUse">
<stop stop-color="#4AB272"/>
<stop offset="1" stop-color="#077565"/>
</linearGradient>
<linearGradient id="paint45_linear_87_3351" x1="38.5061" y1="55.73" x2="41.4252" y2="58.8827" gradientUnits="userSpaceOnUse">
<stop stop-color="#91F27F"/>
<stop offset="1" stop-color="#00B302"/>
</linearGradient>
<linearGradient id="paint46_linear_87_3351" x1="70.3119" y1="55.73" x2="73.2311" y2="58.8827" gradientUnits="userSpaceOnUse">
<stop stop-color="#91F27F"/>
<stop offset="1" stop-color="#00B302"/>
</linearGradient>
<linearGradient id="paint47_linear_87_3351" x1="38.5061" y1="69.1599" x2="41.4252" y2="72.3126" gradientUnits="userSpaceOnUse">
<stop stop-color="#91F27F"/>
<stop offset="1" stop-color="#00B302"/>
</linearGradient>
<linearGradient id="paint48_linear_87_3351" x1="70.3119" y1="69.1599" x2="73.2311" y2="72.3126" gradientUnits="userSpaceOnUse">
<stop stop-color="#91F27F"/>
<stop offset="1" stop-color="#00B302"/>
</linearGradient>
<linearGradient id="paint49_linear_87_3351" x1="71.1134" y1="63.2671" x2="51.5793" y2="62.7089" gradientUnits="userSpaceOnUse">
<stop stop-color="#005A01" stop-opacity="0"/>
<stop offset="1" stop-color="#005A01"/>
</linearGradient>
<linearGradient id="paint50_linear_87_3351" x1="49.8325" y1="59.0969" x2="68.3793" y2="73.292" gradientUnits="userSpaceOnUse">
<stop stop-color="#FFD945"/>
<stop offset="0.304" stop-color="#FFCD3E"/>
<stop offset="0.856" stop-color="#FFAD2B"/>
<stop offset="1" stop-color="#FFA325"/>
</linearGradient>
<linearGradient id="paint51_linear_87_3351" x1="61.2198" y1="67.4453" x2="44.1973" y2="55.8645" gradientUnits="userSpaceOnUse">
<stop stop-color="#FFD945" stop-opacity="0"/>
<stop offset="1" stop-color="#FBED21"/>
</linearGradient>
<linearGradient id="paint52_linear_87_3351" x1="58.7827" y1="66.4747" x2="47.3239" y2="60.5622" gradientUnits="userSpaceOnUse">
<stop stop-color="#E87264" stop-opacity="0"/>
<stop offset="1" stop-color="#FF7044"/>
</linearGradient>
<linearGradient id="paint53_linear_87_3351" x1="48.1627" y1="58.7906" x2="56.1159" y2="63.552" gradientUnits="userSpaceOnUse">
<stop stop-color="#FFD945"/>
<stop offset="0.304" stop-color="#FFCD3E"/>
<stop offset="0.856" stop-color="#FFAD2B"/>
<stop offset="1" stop-color="#FFA325"/>
</linearGradient>
<linearGradient id="paint54_linear_87_3351" x1="36.4905" y1="35.9865" x2="41.1898" y2="42.2524" gradientUnits="userSpaceOnUse">
<stop stop-color="#FFD945"/>
<stop offset="0.304" stop-color="#FFCD3E"/>
<stop offset="0.856" stop-color="#FFAD2B"/>
<stop offset="1" stop-color="#FFA325"/>
</linearGradient>
<linearGradient id="paint55_linear_87_3351" x1="30.9193" y1="29.4866" x2="34.2424" y2="33.9175" gradientUnits="userSpaceOnUse">
<stop stop-color="#FFD945"/>
<stop offset="0.304" stop-color="#FFCD3E"/>
<stop offset="0.856" stop-color="#FFAD2B"/>
<stop offset="1" stop-color="#FFA325"/>
</linearGradient>
<linearGradient id="paint56_linear_87_3351" x1="46.4297" y1="25.7506" x2="49.7528" y2="30.1815" gradientUnits="userSpaceOnUse">
<stop stop-color="#FFD945"/>
<stop offset="0.304" stop-color="#FFCD3E"/>
<stop offset="0.856" stop-color="#FFAD2B"/>
<stop offset="1" stop-color="#FFA325"/>
</linearGradient>
<linearGradient id="paint57_linear_87_3351" x1="58.5558" y1="46.2604" x2="71.2425" y2="58.9471" gradientUnits="userSpaceOnUse">
<stop stop-color="#E4F2FF"/>
<stop offset="1" stop-color="#B2CBFF"/>
</linearGradient>
<linearGradient id="paint58_linear_87_3351" x1="61.4734" y1="28.7078" x2="80.897" y2="48.1312" gradientUnits="userSpaceOnUse">
<stop stop-color="#E4F2FF"/>
<stop offset="1" stop-color="#B2CBFF"/>
</linearGradient>
<linearGradient id="paint59_linear_87_3351" x1="50.2754" y1="35.6592" x2="59.1254" y2="44.5093" gradientUnits="userSpaceOnUse">
<stop stop-color="#E4F2FF"/>
<stop offset="1" stop-color="#B2CBFF"/>
</linearGradient>
<linearGradient id="paint60_linear_87_3351" x1="45.2722" y1="52.6768" x2="51.3048" y2="58.7095" gradientUnits="userSpaceOnUse">
<stop stop-color="#E4F2FF"/>
<stop offset="1" stop-color="#B2CBFF"/>
</linearGradient>
<linearGradient id="paint61_linear_87_3351" x1="72.0447" y1="48.9144" x2="83.0651" y2="59.9346" gradientUnits="userSpaceOnUse">
<stop stop-color="#E4F2FF"/>
<stop offset="1" stop-color="#B2CBFF"/>
</linearGradient>
<linearGradient id="paint62_linear_87_3351" x1="56.0569" y1="60.5135" x2="67.0401" y2="71.4967" gradientUnits="userSpaceOnUse">
<stop stop-color="#E4F2FF"/>
<stop offset="1" stop-color="#B2CBFF"/>
</linearGradient>
<linearGradient id="paint63_linear_87_3351" x1="60.6805" y1="49.3354" x2="66.2412" y2="54.8961" gradientUnits="userSpaceOnUse">
<stop stop-color="#8A7889"/>
<stop offset="1" stop-color="#6E566E"/>
</linearGradient>
<linearGradient id="paint64_linear_87_3351" x1="61.6434" y1="28.4246" x2="63.9745" y2="30.7556" gradientUnits="userSpaceOnUse">
<stop stop-color="#8A7889"/>
<stop offset="1" stop-color="#6E566E"/>
</linearGradient>
<linearGradient id="paint65_linear_87_3351" x1="82.1456" y1="44.4388" x2="84.3471" y2="46.6404" gradientUnits="userSpaceOnUse">
<stop stop-color="#8A7889"/>
<stop offset="1" stop-color="#6E566E"/>
</linearGradient>
<linearGradient id="paint66_linear_87_3351" x1="41.4451" y1="44.6653" x2="42.8871" y2="46.1072" gradientUnits="userSpaceOnUse">
<stop stop-color="#8A7889"/>
<stop offset="1" stop-color="#6E566E"/>
</linearGradient>
<linearGradient id="paint67_linear_87_3351" x1="49.662" y1="65.2432" x2="52.7803" y2="68.3615" gradientUnits="userSpaceOnUse">
<stop stop-color="#8A7889"/>
<stop offset="1" stop-color="#6E566E"/>
</linearGradient>
<linearGradient id="paint68_linear_87_3351" x1="73.7447" y1="65.8325" x2="74.8865" y2="66.9742" gradientUnits="userSpaceOnUse">
<stop stop-color="#8A7889"/>
<stop offset="1" stop-color="#6E566E"/>
</linearGradient>
<linearGradient id="paint69_linear_87_3351" x1="67.6227" y1="56.6615" x2="38.2481" y2="18.1374" gradientUnits="userSpaceOnUse">
<stop stop-color="white" stop-opacity="0"/>
<stop offset="1" stop-color="white"/>
</linearGradient>
<linearGradient id="paint70_linear_87_3351" x1="63.6647" y1="51.4799" x2="128.407" y2="55.1141" gradientUnits="userSpaceOnUse">
<stop stop-color="#3F3CED" stop-opacity="0"/>
<stop offset="0.28" stop-color="#3C3DE4" stop-opacity="0.28"/>
<stop offset="0.731" stop-color="#3541CC" stop-opacity="0.731"/>
<stop offset="1" stop-color="#2F43BB"/>
</linearGradient>
<linearGradient id="paint71_linear_87_3351" x1="32.8689" y1="64.22" x2="32.8689" y2="69.1526" gradientUnits="userSpaceOnUse">
<stop stop-color="#FFD945"/>
<stop offset="0.304" stop-color="#FFCD3E"/>
<stop offset="0.856" stop-color="#FFAD2B"/>
<stop offset="1" stop-color="#FFA325"/>
</linearGradient>
<linearGradient id="paint72_linear_87_3351" x1="32.8689" y1="64.2915" x2="32.8689" y2="72.5872" gradientUnits="userSpaceOnUse">
<stop stop-color="#E87264" stop-opacity="0"/>
<stop offset="1" stop-color="#FF7044"/>
</linearGradient>
<linearGradient id="paint73_linear_87_3351" x1="32.869" y1="64.2915" x2="32.869" y2="72.5872" gradientUnits="userSpaceOnUse">
<stop stop-color="#E87264" stop-opacity="0"/>
<stop offset="1" stop-color="#FF7044"/>
</linearGradient>
<linearGradient id="paint74_linear_87_3351" x1="32.8485" y1="65.6205" x2="30.8817" y2="60.8641" gradientUnits="userSpaceOnUse">
<stop stop-color="#FFD945" stop-opacity="0"/>
<stop offset="1" stop-color="#FBED21"/>
</linearGradient>
<linearGradient id="paint75_linear_87_3351" x1="32.8689" y1="60.4154" x2="32.8689" y2="65.3481" gradientUnits="userSpaceOnUse">
<stop stop-color="#FFD945"/>
<stop offset="0.304" stop-color="#FFCD3E"/>
<stop offset="0.856" stop-color="#FFAD2B"/>
<stop offset="1" stop-color="#FFA325"/>
</linearGradient>
<linearGradient id="paint76_linear_87_3351" x1="32.8689" y1="60.4869" x2="32.8689" y2="68.7826" gradientUnits="userSpaceOnUse">
<stop stop-color="#E87264" stop-opacity="0"/>
<stop offset="1" stop-color="#FF7044"/>
</linearGradient>
<linearGradient id="paint77_linear_87_3351" x1="32.869" y1="60.4869" x2="32.869" y2="68.7826" gradientUnits="userSpaceOnUse">
<stop stop-color="#E87264" stop-opacity="0"/>
<stop offset="1" stop-color="#FF7044"/>
</linearGradient>
<linearGradient id="paint78_linear_87_3351" x1="32.8485" y1="61.8159" x2="30.8817" y2="57.0596" gradientUnits="userSpaceOnUse">
<stop stop-color="#FFD945" stop-opacity="0"/>
<stop offset="1" stop-color="#FBED21"/>
</linearGradient>
<linearGradient id="paint79_linear_87_3351" x1="32.8689" y1="56.6109" x2="32.8689" y2="61.5436" gradientUnits="userSpaceOnUse">
<stop stop-color="#FFD945"/>
<stop offset="0.304" stop-color="#FFCD3E"/>
<stop offset="0.856" stop-color="#FFAD2B"/>
<stop offset="1" stop-color="#FFA325"/>
</linearGradient>
<linearGradient id="paint80_linear_87_3351" x1="32.8689" y1="56.6825" x2="32.8689" y2="64.9781" gradientUnits="userSpaceOnUse">
<stop stop-color="#E87264" stop-opacity="0"/>
<stop offset="1" stop-color="#FF7044"/>
</linearGradient>
<linearGradient id="paint81_linear_87_3351" x1="32.869" y1="56.6825" x2="32.869" y2="64.9781" gradientUnits="userSpaceOnUse">
<stop stop-color="#E87264" stop-opacity="0"/>
<stop offset="1" stop-color="#FF7044"/>
</linearGradient>
<linearGradient id="paint82_linear_87_3351" x1="32.8485" y1="58.0114" x2="30.8817" y2="53.2551" gradientUnits="userSpaceOnUse">
<stop stop-color="#FFD945" stop-opacity="0"/>
<stop offset="1" stop-color="#FBED21"/>
</linearGradient>
<linearGradient id="paint83_linear_87_3351" x1="32.8689" y1="52.8065" x2="32.8689" y2="57.7392" gradientUnits="userSpaceOnUse">
<stop stop-color="#FFD945"/>
<stop offset="0.304" stop-color="#FFCD3E"/>
<stop offset="0.856" stop-color="#FFAD2B"/>
<stop offset="1" stop-color="#FFA325"/>
</linearGradient>
<linearGradient id="paint84_linear_87_3351" x1="32.8689" y1="52.878" x2="32.8689" y2="61.1736" gradientUnits="userSpaceOnUse">
<stop stop-color="#E87264" stop-opacity="0"/>
<stop offset="1" stop-color="#FF7044"/>
</linearGradient>
<linearGradient id="paint85_linear_87_3351" x1="32.869" y1="52.878" x2="32.869" y2="61.1736" gradientUnits="userSpaceOnUse">
<stop stop-color="#E87264" stop-opacity="0"/>
<stop offset="1" stop-color="#FF7044"/>
</linearGradient>
<linearGradient id="paint86_linear_87_3351" x1="32.8485" y1="54.2069" x2="30.8817" y2="49.4506" gradientUnits="userSpaceOnUse">
<stop stop-color="#FFD945" stop-opacity="0"/>
<stop offset="1" stop-color="#FBED21"/>
</linearGradient>
<linearGradient id="paint87_linear_87_3351" x1="32.8689" y1="49.002" x2="32.8689" y2="53.9346" gradientUnits="userSpaceOnUse">
<stop stop-color="#FFD945"/>
<stop offset="0.304" stop-color="#FFCD3E"/>
<stop offset="0.856" stop-color="#FFAD2B"/>
<stop offset="1" stop-color="#FFA325"/>
</linearGradient>
<linearGradient id="paint88_linear_87_3351" x1="32.8689" y1="49.0735" x2="32.8689" y2="57.3692" gradientUnits="userSpaceOnUse">
<stop stop-color="#E87264" stop-opacity="0"/>
<stop offset="1" stop-color="#FF7044"/>
</linearGradient>
<linearGradient id="paint89_linear_87_3351" x1="32.869" y1="49.0735" x2="32.869" y2="57.3692" gradientUnits="userSpaceOnUse">
<stop stop-color="#E87264" stop-opacity="0"/>
<stop offset="1" stop-color="#FF7044"/>
</linearGradient>
<linearGradient id="paint90_linear_87_3351" x1="32.8485" y1="50.4025" x2="30.8817" y2="45.6461" gradientUnits="userSpaceOnUse">
<stop stop-color="#FFD945" stop-opacity="0"/>
<stop offset="1" stop-color="#FBED21"/>
</linearGradient>
<linearGradient id="paint91_linear_87_3351" x1="32.8689" y1="45.1974" x2="32.8689" y2="50.1301" gradientUnits="userSpaceOnUse">
<stop stop-color="#FFD945"/>
<stop offset="0.304" stop-color="#FFCD3E"/>
<stop offset="0.856" stop-color="#FFAD2B"/>
<stop offset="1" stop-color="#FFA325"/>
</linearGradient>
<linearGradient id="paint92_linear_87_3351" x1="32.8689" y1="45.2689" x2="32.8689" y2="53.5647" gradientUnits="userSpaceOnUse">
<stop stop-color="#E87264" stop-opacity="0"/>
<stop offset="1" stop-color="#FF7044"/>
</linearGradient>
<linearGradient id="paint93_linear_87_3351" x1="32.869" y1="45.2689" x2="32.869" y2="53.5647" gradientUnits="userSpaceOnUse">
<stop stop-color="#E87264" stop-opacity="0"/>
<stop offset="1" stop-color="#FF7044"/>
</linearGradient>
<linearGradient id="paint94_linear_87_3351" x1="32.8485" y1="46.598" x2="30.8817" y2="41.8416" gradientUnits="userSpaceOnUse">
<stop stop-color="#FFD945" stop-opacity="0"/>
<stop offset="1" stop-color="#FBED21"/>
</linearGradient>
<linearGradient id="paint95_linear_87_3351" x1="81.4746" y1="62.7192" x2="71.3886" y2="59.5448" gradientUnits="userSpaceOnUse">
<stop stop-color="#3F3CED" stop-opacity="0"/>
<stop offset="0.28" stop-color="#3C3DE4" stop-opacity="0.28"/>
<stop offset="0.731" stop-color="#3541CC" stop-opacity="0.731"/>
<stop offset="1" stop-color="#2F43BB"/>
</linearGradient>
<linearGradient id="paint96_linear_87_3351" x1="52.8483" y1="57.784" x2="63.798" y2="85.4858" gradientUnits="userSpaceOnUse">
<stop stop-color="#4AB272"/>
<stop offset="1" stop-color="#077565"/>
</linearGradient>
<linearGradient id="paint97_linear_87_3351" x1="56.5474" y1="66.5186" x2="35.4903" y2="21.2226" gradientUnits="userSpaceOnUse">
<stop stop-color="#92F37F" stop-opacity="0"/>
<stop offset="1" stop-color="#FFEE83"/>
</linearGradient>
<linearGradient id="paint98_linear_87_3351" x1="53.5481" y1="58.8737" x2="59.6469" y2="77.3735" gradientUnits="userSpaceOnUse">
<stop stop-color="#91F27F"/>
<stop offset="1" stop-color="#00B302"/>
</linearGradient>
<linearGradient id="paint99_linear_87_3351" x1="60.6243" y1="66.6962" x2="38.1692" y2="52.1005" gradientUnits="userSpaceOnUse">
<stop stop-color="#92F37F"/>
<stop offset="1" stop-color="#4AB272"/>
</linearGradient>
<linearGradient id="paint100_linear_87_3351" x1="60.163" y1="66.8108" x2="44.378" y2="59.8229" gradientUnits="userSpaceOnUse">
<stop stop-color="#4AB272" stop-opacity="0"/>
<stop offset="1" stop-color="#009245"/>
</linearGradient>
<linearGradient id="paint101_linear_87_3351" x1="54.1913" y1="62.3365" x2="60.3056" y2="66.4543" gradientUnits="userSpaceOnUse">
<stop stop-color="#4AB272"/>
<stop offset="1" stop-color="#077565"/>
</linearGradient>
<linearGradient id="paint102_linear_87_3351" x1="38.5061" y1="55.73" x2="41.4252" y2="58.8827" gradientUnits="userSpaceOnUse">
<stop stop-color="#91F27F"/>
<stop offset="1" stop-color="#00B302"/>
</linearGradient>
<linearGradient id="paint103_linear_87_3351" x1="70.3119" y1="55.73" x2="73.2311" y2="58.8827" gradientUnits="userSpaceOnUse">
<stop stop-color="#91F27F"/>
<stop offset="1" stop-color="#00B302"/>
</linearGradient>
<linearGradient id="paint104_linear_87_3351" x1="38.5061" y1="69.1599" x2="41.4252" y2="72.3126" gradientUnits="userSpaceOnUse">
<stop stop-color="#91F27F"/>
<stop offset="1" stop-color="#00B302"/>
</linearGradient>
<linearGradient id="paint105_linear_87_3351" x1="70.3119" y1="69.1599" x2="73.2311" y2="72.3126" gradientUnits="userSpaceOnUse">
<stop stop-color="#91F27F"/>
<stop offset="1" stop-color="#00B302"/>
</linearGradient>
<linearGradient id="paint106_linear_87_3351" x1="71.1134" y1="63.2671" x2="51.5793" y2="62.7089" gradientUnits="userSpaceOnUse">
<stop stop-color="#005A01" stop-opacity="0"/>
<stop offset="1" stop-color="#005A01"/>
</linearGradient>
<linearGradient id="paint107_linear_87_3351" x1="49.8325" y1="59.0969" x2="68.3793" y2="73.292" gradientUnits="userSpaceOnUse">
<stop stop-color="#FFD945"/>
<stop offset="0.304" stop-color="#FFCD3E"/>
<stop offset="0.856" stop-color="#FFAD2B"/>
<stop offset="1" stop-color="#FFA325"/>
</linearGradient>
<linearGradient id="paint108_linear_87_3351" x1="61.2198" y1="67.4453" x2="44.1973" y2="55.8645" gradientUnits="userSpaceOnUse">
<stop stop-color="#FFD945" stop-opacity="0"/>
<stop offset="1" stop-color="#FBED21"/>
</linearGradient>
<linearGradient id="paint109_linear_87_3351" x1="58.7827" y1="66.4747" x2="47.3239" y2="60.5622" gradientUnits="userSpaceOnUse">
<stop stop-color="#E87264" stop-opacity="0"/>
<stop offset="1" stop-color="#FF7044"/>
</linearGradient>
<linearGradient id="paint110_linear_87_3351" x1="48.1627" y1="58.7906" x2="56.1159" y2="63.552" gradientUnits="userSpaceOnUse">
<stop stop-color="#FFD945"/>
<stop offset="0.304" stop-color="#FFCD3E"/>
<stop offset="0.856" stop-color="#FFAD2B"/>
<stop offset="1" stop-color="#FFA325"/>
</linearGradient>
<linearGradient id="paint111_linear_87_3351" x1="36.4905" y1="35.9865" x2="41.1898" y2="42.2524" gradientUnits="userSpaceOnUse">
<stop stop-color="#FFD945"/>
<stop offset="0.304" stop-color="#FFCD3E"/>
<stop offset="0.856" stop-color="#FFAD2B"/>
<stop offset="1" stop-color="#FFA325"/>
</linearGradient>
<linearGradient id="paint112_linear_87_3351" x1="30.9193" y1="29.4866" x2="34.2424" y2="33.9175" gradientUnits="userSpaceOnUse">
<stop stop-color="#FFD945"/>
<stop offset="0.304" stop-color="#FFCD3E"/>
<stop offset="0.856" stop-color="#FFAD2B"/>
<stop offset="1" stop-color="#FFA325"/>
</linearGradient>
<linearGradient id="paint113_linear_87_3351" x1="46.4297" y1="25.7506" x2="49.7528" y2="30.1815" gradientUnits="userSpaceOnUse">
<stop stop-color="#FFD945"/>
<stop offset="0.304" stop-color="#FFCD3E"/>
<stop offset="0.856" stop-color="#FFAD2B"/>
<stop offset="1" stop-color="#FFA325"/>
</linearGradient>
<clipPath id="clip0_87_3351">
<rect width="60" height="50.2665" fill="white" transform="translate(24 24)"/>
</clipPath>
<clipPath id="clip1_87_3351">
<rect width="60" height="50.2665" fill="white" transform="translate(24 24)"/>
</clipPath>
</defs>
<script xmlns=""/></svg>