<svg xmlns="http://www.w3.org/2000/svg" width="24" height="24" viewBox="0 0 24 24" fill="none">
<g clip-path="url(#clip0_12225_79425)">
<path d="M7.04025 17.379C8.3685 18.0323 9.82875 18.393 11.343 18.426L13.8735 15.5272C13.9027 13.8165 13.5075 12.1267 12.7245 10.614L7.71975 9.4485C6.675 10.4948 5.865 11.7547 5.35125 13.1437L7.04025 17.379ZM6.77625 18.204L5.08425 19.614C6.9105 21.2738 9.33675 22.2855 12 22.2855C12.5107 22.2855 13.0133 22.248 13.5045 22.176L11.3363 19.2825C9.73575 19.2495 8.1885 18.8775 6.777 18.2033L6.77625 18.204ZM1.734 12.6473H4.623C5.2005 11.1758 6.08625 9.8445 7.2165 8.7405V5.46C6.26475 5.226 5.28525 5.13 4.30575 5.17425C2.69325 6.99 1.7145 9.381 1.7145 12C1.7145 12.2175 1.7205 12.4328 1.734 12.6473ZM18.9113 15.348C19.8045 14.4383 20.5223 13.371 21.0247 12.2017L19.659 7.542C18.501 6.9525 17.2388 6.58725 15.9263 6.4695L13.6042 10.4565C14.2995 11.8822 14.682 13.4438 14.727 15.033L18.9113 15.348ZM19.4085 16.0635V19.1348C21.0352 17.4458 22.0905 15.2017 22.2607 12.7147L21.7733 12.6293C21.2085 13.911 20.4067 15.0765 19.4085 16.0635ZM19.9988 5.53275C18.4868 3.66525 16.3342 2.33775 13.875 1.88475C13.5285 2.28975 13.215 2.7195 12.9375 3.171L15.7455 5.59575C17.1337 5.68725 18.4747 6.03525 19.7145 6.615L19.9988 5.53275ZM12.0848 2.92575C12.324 2.51775 12.5888 2.1255 12.879 1.75125C12.5895 1.7265 12.2962 1.7145 12.0007 1.7145C9.37725 1.7145 6.98325 2.697 5.166 4.314C5.98725 4.34325 6.80325 4.46325 7.59975 4.67325L12.0848 2.92575ZM12 24C5.37225 24 0 18.6278 0 12C0 5.37225 5.37225 0 12 0C18.6278 0 24 5.37225 24 12C24 18.6278 18.6278 24 12 24Z" fill="#8CA3B8"/>
</g>
<defs>
<clipPath id="clip0_12225_79425">
<rect width="24" height="24" fill="white"/>
</clipPath>
</defs>
</svg>