<svg width="13" height="14" viewBox="0 0 13 14" fill="none" xmlns="http://www.w3.org/2000/svg">
<path d="M4.79725 9.8793C4.05767 9.8793 3.45569 9.27731 3.45569 8.53773C3.45569 7.79815 4.05767 7.19617 4.79725 7.19617C5.53684 7.19617 6.13882 7.79815 6.13882 8.53773C6.13882 9.27731 5.53684 9.8793 4.79725 9.8793ZM4.79725 8.3428C4.68976 8.3428 4.60233 8.43024 4.60233 8.53773C4.60233 8.64523 4.68976 8.73266 4.79725 8.73266C4.90475 8.73266 4.99218 8.64523 4.99218 8.53773C4.99218 8.43024 4.90475 8.3428 4.79725 8.3428Z" fill="#8CA3B8"/>
<path d="M2.78346 7.77383C2.04388 7.77383 1.44189 7.17184 1.44189 6.43226C1.44189 5.69268 2.04388 5.0907 2.78346 5.0907C3.52304 5.0907 4.12503 5.69268 4.12503 6.43226C4.12503 7.17184 3.52304 7.77383 2.78346 7.77383ZM2.78346 6.23734C2.67596 6.23734 2.58853 6.32477 2.58853 6.43226C2.58853 6.53976 2.67596 6.62719 2.78346 6.62719C2.89096 6.62719 2.97839 6.53976 2.97839 6.43226C2.97839 6.32477 2.89096 6.23734 2.78346 6.23734Z" fill="#8CA3B8"/>
<path d="M6.8669 7.77383C6.12731 7.77383 5.52533 7.17184 5.52533 6.43226C5.52533 5.69268 6.12731 5.0907 6.8669 5.0907C7.60648 5.0907 8.20846 5.69268 8.20846 6.43226C8.20846 7.17184 7.60648 7.77383 6.8669 7.77383ZM6.8669 6.23734C6.7594 6.23734 6.67197 6.32477 6.67197 6.43226C6.67197 6.53976 6.7594 6.62719 6.8669 6.62719C6.97439 6.62719 7.06182 6.53976 7.06182 6.43226C7.06182 6.32477 6.97439 6.23734 6.8669 6.23734Z" fill="#8CA3B8"/>
<path d="M2.78346 11.9304C2.04388 11.9304 1.44189 11.3284 1.44189 10.5888C1.44189 9.84924 2.04388 9.24725 2.78346 9.24725C3.52304 9.24725 4.12503 9.84924 4.12503 10.5888C4.12503 11.3284 3.52304 11.9304 2.78346 11.9304ZM2.78346 10.3939C2.67596 10.3939 2.58853 10.4813 2.58853 10.5888C2.58853 10.6963 2.67596 10.7837 2.78346 10.7837C2.89096 10.7837 2.97839 10.6963 2.97839 10.5888C2.97839 10.4813 2.89096 10.3939 2.78346 10.3939Z" fill="#8CA3B8"/>
<path d="M6.8669 11.9304C6.12731 11.9304 5.52533 11.3284 5.52533 10.5888C5.52533 9.84924 6.12731 9.24725 6.8669 9.24725C7.60648 9.24725 8.20846 9.84924 8.20846 10.5888C8.20846 11.3284 7.60648 11.9304 6.8669 11.9304ZM6.8669 10.3939C6.7594 10.3939 6.67197 10.4813 6.67197 10.5888C6.67197 10.6963 6.7594 10.7837 6.8669 10.7837C6.97439 10.7837 7.06182 10.6963 7.06182 10.5888C7.06182 10.4813 6.97439 10.3939 6.8669 10.3939Z" fill="#8CA3B8"/>
<path d="M7.8258 13.335H1.77012C0.794046 13.335 0 12.5409 0 11.5649V5.50919C0 4.53455 0.794046 3.74194 1.77012 3.74194H3.40695V2.10368C3.40695 1.12904 4.20099 0.336426 5.17707 0.336426H11.2327C12.2074 0.336426 13 1.12904 13 2.10368V8.15936C13 9.13543 12.2074 9.92948 11.2327 9.92948H9.59449V11.5663C9.59449 12.5424 8.80188 13.3364 7.82723 13.3364L7.8258 13.335ZM1.77012 4.88858C1.42613 4.88858 1.14664 5.16664 1.14664 5.50919V11.5649C1.14664 11.9089 1.42613 12.1884 1.77012 12.1884H7.8258C8.16836 12.1884 8.44642 11.9089 8.44642 11.5649V9.35473C8.44642 9.03797 8.70298 8.78141 9.01974 8.78141H11.2313C11.5739 8.78141 11.8519 8.50192 11.8519 8.15793V2.10225C11.8519 1.75969 11.5739 1.48163 11.2313 1.48163H5.17563C4.83164 1.48163 4.55215 1.75969 4.55215 2.10225V4.31382C4.55215 4.63058 4.29559 4.88714 3.97883 4.88714H1.76869L1.77012 4.88858Z" fill="#8CA3B8"/>
<path d="M6.19038 4.36831C5.4508 4.36831 4.84882 3.76633 4.84882 3.02675C4.84882 2.28717 5.4508 1.68518 6.19038 1.68518C6.92996 1.68518 7.53195 2.28717 7.53195 3.02675C7.53195 3.76633 6.92996 4.36831 6.19038 4.36831ZM6.19038 2.83182C6.08288 2.83182 5.99545 2.91925 5.99545 3.02675C5.99545 3.13424 6.08288 3.22167 6.19038 3.22167C6.29788 3.22167 6.38531 3.13424 6.38531 3.02675C6.38531 2.91925 6.29788 2.83182 6.19038 2.83182Z" fill="#8CA3B8"/>
<path d="M10.2739 4.36831C9.5343 4.36831 8.93231 3.76633 8.93231 3.02675C8.93231 2.28717 9.5343 1.68518 10.2739 1.68518C11.0135 1.68518 11.6154 2.28717 11.6154 3.02675C11.6154 3.76633 11.0135 4.36831 10.2739 4.36831ZM10.2739 2.83182C10.1664 2.83182 10.0789 2.91925 10.0789 3.02675C10.0789 3.13424 10.1664 3.22167 10.2739 3.22167C10.3814 3.22167 10.4688 3.13424 10.4688 3.02675C10.4688 2.91925 10.3814 2.83182 10.2739 2.83182Z" fill="#8CA3B8"/>
<path d="M10.2739 8.52487C9.5343 8.52487 8.93231 7.92288 8.93231 7.1833C8.93231 6.44372 9.5343 5.84174 10.2739 5.84174C11.0135 5.84174 11.6154 6.44372 11.6154 7.1833C11.6154 7.92288 11.0135 8.52487 10.2739 8.52487ZM10.2739 6.98837C10.1664 6.98837 10.0789 7.0758 10.0789 7.1833C10.0789 7.2908 10.1664 7.37823 10.2739 7.37823C10.3814 7.37823 10.4688 7.2908 10.4688 7.1833C10.4688 7.0758 10.3814 6.98837 10.2739 6.98837Z" fill="#8CA3B8"/>
<path d="M9.02116 9.92949C8.7044 9.92949 8.44784 9.67293 8.44784 9.35617V5.45617C8.44784 5.42034 8.44784 5.41174 8.45357 5.37734C8.45357 5.37734 8.46361 5.21538 8.35611 5.09928C8.23858 4.97029 7.98202 4.90006 7.63516 4.90006H3.83119C3.51443 4.90006 3.25787 4.6435 3.25787 4.32674C3.25787 4.00998 3.51443 3.75342 3.83119 3.75342H7.63516C8.34464 3.75342 8.87926 3.95551 9.22612 4.35397C9.61024 4.79542 9.60738 5.31284 9.59304 5.48484V9.35761C9.59304 9.67437 9.33648 9.93093 9.01973 9.93093L9.02116 9.92949Z" fill="#8CA3B8"/>
</svg>
