<svg width="25" height="24" viewBox="0 0 25 24" fill="none" xmlns="http://www.w3.org/2000/svg">
<g clip-path="url(#clip0_3102_35382)">
<path d="M1.31982 11.8342C1.31982 5.94513 6.11087 1.15527 11.9988 1.15527C17.8866 1.15527 22.6777 5.94513 22.6777 11.8342C22.6777 17.7221 17.8866 22.512 11.9988 22.512C6.11087 22.512 1.31982 17.7221 1.31982 11.8342ZM3.3225 11.8342C3.3225 16.6181 7.21492 20.5105 11.9988 20.5105C16.7838 20.5105 20.6762 16.6181 20.6762 11.8342C20.6762 7.04918 16.7838 3.15676 11.9988 3.15676C7.21492 3.15676 3.3225 7.04918 3.3225 11.8342ZM10.998 12.2487V6.49414H12.9995V11.4198L15.3758 13.7961L13.9605 15.2113L10.998 12.2487Z" fill="#8CA3B8"/>
</g>
<defs>
<clipPath id="clip0_3102_35382">
<rect width="24" height="24" fill="white" transform="translate(0.402588)"/>
</clipPath>
</defs>
</svg>
