<svg width="29" height="24" viewBox="0 0 29 24" fill="none" xmlns="http://www.w3.org/2000/svg">
<path d="M24.4124 0C25.6291 0 26.7959 0.483317 27.6562 1.34363C28.5165 2.20394 28.9998 3.37076 28.9998 4.58743V19.4126C28.9998 20.6292 28.5165 21.7961 27.6562 22.6564C26.7959 23.5167 25.6291 24 24.4124 24H5.35696C4.1403 24 2.97347 23.5167 2.11316 22.6564C1.25285 21.7961 0.769531 20.6292 0.769531 19.4126V4.58884C0.769346 3.98629 0.887866 3.38961 1.11832 2.83287C1.34878 2.27614 1.68666 1.77026 2.11266 1.34412C2.53866 0.917993 3.04444 0.57996 3.6011 0.349332C4.15776 0.118704 4.75441 -2.85234e-08 5.35696 0H24.4124ZM9.2598 7.58407C6.96326 7.58407 5.37248 9.57431 5.37248 11.9908C5.37248 14.4102 6.96467 16.4032 9.2598 16.4032C10.5118 16.4032 11.6636 15.8005 12.2395 14.6896L12.3482 14.461L12.3807 14.3622L12.4061 14.2577L12.4174 14.1406V11.9951L12.4075 11.8638C12.3798 11.6793 12.2945 11.5084 12.1636 11.3755C12.0327 11.2426 11.8631 11.1546 11.6791 11.1242L11.5352 11.1115H10.1208L9.99096 11.1213C9.80652 11.149 9.63557 11.2343 9.50268 11.3652C9.36979 11.4961 9.2818 11.6657 9.25133 11.8497L9.23863 11.9922L9.24851 12.1235C9.30497 12.5018 9.60139 12.801 9.97685 12.8631L10.1208 12.8744H10.6516V13.9105L10.6431 13.9302C10.3763 14.3833 9.86393 14.6374 9.2598 14.6374C8.03743 14.6374 7.13688 13.5096 7.13688 11.9894C7.13688 10.4706 8.03601 9.34706 9.2598 9.34706C9.85405 9.34706 10.1914 9.41199 10.6149 9.61524C10.7193 9.66548 10.8326 9.69465 10.9484 9.70108C11.0641 9.70752 11.1799 9.6911 11.2893 9.65276C11.3987 9.61442 11.4995 9.55492 11.5858 9.47764C11.6722 9.40036 11.7425 9.30683 11.7928 9.20238C11.843 9.09792 11.8722 8.9846 11.8786 8.86888C11.885 8.75315 11.8686 8.63729 11.8303 8.52791C11.7919 8.41853 11.7324 8.31778 11.6552 8.2314C11.5779 8.14501 11.4843 8.0747 11.3799 8.02447C10.6981 7.69699 10.1025 7.58266 9.2598 7.58266V7.58407ZM15.7725 7.75628C15.5611 7.75634 15.3567 7.83234 15.1966 7.97042C15.0365 8.1085 14.9313 8.29949 14.9002 8.50862L14.8903 8.63848V15.3601L14.9002 15.49C14.9317 15.6988 15.0371 15.8893 15.1972 16.027C15.3572 16.1648 15.5614 16.2405 15.7725 16.2405C15.9837 16.2405 16.1878 16.1648 16.3479 16.027C16.508 15.8893 16.6133 15.6988 16.6448 15.49L16.6547 15.3601V8.63848L16.6448 8.50862C16.6137 8.29949 16.5085 8.1085 16.3484 7.97042C16.1883 7.83234 15.984 7.75634 15.7725 7.75628ZM22.8202 7.76334L20.0014 7.75345C19.7901 7.75269 19.5856 7.82778 19.425 7.96507C19.2644 8.10236 19.1584 8.29273 19.1263 8.50156L19.1164 8.63283V15.3347L19.1249 15.4646C19.1813 15.8429 19.4778 16.1421 19.8532 16.2056L19.9986 16.2169L20.1285 16.207C20.5068 16.1506 20.806 15.8541 20.8681 15.4787L20.8808 15.3347L20.8794 13.7609H22.4645L22.5944 13.7524C22.9727 13.6959 23.2719 13.3995 23.3354 13.0241L23.3467 12.8787L23.3368 12.7488C23.3092 12.5644 23.2238 12.3934 23.093 12.2605C22.9621 12.1276 22.7925 12.0396 22.6085 12.0092L22.4645 11.9979H20.8794V9.52067L22.8132 9.52914L22.9444 9.51926C23.1534 9.4886 23.3444 9.38402 23.4827 9.22451C23.6211 9.065 23.6977 8.86115 23.6985 8.64998C23.6994 8.43882 23.6245 8.23435 23.4874 8.07373C23.3503 7.9131 23.1602 7.80698 22.9515 7.77463L22.8202 7.76334Z" fill="#88a4b7"/>
</svg>
