<svg width="18" height="17" viewBox="0 0 18 17" fill="none" xmlns="http://www.w3.org/2000/svg">
<path fill-rule="evenodd" clip-rule="evenodd" d="M13 0.0244141C12.4477 0.0244141 12 0.472129 12 1.02441C12 1.5767 12.4477 2.02441 13 2.02441H15.0194L15.0194 14.0511H13C12.4477 14.0511 12 14.4988 12 15.0511C12 15.6033 12.4477 16.0511 13 16.0511H15.0194C16.124 16.0511 17.0194 15.1556 17.0194 14.0511V2.02441C17.0194 0.919846 16.124 0.0244141 15.0194 0.0244141H13ZM7.48605 11.2933L9.77894 9.00043H1.92957C1.37728 9.00043 0.929565 8.55271 0.929565 8.00042C0.929565 7.44814 1.37728 7.00042 1.92957 7.00042H9.77894L7.48605 4.70753C7.09552 4.31701 7.09552 3.68384 7.48605 3.29332C7.87657 2.90279 8.50974 2.90279 8.90026 3.29332L12.1932 6.58621C12.9742 7.36726 12.9742 8.63359 12.1932 9.41464L8.90026 12.7075C8.50974 13.0981 7.87657 13.0981 7.48605 12.7075C7.09552 12.317 7.09552 11.6838 7.48605 11.2933Z" fill="#8CA3B8"/>
</svg>
