<svg width="21" height="22" viewBox="0 0 21 22" fill="none" xmlns="http://www.w3.org/2000/svg">
<path d="M10.5 0.5C4.71 0.5 0 5.21 0 11C0 16.79 4.71 21.5 10.5 21.5C16.29 21.5 21 16.79 21 11C21 5.21 16.29 0.5 10.5 0.5ZM12.7748 8.45C12.7748 7.82825 13.2788 7.325 13.8998 7.325C14.5208 7.325 15.0248 7.82825 15.0248 8.45V9.95C15.0248 10.5718 14.5208 11.075 13.8998 11.075C13.2788 11.075 12.7748 10.571 12.7748 9.95V8.45ZM6.02475 8.45C6.02475 7.82825 6.528 7.325 7.14975 7.325C7.7715 7.325 8.27475 7.82825 8.27475 8.45V9.95C8.27475 10.5718 7.7715 11.075 7.14975 11.075C6.528 11.075 6.02475 10.571 6.02475 9.95V8.45ZM15.8783 14.4867C14.589 16.163 12.6383 17.1252 10.5247 17.1252C8.4345 17.1252 6.49575 16.1802 5.20725 14.5325C4.95225 14.2062 5.00925 13.7352 5.3355 13.4795C5.66175 13.2253 6.13275 13.2815 6.3885 13.6085C7.39125 14.8903 8.89875 15.6252 10.5247 15.6252C12.168 15.6252 13.686 14.8775 14.6887 13.5732C14.9415 13.2448 15.4117 13.1825 15.7402 13.4352C16.0688 13.688 16.131 14.159 15.8783 14.4867Z" fill="#8CA3B8"/>
</svg>
