<svg width="16" height="16" viewBox="0 0 16 16" fill="none" xmlns="http://www.w3.org/2000/svg">
<path fill-rule="evenodd" clip-rule="evenodd" d="M10.6355 5.33326C10.6355 7.40728 9.28247 9.16529 7.41096 9.77282C8.09575 9.8751 8.69816 10.0485 9.19734 10.2808C9.95652 10.6342 10.8128 11.3025 10.8128 12.3333V13.6353L10.8128 13.9153V13.9796V13.9949V13.9987V13.9996V13.9999V13.9999V13.9999C10.8128 14.5522 10.365 14.9999 9.81276 14.9999C9.26047 14.9999 8.81275 14.5522 8.81275 13.9999L9.81275 13.9999L8.81275 13.9999V13.9999V13.9999V13.9996V13.9987V13.9949V13.9796V13.9153V13.6353L8.81275 12.4035C8.78208 12.3616 8.67567 12.2441 8.35333 12.094C7.84926 11.8594 7.02603 11.6666 5.90638 11.6666C4.78673 11.6666 3.9635 11.8594 3.45943 12.094C3.13708 12.2441 3.03068 12.3616 3 12.4035V12.4065V12.4114V12.4162V12.4211V12.426V12.4309V12.4357V12.4406V12.4455V12.4504V12.4552V12.4601V12.465V12.4698V12.4747V12.4796V12.4844V12.4893V12.4942V12.499V12.5039V12.5088V12.5136V12.5185V12.5233V12.5282V12.533V12.5379V12.5427V12.5476V12.5524V12.5573V12.5621V12.5669V12.5718V12.5766V12.5815V12.5863V12.5911V12.596V12.6008V12.6056V12.6104V12.6153V12.6201V12.6249V12.6297V12.6345V12.6393V12.6441V12.6489V12.6537V12.6585V12.6633V12.6681V12.6729V12.6777V12.6825V12.6873V12.6921V12.6969V12.7016V12.7064V12.7112V12.7159V12.7207V12.7255V12.7302V12.735V12.7397V12.7445V12.7492V12.754V12.7587V12.7635V12.7682V12.7729V12.7776V12.7824V12.7871V12.7918V12.7965V12.8012V12.8059V12.8106V12.8153V12.82V12.8247V12.8294V12.8341V12.8388V12.8434V12.8481V12.8528V12.8574V12.8621V12.8668V12.8714V12.8761V12.8807V12.8853V12.89V12.8946V12.8992V12.9039V12.9085V12.9131V12.9177V12.9223V12.9269V12.9315V12.9361V12.9407V12.9452V12.9498V12.9544V12.959V12.9635V12.9681V12.9726V12.9772V12.9817V12.9862V12.9908V12.9953V12.9998V13.0043V13.0088V13.0133V13.0178V13.0223V13.0268V13.0313V13.0358V13.0403V13.0447V13.0492V13.0536V13.0581V13.0625V13.067V13.0714V13.0758V13.0803V13.0847V13.0891V13.0935V13.0979V13.1023V13.1067V13.111V13.1154V13.1198V13.1241V13.1285V13.1328V13.1372V13.1415V13.1458V13.1502V13.1545V13.1588V13.1631V13.1674V13.1717V13.176V13.1802V13.1845V13.1888V13.193V13.1973V13.2015V13.2057V13.21V13.2142V13.2184V13.2226V13.2268V13.231V13.2352V13.2394V13.2435V13.2477V13.2519V13.256V13.2602V13.2643V13.2684V13.2725V13.2766V13.2807V13.2848V13.2889V13.293V13.2971V13.3012V13.3052V13.3093V13.3133V13.3173V13.3214V13.3254V13.3294V13.3334V13.3374V13.3414V13.3453V13.3493V13.3533V13.3572V13.3612V13.3651V13.369V13.373V13.3769V13.3808V13.3847V13.3885V13.3924V13.3963V13.4001V13.404V13.4078V13.4117V13.4155V13.4193V13.4231V13.4269V13.4307V13.4345V13.4382V13.442V13.4458V13.4495V13.4532V13.457V13.4607V13.4644V13.4681V13.4718V13.4754V13.4791V13.4828V13.4864V13.49V13.4937V13.4973V13.5009V13.5045V13.5081V13.5117V13.5152V13.5188V13.5223V13.5259V13.5294V13.5329V13.5364V13.5399V13.5434V13.5469V13.5504V13.5538V13.5573V13.5607V13.5642V13.5676V13.571V13.5744V13.5778V13.5811V13.5845V13.5879V13.5912V13.5945V13.5979V13.6012V13.6045V13.6078V13.611V13.6143V13.6176V13.6208V13.624V13.6273V13.6305V13.6337V13.6369V13.64V13.6432V13.6464V13.6495V13.6526V13.6558V13.6589V13.662V13.6651V13.6681V13.6712V13.6742V13.6773V13.6803V13.6833V13.6863V13.6893V13.6923V13.6953V13.6982V13.7012V13.7041V13.707V13.7099V13.7128V13.7157V13.7186V13.7215V13.7243V13.7271V13.73V13.7328V13.7356V13.7384V13.7411V13.7439V13.7467V13.7494V13.7521V13.7548V13.7575V13.7602V13.7629V13.7655V13.7682V13.7708V13.7734V13.776V13.7786V13.7812V13.7838V13.7863V13.7889V13.7914V13.7939V13.7964V13.7989V13.8014V13.8039V13.8063V13.8087V13.8112V13.8136V13.816V13.8183V13.8207V13.8231V13.8254V13.8277V13.83V13.8323V13.8346V13.8369V13.8392V13.8414V13.8436V13.8458V13.848V13.8502V13.8524V13.8546V13.8567V13.8588V13.8609V13.863V13.8651V13.8672V13.8693V13.8713V13.8733V13.8753V13.8773V13.8793V13.8813V13.8832V13.8852V13.8871V13.889V13.8909V13.8928V13.8947V13.8965V13.8983V13.9002V13.902V13.9038V13.9055V13.9073V13.909V13.9108V13.9125V13.9142V13.9159V13.9175V13.9192V13.9208V13.9224V13.924V13.9256V13.9272V13.9288V13.9303V13.9318V13.9333V13.9348V13.9363V13.9378V13.9392V13.9407V13.9421V13.9435V13.9449V13.9462V13.9476V13.9489V13.9502V13.9515V13.9528V13.9541V13.9553V13.9566V13.9578V13.959V13.9602V13.9613V13.9625V13.9636V13.9648V13.9659V13.9669V13.968V13.9691V13.9701V13.9711V13.9721V13.9731V13.9741V13.975V13.9759V13.9769V13.9778V13.9786V13.9795V13.9804V13.9812V13.982V13.9828V13.9836V13.9843V13.9851V13.9858V13.9865V13.9872V13.9879V13.9885V13.9891V13.9898V13.9904V13.9909V13.9915V13.9921V13.9926V13.9931V13.9936V13.9941V13.9945V13.995V13.9954V13.9958V13.9962V13.9965V13.9969V13.9972V13.9975V13.9978V13.9981V13.9983V13.9986V13.9988V13.999V13.9992V13.9993V13.9995V13.9996V13.9997V13.9998V13.9998V13.9999V13.9999C3 14.5522 2.55228 14.9999 2 14.9999C1.44772 14.9999 1 14.5522 1 13.9999V13.9999V13.9998V13.9998V13.9997V13.9996V13.9995V13.9993V13.9992V13.999V13.9988V13.9986V13.9983V13.9981V13.9978V13.9975V13.9972V13.9969V13.9965V13.9962V13.9958V13.9954V13.995V13.9945V13.9941V13.9936V13.9931V13.9926V13.9921V13.9915V13.9909V13.9904V13.9898V13.9891V13.9885V13.9879V13.9872V13.9865V13.9858V13.9851V13.9843V13.9836V13.9828V13.982V13.9812V13.9804V13.9795V13.9786V13.9778V13.9769V13.9759V13.975V13.9741V13.9731V13.9721V13.9711V13.9701V13.9691V13.968V13.9669V13.9659V13.9648V13.9636V13.9625V13.9613V13.9602V13.959V13.9578V13.9566V13.9553V13.9541V13.9528V13.9515V13.9502V13.9489V13.9476V13.9462V13.9449V13.9435V13.9421V13.9407V13.9392V13.9378V13.9363V13.9348V13.9333V13.9318V13.9303V13.9288V13.9272V13.9256V13.924V13.9224V13.9208V13.9192V13.9175V13.9159V13.9142V13.9125V13.9108V13.909V13.9073V13.9055V13.9038V13.902V13.9002V13.8983V13.8965V13.8947V13.8928V13.8909V13.889V13.8871V13.8852V13.8832V13.8813V13.8793V13.8773V13.8753V13.8733V13.8713V13.8693V13.8672V13.8651V13.863V13.8609V13.8588V13.8567V13.8546V13.8524V13.8502V13.848V13.8458V13.8436V13.8414V13.8392V13.8369V13.8346V13.8323V13.83V13.8277V13.8254V13.8231V13.8207V13.8183V13.816V13.8136V13.8112V13.8087V13.8063V13.8039V13.8014V13.7989V13.7964V13.7939V13.7914V13.7889V13.7863V13.7838V13.7812V13.7786V13.776V13.7734V13.7708V13.7682V13.7655V13.7629V13.7602V13.7575V13.7548V13.7521V13.7494V13.7467V13.7439V13.7411V13.7384V13.7356V13.7328V13.73V13.7271V13.7243V13.7215V13.7186V13.7157V13.7128V13.7099V13.707V13.7041V13.7012V13.6982V13.6953V13.6923V13.6893V13.6863V13.6833V13.6803V13.6773V13.6742V13.6712V13.6681V13.6651V13.662V13.6589V13.6558V13.6526V13.6495V13.6464V13.6432V13.64V13.6369V13.6337V13.6305V13.6273V13.624V13.6208V13.6176V13.6143V13.611V13.6078V13.6045V13.6012V13.5979V13.5945V13.5912V13.5879V13.5845V13.5811V13.5778V13.5744V13.571V13.5676V13.5642V13.5607V13.5573V13.5538V13.5504V13.5469V13.5434V13.5399V13.5364V13.5329V13.5294V13.5259V13.5223V13.5188V13.5152V13.5117V13.5081V13.5045V13.5009V13.4973V13.4937V13.49V13.4864V13.4828V13.4791V13.4754V13.4718V13.4681V13.4644V13.4607V13.457V13.4532V13.4495V13.4458V13.442V13.4382V13.4345V13.4307V13.4269V13.4231V13.4193V13.4155V13.4117V13.4078V13.404V13.4001V13.3963V13.3924V13.3885V13.3847V13.3808V13.3769V13.373V13.369V13.3651V13.3612V13.3572V13.3533V13.3493V13.3453V13.3414V13.3374V13.3334V13.3294V13.3254V13.3214V13.3173V13.3133V13.3093V13.3052V13.3012V13.2971V13.293V13.2889V13.2848V13.2807V13.2766V13.2725V13.2684V13.2643V13.2602V13.256V13.2519V13.2477V13.2435V13.2394V13.2352V13.231V13.2268V13.2226V13.2184V13.2142V13.21V13.2057V13.2015V13.1973V13.193V13.1888V13.1845V13.1802V13.176V13.1717V13.1674V13.1631V13.1588V13.1545V13.1502V13.1458V13.1415V13.1372V13.1328V13.1285V13.1241V13.1198V13.1154V13.111V13.1067V13.1023V13.0979V13.0935V13.0891V13.0847V13.0803V13.0758V13.0714V13.067V13.0625V13.0581V13.0536V13.0492V13.0447V13.0403V13.0358V13.0313V13.0268V13.0223V13.0178V13.0133V13.0088V13.0043V12.9998V12.9953V12.9908V12.9862V12.9817V12.9772V12.9726V12.9681V12.9635V12.959V12.9544V12.9498V12.9452V12.9407V12.9361V12.9315V12.9269V12.9223V12.9177V12.9131V12.9085V12.9039V12.8992V12.8946V12.89V12.8853V12.8807V12.8761V12.8714V12.8668V12.8621V12.8574V12.8528V12.8481V12.8434V12.8388V12.8341V12.8294V12.8247V12.82V12.8153V12.8106V12.8059V12.8012V12.7965V12.7918V12.7871V12.7824V12.7776V12.7729V12.7682V12.7635V12.7587V12.754V12.7492V12.7445V12.7397V12.735V12.7302V12.7255V12.7207V12.7159V12.7112V12.7064V12.7016V12.6969V12.6921V12.6873V12.6825V12.6777V12.6729V12.6681V12.6633V12.6585V12.6537V12.6489V12.6441V12.6393V12.6345V12.6297V12.6249V12.6201V12.6153V12.6104V12.6056V12.6008V12.596V12.5911V12.5863V12.5815V12.5766V12.5718V12.5669V12.5621V12.5573V12.5524V12.5476V12.5427V12.5379V12.533V12.5282V12.5233V12.5185V12.5136V12.5088V12.5039V12.499V12.4942V12.4893V12.4844V12.4796V12.4747V12.4698V12.465V12.4601V12.4552V12.4504V12.4455V12.4406V12.4357V12.4309V12.426V12.4211V12.4162V12.4114V12.4065V12.4016V12.3967V12.3918V12.387V12.3821V12.3772V12.3723V12.3674V12.3626V12.3577V12.3528V12.3479V12.343V12.3381V12.3333C1 11.3025 1.85624 10.6342 2.61541 10.2808C3.13558 10.0387 3.76785 9.86063 4.48861 9.7603C2.63682 9.14143 1.30213 7.39321 1.30213 5.33326C1.30213 2.75593 3.39147 0.666595 5.96879 0.666595C8.54612 0.666595 10.6355 2.75593 10.6355 5.33326ZM5.96879 7.99993C7.44155 7.99993 8.63546 6.80602 8.63546 5.33326C8.63546 3.8605 7.44155 2.6666 5.96879 2.6666C4.49603 2.6666 3.30213 3.8605 3.30213 5.33326C3.30213 6.80602 4.49603 7.99993 5.96879 7.99993ZM10.148 2.9214C10.148 2.36911 10.5957 1.9214 11.148 1.9214C13.1731 1.9214 14.8147 3.56302 14.8147 5.58806C14.8147 7.61311 13.1731 9.25473 11.148 9.25473C10.5957 9.25473 10.148 8.80702 10.148 8.25473C10.148 7.70245 10.5957 7.25473 11.148 7.25473C12.0685 7.25473 12.8147 6.50854 12.8147 5.58806C12.8147 4.66759 12.0685 3.9214 11.148 3.9214C10.5957 3.9214 10.148 3.47368 10.148 2.9214ZM10.3333 10.6666C10.3333 10.1143 10.781 9.66659 11.3333 9.66659C12.5207 9.66659 13.4425 9.99955 14.0813 10.5674C14.7106 11.1269 15 11.8615 15 12.5184V12.5249V12.5314V12.5379V12.5444V12.5508V12.5572V12.5636V12.57V12.5764V12.5827V12.589V12.5954V12.6017V12.6079V12.6142V12.6205V12.6267V12.6329V12.6391V12.6453V12.6515V12.6576V12.6637V12.6699V12.676V12.682V12.6881V12.6942V12.7002V12.7062V12.7122V12.7182V12.7242V12.7301V12.736V12.742V12.7479V12.7538V12.7596V12.7655V12.7713V12.7771V12.7829V12.7887V12.7945V12.8003V12.806V12.8117V12.8174V12.8231V12.8288V12.8345V12.8401V12.8457V12.8513V12.8569V12.8625V12.8681V12.8736V12.8792V12.8847V12.8902V12.8956V12.9011V12.9066V12.912V12.9174V12.9228V12.9282V12.9336V12.9389V12.9443V12.9496V12.9549V12.9602V12.9655V12.9707V12.976V12.9812V12.9864V12.9916V12.9968V13.002V13.0071V13.0123V13.0174V13.0225V13.0276V13.0327V13.0377V13.0428V13.0478V13.0528V13.0578V13.0628V13.0678V13.0727V13.0777V13.0826V13.0875V13.0924V13.0972V13.1021V13.1069V13.1118V13.1166V13.1214V13.1262V13.1309V13.1357V13.1404V13.1452V13.1499V13.1546V13.1592V13.1639V13.1685V13.1732V13.1778V13.1824V13.187V13.1916V13.1961V13.2007V13.2052V13.2097V13.2142V13.2187V13.2231V13.2276V13.232V13.2365V13.2409V13.2453V13.2496V13.254V13.2584V13.2627V13.267V13.2713V13.2756V13.2799V13.2842V13.2884V13.2926V13.2969V13.3011V13.3053V13.3094V13.3136V13.3177V13.3219V13.326V13.3301V13.3342V13.3382V13.3423V13.3464V13.3504V13.3544V13.3584V13.3624V13.3664V13.3703V13.3743V13.3782V13.3821V13.386V13.3899V13.3938V13.3976V13.4015V13.4053V13.4091V13.4129V13.4167V13.4205V13.4243V13.428V13.4318V13.4355V13.4392V13.4429V13.4466V13.4502V13.4539V13.4575V13.4611V13.4647V13.4683V13.4719V13.4755V13.479V13.4826V13.4861V13.4896V13.4931V13.4966V13.5001V13.5035V13.507V13.5104V13.5138V13.5172V13.5206V13.524V13.5273V13.5307V13.534V13.5373V13.5407V13.544V13.5472V13.5505V13.5538V13.557V13.5602V13.5634V13.5666V13.5698V13.573V13.5762V13.5793V13.5824V13.5856V13.5887V13.5918V13.5949V13.5979V13.601V13.604V13.607V13.6101V13.6131V13.6161V13.619V13.622V13.625V13.6279V13.6308V13.6337V13.6366V13.6395V13.6424V13.6452V13.6481V13.6509V13.6537V13.6566V13.6593V13.6621V13.6649V13.6677V13.6704V13.6731V13.6759V13.6786V13.6813V13.6839V13.6866V13.6893V13.6919V13.6945V13.6971V13.6998V13.7023V13.7049V13.7075V13.7101V13.7126V13.7151V13.7176V13.7201V13.7226V13.7251V13.7276V13.73V13.7325V13.7349V13.7373V13.7397V13.7421V13.7445V13.7469V13.7492V13.7516V13.7539V13.7562V13.7585V13.7608V13.7631V13.7654V13.7677V13.7699V13.7721V13.7744V13.7766V13.7788V13.781V13.7831V13.7853V13.7875V13.7896V13.7917V13.7938V13.7959V13.798V13.8001V13.8022V13.8042V13.8063V13.8083V13.8103V13.8123V13.8143V13.8163V13.8183V13.8203V13.8222V13.8241V13.8261V13.828V13.8299V13.8318V13.8337V13.8355V13.8374V13.8392V13.8411V13.8429V13.8447V13.8465V13.8483V13.8501V13.8518V13.8536V13.8553V13.8571V13.8588V13.8605V13.8622V13.8639V13.8656V13.8672V13.8689V13.8705V13.8721V13.8738V13.8754V13.877V13.8785V13.8801V13.8817V13.8832V13.8848V13.8863V13.8878V13.8893V13.8908V13.8923V13.8938V13.8952V13.8967V13.8981V13.8996V13.901V13.9024V13.9038V13.9052V13.9066V13.9079V13.9093V13.9106V13.912V13.9133V13.9146V13.9159V13.9172V13.9185V13.9197V13.921V13.9222V13.9235V13.9247V13.9259V13.9271V13.9283V13.9295V13.9307V13.9318V13.933V13.9341V13.9353V13.9364V13.9375V13.9386V13.9397V13.9408V13.9418V13.9429V13.9439V13.945V13.946V13.947V13.948V13.949V13.95V13.951V13.9519V13.9529V13.9538V13.9548V13.9557V13.9566V13.9575V13.9584V13.9593V13.9602V13.9611V13.9619V13.9627V13.9636V13.9644V13.9652V13.966V13.9668V13.9676V13.9684V13.9692V13.9699V13.9707V13.9714V13.9721V13.9728V13.9735V13.9742V13.9749V13.9756V13.9763V13.9769V13.9776V13.9782V13.9788V13.9795V13.9801V13.9807V13.9813V13.9818V13.9824V13.983V13.9835V13.9841V13.9846V13.9851V13.9856V13.9862V13.9866V13.9871V13.9876V13.9881V13.9885V13.989V13.9894V13.9899V13.9903V13.9907V13.9911V13.9915V13.9919V13.9922V13.9926V13.993V13.9933V13.9937V13.994V13.9943V13.9946V13.9949V13.9952V13.9955V13.9958V13.996V13.9963V13.9965V13.9968V13.997V13.9972V13.9974V13.9977V13.9978V13.998V13.9982V13.9984V13.9985V13.9987V13.9988V13.999V13.9991V13.9992V13.9993V13.9994V13.9995V13.9996V13.9997V13.9997V13.9998V13.9998V13.9999V13.9999V13.9999V13.9999C15 14.5522 14.5523 14.9999 14 14.9999C13.4477 14.9999 13 14.5522 13 13.9999V13.9999V13.9999V13.9999V13.9998V13.9998V13.9997V13.9997V13.9996V13.9995V13.9994V13.9993V13.9992V13.9991V13.999V13.9988V13.9987V13.9985V13.9984V13.9982V13.998V13.9978V13.9977V13.9974V13.9972V13.997V13.9968V13.9965V13.9963V13.996V13.9958V13.9955V13.9952V13.9949V13.9946V13.9943V13.994V13.9937V13.9933V13.993V13.9926V13.9922V13.9919V13.9915V13.9911V13.9907V13.9903V13.9899V13.9894V13.989V13.9885V13.9881V13.9876V13.9871V13.9866V13.9862V13.9856V13.9851V13.9846V13.9841V13.9835V13.983V13.9824V13.9818V13.9813V13.9807V13.9801V13.9795V13.9788V13.9782V13.9776V13.9769V13.9763V13.9756V13.9749V13.9742V13.9735V13.9728V13.9721V13.9714V13.9707V13.9699V13.9692V13.9684V13.9676V13.9668V13.966V13.9652V13.9644V13.9636V13.9627V13.9619V13.9611V13.9602V13.9593V13.9584V13.9575V13.9566V13.9557V13.9548V13.9538V13.9529V13.9519V13.951V13.95V13.949V13.948V13.947V13.946V13.945V13.9439V13.9429V13.9418V13.9408V13.9397V13.9386V13.9375V13.9364V13.9353V13.9341V13.933V13.9318V13.9307V13.9295V13.9283V13.9271V13.9259V13.9247V13.9235V13.9222V13.921V13.9197V13.9185V13.9172V13.9159V13.9146V13.9133V13.912V13.9106V13.9093V13.9079V13.9066V13.9052V13.9038V13.9024V13.901V13.8996V13.8981V13.8967V13.8952V13.8938V13.8923V13.8908V13.8893V13.8878V13.8863V13.8848V13.8832V13.8817V13.8801V13.8785V13.877V13.8754V13.8738V13.8721V13.8705V13.8689V13.8672V13.8656V13.8639V13.8622V13.8605V13.8588V13.8571V13.8553V13.8536V13.8518V13.8501V13.8483V13.8465V13.8447V13.8429V13.8411V13.8392V13.8374V13.8355V13.8337V13.8318V13.8299V13.828V13.8261V13.8241V13.8222V13.8203V13.8183V13.8163V13.8143V13.8123V13.8103V13.8083V13.8063V13.8042V13.8022V13.8001V13.798V13.7959V13.7938V13.7917V13.7896V13.7875V13.7853V13.7831V13.781V13.7788V13.7766V13.7744V13.7721V13.7699V13.7677V13.7654V13.7631V13.7608V13.7585V13.7562V13.7539V13.7516V13.7492V13.7469V13.7445V13.7421V13.7397V13.7373V13.7349V13.7325V13.73V13.7276V13.7251V13.7226V13.7201V13.7176V13.7151V13.7126V13.7101V13.7075V13.7049V13.7023V13.6998V13.6971V13.6945V13.6919V13.6893V13.6866V13.6839V13.6813V13.6786V13.6759V13.6731V13.6704V13.6677V13.6649V13.6621V13.6593V13.6566V13.6537V13.6509V13.6481V13.6452V13.6424V13.6395V13.6366V13.6337V13.6308V13.6279V13.625V13.622V13.619V13.6161V13.6131V13.6101V13.607V13.604V13.601V13.5979V13.5949V13.5918V13.5887V13.5856V13.5824V13.5793V13.5762V13.573V13.5698V13.5666V13.5634V13.5602V13.557V13.5538V13.5505V13.5472V13.544V13.5407V13.5373V13.534V13.5307V13.5273V13.524V13.5206V13.5172V13.5138V13.5104V13.507V13.5035V13.5001V13.4966V13.4931V13.4896V13.4861V13.4826V13.479V13.4755V13.4719V13.4683V13.4647V13.4611V13.4575V13.4539V13.4502V13.4466V13.4429V13.4392V13.4355V13.4318V13.428V13.4243V13.4205V13.4167V13.4129V13.4091V13.4053V13.4015V13.3976V13.3938V13.3899V13.386V13.3821V13.3782V13.3743V13.3703V13.3664V13.3624V13.3584V13.3544V13.3504V13.3464V13.3423V13.3382V13.3342V13.3301V13.326V13.3219V13.3177V13.3136V13.3094V13.3053V13.3011V13.2969V13.2926V13.2884V13.2842V13.2799V13.2756V13.2713V13.267V13.2627V13.2584V13.254V13.2496V13.2453V13.2409V13.2365V13.232V13.2276V13.2231V13.2187V13.2142V13.2097V13.2052V13.2007V13.1961V13.1916V13.187V13.1824V13.1778V13.1732V13.1685V13.1639V13.1592V13.1546V13.1499V13.1452V13.1404V13.1357V13.1309V13.1262V13.1214V13.1166V13.1118V13.1069V13.1021V13.0972V13.0924V13.0875V13.0826V13.0777V13.0727V13.0678V13.0628V13.0578V13.0528V13.0478V13.0428V13.0377V13.0327V13.0276V13.0225V13.0174V13.0123V13.0071V13.002V12.9968V12.9916V12.9864V12.9812V12.976V12.9707V12.9655V12.9602V12.9549V12.9496V12.9443V12.9389V12.9336V12.9282V12.9228V12.9174V12.912V12.9066V12.9011V12.8956V12.8902V12.8847V12.8792V12.8736V12.8681V12.8625V12.8569V12.8513V12.8457V12.8401V12.8345V12.8288V12.8231V12.8174V12.8117V12.806V12.8003V12.7945V12.7887V12.7829V12.7771V12.7713V12.7655V12.7596V12.7538V12.7479V12.742V12.736V12.7301V12.7242V12.7182V12.7122V12.7062V12.7002V12.6942V12.6881V12.682V12.676V12.6699V12.6637V12.6576V12.6515V12.6453V12.6391V12.6329V12.6267V12.6205V12.6142V12.6079V12.6017V12.5954V12.589V12.5827V12.5764V12.57V12.5636V12.5572V12.5508V12.5444V12.5379V12.5314V12.5249V12.5184C13 12.4347 12.9563 12.2434 12.7524 12.0621C12.5579 11.8892 12.1465 11.6666 11.3333 11.6666C10.781 11.6666 10.3333 11.2189 10.3333 10.6666Z" fill="#8CA3B8"/>
</svg>
