<svg width="14" height="14" viewBox="0 0 14 14" fill="none" xmlns="http://www.w3.org/2000/svg">
<g clip-path="url(#clip0_2206_1614)">
<path d="M9.9975 7.00001V7.95227H12.611L12.7043 7.96143C13.0613 8.03267 13.3208 8.33509 13.3208 8.70291C13.3271 10.8365 13.33 12.0142 13.33 12.2366C13.33 12.8556 12.8135 13.3555 12.2303 13.1651C11.9154 13.0622 11.2418 12.8323 10.7007 12.6369C10.3124 12.4965 9.99001 12.3741 9.75132 12.2741C9.60927 12.2145 9.49596 12.1629 9.41057 12.1171C9.35308 12.0862 9.30518 12.0571 9.26185 12.0242C9.12939 11.9225 9.04566 11.8201 9.04566 11.6097V10.3325H9.00608C8.77781 11.818 7.58477 12.7127 5.71316 12.7127C4.35058 12.7127 3.24461 12 2.42731 10.6303H1.6675C1.51796 10.6303 1.37716 10.5604 1.2876 10.4408C0.476134 9.36483 0.000419617 7.90395 0.000419617 6.52388C0.000419617 3.07224 2.73682 0.335007 6.18929 0.335007C9.71132 0.335007 12.4848 2.85896 12.4848 6.24894C12.4848 6.66301 12.1478 7.00001 11.7337 7.00001H9.9975ZM0.952265 6.52388C0.952265 7.62027 1.30843 8.78873 1.91202 9.67809H2.70433C2.87928 9.67809 3.03966 9.7739 3.12297 9.92761C3.79614 11.1719 4.64717 11.7605 5.71316 11.7605C7.27735 11.7605 8.07007 11.0661 8.09381 9.84721C8.09881 9.58811 8.31042 9.38025 8.56994 9.38025H9.52221C9.78506 9.38025 9.99834 9.59352 9.99834 9.85638V11.3435C10.0346 11.3597 10.075 11.3772 10.12 11.396C10.3412 11.4889 10.6507 11.6064 11.0252 11.7417C11.3268 11.8509 11.6563 11.9658 11.9883 12.0792C12.1316 12.1283 12.2719 12.1754 12.379 12.2112C12.379 11.9446 12.3761 10.8415 12.3702 8.90411H9.52221C9.25935 8.90411 9.04607 8.69083 9.04607 8.42798V6.52388C9.04607 6.26102 9.25935 6.04774 9.52221 6.04774H11.5292C11.4221 3.30635 9.13355 1.28685 6.1897 1.28685C3.26294 1.28685 0.953098 3.59794 0.953098 6.52346L0.952265 6.52388ZM5.71274 7.71399C6.37466 7.71399 6.90286 8.2422 6.90286 8.90411C6.90286 9.56603 6.37466 10.0942 5.71274 10.0942C5.05082 10.0942 4.52262 9.56603 4.52262 8.90411C4.52262 8.2422 5.05082 7.71399 5.71274 7.71399ZM5.71274 8.19013C5.31367 8.19013 4.99875 8.50505 4.99875 8.90411C4.99875 9.30318 5.31367 9.6181 5.71274 9.6181C6.11181 9.6181 6.42673 9.30318 6.42673 8.90411C6.42673 8.50505 6.11181 8.19013 5.71274 8.19013Z" fill="#8CA3B8"/>
</g>
<defs>
<clipPath id="clip0_2206_1614">
<rect width="13.33" height="13.33" fill="white" transform="translate(0 0.335007)"/>
</clipPath>
</defs>
</svg>
