<svg width="16" height="16" viewBox="0 0 16 16" fill="none" xmlns="http://www.w3.org/2000/svg">
<path d="M11.2825 7.01096C11.4879 7.01175 11.6853 6.93093 11.8312 6.78626C11.9771 6.64159 12.0596 6.44491 12.0605 6.23946C12.0618 6.08533 12.0173 5.9343 11.9326 5.80552C11.8479 5.67674 11.7269 5.57601 11.5849 5.51611C11.4429 5.45621 11.2862 5.43985 11.1349 5.46909C10.9836 5.49833 10.8444 5.57186 10.7349 5.68035C10.6254 5.78884 10.5506 5.9274 10.52 6.07846C10.4894 6.22952 10.5044 6.38627 10.563 6.52882C10.6216 6.67137 10.7212 6.79329 10.8492 6.87913C10.9772 6.96497 11.1279 7.01085 11.282 7.01096H11.2825Z" fill="#8CA3B8"/>
<path fill-rule="evenodd" clip-rule="evenodd" d="M12.867 9H11.655L11.67 8.9865L10.963 8.281L10.2425 9H9.4445C9.3145 9 9.1895 9.0225 9.0725 9.065L8.2875 8.281L7.2675 9.2985C7.59069 9.56107 7.96944 9.74659 8.375 9.841L8.371 9.858L8.0695 11.197C7.66978 11.3395 7.27239 11.4886 6.8775 11.644C6.58107 11.7604 6.28717 11.8831 5.996 12.012C5.4365 12.262 5.0415 12.479 4.8945 12.6105L3.633 13.87C3.54928 13.9536 3.43581 14.0006 3.3175 14.0006C3.19919 14.0006 3.08572 13.9536 3.002 13.87L2.3715 13.24C2.33009 13.1987 2.29724 13.1497 2.27482 13.0956C2.25241 13.0416 2.24087 12.9837 2.24087 12.9253C2.24087 12.8668 2.25241 12.8089 2.27482 12.7549C2.29724 12.7008 2.33009 12.6518 2.3715 12.6105L3.6155 11.369C4.0155 10.864 4.63 9.428 5.4185 7.1165C5.42009 7.11181 5.42176 7.10714 5.4235 7.1025C5.42232 5.86397 5.91251 4.67555 6.7865 3.798C8.463 2.1255 11.313 2.0205 12.779 3.483C14.117 4.8185 14.146 7.3045 12.867 9ZM4.294 11.9475C4.6865 11.4665 5.174 10.419 5.779 8.775C5.948 9.146 6.179 9.4865 6.4715 9.778C6.76087 10.0651 7.09917 10.2983 7.4705 10.4665C7.156 10.5815 6.8465 10.699 6.549 10.8165C6.2155 10.948 5.908 11.0765 5.632 11.1995C4.99 11.486 4.5355 11.736 4.2805 11.9655L4.2635 11.981L4.294 11.9475ZM10.252 3.191C10.0703 3.18067 9.88816 3.18401 9.707 3.201L9.923 3.458L10.252 3.191ZM10.195 3.7825L10.824 3.2725C11.0665 3.3285 11.298 3.4115 11.5125 3.521L10.6365 4.3085L10.195 3.7825ZM9.594 3.725L8.634 4.488L7.917 3.863C8.30846 3.58413 8.75134 3.38563 9.22 3.279L9.594 3.725ZM13.0225 6.235C13.0241 6.62051 12.8977 6.99564 12.663 7.3015C12.4683 7.5603 12.2043 7.75863 11.9015 7.8735C11.672 7.9615 11.4365 7.998 11.1915 7.9855C10.849 7.97031 10.5194 7.851 10.2465 7.6435C10.0381 7.4888 9.86689 7.28942 9.74551 7.05998C9.62413 6.83054 9.55562 6.57685 9.545 6.3175C9.53278 6.08698 9.56654 5.85634 9.64431 5.63899C9.72208 5.42164 9.84231 5.22194 9.998 5.0515C10.208 4.82 10.459 4.6565 10.757 4.5635C11.1428 4.43862 11.5605 4.45546 11.935 4.611C12.1125 4.682 12.273 4.7825 12.4185 4.9095C12.7572 5.20165 12.9691 5.61401 13.0095 6.0595C13.0145 6.0985 13.0165 6.1375 13.0185 6.1765L13.0225 6.235ZM9.4975 7.927L9.4935 7.917L9.4895 7.907C9.41091 7.72945 9.33258 7.55178 9.2545 7.374L9.136 7.104C9.006 6.809 8.8765 6.5125 8.746 6.217L8.542 5.7545L8.338 5.292L8.187 4.948L8.036 4.604C8.0275 4.584 8.015 4.5775 7.994 4.5775C7.832 4.579 7.6685 4.579 7.506 4.5775C7.484 4.5775 7.474 4.5875 7.466 4.6055L7.2955 4.9945L7.125 5.3845L6.131 7.6535L6.065 7.802L6.008 7.931H7.09C7.309 7.3615 7.5275 6.798 7.748 6.2285L7.892 6.6025L7.9885 6.8535L8.1 7.144L8.39 7.8975C8.398 7.9215 8.412 7.927 8.4355 7.927H9.4975ZM2 3.558C2.00053 3.97152 2.16527 4.3679 2.458 4.65997C2.75073 4.95204 3.14748 5.1159 3.561 5.1155C3.97452 5.1159 4.37127 4.95204 4.664 4.65997C4.95673 4.3679 5.12147 3.97152 5.122 3.558C5.1218 3.3532 5.08127 3.15045 5.00272 2.96132C4.92416 2.77219 4.80912 2.60038 4.66417 2.45571C4.51922 2.31103 4.34719 2.19633 4.15791 2.11814C3.96863 2.03995 3.7658 1.9998 3.561 2C3.3562 1.9998 3.15337 2.03995 2.96409 2.11814C2.77481 2.19633 2.60278 2.31103 2.45783 2.45571C2.31288 2.60038 2.19784 2.77219 2.11928 2.96132C2.04073 3.15045 2.0002 3.3532 2 3.558ZM3.746 3.699C3.49131 3.95214 3.31256 4.27153 3.23 4.621C3.04742 4.56429 2.88247 4.46163 2.75097 4.32286C2.61946 4.18409 2.52582 4.01386 2.479 3.8285C2.81043 3.74174 3.11279 3.5683 3.355 3.326C3.58983 3.0923 3.76033 2.80193 3.85 2.483C4.02643 2.53041 4.18854 2.6204 4.32209 2.74506C4.45564 2.86972 4.55656 3.02525 4.616 3.198C4.28669 3.28523 3.98685 3.45808 3.746 3.699ZM4.6725 3.645C4.65192 3.90401 4.54146 4.14767 4.36022 4.33384C4.17898 4.52001 3.93836 4.63698 3.68 4.6645C3.748 4.4215 3.8775 4.1975 4.062 4.014C4.23261 3.84312 4.44185 3.71646 4.6725 3.645ZM3.04 3.0115C2.875 3.1765 2.677 3.2975 2.462 3.3695C2.5019 3.13942 2.61303 2.92768 2.77971 2.76414C2.94639 2.6006 3.16021 2.49352 3.391 2.458C3.31681 2.6664 3.19687 2.85553 3.04 3.0115Z" fill="#8CA3B8"/>
<path fill-rule="evenodd" clip-rule="evenodd" d="M8.20002 14C8.17003 14 8.14042 13.9932 8.11339 13.9802C8.08637 13.9672 8.06261 13.9483 8.04389 13.9249C8.02516 13.9014 8.01194 13.8741 8.00522 13.8449C7.99849 13.8156 7.99842 13.7853 8.00502 13.756L8.85852 9.968C8.88851 9.83503 8.96288 9.71623 9.06939 9.63117C9.17591 9.5461 9.30821 9.49984 9.44452 9.5H13.5565C13.6927 9.50007 13.8247 9.54643 13.931 9.63148C14.0373 9.71652 14.1116 9.8352 14.1415 9.968L14.9955 13.756C15.0021 13.7853 15.0021 13.8156 14.9953 13.8449C14.9886 13.8741 14.9754 13.9014 14.9567 13.9249C14.9379 13.9483 14.9142 13.9672 14.8871 13.9802C14.8601 13.9932 14.8305 14 14.8005 14H13.658C13.6195 13.9999 13.5819 13.9887 13.5496 13.9678C13.5174 13.9469 13.4918 13.9171 13.476 13.882L12.906 12.618C12.8902 12.5828 12.8646 12.553 12.8322 12.532C12.7998 12.5111 12.7621 12.5 12.7235 12.5H10.2775C10.239 12.5 10.2012 12.5111 10.1688 12.532C10.1365 12.553 10.1108 12.5828 10.095 12.618L9.52502 13.882C9.50921 13.9172 9.48358 13.947 9.4512 13.968C9.41882 13.9889 9.38108 14 9.34252 14H8.20002ZM10.0785 10C10.052 10 10.0266 10.0105 10.0078 10.0293C9.98906 10.048 9.97852 10.0735 9.97852 10.1V10.5H9.57152C9.545 10.5 9.51957 10.5105 9.50081 10.5293C9.48206 10.548 9.47152 10.5735 9.47152 10.6V10.9C9.47152 10.955 9.51652 11 9.57152 11H9.97852V11.4C9.97852 11.455 10.0235 11.5 10.0785 11.5H10.386C10.4125 11.5 10.438 11.4895 10.4567 11.4707C10.4755 11.452 10.486 11.4265 10.486 11.4V11H10.893C10.9195 11 10.945 10.9895 10.9637 10.9707C10.9825 10.952 10.993 10.9265 10.993 10.9V10.6C10.993 10.5735 10.9825 10.548 10.9637 10.5293C10.945 10.5105 10.9195 10.5 10.893 10.5H10.486V10.1C10.486 10.0735 10.4755 10.048 10.4567 10.0293C10.438 10.0105 10.4125 10 10.386 10H10.0785ZM12.6595 11.1785C12.6589 11.2643 12.6242 11.3464 12.563 11.4067C12.5019 11.467 12.4194 11.5005 12.3335 11.5C12.291 11.5003 12.2488 11.4923 12.2094 11.4763C12.17 11.4603 12.1341 11.4367 12.1039 11.4068C12.0736 11.377 12.0495 11.3414 12.033 11.3023C12.0164 11.2631 12.0078 11.221 12.0075 11.1785C12.0075 11.001 12.153 10.857 12.333 10.857C12.513 10.857 12.6595 11.001 12.6595 11.1785ZM13.2025 11.5C13.3825 11.5 13.5285 11.356 13.5285 11.1785C13.5283 11.136 13.5196 11.0939 13.5031 11.0547C13.4866 11.0156 13.4625 10.98 13.4322 10.9502C13.4019 10.9203 13.366 10.8967 13.3266 10.8807C13.2872 10.8647 13.245 10.8567 13.2025 10.857C13.16 10.8567 13.1178 10.8647 13.0784 10.8807C13.039 10.8967 13.0031 10.9203 12.9729 10.9502C12.9426 10.98 12.9185 11.0156 12.902 11.0547C12.8854 11.0939 12.8768 11.136 12.8765 11.1785C12.8765 11.356 13.0225 11.5 13.2025 11.5ZM13.5285 10.3215C13.5283 10.364 13.5196 10.4061 13.5031 10.4453C13.4866 10.4844 13.4625 10.52 13.4322 10.5498C13.4019 10.5797 13.366 10.6033 13.3266 10.6193C13.2872 10.6353 13.245 10.6433 13.2025 10.643C13.16 10.6433 13.1178 10.6353 13.0784 10.6193C13.039 10.6033 13.0031 10.5797 12.9729 10.5498C12.9426 10.52 12.9185 10.4844 12.902 10.4453C12.8854 10.4061 12.8768 10.364 12.8765 10.3215C12.8765 10.144 13.0225 10 13.2025 10C13.3825 10 13.5285 10.144 13.5285 10.3215ZM12.3335 10.643C12.5135 10.643 12.6595 10.499 12.6595 10.3215C12.6589 10.2357 12.6242 10.1536 12.563 10.0933C12.5019 10.033 12.4194 9.99947 12.3335 10C12.291 9.99967 12.2488 10.0077 12.2094 10.0237C12.17 10.0397 12.1341 10.0633 12.1039 10.0932C12.0736 10.123 12.0495 10.1586 12.033 10.1977C12.0164 10.2369 12.0078 10.279 12.0075 10.3215C12.0075 10.499 12.1535 10.643 12.3335 10.643Z" fill="#8CA3B8"/>
</svg>
