<svg width="70" height="30" viewBox="0 0 70 30" fill="none" xmlns="http://www.w3.org/2000/svg">
<path d="M12.7708 4.43651C11.9529 5.39807 10.6443 6.15648 9.33565 6.04813C9.17207 4.748 9.81276 3.36662 10.5625 2.51341C11.3804 1.52477 12.8117 0.820529 13.9704 0.766357C14.1067 2.12066 13.5751 3.44787 12.7708 4.43651ZM13.9567 6.30545C12.062 6.19711 10.4398 7.37535 9.54012 7.37535C8.62681 7.37535 7.25003 6.35962 5.75056 6.38671C3.80125 6.41379 1.98826 7.51078 0.993155 9.25783C-1.05157 12.7519 0.461525 17.9254 2.4381 20.7694C3.40594 22.1779 4.56462 23.7218 6.09135 23.6676C7.53629 23.6134 8.10881 22.7331 9.85365 22.7331C11.6121 22.7331 12.1165 23.6676 13.6432 23.6405C15.2245 23.6134 16.2196 22.232 17.1874 20.8236C18.2916 19.2255 18.7414 17.668 18.7687 17.5868C18.7414 17.5597 15.7152 16.4085 15.6879 12.9415C15.6607 10.0433 18.0735 8.66193 18.1825 8.58068C16.8194 6.57631 14.6928 6.35962 13.9567 6.30545ZM24.9029 2.37798V23.4915H28.2017V16.2731H32.7683C36.9395 16.2731 39.8703 13.4291 39.8703 9.312C39.8703 5.19492 36.994 2.37798 32.8773 2.37798H24.9029ZM28.2017 5.14075H32.0049C34.8675 5.14075 36.5033 6.65757 36.5033 9.32554C36.5033 11.9935 34.8675 13.5239 31.9913 13.5239H28.2017V5.14075ZM45.8954 23.6541C47.9674 23.6541 49.8895 22.6112 50.7619 20.959H50.83V23.4915H53.8835V12.9822C53.8835 9.93498 51.4298 7.97124 47.6539 7.97124C44.1506 7.97124 41.5606 9.96206 41.4652 12.6978H44.4368C44.6822 11.3976 45.8954 10.5444 47.5585 10.5444C49.5759 10.5444 50.7073 11.4789 50.7073 13.1988V14.3635L46.5906 14.6073C42.7602 14.8375 40.6882 16.395 40.6882 19.1036C40.6882 21.8393 42.8283 23.6541 45.8954 23.6541ZM46.7815 21.1486C45.023 21.1486 43.9052 20.3089 43.9052 19.0223C43.9052 17.6951 44.9821 16.9232 47.0405 16.8013L50.7073 16.5711V17.7628C50.7073 19.7401 49.017 21.1486 46.7815 21.1486ZM57.9593 29.2338C61.1764 29.2338 62.6895 28.0149 64.0117 24.3177L69.8051 8.17439H66.4518L62.5668 20.6475H62.4986L58.6136 8.17439H55.1649L60.7538 23.5457L60.4539 24.4802C59.9495 26.0647 59.1316 26.6741 57.6731 26.6741C57.4141 26.6741 56.9097 26.6471 56.7052 26.62V29.1525C56.8961 29.2067 57.714 29.2338 57.9593 29.2338Z" fill="white"/>
</svg>
