<svg width="14" height="14" viewBox="0 0 14 14" fill="none" xmlns="http://www.w3.org/2000/svg">
<g clip-path="url(#clip0_2206_1563)">
<path d="M4.65675 8.0214C3.9036 8.90201 3.02091 9.93384 2.10864 11.0007C1.98283 11.1985 1.72956 11.2831 1.51004 11.1894C1.30134 11.1002 1.20678 11.1115 1.1243 11.1935C1.01683 11.301 1.04265 11.4543 1.27218 11.6838L1.98034 12.392C2.21111 12.6227 2.36191 12.6486 2.47063 12.5399C2.55769 12.4528 2.5706 12.3616 2.48937 12.1662C2.4019 11.9562 2.47688 11.7167 2.65683 11.5872L2.656 11.5859L5.63942 9.00365L4.65633 8.02057L4.65675 8.0214ZM4.96709 7.65857L6.00058 8.69206L6.84787 7.95891C8.01216 6.95125 8.01216 6.95125 8.21961 6.77379L12.1128 2.86644C12.2823 2.69648 12.2765 2.4053 12.0882 2.2166L11.4151 1.54343C11.2264 1.35473 10.936 1.34973 10.7665 1.51969L6.88827 5.41247C6.89119 5.40955 6.11388 6.31849 4.9675 7.65857H4.96709ZM3.48079 12.1325C3.55328 12.5374 3.44414 12.9139 3.14421 13.2138C2.59393 13.7641 1.85787 13.6387 1.29634 13.0772L0.588184 12.3691C0.0274904 11.8084 -0.0970618 11.0694 0.451551 10.5212C0.753142 10.2196 1.13346 10.1159 1.54544 10.1954C5.29451 5.81112 6.19012 4.76388 6.21469 4.7393L10.0929 0.846525C10.639 0.298329 11.5317 0.313742 12.087 0.86902L12.7601 1.54218C13.315 2.09705 13.3325 2.99141 12.786 3.5396C10.407 5.92734 10.407 5.92734 8.86695 7.47112L3.48079 12.1325ZM2.88428 5.94983C1.96409 5.94983 1.21803 5.20377 1.21803 4.28358C1.21803 3.3634 1.96409 2.61733 2.88428 2.61733C3.80446 2.61733 4.55053 3.3634 4.55053 4.28358C4.55053 5.20377 3.80446 5.94983 2.88428 5.94983ZM2.88428 5.4737C3.54161 5.4737 4.07439 4.94092 4.07439 4.28358C4.07439 3.62625 3.54161 3.09346 2.88428 3.09346C2.22694 3.09346 1.69416 3.62625 1.69416 4.28358C1.69416 4.94092 2.22694 5.4737 2.88428 5.4737Z" fill="#8CA3B8"/>
</g>
<defs>
<clipPath id="clip0_2206_1563">
<rect width="13.33" height="13.33" fill="white" transform="translate(0 0.334991)"/>
</clipPath>
</defs>
</svg>
