<svg width="14" height="14" viewBox="0 0 14 14" fill="none" xmlns="http://www.w3.org/2000/svg">
<g clip-path="url(#clip0_2206_1542)">
<path d="M1.00933 6.18773C0.971424 6.45308 0.951845 6.72426 0.951845 7.00002C0.951845 8.51214 1.5392 9.88722 2.49854 10.909C3.20128 8.24929 4.89794 5.96611 7.1907 4.44941C6.94535 4.20239 6.68833 3.96828 6.42048 3.74834C5.85645 4.07325 5.22203 4.28487 4.5497 4.35568C4.38974 4.37235 4.22811 4.38151 4.06565 4.38193C2.82304 4.51439 1.71332 5.18048 1.00933 6.18773ZM1.24552 5.18756C2.10697 4.37068 3.26252 3.8858 4.50471 3.88122C5.04082 3.82415 5.54986 3.66752 6.01183 3.42883C5.29326 2.89646 4.50637 2.46032 3.66367 2.1379C2.53812 2.83398 1.6725 3.91038 1.24552 5.18756ZM7.9326 1.4285C7.52478 1.33602 7.10072 1.28728 6.665 1.28728C5.78355 1.28728 4.94876 1.48682 4.20353 1.84339C5.01 2.18873 5.76356 2.63445 6.4538 3.16598C7.08781 2.73484 7.6031 2.13707 7.9326 1.4285ZM8.39832 1.55472C8.05382 2.32952 7.51104 2.98977 6.83912 3.47674C7.10447 3.70126 7.35941 3.9387 7.6031 4.18864C8.53412 3.6267 9.55386 3.18764 10.6382 2.8948C10.0125 2.28912 9.24852 1.82507 8.39832 1.55472ZM6.38965 12.7065C6.68999 12.1362 6.90286 10.8391 6.90286 9.38068V8.85789C6.91702 7.63695 7.47147 6.54597 8.33833 5.81324C8.08589 5.45832 7.81388 5.12008 7.52395 4.80057C5.21578 6.30311 3.52787 8.60879 2.89344 11.2923C3.83529 12.1204 5.05207 12.6436 6.38924 12.7069L6.38965 12.7065ZM6.91036 12.7078C8.24544 12.6511 9.46222 12.1367 10.407 11.3169C10.202 9.44025 9.56969 7.6936 8.60785 6.20897C7.85512 6.86339 7.37899 7.82856 7.37899 8.90413V9.38026C7.37899 10.7495 7.20153 11.9838 6.91036 12.7078ZM12.194 5.55663C11.8008 5.41042 11.3809 5.33377 10.9498 5.33377C10.2254 5.33377 9.55094 5.54955 8.98817 5.92029C9.93876 7.37743 10.5828 9.07742 10.8356 10.904C11.7921 9.88263 12.3777 8.50964 12.3777 7.00002C12.3777 6.5014 12.314 6.01777 12.1936 5.55663H12.194ZM12.0182 5.00011C11.7829 4.36985 11.4392 3.79249 11.0102 3.29053C9.91002 3.5613 8.87653 3.98828 7.93552 4.5448C8.21378 4.85597 8.4758 5.18423 8.7199 5.52706C9.35933 5.10425 10.1258 4.85764 10.9498 4.85764C11.3155 4.85764 11.6737 4.90638 12.0182 5.00011ZM6.665 13.665C2.98384 13.665 0 10.6812 0 7.00002C0 3.31886 2.98384 0.335022 6.665 0.335022C10.3462 0.335022 13.33 3.31886 13.33 7.00002C13.33 10.6812 10.3462 13.665 6.665 13.665Z" fill="#8CA3B8"/>
</g>
<defs>
<clipPath id="clip0_2206_1542">
<rect width="13.33" height="13.33" fill="white" transform="translate(0 0.335022)"/>
</clipPath>
</defs>
</svg>
