<svg width="10" height="12" viewBox="0 0 10 12" fill="none" xmlns="http://www.w3.org/2000/svg">
<path fill-rule="evenodd" clip-rule="evenodd" d="M0.0828094 2.126C0.0828094 1.28591 0.747893 0.584717 1.59285 0.584717H5.23777C6.08273 0.584717 6.74781 1.28591 6.74781 2.126V7.37469C6.74781 8.21477 6.08273 8.91597 5.23777 8.91597H1.59285C0.747893 8.91597 0.0828094 8.21477 0.0828094 7.37469V2.126ZM1.59285 1.41784C1.22999 1.41784 0.915935 1.72375 0.915935 2.126V7.37469C0.915935 7.77692 1.22999 8.08284 1.59285 8.08284H5.23777C5.60064 8.08284 5.91468 7.77692 5.91468 7.37469V2.126C5.91468 1.72375 5.60064 1.41784 5.23777 1.41784H1.59285ZM7.32058 3.50065C7.32058 3.2706 7.50708 3.08409 7.73715 3.08409H7.9975C8.6877 3.08409 9.24718 3.64358 9.24718 4.33378V10.1657C9.24718 10.8559 8.6877 11.4153 7.9975 11.4153H3.83187C3.14167 11.4153 2.58218 10.8559 2.58218 10.1657V9.87406C2.58218 9.64399 2.76868 9.4575 2.99875 9.4575C3.22881 9.4575 3.41531 9.64399 3.41531 9.87406V10.1657C3.41531 10.3957 3.6018 10.5822 3.83187 10.5822H7.9975C8.22756 10.5822 8.41406 10.3957 8.41406 10.1657V4.33378C8.41406 4.10371 8.22756 3.91722 7.9975 3.91722H7.73715C7.50708 3.91722 7.32058 3.73072 7.32058 3.50065ZM2.16562 6.00003C1.93556 6.00003 1.74906 6.18652 1.74906 6.41659C1.74906 6.64666 1.93556 6.83315 2.16562 6.83315H4.665C4.89506 6.83315 5.08156 6.64666 5.08156 6.41659C5.08156 6.18652 4.89506 6.00003 4.665 6.00003H2.16562ZM1.74906 4.75034C1.74906 4.52027 1.93556 4.33378 2.16562 4.33378H4.665C4.89506 4.33378 5.08156 4.52027 5.08156 4.75034C5.08156 4.98041 4.89506 5.1669 4.665 5.1669H2.16562C1.93556 5.1669 1.74906 4.98041 1.74906 4.75034ZM2.16562 2.66753C1.93556 2.66753 1.74906 2.85403 1.74906 3.08409C1.74906 3.31415 1.93556 3.50065 2.16562 3.50065H4.665C4.89506 3.50065 5.08156 3.31415 5.08156 3.08409C5.08156 2.85403 4.89506 2.66753 4.665 2.66753H2.16562Z" fill="#8CA3B8"/>
</svg>
