<svg width="14" height="14" viewBox="0 0 14 14" fill="none" xmlns="http://www.w3.org/2000/svg">
<g clip-path="url(#clip0_2206_2072)">
<path d="M8.42956 4.42191L9.63134 3.22012C9.91002 2.94144 10.3624 2.94144 10.6411 3.22012C10.9198 3.4988 10.9198 3.95119 10.6411 4.22987L8.95776 5.9132C8.81238 6.05858 8.61993 6.12815 8.42914 6.1219C8.23877 6.12815 8.04591 6.05858 7.90053 5.9132L7.23902 5.2517L6.57752 5.9132C6.43214 6.05858 6.23969 6.12815 6.04891 6.1219C5.85854 6.12815 5.66567 6.05858 5.52029 5.9132L3.83696 4.22987C3.55828 3.95119 3.55828 3.4988 3.83696 3.22012C4.11564 2.94144 4.56803 2.94144 4.84671 3.22012L6.04849 4.42191L7.25027 3.22012C7.52895 2.94144 7.98134 2.94144 8.26002 3.22012C8.5387 3.4988 8.5387 3.95119 8.26002 4.22987L8.24836 4.24153L8.42873 4.42191H8.42956ZM7.18904 8.6321L9.02108 11.8051C9.09939 11.9409 9.12813 12.0917 9.11272 12.2366H11.4255C11.5859 12.2366 11.9016 11.9246 11.9016 11.7605C11.9016 11.4976 12.1149 11.2844 12.3777 11.2844C12.6406 11.2844 12.8539 11.4976 12.8539 11.7605C12.8539 12.4532 12.1091 13.1885 11.4255 13.1889H0.951847C0.688996 13.1889 0.475716 12.9756 0.475716 12.7127C0.475716 12.4499 0.688996 12.2366 0.951847 12.2366H4.33225V6.04775L5.53862 7.24078C5.8173 7.51946 6.29343 7.51946 6.57252 7.24078L7.18904 6.62427V8.6321ZM5.76064 12.2366H7.62101L5.76064 9.01451V12.2366ZM6.15346 2.95352H5.71274C5.58111 2.95352 5.47488 2.84688 5.47488 2.71567C5.47488 2.58445 5.58152 2.47781 5.71274 2.47781H12.1399V2.23995H12.616V2.47781H12.8539C12.9855 2.47781 13.0917 2.58445 13.0917 2.71567C13.0917 2.84688 12.9851 2.95352 12.8539 2.95352H6.70999C6.70832 2.95686 6.70624 2.95977 6.70457 2.9631L6.4034 3.45881C6.37382 3.50713 6.32842 3.54379 6.27427 3.56129L5.97309 3.66043C5.84812 3.70167 5.71357 3.63377 5.67275 3.5088C5.63193 3.38383 5.69941 3.24928 5.82438 3.20846L6.04224 3.13681L6.15346 2.95352ZM6.18887 2.23912C5.66317 2.23912 5.23661 1.81298 5.23661 1.28686C5.23661 0.760738 5.66275 0.334595 6.18887 0.334595C6.71457 0.334595 7.14113 0.760738 7.14113 1.28686C7.14113 1.81298 6.71499 2.23912 6.18887 2.23912Z" fill="#8CA3B8"/>
</g>
<defs>
<clipPath id="clip0_2206_2072">
<rect width="13.33" height="13.33" fill="white" transform="translate(0 0.335007)"/>
</clipPath>
</defs>
</svg>
