<svg width="16" height="16" viewBox="0 0 16 16" fill="none" xmlns="http://www.w3.org/2000/svg">
<g clip-path="url(#clip0_1768_161)">
<path d="M12.7072 16.0001C12.6991 16.0001 12.6909 16.0001 12.6828 16.0001H6.19362C5.52267 16.0001 5.13087 15.7275 4.92191 15.499C4.52359 15.0647 4.51379 14.5146 4.52032 14.3546V13.5106H2.816C2.1777 13.5106 1.8055 13.2494 1.60796 13.0306C1.23086 12.616 1.2227 12.105 1.23249 11.9352V1.85464C1.23249 1.11186 1.52961 0.67925 1.77938 0.449069C2.26096 0.0034002 2.87477 -0.00476221 3.03639 0.000135252H9.42104C10.1834 0.000135252 10.5981 0.297248 10.8119 0.547018C11.1645 0.958405 11.1662 1.44815 11.1515 1.63099V2.32643C11.5825 2.33459 12.1669 2.34275 12.6925 2.34275C13.9039 2.34275 14.3479 3.44958 14.3512 4.19399V14.0493C14.3512 14.7121 14.1602 15.2247 13.7847 15.5773C13.3717 15.9642 12.8803 16.0001 12.7072 16.0001ZM12.7154 14.6941C12.7154 14.6941 12.7203 14.6941 12.7268 14.6941C12.9913 14.6811 13.0468 14.3383 13.0468 14.0493V4.19726C13.0435 4.07482 13.0092 3.65037 12.6942 3.65037C11.6967 3.65037 10.4969 3.62099 10.4838 3.62099C10.1295 3.61283 9.84712 3.32225 9.84712 2.968V1.59997C9.84712 1.55589 9.84549 1.54936 9.85202 1.51182C9.85202 1.4857 9.84712 1.42693 9.821 1.39754C9.78346 1.35673 9.65612 1.30776 9.42268 1.30776H3.02007C3.00374 1.30776 2.98742 1.30776 2.96946 1.30612C2.97762 1.30612 2.77519 1.30286 2.66255 1.41224C2.5597 1.51182 2.53848 1.70772 2.53848 1.85464V11.9581C2.53848 11.9907 2.54011 11.9891 2.53522 12.0218C2.53522 12.0495 2.54828 12.1279 2.57603 12.1556C2.59399 12.1752 2.66582 12.2062 2.81764 12.2062H5.17495C5.53573 12.2062 5.82794 12.4985 5.82794 12.8592V14.3725C5.82794 14.4019 5.82794 14.4003 5.82631 14.4281C5.82631 14.4558 5.83937 14.5668 5.88834 14.6191C5.93405 14.6664 6.0467 14.6941 6.19525 14.6941H12.6942C12.7105 14.6941 12.7138 14.6941 12.717 14.6941H12.7154Z" fill="#8CA3B8"/>
<path d="M5.17323 13.5121C4.81245 13.5121 4.52023 13.2199 4.52023 12.8591V4.72115C4.49248 4.47955 4.44514 3.66657 4.9708 3.05112C5.22384 2.75401 5.70379 2.40139 6.55431 2.40139H11.9513C12.3121 2.40139 12.6043 2.6936 12.6043 3.05438C12.6043 3.41516 12.3121 3.70738 11.9513 3.70738H6.55431C6.27189 3.70738 6.07436 3.77105 5.96662 3.89512C5.79521 4.09265 5.80174 4.46649 5.81806 4.58076C5.82296 4.61014 5.82459 4.64769 5.82459 4.67871V12.8591C5.82459 13.2199 5.53238 13.5121 5.1716 13.5121H5.17323Z" fill="#8CA3B8"/>
<path d="M10.3465 11.4894H9.56293V10.8136C10.118 11.047 10.784 10.9393 11.2346 10.4871C11.8305 9.89124 11.8305 8.92317 11.2346 8.32732L9.47967 6.57239C9.36866 6.46138 9.18746 6.46138 9.07645 6.57239L7.32153 8.32732C6.72567 8.92317 6.72567 9.89124 7.32153 10.4871C7.61048 10.776 7.99411 10.9344 8.4006 10.9344C8.60793 10.9344 8.80709 10.8887 8.99319 10.812V11.4894H8.2096C8.05125 11.4894 7.92391 11.6168 7.92391 11.7751C7.92391 11.9335 8.05125 12.0608 8.2096 12.0608H10.3498C10.5081 12.0608 10.6355 11.9335 10.6355 11.7751C10.6355 11.6168 10.5081 11.4894 10.3498 11.4894H10.3465ZM7.72312 10.0839C7.35091 9.71166 7.35091 9.10438 7.72312 8.73217L9.27725 7.17805L10.8314 8.73217C11.2036 9.10438 11.2036 9.71166 10.8314 10.0839C10.4592 10.4561 9.85188 10.4561 9.47967 10.0839C9.42743 10.0316 9.35724 10.0006 9.27725 10.0006C9.19725 10.0006 9.12706 10.0333 9.07482 10.0839C8.89361 10.2634 8.65527 10.363 8.39897 10.363C8.14267 10.363 7.90432 10.2634 7.72312 10.0839Z" fill="#8CA3B8"/>
<path d="M7.16319 5.66963H7.5452L7.00321 4.30161H6.62121L6.07922 5.66963H6.46123L6.54122 5.47047H7.0832L7.16319 5.66963ZM6.64733 5.20274L6.81221 4.78319L6.97709 5.20274H6.6457H6.64733Z" fill="#8CA3B8"/>
<path d="M11.6232 12.784L11.0812 14.152H11.4632L11.5432 13.9529H12.0852L12.1651 14.152H12.5471L12.0052 12.784H11.6232ZM11.6493 13.6868L11.8142 13.2672L11.979 13.6868H11.6476H11.6493Z" fill="#8CA3B8"/>
<path d="M3.67134 2.93848C3.67134 3.05602 3.59135 3.13927 3.4787 3.13927C3.39545 3.13927 3.30729 3.08213 3.26322 2.99888L3.03467 3.22416C3.13098 3.36292 3.33668 3.45924 3.52115 3.45924C3.815 3.45924 4.02232 3.25681 4.02232 2.97276V2.01775H3.66971V2.94011L3.67134 2.93848Z" fill="#8CA3B8"/>
</g>
<defs>
<clipPath id="clip0_1768_161">
<rect width="13.1203" height="16" fill="white" transform="translate(1.23071)"/>
</clipPath>
</defs>
</svg>
