<svg width="14" height="14" viewBox="0 0 14 14" fill="none" xmlns="http://www.w3.org/2000/svg">
<g clip-path="url(#clip0_2206_1584)">
<path d="M6.42256 2.2062C6.46588 2.24161 6.50796 2.2791 6.54836 2.3195L7.82763 3.59877C8.4533 4.22444 8.46497 5.23377 7.84554 5.8532C7.22611 6.47263 6.2172 6.46097 5.5911 5.83529C5.40532 5.6495 5.40532 5.34791 5.5911 5.16212C5.77689 4.97634 6.07848 4.97634 6.26427 5.16212C6.5217 5.41956 6.92785 5.42414 7.17196 5.18004C7.41606 4.93593 7.41107 4.52978 7.15405 4.27235L5.87478 2.99308C5.61735 2.73565 5.2112 2.73107 4.96709 2.97517C4.72965 3.21261 4.67383 3.27635 4.63134 3.35716C4.58011 3.45422 4.5422 3.60501 4.48263 3.97242C4.4593 4.11739 4.4768 4.25693 4.55261 4.58685L4.55595 4.60102C4.73757 5.39415 4.71174 5.86112 4.2531 6.3764C4.24019 6.39348 4.22561 6.40973 4.2102 6.42556L3.03216 7.6036L6.3984 10.9698L8.25002 9.11822C8.64909 8.71915 9.02941 8.52545 9.63968 8.33883C9.69591 8.32175 9.88628 8.26468 9.89253 8.26302C10.5432 8.06723 10.8981 7.88436 11.343 7.43906C12.364 6.41806 12.3448 4.73765 11.2926 3.68541L10.0133 2.40615C9.01566 1.40848 7.45272 1.33975 6.4234 2.20578L6.42256 2.2062ZM5.47946 1.84545C5.50279 1.7863 5.5382 1.7309 5.5861 1.68299C6.98242 0.286677 9.2656 0.312921 10.6861 1.7334L11.9653 3.01266C13.3858 4.43314 13.4121 6.71674 12.0157 8.11264C11.4421 8.68624 10.9548 8.93785 10.1662 9.17487C10.1575 9.17737 9.97001 9.23361 9.91752 9.24944C9.44306 9.3944 9.19187 9.5227 8.92277 9.7918L5.21995 13.4946C5.03416 13.6804 4.73257 13.6804 4.54678 13.4946L0.507375 9.45522C0.321588 9.26943 0.321588 8.96784 0.507375 8.78205L3.47038 5.81904C3.74157 5.54786 3.7574 5.37832 3.62784 4.81388L3.62451 4.7993C3.52204 4.35149 3.49329 4.12613 3.54287 3.81954C3.61826 3.35383 3.67533 3.1293 3.78947 2.91269C3.89403 2.7144 3.984 2.61193 4.29434 2.30159C4.61926 1.97667 5.05124 1.82546 5.47946 1.84545ZM6.0614 11.3064L2.69516 7.94018L1.51712 9.11822L4.88336 12.4845L6.0614 11.3064ZM10.3308 6.71132C10.4236 6.61843 10.5744 6.61843 10.6673 6.71132C10.7602 6.80421 10.7602 6.95501 10.6673 7.0479L10.6382 7.07706C10.0258 7.68858 9.01108 7.65692 8.36999 7.01708C8.2771 6.92418 8.27668 6.77339 8.36958 6.68049C8.46247 6.5876 8.61326 6.58719 8.70616 6.68008C9.16604 7.13913 9.88003 7.16121 10.3016 6.74048L10.3303 6.71174L10.3308 6.71132Z" fill="#8CA3B8"/>
</g>
<defs>
<clipPath id="clip0_2206_1584">
<rect width="13.33" height="13.33" fill="white" transform="translate(0 0.334991)"/>
</clipPath>
</defs>
</svg>
