<svg width="14" height="14" viewBox="0 0 14 14" fill="none" xmlns="http://www.w3.org/2000/svg">
<g clip-path="url(#clip0_2206_1245)">
<path d="M5.82771 0.367501C6.03849 0.294186 6.26885 0.355421 6.46213 0.45123C6.5971 0.538708 6.73206 0.626603 6.88328 0.684089C6.89494 0.70575 6.91868 0.749072 6.93035 0.770317C6.92452 0.784897 6.91285 0.814473 6.9066 0.829052C7.01449 1.07524 7.08323 1.36683 6.97867 1.62552C6.90744 1.713 6.78372 1.72633 6.68333 1.76007C6.68291 1.88504 6.70291 2.00876 6.71332 2.13248C6.92785 2.16747 7.10947 2.01709 7.3215 2.03208C7.35024 1.91253 7.37274 1.79131 7.41065 1.67426C7.45438 1.75174 7.45647 1.84088 7.45688 1.92836C7.51229 1.94419 7.56894 1.95835 7.62559 1.97252C7.62601 1.99376 7.62642 2.03667 7.62642 2.05791C8.55661 2.06333 9.48596 2.05375 10.4161 2.06291C10.4136 2.09499 10.4095 2.15914 10.4074 2.19121C10.4316 2.19121 10.4803 2.19163 10.5049 2.19163C10.504 2.02167 10.5049 1.8513 10.5045 1.68134C10.5282 1.68051 10.5744 1.67884 10.5973 1.67842C10.5978 1.81214 10.5982 1.94586 10.5998 2.07957C10.6203 2.10457 10.6607 2.15497 10.6811 2.17996C10.6965 2.16164 10.7269 2.12623 10.7419 2.1079C10.8127 2.17455 10.7723 2.26536 10.7694 2.34701C11.0297 2.34409 11.2926 2.362 11.5521 2.34034C11.5717 2.32576 11.6104 2.29744 11.6296 2.28327C11.6654 2.29702 11.7012 2.31118 11.7366 2.32534C11.8537 2.32243 11.9712 2.32201 12.0886 2.3216C12.0861 2.38241 12.0845 2.44323 12.082 2.50405C11.9308 2.50155 11.7791 2.49864 11.6304 2.52446C11.5342 2.44157 11.4055 2.46781 11.2893 2.46448C11.111 2.47281 10.9268 2.44115 10.754 2.49822C10.6511 2.52696 10.5386 2.5203 10.4478 2.46156C10.4261 2.51571 10.4595 2.63777 10.3682 2.63277C10.0096 2.63735 9.65133 2.62944 9.29309 2.63527C9.24394 2.66109 9.19478 2.68609 9.14563 2.70983C9.09397 2.86479 8.94568 2.96852 8.81904 3.06308C8.80321 3.30135 8.89736 3.5238 8.9336 3.75499C8.86278 3.7754 8.79155 3.79623 8.72198 3.81955C8.62159 4.05741 8.68324 4.38191 8.45122 4.54771C8.27335 4.65185 8.15546 4.87804 7.91552 4.84222C8.03757 4.94427 7.88219 4.9122 7.89844 4.83055C7.46438 4.79181 7.09864 4.53604 6.72165 4.34109C6.70415 4.44773 6.67625 4.5527 6.6475 4.65726C6.7908 4.68475 6.9091 4.79056 6.93451 4.93844C6.98034 5.26044 6.88869 5.57995 6.88994 5.90278C6.89994 6.09232 6.81913 6.26603 6.71832 6.42057C6.63001 6.52096 6.49087 6.41765 6.38507 6.40308C6.36091 6.45015 6.33758 6.4968 6.31425 6.54429C6.34424 6.67051 6.35716 6.80214 6.39923 6.92544C6.63542 7.18788 6.85037 7.47197 7.01533 7.78565C7.18528 8.14056 7.3365 8.50422 7.46896 8.87537C7.48188 8.94744 7.54936 8.97327 7.60851 8.99951C7.61643 9.07366 7.62434 9.14822 7.63142 9.2232C7.65433 9.25695 7.67808 9.2911 7.70224 9.32526C7.7164 9.78306 7.66058 10.2392 7.58977 10.6912C7.54603 10.8953 7.66475 11.0944 7.61643 11.2998C7.62184 11.4047 7.54978 11.4843 7.51604 11.5772C7.50937 11.7942 7.49896 12.0138 7.5227 12.2304C7.53936 12.3891 7.67308 12.4916 7.76347 12.6099C7.8622 12.7152 7.9451 12.8569 8.09506 12.8944C8.23586 12.9364 8.3704 12.9981 8.49496 13.0785C8.53286 13.1726 8.52578 13.2726 8.50787 13.3705C8.2371 13.4205 7.96051 13.3955 7.68683 13.3997C7.47605 13.4109 7.28776 13.2968 7.08281 13.2734C6.88453 13.2684 6.64292 13.3672 6.49046 13.1889C6.55503 12.9414 6.56044 12.6757 6.67833 12.4449C6.71624 12.1833 6.64417 11.9184 6.65917 11.6543C6.63667 11.6351 6.59127 11.5972 6.56877 11.578C6.58502 11.4056 6.50046 11.2523 6.47213 11.0877C6.4538 10.847 6.43172 10.6066 6.40423 10.3667C6.38257 10.25 6.44255 10.1434 6.52462 10.0659C6.53211 9.93136 6.55003 9.79806 6.56294 9.66434C6.54295 9.57728 6.47421 9.51313 6.42964 9.43857C6.28134 9.50147 6.08098 9.47147 5.99267 9.32568C5.78314 9.01284 5.57444 8.69958 5.36241 8.38841C5.27909 8.383 5.1912 8.39174 5.11372 8.35842C5.02416 8.26594 4.9775 8.14306 4.92002 8.03059C4.83795 8.12306 4.8442 8.26469 4.74714 8.34884C4.54178 8.54671 4.48721 8.83747 4.38015 9.09115C4.29809 9.2557 4.34433 9.45398 4.25268 9.61394C4.20353 9.70017 4.08064 9.71766 4.04815 9.81597C4.00566 9.9222 3.95568 10.0322 3.85612 10.0972C3.74823 10.168 3.7199 10.3029 3.67158 10.4142C3.62784 10.517 3.69282 10.6245 3.67741 10.7299C3.6091 11.0648 3.39665 11.3448 3.3075 11.673C3.26668 11.8209 3.20836 11.9871 3.03757 12.0183C2.84304 12.3674 2.73556 12.7948 2.84595 13.188C2.91344 13.3118 2.90969 13.4505 2.88886 13.5867C2.57977 13.6109 2.26235 13.6525 1.95868 13.5659C1.88744 13.4242 1.89786 13.2576 1.91244 13.1043C2.00616 12.7015 2.13072 12.3058 2.20695 11.8992C2.11155 11.8142 2.13405 11.6843 2.13571 11.5705C2.13238 11.3581 2.2761 11.1881 2.37607 11.014C2.41356 10.8353 2.39607 10.6428 2.48813 10.4791C2.59643 10.2738 2.68766 10.0517 2.8547 9.88595C2.88636 9.73974 2.99383 9.62935 3.03716 9.48814C3.08339 9.36359 3.00258 9.23737 3.01883 9.11032C3.0584 8.72416 3.12838 8.34217 3.18878 7.95894C3.07423 7.86271 3.1113 7.70983 3.07465 7.58028C3.09256 7.52904 3.11547 7.48031 3.14255 7.43324C3.1138 7.40657 3.08589 7.37991 3.05715 7.35325C3.08506 7.21704 3.07715 6.97335 3.28501 7.01751C3.29792 6.56637 3.14213 6.12981 3.1942 5.67826C3.22211 5.71075 3.24919 5.74366 3.2771 5.77657L3.26252 5.62369C3.34958 5.57745 3.44205 5.54162 3.53911 5.52329C3.38082 5.50247 3.22711 5.46206 3.07215 5.42582C3.03466 5.32668 3.05548 5.22129 3.06923 5.12006C3.12922 4.77807 3.15171 4.4319 3.16421 4.08532C3.33958 4.02409 3.53245 4.07616 3.70366 3.99409C3.65075 3.56087 3.63701 3.10848 3.79072 2.69275C3.91402 2.33868 4.14979 1.99751 4.51803 1.87296C4.69174 1.8313 4.91044 1.78423 5.03332 1.95377C5.06706 1.92253 5.10081 1.89045 5.13455 1.85963C4.85378 1.29977 5.18912 0.482056 5.82562 0.366668L5.82771 0.367501ZM8.07298 2.79564C7.99883 2.84105 7.92635 2.89312 8.00425 2.97602C7.96634 2.99893 7.92843 3.02059 7.89011 3.04142C7.83012 3.08807 7.69516 3.11431 7.71057 3.20804C7.77805 3.31676 7.83637 3.43132 7.88428 3.55046C8.03174 3.42882 8.14921 3.26511 8.22877 3.09224C8.24544 3.07516 8.27918 3.04058 8.29584 3.02392C8.28834 2.94436 8.27085 2.86688 8.24002 2.79356C8.18462 2.79439 8.1288 2.79481 8.07298 2.79564Z" fill="#8CA3B8"/>
</g>
<defs>
<clipPath id="clip0_2206_1245">
<rect width="13.33" height="13.33" fill="white" transform="translate(0 0.335007)"/>
</clipPath>
</defs>
</svg>
