<svg width="14" height="14" viewBox="0 0 14 14" fill="none" xmlns="http://www.w3.org/2000/svg">
<g clip-path="url(#clip0_2206_1658)">
<path d="M4.30851 8.44505L4.98167 9.11822L5.00125 9.09864C5.43614 8.66375 6.10014 8.55628 6.65 8.83121L6.76872 8.89077C6.95201 8.98242 7.17321 8.9466 7.31817 8.80163L11.5459 4.57394C12.2894 3.83037 12.2894 2.62443 11.5459 1.88086C10.8023 1.1373 9.59635 1.1373 8.85279 1.88086L4.62509 6.10855C4.48013 6.25352 4.44431 6.47471 4.53595 6.658L4.59552 6.77672C4.87045 7.32658 4.76256 7.99058 4.32808 8.42548L4.30851 8.44505ZM3.97192 8.78164L3.17004 9.58352C2.8118 9.94176 2.28193 10.0667 1.80163 9.90677C1.66333 9.86053 1.51046 9.89677 1.40757 9.99966L1.11056 10.2967C0.924769 10.4825 0.924769 10.7841 1.11056 10.9698L2.45689 12.3162C2.64267 12.502 2.94426 12.502 3.13005 12.3162L3.42706 12.0192C3.53037 11.9159 3.56619 11.7634 3.51995 11.6251C3.35958 11.1444 3.48496 10.6149 3.84321 10.2567L4.64509 9.4548L3.97192 8.78164ZM1.90411 3.90535C0.983921 3.90535 0.237858 3.15929 0.237858 2.23911C0.237858 1.31892 0.983921 0.572855 1.90411 0.572855C2.82429 0.572855 3.57036 1.31892 3.57036 2.23911C3.57036 3.15929 2.82429 3.90535 1.90411 3.90535ZM1.90411 3.42964C2.56144 3.42964 3.09423 2.89686 3.09423 2.23952C3.09423 1.58219 2.56144 1.0494 1.90411 1.0494C1.24677 1.0494 0.713989 1.58219 0.713989 2.23952C0.713989 2.89686 1.24677 3.42964 1.90411 3.42964ZM12.2194 1.2077C13.335 2.32325 13.335 4.13196 12.2194 5.2471L7.99175 9.4748C7.55686 9.90969 6.89286 10.0172 6.343 9.74223L6.22428 9.68266C6.04099 9.59102 5.8198 9.62684 5.67483 9.7718L4.51679 10.9298C4.41348 11.0332 4.37766 11.1856 4.42389 11.3239C4.58427 11.8046 4.45889 12.3341 4.10064 12.6923L3.80363 12.9893C3.24586 13.5471 2.3415 13.5471 1.78372 12.9893L0.437391 11.6426C-0.120386 11.0848 -0.120386 10.1805 0.437391 9.62267L0.7344 9.32567C1.09264 8.96742 1.62251 8.84245 2.10281 9.00241C2.24111 9.04865 2.39399 9.01241 2.49688 8.90952L3.65492 7.75148C3.79988 7.60651 3.83571 7.38532 3.74406 7.20203L3.6845 7.08331C3.40956 6.53345 3.51745 5.86945 3.95193 5.43456L8.17962 1.20686C9.29518 0.0913087 11.1039 0.0913087 12.219 1.20686L12.2194 1.2077Z" fill="#8CA3B8"/>
</g>
<defs>
<clipPath id="clip0_2206_1658">
<rect width="13.33" height="13.33" fill="white" transform="translate(0 0.334999)"/>
</clipPath>
</defs>
</svg>
