<svg width="16" height="16" viewBox="0 0 16 16" fill="none" xmlns="http://www.w3.org/2000/svg">
<g clip-path="url(#clip0_1768_2246)">
<path d="M9.1575 7.87101C9.474 8.06401 9.6395 8.44851 9.539 8.82451L8.7995 11.5845C8.677 12.042 8.207 12.313 7.7495 12.1905C7.292 12.068 7.021 11.598 7.1435 11.1405L7.73 8.95151L5.2895 7.49251C4.894 7.25601 4.761 6.74551 4.9915 6.34651C4.9935 6.34301 4.9955 6.33951 4.998 6.33601C5.044 6.25951 5.1 6.19301 5.164 6.13751C5.1685 6.13301 5.173 6.12851 5.1775 6.12401L8.41 2.89151C8.6025 2.69901 8.8635 2.61751 9.114 2.64601C9.365 2.61751 9.626 2.69901 9.818 2.89151L13.0505 6.12401C13.385 6.45851 13.385 7.00151 13.0505 7.33601C12.716 7.67051 12.173 7.67051 11.8385 7.33601L9.114 4.61151L7.0915 6.63401L9.1125 7.84201C9.128 7.85101 9.143 7.86151 9.1575 7.87101ZM3.4285 9.14301C5.319 9.14301 6.857 10.681 6.857 12.5715C6.857 14.4625 5.319 16 3.4285 16C1.537 16 0 14.4625 0 12.5715C0 10.681 1.538 9.14301 3.4285 9.14301ZM3.4285 10.2855C2.169 10.2855 1.143 11.312 1.143 12.571C1.143 13.831 2.1685 14.8565 3.4285 14.8565C4.6885 14.8565 5.714 13.8305 5.714 12.571C5.714 11.3115 4.688 10.2855 3.4285 10.2855ZM9.143 12.5715C9.143 10.6805 10.68 9.14301 12.5715 9.14301C14.463 9.14301 16.0005 10.681 16.0005 12.5715C16.0005 14.463 14.463 16 12.5715 16C10.68 16 9.143 14.463 9.143 12.5715ZM10.2855 12.5715C10.2855 13.832 11.3105 14.857 12.571 14.857C13.8315 14.857 14.857 13.8315 14.857 12.5715C14.857 11.312 13.831 10.286 12.571 10.286C11.311 10.286 10.2855 11.3115 10.2855 12.5715ZM11.4285 2.85701C10.7975 2.85701 10.2855 2.34551 10.2855 1.71401C10.2855 1.08251 10.797 0.571014 11.4285 0.571014C12.0595 0.571014 12.5715 1.08251 12.5715 1.71401C12.5715 2.34551 12.06 2.85701 11.4285 2.85701Z" fill="#8CA3B8"/>
</g>
<defs>
<clipPath id="clip0_1768_2246">
<rect width="16" height="16" fill="white"/>
</clipPath>
</defs>
</svg>
