<svg width="14" height="14" viewBox="0 0 14 14" fill="none" xmlns="http://www.w3.org/2000/svg">
<g clip-path="url(#clip0_2206_1683)">
<path d="M9.57594 5.09589C9.10148 5.57702 8.60702 6.05274 8.09298 6.52428H7.4823L7.47897 6.52095L6.59502 7.40656C6.50213 7.49946 6.35133 7.49987 6.25844 7.40698C6.16554 7.31409 6.16513 7.16329 6.25802 7.0704L7.14072 6.18645V5.57244C7.691 4.96926 8.24669 4.39565 8.80697 3.85162V2.23994C8.80697 2.16496 8.84238 2.09456 8.90236 2.04957L10.8065 0.621177C10.9635 0.50329 11.1872 0.615345 11.1872 0.811546V1.74506C11.3318 1.62926 11.4767 1.51512 11.6221 1.40265C11.8258 1.24519 12.1495 1.24269 12.2961 1.43556C12.4427 1.62843 12.3773 1.90586 12.2049 2.12497C12.0491 2.32283 11.8904 2.51945 11.7287 2.71565H13.0913C13.3033 2.71565 13.4096 2.97184 13.2596 3.12222L11.3555 5.02633C11.3109 5.0709 11.2501 5.09589 11.1872 5.09589H9.57553H9.57594ZM10.0379 4.61976H11.0893L12.5177 3.19137H11.3293C10.9177 3.67208 10.4874 4.14821 10.0379 4.61976ZM9.28351 3.39757C9.7559 2.95559 10.232 2.53445 10.7119 2.13413V1.28726L9.28351 2.35824V3.39715V3.39757ZM7.68683 2.59318C7.81513 2.62276 7.8947 2.75064 7.86512 2.87853C7.83554 3.00641 7.70766 3.08639 7.57977 3.05682C7.28235 2.98809 6.97617 2.95309 6.66542 2.95309C4.43056 2.95309 2.61893 4.76472 2.61893 6.99958C2.61893 9.23444 4.43056 11.0461 6.66542 11.0461C8.90028 11.0461 10.7119 9.23444 10.7119 6.99958C10.7119 6.71174 10.6819 6.42806 10.6232 6.15188C10.5957 6.02316 10.6777 5.89694 10.8065 5.86945C10.9352 5.84196 11.0614 5.92402 11.0889 6.05274C11.1547 6.36182 11.1885 6.67883 11.1885 7C11.1885 9.49771 9.16355 11.5226 6.66584 11.5226C4.16813 11.5226 2.14322 9.49771 2.14322 7C2.14322 4.50229 4.16813 2.47738 6.66584 2.47738C7.01283 2.47738 7.35483 2.51654 7.68766 2.59318H7.68683ZM6.665 4.38149C6.79664 4.38149 6.90286 4.48813 6.90286 4.61934C6.90286 4.75056 6.79622 4.8572 6.665 4.8572C5.48197 4.8572 4.52262 5.81654 4.52262 6.99958C4.52262 8.18262 5.48197 9.14196 6.665 9.14196C7.84804 9.14196 8.80738 8.18262 8.80738 6.99958C8.80738 6.86795 8.91402 6.76172 9.04524 6.76172C9.17646 6.76172 9.2831 6.86836 9.2831 6.99958C9.2831 8.44547 8.11089 9.61809 6.66459 9.61809C5.21828 9.61809 4.04607 8.44589 4.04607 6.99958C4.04607 5.55369 5.21828 4.38107 6.66459 4.38107L6.665 4.38149ZM8.22919 0.519536C8.48496 0.581187 8.64201 0.838206 8.58077 1.09356C8.51954 1.34891 8.2621 1.50637 8.00675 1.44514C7.57103 1.34016 7.12197 1.28684 6.66542 1.28684C3.51037 1.28684 0.952681 3.84454 0.952681 6.99958C0.952681 10.1546 3.51037 12.7123 6.66542 12.7123C9.82046 12.7123 12.3782 10.1546 12.3782 6.99958C12.3782 6.50054 12.3144 6.01025 12.1895 5.53703C12.1224 5.28293 12.274 5.02216 12.5281 4.95509C12.7822 4.88803 13.043 5.03966 13.1101 5.29376C13.2559 5.84612 13.3304 6.41806 13.3304 6.99917C13.3304 10.6803 10.3466 13.6642 6.66542 13.6642C2.98426 13.6642 0.000419617 10.6803 0.000419617 6.99917C0.000419617 3.318 2.98426 0.334166 6.66542 0.334166C7.19737 0.334166 7.72141 0.39665 8.22961 0.518703L8.22919 0.519536Z" fill="#8CA3B8"/>
</g>
<defs>
<clipPath id="clip0_2206_1683">
<rect width="13.33" height="13.33" fill="white" transform="translate(0 0.334999)"/>
</clipPath>
</defs>
</svg>
