<svg width="14" height="14" viewBox="0 0 14 14" fill="none" xmlns="http://www.w3.org/2000/svg">
<g clip-path="url(#clip0_2206_1087)">
<path d="M13.33 0.334981H11.6758L10.9868 0.679478L10.2978 0.334981H7.05532L6.27426 0.725716H4.11564L3.33458 0.334981H0V6.60966L0.390736 7.39072V9.54934L0 10.3304V13.665H6.665L7.35399 13.3205L8.04299 13.665H13.3304V8.37755L12.9859 7.68856L13.3304 6.99956V0.334564L13.33 0.334981ZM3.51495 11.3218L2.34316 10.15V7.80686L5.85812 11.3218H3.51495ZM10.5965 11.3218H9.03441L8.02216 10.1321L7.81346 9.28441L7.00991 8.94283L2.34358 3.45962L3.12464 2.67856L10.9873 8.58833L10.5965 11.3218ZM10.9868 6.1931L7.47188 2.67814H9.81505L10.9868 3.84994V6.1931Z" fill="#8CA3B8"/>
</g>
<defs>
<clipPath id="clip0_2206_1087">
<rect width="13.33" height="13.33" fill="white" transform="translate(0 0.334991)"/>
</clipPath>
</defs>
</svg>
