<svg width="14" height="14" viewBox="0 0 14 14" fill="none" xmlns="http://www.w3.org/2000/svg">
<path fill-rule="evenodd" clip-rule="evenodd" d="M4.55428 8.1779L4.53916 8.19302L5.05544 8.70931L5.07057 8.69419C5.4039 8.36086 5.91315 8.27821 6.33479 8.48903L6.42598 8.53465C6.46642 8.55485 6.50929 8.56697 6.55244 8.57135L6.39148 9.28542C6.29176 9.26709 6.19341 9.23468 6.09943 9.18769L6.00825 9.14212C5.8677 9.07185 5.69795 9.09938 5.58685 9.21052L4.6987 10.0986C4.61959 10.1777 4.59198 10.2947 4.62734 10.4009C4.75019 10.7694 4.65429 11.1757 4.37961 11.4503L4.15194 11.678C3.72423 12.1057 3.03077 12.1057 2.60306 11.678L1.57047 10.6454C1.14276 10.2177 1.14276 9.52423 1.57047 9.09651L1.79815 8.86885C2.07281 8.59417 2.47908 8.49828 2.84758 8.62113C2.95371 8.65649 3.07072 8.62887 3.14982 8.54977L4.03796 7.66161C4.14908 7.55052 4.17662 7.38077 4.10635 7.24022L4.06076 7.14903C3.84994 6.72739 3.93257 6.21814 4.26593 5.88477L7.50787 2.64285C8.36328 1.78743 9.75019 1.78743 10.6056 2.64285C11.4611 3.49827 11.4611 4.88518 10.6056 5.7406L8.51308 7.83316H7.4805L10.0893 5.22431C10.6596 4.65403 10.6596 3.72943 10.0893 3.15914C9.51904 2.58886 8.59443 2.58886 8.02416 3.15914L4.78222 6.4011C4.67108 6.51219 4.64355 6.68194 4.71382 6.82249L4.75943 6.91368C4.97026 7.33532 4.88761 7.84457 4.55428 8.1779ZM4.28101 8.45117L3.66612 9.06606C3.39146 9.34074 2.98519 9.43663 2.61669 9.31379C2.51056 9.27842 2.39355 9.30604 2.31444 9.38514L2.08677 9.61284C1.94419 9.75538 1.94419 9.98653 2.08677 10.1291L3.11935 11.1617C3.26193 11.3043 3.49308 11.3043 3.63565 11.1617L3.86333 10.934C3.94243 10.8549 3.97005 10.7379 3.93467 10.6318C3.81184 10.2633 3.90775 9.85703 4.18241 9.58234L4.7973 8.96746L4.28101 8.45117ZM2.69544 4.71181C1.98975 4.71181 1.41768 4.13975 1.41768 3.43406C1.41768 2.72837 1.98975 2.1563 2.69544 2.1563C3.40113 2.1563 3.9732 2.72837 3.9732 3.43406C3.9732 4.13975 3.40113 4.71181 2.69544 4.71181ZM2.69544 4.34675C3.1995 4.34675 3.60813 3.93813 3.60813 3.43406C3.60813 2.93 3.1995 2.52138 2.69544 2.52138C2.19138 2.52138 1.78275 2.93 1.78275 3.43406C1.78275 3.93813 2.19138 4.34675 2.69544 4.34675ZM6.2526 11.7955C6.22911 11.8997 6.30834 11.9988 6.41515 11.9988H6.89086H7.36662C7.43214 11.9988 7.49158 11.9604 7.51854 11.9006L7.99338 10.8472C8.02033 10.7875 8.07977 10.7491 8.1453 10.7491H10.1833C10.2489 10.7491 10.3083 10.7875 10.3352 10.8472L10.8101 11.9006C10.837 11.9604 10.8965 11.9988 10.962 11.9988H11.9135C12.0203 11.9988 12.0995 11.8997 12.0761 11.7955L11.3647 8.63966C11.3133 8.41168 11.1108 8.24972 10.8771 8.24972H7.45151C7.21782 8.24972 7.01529 8.41168 6.96388 8.63966L6.2526 11.7955ZM7.89694 8.74959C7.89694 8.70356 7.93427 8.66628 7.98025 8.66628H8.23615C8.28218 8.66628 8.31946 8.70356 8.31946 8.74959V9.08284H8.65867C8.70466 9.08284 8.74198 9.12013 8.74198 9.16616V9.41609C8.74198 9.46212 8.70466 9.49941 8.65867 9.49941H8.31946V9.83266C8.31946 9.87869 8.28218 9.91597 8.23615 9.91597H7.98025C7.93427 9.91597 7.89694 9.87869 7.89694 9.83266V9.49941H7.55778C7.51175 9.49941 7.47446 9.46212 7.47446 9.41609V9.16616C7.47446 9.12013 7.51175 9.08284 7.55778 9.08284H7.89694V8.74959ZM9.85858 9.91597C10.0086 9.91597 10.1302 9.79608 10.1302 9.64816C10.1302 9.50028 10.0086 9.38039 9.85858 9.38039C9.70857 9.38039 9.58698 9.50028 9.58698 9.64816C9.58698 9.79608 9.70857 9.91597 9.85858 9.91597ZM10.8545 9.6482C10.8545 9.79612 10.7329 9.91601 10.5829 9.91601C10.4329 9.91601 10.3113 9.79612 10.3113 9.6482C10.3113 9.50032 10.4329 9.38044 10.5829 9.38044C10.7329 9.38044 10.8545 9.50032 10.8545 9.6482ZM10.5829 9.20186C10.7329 9.20186 10.8545 9.08197 10.8545 8.93409C10.8545 8.78617 10.7329 8.66628 10.5829 8.66628C10.4329 8.66628 10.3113 8.78617 10.3113 8.93409C10.3113 9.08197 10.4329 9.20186 10.5829 9.20186ZM10.1302 8.93409C10.1302 9.08197 10.0086 9.20186 9.85858 9.20186C9.70857 9.20186 9.58698 9.08197 9.58698 8.93409C9.58698 8.78617 9.70857 8.66628 9.85858 8.66628C10.0086 8.66628 10.1302 8.78617 10.1302 8.93409Z" fill="#8CA3B8"/>
</svg>
