<svg width="14" height="14" viewBox="0 0 14 14" fill="none" xmlns="http://www.w3.org/2000/svg">
<path fill-rule="evenodd" clip-rule="evenodd" d="M7.49812 2.31322V4.70411H6.56086C6.45414 4.70511 6.34841 4.72464 6.24844 4.76188V2.31322C6.24844 2.23049 6.28135 2.15115 6.33996 2.09265C6.39852 2.03415 6.478 2.00128 6.56086 2.00128H7.1857C7.26856 2.00128 7.34804 2.03415 7.40661 2.09265C7.46522 2.15115 7.49812 2.23049 7.49812 2.31322ZM9.63147 5.69348C9.86582 5.92747 9.9975 6.24485 9.9975 6.57576V8.24972H7.28984C6.87328 8.24972 6.7164 8.44663 6.665 8.67461L5.97071 11.5822H3.74906V10.319L3.23222 9.803C2.7634 9.33532 2.4998 8.7009 2.49937 8.03919V6.51799C2.59936 6.55523 2.70509 6.5748 2.8118 6.57576H3.45593C3.68718 6.5753 3.90996 6.48883 4.08077 6.33316C4.25156 6.48883 4.47434 6.5753 4.70561 6.57576H5.2803C5.42952 6.5738 5.57615 6.53686 5.70845 6.46796C5.78201 6.62792 5.88886 6.77038 6.02187 6.88594C6.15488 7.00145 6.311 7.08739 6.47988 7.13804C6.12518 7.47437 5.81534 7.8549 5.55803 8.27026L5.4346 8.45513C5.41202 8.49012 5.40381 8.53248 5.41173 8.57335C5.4196 8.61425 5.44301 8.65054 5.47701 8.67461L5.75473 8.84407C5.77164 8.85565 5.79068 8.86373 5.81075 8.86786C5.83083 8.87198 5.85154 8.87206 5.87161 8.86811C5.89173 8.86419 5.91085 8.85628 5.92785 8.84486C5.94489 8.83349 5.95947 8.81879 5.97071 8.80171L6.09414 8.61688C6.71515 7.6849 7.10085 7.24972 7.96867 7.20348C8.00929 7.20252 8.04799 7.18599 8.07669 7.15728C8.10543 7.12862 8.12197 7.09001 8.12297 7.04944V6.73368C8.12297 6.64508 8.05353 6.57576 7.86453 6.57576H7.178C7.05494 6.57576 6.9331 6.55139 6.81959 6.50403C6.70603 6.45667 6.60306 6.38727 6.51658 6.29987C6.4301 6.21244 6.36187 6.10875 6.31584 5.99482C6.26981 5.88089 6.2469 5.75893 6.24844 5.63608C6.24844 5.59563 6.25644 5.55556 6.27193 5.51819C6.28743 5.48083 6.31017 5.44684 6.33883 5.41826C6.36745 5.38964 6.40148 5.36694 6.43893 5.35144C6.47634 5.33599 6.5165 5.32799 6.55698 5.32799H8.74781C9.07923 5.32799 9.39711 5.45946 9.63147 5.69348ZM9.37266 4.81966V2.50899C9.37266 2.42625 9.33975 2.34691 9.28114 2.28841C9.22257 2.22991 9.14309 2.19705 9.06023 2.19705H8.43539C8.35254 2.19705 8.27306 2.22991 8.21449 2.28841C8.15588 2.34691 8.12297 2.42625 8.12297 2.50899V4.69257H8.74781C8.96184 4.6989 9.17321 4.74189 9.37266 4.81966ZM3.4405 5.95188H2.8118C2.72894 5.95188 2.64947 5.91901 2.59088 5.86052C2.53229 5.80204 2.49937 5.72268 2.49937 5.63996V3.14442C2.49937 3.10346 2.50746 3.0629 2.52316 3.02505C2.53886 2.9872 2.56187 2.95281 2.59088 2.92385C2.61989 2.89488 2.65433 2.8719 2.69224 2.85623C2.73014 2.84055 2.77077 2.83248 2.8118 2.83248H3.4405C3.52336 2.83248 3.60282 2.86534 3.66141 2.92385C3.72 2.98234 3.75292 3.06169 3.75292 3.14442V5.63996C3.75292 5.72268 3.72 5.80204 3.66141 5.86052C3.60282 5.91901 3.52336 5.95188 3.4405 5.95188ZM4.70561 5.95188H5.31505C5.3979 5.95188 5.47734 5.91901 5.53595 5.86052C5.59452 5.80204 5.62747 5.72268 5.62747 5.63996V2.52054C5.62747 2.43781 5.59452 2.35847 5.53595 2.29997C5.47734 2.24146 5.3979 2.2086 5.31505 2.2086H4.70561C4.62276 2.2086 4.54328 2.24146 4.48471 2.29997C4.4261 2.35847 4.39319 2.43781 4.39319 2.52054V5.63996C4.39319 5.72268 4.4261 5.80204 4.48471 5.86052C4.54328 5.91901 4.62276 5.95188 4.70561 5.95188ZM6.2526 12.2121C6.22911 12.3163 6.30834 12.4153 6.41515 12.4153H7.36662C7.43214 12.4153 7.49158 12.3769 7.51854 12.3172L7.99338 11.2638C8.02033 11.2041 8.07977 11.1657 8.1453 11.1657H10.1833C10.2489 11.1657 10.3083 11.2041 10.3352 11.2638L10.8101 12.3172C10.837 12.3769 10.8965 12.4153 10.962 12.4153H11.9135C12.0203 12.4153 12.0995 12.3163 12.0761 12.2121L11.3647 9.05623C11.3133 8.82824 11.1108 8.66628 10.8771 8.66628H7.45151C7.21782 8.66628 7.01529 8.82824 6.96388 9.05623L6.2526 12.2121ZM7.89694 9.16616C7.89694 9.12013 7.93427 9.08284 7.98025 9.08284H8.23615C8.28218 9.08284 8.31946 9.12013 8.31946 9.16616V9.49941H8.65867C8.70466 9.49941 8.74198 9.53669 8.74198 9.58272V9.83266C8.74198 9.87869 8.70466 9.91597 8.65867 9.91597H8.31946V10.2492C8.31946 10.2952 8.28218 10.3325 8.23615 10.3325H7.98025C7.93427 10.3325 7.89694 10.2952 7.89694 10.2492V9.91597H7.55778C7.51175 9.91597 7.47446 9.87869 7.47446 9.83266V9.58272C7.47446 9.53669 7.51175 9.49941 7.55778 9.49941H7.89694V9.16616ZM9.85858 10.3325C10.0086 10.3325 10.1302 10.2126 10.1302 10.0647C10.1302 9.91684 10.0086 9.79696 9.85858 9.79696C9.70857 9.79696 9.58698 9.91684 9.58698 10.0647C9.58698 10.2126 9.70857 10.3325 9.85858 10.3325ZM10.8545 10.0648C10.8545 10.2127 10.7329 10.3326 10.5829 10.3326C10.4329 10.3326 10.3113 10.2127 10.3113 10.0648C10.3113 9.91689 10.4329 9.797 10.5829 9.797C10.7329 9.797 10.8545 9.91689 10.8545 10.0648ZM10.5829 9.61842C10.7329 9.61842 10.8545 9.49853 10.8545 9.35065C10.8545 9.20273 10.7329 9.08284 10.5829 9.08284C10.4329 9.08284 10.3113 9.20273 10.3113 9.35065C10.3113 9.49853 10.4329 9.61842 10.5829 9.61842ZM10.1302 9.35065C10.1302 9.49853 10.0086 9.61842 9.85858 9.61842C9.70857 9.61842 9.58698 9.49853 9.58698 9.35065C9.58698 9.20273 9.70857 9.08284 9.85858 9.08284C10.0086 9.08284 10.1302 9.20273 10.1302 9.35065Z" fill="#8CA3B8"/>
</svg>
