<svg width="13" height="11" viewBox="0 0 13 11" fill="none" xmlns="http://www.w3.org/2000/svg">
<path d="M10.7514 8.98471H2.2498C2.02413 8.98471 1.83086 8.82154 1.79382 8.59933L1.25568 5.41559C0.560138 5.39128 0.00115967 4.81842 0.00115967 4.11709C0.00115967 3.41577 0.584441 2.81744 1.30081 2.81744C2.01718 2.81744 2.60047 3.40072 2.60047 4.11709C2.60047 4.32194 2.55417 4.51752 2.4639 4.6969L4.40702 5.59034L5.8467 2.75726C5.45322 2.52811 5.20093 2.10223 5.20093 1.63467C5.20093 0.918303 5.78421 0.335022 6.50058 0.335022C7.21695 0.335022 7.80023 0.918303 7.80023 1.63467C7.80023 2.10107 7.54794 2.52696 7.15446 2.75726L8.59414 5.59034L10.5373 4.6969C10.447 4.51868 10.4007 4.32194 10.4007 4.11709C10.4007 3.40072 10.984 2.81744 11.7003 2.81744C12.4167 2.81744 13 3.40072 13 4.11709C13 4.83346 12.441 5.39244 11.7455 5.41559L11.2073 8.59933C11.1691 8.82154 10.977 8.98471 10.7514 8.98471ZM2.64097 8.05887H10.3602L10.7745 5.60654L8.79436 6.51734C8.44717 6.67821 8.03748 6.53702 7.86273 6.1933L6.50058 3.51414L5.13843 6.1933C4.96484 6.53586 4.55515 6.67821 4.20565 6.51734L2.2255 5.60654L2.63981 8.05887H2.64097ZM8.40666 5.67598C8.40666 5.67598 8.40666 5.67598 8.4055 5.67598H8.40666ZM11.5649 4.48164C11.5939 4.48164 11.624 4.4828 11.6529 4.48743C11.6679 4.48974 11.6841 4.4909 11.6992 4.4909C11.9052 4.4909 12.073 4.32309 12.073 4.11709C12.073 3.91109 11.9052 3.74328 11.6992 3.74328C11.4932 3.74328 11.3254 3.91109 11.3254 4.11709C11.3254 4.20273 11.352 4.28027 11.4064 4.3474C11.44 4.39022 11.4689 4.43651 11.492 4.48512C11.5152 4.4828 11.5395 4.48164 11.5638 4.48164H11.5649ZM1.29966 3.74328C1.09365 3.74328 0.925846 3.91109 0.925846 4.11709C0.925846 4.32309 1.09365 4.4909 1.29966 4.4909C1.31586 4.4909 1.3309 4.48859 1.34595 4.48743C1.40034 4.48049 1.45473 4.48049 1.50681 4.48512C1.52996 4.43651 1.55773 4.39022 1.59245 4.3474C1.64569 4.27911 1.67346 4.20158 1.67346 4.11709C1.67346 3.91109 1.50566 3.74328 1.29966 3.74328ZM6.50058 1.26087C6.29458 1.26087 6.12677 1.42867 6.12677 1.63467C6.12677 1.79207 6.22746 1.93326 6.37559 1.9865C6.41957 2.00154 6.46123 2.02121 6.50058 2.04552C6.53993 2.02237 6.58159 2.0027 6.62441 1.98765C6.77371 1.93442 6.87439 1.79323 6.87439 1.63583C6.87439 1.42983 6.70658 1.26202 6.50058 1.26202V1.26087Z" fill="#8CA3B8"/>
<path d="M10.6125 10.4869H2.30765C2.05188 10.4869 1.84473 10.2797 1.84473 10.024C1.84473 9.76819 2.05188 9.56104 2.30765 9.56104H10.6125C10.8682 9.56104 11.0754 9.76819 11.0754 10.024C11.0754 10.2797 10.8682 10.4869 10.6125 10.4869Z" fill="#8CA3B8"/>
</svg>
