<svg width="14" height="14" viewBox="0 0 14 14" fill="none" xmlns="http://www.w3.org/2000/svg">
<g clip-path="url(#clip0_2206_1535)">
<path d="M5.90227 1.41848C6.16554 0.722404 7.16446 0.722404 7.42772 1.41848L8.71782 4.83013L12.5344 4.94635C13.2467 4.96801 13.6578 5.90069 12.9984 6.3889L10.0037 8.60668L11.0568 12.07C11.171 12.4449 10.9956 12.7827 10.7456 12.956C10.4982 13.1272 10.1387 13.1697 9.83046 12.9702L6.66583 10.9211L3.5012 12.9702C3.19295 13.1697 2.83304 13.1272 2.58602 12.956C2.33608 12.7827 2.16071 12.4449 2.27443 12.07L3.3275 8.60668L0.332831 6.3889C-0.326587 5.90028 0.0845597 4.96801 0.796882 4.94635L4.61343 4.83013L5.90352 1.41848H5.90227ZM6.665 2.53903L5.57902 5.41207C5.45947 5.72907 5.15954 5.92402 4.8417 5.9336L1.7104 6.02899L4.16271 7.84521C4.42847 8.04182 4.55344 8.38674 4.45347 8.71624L3.57702 11.5989L6.21844 9.88886C6.48962 9.71307 6.8412 9.71307 7.11239 9.88886L9.75381 11.5989L8.87736 8.71624C8.77697 8.38674 8.90236 8.04182 9.16812 7.84521L11.6204 6.02899L8.48954 5.9336C8.17129 5.92402 7.87178 5.72865 7.75223 5.41207L6.66583 2.53903H6.665Z" fill="#8CA3B8"/>
</g>
<defs>
<clipPath id="clip0_2206_1535">
<rect width="13.33" height="13.33" fill="white" transform="translate(0 0.335022)"/>
</clipPath>
</defs>
</svg>
