<svg width="14" height="14" viewBox="0 0 14 14" fill="none" xmlns="http://www.w3.org/2000/svg">
<g clip-path="url(#clip0_2206_1422)">
<path fill-rule="evenodd" clip-rule="evenodd" d="M12.127 7.83317C12.4559 7.83317 12.7512 8.00817 12.9132 8.2786V8.23794V8.23711C12.9136 7.23186 12.9139 6.22665 12.9113 5.22141C12.9096 4.60098 12.4566 4.12425 11.8361 4.09889C11.4338 4.08199 11.0297 4.07861 10.6274 4.09382C9.92923 4.12087 9.49646 4.58406 9.49646 5.28227V7.83317H10.7593V5.51217C10.7593 5.50254 10.7591 5.49309 10.7589 5.48372C10.7585 5.46509 10.7581 5.44677 10.7593 5.42765C10.7728 5.23661 10.8861 5.13014 11.0771 5.13014H11.3138C11.5555 5.13014 11.6519 5.22478 11.6519 5.46822V6.50113H10.9892V7.53912H11.6519V7.83317H12.127ZM1.69123 6.17996H3.10452V7.22807H1.69292V9.31422H0.416565V5.27381C0.416565 4.57394 0.878083 4.0972 1.57965 4.08875C2.03838 4.0829 2.49629 4.08434 2.95452 4.08578C3.15827 4.08642 3.36207 4.08706 3.56604 4.08706C3.58294 4.08706 3.59985 4.08875 3.62182 4.09213V5.13518H2.04793C1.79266 5.13518 1.68954 5.23832 1.68954 5.4953C1.69123 5.72007 1.69123 5.94335 1.69123 6.17996ZM7.14659 9.31588H5.87024V5.24169C5.87024 4.65509 6.24552 4.20878 6.822 4.10566C6.89978 4.09213 6.97922 4.08706 7.05699 4.08706C7.48746 4.08594 7.91715 4.08631 8.34712 4.08669C8.56219 4.08687 8.77735 4.08706 8.99267 4.08706H9.07719V5.13518H7.49484C7.24802 5.13518 7.13984 5.24507 7.13984 5.49021V6.17317H8.55145V7.23144H7.14659V9.31588ZM4.08164 9.31251H5.34108V4.09213H4.08164V9.31251ZM7.50229 11.7955C7.4788 11.8997 7.55803 11.9988 7.66484 11.9988H8.61631C8.68183 11.9988 8.74127 11.9604 8.76823 11.9007L9.24307 10.8472C9.27002 10.7875 9.32946 10.7491 9.39499 10.7491H11.433C11.4985 10.7491 11.558 10.7875 11.5849 10.8472L12.0598 11.9007C12.0867 11.9604 12.1462 11.9988 12.2117 11.9988H13.1632C13.27 11.9988 13.3492 11.8997 13.3258 11.7955L12.6144 8.63968C12.563 8.41169 12.3605 8.24973 12.1268 8.24973H8.7012C8.46751 8.24973 8.26498 8.41169 8.21357 8.63968L7.50229 11.7955ZM9.14663 8.74961C9.14663 8.70358 9.18396 8.66629 9.22994 8.66629H9.48584C9.53187 8.66629 9.56915 8.70358 9.56915 8.74961V9.08286H9.90836C9.95435 9.08286 9.99167 9.12014 9.99167 9.16617V9.41611C9.99167 9.46214 9.95435 9.49942 9.90836 9.49942H9.56915V9.83267C9.56915 9.8787 9.53187 9.91598 9.48584 9.91598H9.22994C9.18396 9.91598 9.14663 9.8787 9.14663 9.83267V9.49942H8.80747C8.76144 9.49942 8.72415 9.46214 8.72415 9.41611V9.16617C8.72415 9.12014 8.76144 9.08286 8.80747 9.08286H9.14663V8.74961ZM11.1083 9.91598C11.2583 9.91598 11.3799 9.79609 11.3799 9.64817C11.3799 9.50029 11.2583 9.38041 11.1083 9.38041C10.9583 9.38041 10.8367 9.50029 10.8367 9.64817C10.8367 9.79609 10.9583 9.91598 11.1083 9.91598ZM12.1042 9.64822C12.1042 9.79614 11.9826 9.91602 11.8326 9.91602C11.6826 9.91602 11.561 9.79614 11.561 9.64822C11.561 9.50034 11.6826 9.38045 11.8326 9.38045C11.9826 9.38045 12.1042 9.50034 12.1042 9.64822ZM11.8326 9.20187C11.9826 9.20187 12.1042 9.08198 12.1042 8.9341C12.1042 8.78618 11.9826 8.66629 11.8326 8.66629C11.6826 8.66629 11.561 8.78618 11.561 8.9341C11.561 9.08198 11.6826 9.20187 11.8326 9.20187ZM11.3799 8.9341C11.3799 9.08198 11.2583 9.20187 11.1083 9.20187C10.9583 9.20187 10.8367 9.08198 10.8367 8.9341C10.8367 8.78618 10.9583 8.66629 11.1083 8.66629C11.2583 8.66629 11.3799 8.78618 11.3799 8.9341Z" fill="#8CA3B8"/>
</g>
<defs>
<clipPath id="clip0_2206_1422">
<rect width="13.33" height="13.33" fill="white" transform="translate(0 0.335022)"/>
</clipPath>
</defs>
</svg>
