<svg width="14" height="14" viewBox="0 0 14 14" fill="none" xmlns="http://www.w3.org/2000/svg">
<g clip-path="url(#clip0_2206_1189)">
<path d="M3.3325 8.90411V12.7127C3.3325 12.9756 3.11922 13.1889 2.85637 13.1889C2.59352 13.1889 2.38024 12.9756 2.38024 12.7127V1.28685C2.38024 1.02399 2.59352 0.810715 2.85637 0.810715C3.11922 0.810715 3.3325 1.02399 3.3325 1.28685H11.4259C11.6887 1.28685 11.902 1.50013 11.902 1.76298V8.42798C11.902 8.69083 11.6887 8.90411 11.4259 8.90411H3.3325ZM5.23661 2.23911V4.14321H3.3325V6.04732H5.23661V7.95143H10.9493V2.23869L5.23661 2.23911ZM7.14113 2.23911H9.04524V4.14321H7.14113V2.23911ZM5.23661 4.14321L7.14072 4.14363V6.04774L5.23661 6.04732V4.14321ZM9.04524 4.14321L10.9493 4.14363V6.04774H9.04524V4.14321ZM7.14072 6.04774H9.04524V7.95185H7.14113L7.14072 6.04774Z" fill="#8CA3B8"/>
</g>
<defs>
<clipPath id="clip0_2206_1189">
<rect width="13.33" height="13.33" fill="white" transform="translate(0 0.334999)"/>
</clipPath>
</defs>
</svg>
