<svg width="14" height="14" viewBox="0 0 14 14" fill="none" xmlns="http://www.w3.org/2000/svg">
<g clip-path="url(#clip0_2206_2006)">
<path d="M1.97784 4.33441C1.91368 5.05757 1.9845 5.52912 2.16154 5.7399L2.53311 6.1827L7.95342 1.63467C7.75681 1.55261 7.52187 1.5801 7.34691 1.7259C6.86453 2.12747 6.49337 2.43614 6.23302 2.65108C5.79688 3.01183 5.02166 3.02599 3.89486 2.73606C3.76364 3.05223 3.47746 3.40423 3.10089 3.71998C2.71848 4.04074 2.31525 4.2636 1.97784 4.33441ZM1.70374 3.87744C1.72706 3.89036 1.83287 3.89036 2.0045 3.83162C2.24152 3.75039 2.52603 3.58127 2.79513 3.35549C3.06423 3.12972 3.28043 2.87894 3.40123 2.65942C3.49496 2.48988 3.50912 2.3824 3.49662 2.36741L3.49746 2.36657L2.33608 0.982335C2.32233 0.966089 2.29817 0.964007 2.28193 0.977753L0.544027 2.43572C0.527782 2.44947 0.525699 2.47363 0.539445 2.48988L1.70374 3.87744ZM1.33591 4.18029L0.174536 2.79605C-0.00791787 2.5786 0.0204084 2.2541 0.237854 2.07123L1.97575 0.613261C2.1932 0.430807 2.5177 0.459133 2.70057 0.676579L4.0494 2.28409C5.01916 2.52903 5.64942 2.51529 5.92935 2.28409C6.18887 2.06956 6.55961 1.76131 7.04199 1.35974C7.49354 0.983585 8.16462 1.04357 8.54244 1.49387L9.04315 2.09039C9.22561 2.30784 9.19728 2.63234 8.97983 2.81521L5.75731 5.51953C6.32008 5.24794 6.95076 5.09589 7.61768 5.09589C9.98417 5.09589 11.9024 7.01416 11.9024 9.38065C11.9024 11.7471 9.98417 13.6654 7.61768 13.6654C5.25118 13.6654 3.33291 11.7471 3.33291 9.38065C3.33291 8.44589 3.63242 7.58069 4.14063 6.8767L3.56869 7.35658C3.35124 7.53903 3.02674 7.5107 2.84387 7.29326L1.79746 6.04607C1.5267 5.72323 1.43547 5.16796 1.49754 4.37232L1.35674 4.20445C1.34966 4.19695 1.34258 4.18945 1.33591 4.18112L1.33675 4.18029H1.33591ZM2.83929 6.54719L3.20794 6.98667C3.22169 7.00291 3.24585 7.005 3.2621 6.99125L8.67366 2.4503C8.68991 2.43656 8.69199 2.41239 8.67824 2.39615L8.30959 1.95668L2.83929 6.54678V6.54719ZM5.29076 9.90844L5.79855 11.1815C6.30467 11.4472 6.86953 11.5893 7.45605 11.5905L8.27751 10.6495C8.26585 10.0184 8.08881 9.39981 7.76181 8.8587L6.18678 8.49212C5.78147 8.88661 5.47321 9.37149 5.29076 9.90844ZM4.89211 9.61143C5.11205 9.03699 5.46071 8.51962 5.90935 8.09889V7.22369C5.66608 7.16371 5.41739 7.12913 5.16745 7.12122C4.61967 7.71524 4.28517 8.50837 4.28517 9.38024C4.28517 9.45772 4.28767 9.53478 4.29309 9.61143H4.89211ZM5.41198 11.8788C5.99975 12.3978 6.77164 12.7127 7.61726 12.7127C7.7189 12.7127 7.81929 12.7082 7.91885 12.6994L7.4448 12.0666C6.82454 12.0637 6.22469 11.9213 5.68066 11.6551L5.41239 11.8788H5.41198ZM8.74698 10.475L9.97292 10.5674C10.3332 10.2146 10.6161 9.79055 10.8015 9.32192L10.3853 7.90185C9.95043 7.66775 9.47138 7.52612 8.97192 7.48696L8.24252 8.73915C8.53911 9.27276 8.71073 9.86678 8.74698 10.475ZM10.2624 11.4072C10.5153 11.0777 10.7082 10.6995 10.8244 10.2892C10.6615 10.5279 10.4732 10.7495 10.2624 10.9498V11.4072ZM8.84945 7.00333C9.32516 7.02207 9.78755 7.12288 10.2195 7.29867C9.71173 6.66466 8.97692 6.22019 8.13838 6.08856C8.09464 6.15146 8.05257 6.21561 8.01299 6.28101L8.84987 7.00375L8.84945 7.00333ZM7.51395 6.19228C7.54061 6.14354 7.5681 6.09522 7.59685 6.04774C6.86995 6.0519 6.19845 6.28893 5.65233 6.68799C5.78272 6.70757 5.91227 6.7334 6.04057 6.76589L7.51395 6.19228Z" fill="#8CA3B8"/>
</g>
<defs>
<clipPath id="clip0_2206_2006">
<rect width="13.33" height="13.33" fill="white" transform="translate(0 0.334999)"/>
</clipPath>
</defs>
</svg>
