<svg width="14" height="14" viewBox="0 0 14 14" fill="none" xmlns="http://www.w3.org/2000/svg">
<g clip-path="url(#clip0_2206_1577)">
<path d="M4.55178 0.417065L8.8307 3.23219C9.11438 3.41881 9.11688 3.83413 8.8357 4.0245L4.76047 6.77714V8.06182C5.36449 7.99017 6.00391 7.95268 6.66458 7.95268C7.06823 7.95268 7.46396 7.96684 7.84845 7.99392C8.17129 7.40199 8.79946 7.00042 9.52095 7.00042C10.5253 7.00042 11.3476 7.77772 11.4201 8.76331C12.5993 9.2636 13.3296 9.96968 13.3296 10.809C13.3296 12.5107 10.3274 13.6654 6.66458 13.6654C3.00175 13.6654 -0.000419617 12.5107 -0.000419617 10.809C-0.000419617 9.58144 1.56211 8.63834 3.80821 8.20845V0.81155C3.80821 0.548699 4.02149 0.335419 4.28434 0.335419C4.38348 0.335419 4.47554 0.365828 4.55178 0.417482V0.417065ZM4.76089 1.69425V5.62785L7.7114 3.63501L4.76131 1.69425H4.76089ZM11.2426 9.72016C10.9373 10.3637 10.2812 10.8086 9.52137 10.8086C8.47954 10.8086 7.63309 9.97218 7.61726 8.9341C7.30775 8.91452 6.9895 8.90453 6.665 8.90453C5.996 8.90453 5.35532 8.94785 4.76089 9.02491V10.3325C4.76089 10.5954 4.54761 10.8086 4.28476 10.8086C4.02191 10.8086 3.80863 10.5954 3.80863 10.3325V9.18446C2.09656 9.54103 0.952259 10.1859 0.952259 10.8086C0.952259 11.7363 3.49204 12.7127 6.665 12.7127C9.83795 12.7127 12.3777 11.7359 12.3777 10.8086C12.3777 10.4308 11.9566 10.0451 11.2426 9.72016Z" fill="#8CA3B8"/>
</g>
<defs>
<clipPath id="clip0_2206_1577">
<rect width="13.33" height="13.33" fill="white" transform="translate(0 0.334991)"/>
</clipPath>
</defs>
</svg>
