<svg width="92" height="62" viewBox="0 0 92 62" fill="none" xmlns="http://www.w3.org/2000/svg">
<path d="M44.3052 30.6849V38.7552H41.7283V18.8252H48.5628C49.3786 18.8083 50.1897 18.952 50.9493 19.2481C51.7089 19.5443 52.4019 19.9869 52.9884 20.5506C53.5809 21.08 54.0523 21.7292 54.3712 22.4547C54.6901 23.1802 54.849 23.9651 54.8371 24.7566C54.8541 25.5524 54.6977 26.3424 54.3786 27.0725C54.0595 27.8026 53.5853 28.4556 52.9884 28.9866C51.7933 30.1188 50.3181 30.6844 48.5628 30.6833H44.3052V30.6849ZM44.3052 21.2789V28.236H48.6268C49.1006 28.2499 49.5721 28.1655 50.0111 27.9881C50.4502 27.8106 50.8471 27.5441 51.1766 27.2055C51.5043 26.889 51.7648 26.5104 51.9427 26.0921C52.1206 25.6738 52.2122 25.2243 52.2122 24.7702C52.2122 24.316 52.1206 23.8665 51.9427 23.4482C51.7648 23.0299 51.5043 22.6513 51.1766 22.3348C50.8513 21.9891 50.4557 21.716 50.0161 21.5337C49.5765 21.3514 49.103 21.264 48.6268 21.2773H44.3052V21.2789ZM60.7753 24.6739C62.68 24.6739 64.1835 25.1796 65.2858 26.191C66.3881 27.2024 66.9387 28.589 66.9376 30.351V38.7552H64.4727V36.8628H64.3607C63.2936 38.4212 61.8744 39.2004 60.1031 39.2004C58.5911 39.2004 57.3261 38.7552 56.3081 37.8647C55.8196 37.4559 55.429 36.9441 55.1648 36.3664C54.9006 35.7886 54.7696 35.1597 54.7811 34.5252C54.7811 33.1142 55.3178 31.992 56.3913 31.1588C57.4648 30.3255 58.8978 29.9078 60.6905 29.9057C62.2207 29.9057 63.4809 30.184 64.4711 30.7406V30.1554C64.474 29.7229 64.38 29.2951 64.1959 28.9032C64.0118 28.5112 63.7422 28.1649 63.4067 27.8893C62.7253 27.2785 61.8371 26.9452 60.9194 26.9559C59.4799 26.9559 58.3408 27.5591 57.5021 28.7655L55.2325 27.3455C56.4809 25.5645 58.3286 24.6739 60.7753 24.6739ZM57.4413 34.5809C57.4396 34.9067 57.5162 35.2283 57.6649 35.5187C57.8136 35.8091 58.03 36.0601 58.296 36.2506C58.866 36.696 59.5734 36.932 60.2984 36.9185C61.3858 36.9167 62.4282 36.4867 63.197 35.7227C64.0507 34.9244 64.4775 33.9877 64.4775 32.9128C63.674 32.2767 62.5536 31.9587 61.1163 31.9587C60.0695 31.9587 59.1966 32.2094 58.4977 32.7108C57.7918 33.2197 57.4413 33.8383 57.4413 34.5809ZM81.0869 25.1192L72.4821 44.7661H69.8219L73.0151 37.8917L67.357 25.1192H70.158L74.2475 34.9148H74.3036L78.281 25.1192H81.0869Z" fill="white"/>
<path d="M33.8918 28.9451C33.8927 28.1649 33.8263 27.386 33.6933 26.6171H22.8253V31.0267H29.05C28.9226 31.731 28.653 32.4023 28.2574 33.0003C27.8619 33.5983 27.3485 34.1105 26.7483 34.506V37.3684H30.4633C32.6385 35.3759 33.8918 32.4292 33.8918 28.9451Z" fill="#4285F4"/>
<path d="M22.8253 40.1339C25.9352 40.1339 28.5538 39.1193 30.4633 37.3701L26.7483 34.5077C25.7144 35.2043 24.3827 35.6018 22.8253 35.6018C19.8194 35.6018 17.268 33.5886 16.3557 30.8757H12.5287V33.8256C13.4878 35.7218 14.9586 37.3159 16.7769 38.4299C18.5951 39.5438 20.6891 40.1338 22.8253 40.1339Z" fill="#34A853"/>
<path d="M16.3556 30.8757C15.8733 29.4542 15.8733 27.9147 16.3556 26.4932V23.5433H12.5286C11.7217 25.1386 11.3014 26.8991 11.3014 28.6845C11.3014 30.4698 11.7217 32.2304 12.5286 33.8256L16.3556 30.8757Z" fill="#FBBC04"/>
<path d="M22.8253 21.767C24.4688 21.7403 26.0568 22.3572 27.2461 23.4844L30.5353 20.2165C28.4496 18.2702 25.6865 17.2017 22.8253 17.2349C20.6891 17.235 18.5951 17.8249 16.7769 18.9389C14.9586 20.0528 13.4878 21.6469 12.5287 23.5432L16.3557 26.493C17.268 23.7801 19.8194 21.767 22.8253 21.767Z" fill="#EA4335"/>
</svg>
