<svg width="14" height="14" viewBox="0 0 14 14" fill="none" xmlns="http://www.w3.org/2000/svg">
<g clip-path="url(#clip0_2206_1570)">
<path d="M10.8944 8.55877C11.2539 8.19053 11.5521 7.76814 11.7787 7.30867C11.7854 7.20661 11.7887 7.10372 11.7887 7C11.7887 6.25976 11.6154 5.55994 11.3076 4.93884C10.7506 4.64558 10.1408 4.46271 9.50512 4.40315L8.45455 6.20644C8.80863 6.89294 9.00858 7.649 9.04274 8.41964L10.8939 8.55919L10.8944 8.55877ZM11.1785 8.94868V9.30359C11.3088 9.07573 11.4205 8.83579 11.5109 8.58585C11.4059 8.71165 11.2947 8.83245 11.1785 8.94868ZM10.7023 9.98633V9.02199L8.91444 8.88744L7.70641 10.2713L8.57036 11.4239C9.41098 11.1523 10.147 10.6474 10.7023 9.98633ZM8.07298 11.5539L7.2836 10.5008C6.35633 10.4787 5.46655 10.2192 4.68425 9.75306C4.57136 9.68557 4.53428 9.53978 4.60177 9.42689C4.66925 9.314 4.81505 9.27693 4.92793 9.34441C5.63859 9.76805 6.4463 10.0038 7.28901 10.0251L8.57119 8.55627C8.55536 7.7998 8.36457 7.05623 8.01216 6.38682L5.30576 5.75656V3.55961L7.71932 2.61943C7.76223 2.54736 7.80721 2.47654 7.85387 2.40656C7.62143 2.37074 7.38357 2.35241 7.14113 2.35241C6.38299 2.35241 5.65192 2.53361 4.995 2.87644C4.76173 2.99808 4.4743 2.90769 4.35266 2.67441C4.23103 2.44114 4.32142 2.15371 4.55469 2.03207C5.34658 1.61884 6.22886 1.40015 7.14113 1.40015C10.2337 1.40015 12.7406 3.90702 12.7406 6.99958C12.7406 10.0921 10.2337 12.599 7.14113 12.599C6.23719 12.599 5.36283 12.3841 4.57636 11.9783C4.34266 11.8579 4.25102 11.5705 4.37182 11.3368C4.49263 11.1031 4.77964 11.0115 5.01333 11.1323C5.66567 11.4689 6.39007 11.6472 7.14155 11.6472C7.46063 11.6472 7.77222 11.6151 8.0734 11.5539H8.07298ZM9.4139 3.91785C9.91627 3.95201 10.4053 4.05615 10.8698 4.22527C10.2566 3.40215 9.37682 2.78938 8.35916 2.51362C8.28543 2.61526 8.21586 2.71982 8.15046 2.82687L9.4139 3.91785ZM0 13.665V7.95226L0.952262 3.6675L1.90452 1.76339C1.99492 1.56885 2.16363 1.3385 2.39773 1.46805C2.55353 1.55427 2.54811 1.81171 2.38065 2.23952L1.90452 3.66791V7.47654L2.38065 9.38065L3.80905 6.52428C3.91319 6.31308 4.24977 6.19936 4.55511 6.35182C4.86045 6.50429 4.8038 6.86961 4.76131 7.00041L3.80905 10.809L2.38065 12.2374V13.6654H0.000416563L0 13.665ZM7.75639 3.11597L5.78189 3.88494V5.37832L8.07506 5.91235L9.05232 4.23485L7.75639 3.11597Z" fill="#8CA3B8"/>
</g>
<defs>
<clipPath id="clip0_2206_1570">
<rect width="13.33" height="13.33" fill="white" transform="translate(0 0.334991)"/>
</clipPath>
</defs>
</svg>
