<svg width="14" height="14" viewBox="0 0 14 14" fill="none" xmlns="http://www.w3.org/2000/svg">
<g clip-path="url(#clip0_2206_1549)">
<path d="M9.06606 5.11634L10.484 5.96696L10.9448 5.08468L9.52886 4.23531L9.06606 5.11634ZM8.84445 5.53832L6.79913 9.43318C6.59127 9.82933 6.1293 10.0193 5.70274 9.88473L2.81013 8.97205C2.68516 8.93247 2.55478 8.91206 2.42314 8.91123C1.69624 8.90623 1.10264 9.49108 1.09764 10.218L1.09056 11.2102C1.09056 11.2152 1.09056 11.2152 1.09056 11.2207C1.09097 11.9476 1.68083 12.5366 2.40773 12.5357L6.39382 12.5328C6.80038 12.5324 7.17279 12.3066 7.36107 11.9463L10.262 6.38977L8.8432 5.53832H8.84445ZM9.75048 3.81292L11.1655 4.66187L12.1253 2.824C12.3427 2.40744 12.1932 1.8934 11.7862 1.65846C11.7729 1.65096 11.7729 1.65096 11.7591 1.64346C11.3826 1.44601 10.9173 1.59056 10.7198 1.96713L9.75089 3.81292H9.75048ZM1.66625 4.0866V5.04386C1.66625 5.71994 2.66808 6.28605 4.04649 6.28605C5.42489 6.28605 6.42714 5.71953 6.42714 5.04345V4.00745C5.92602 4.40485 5.07081 4.6198 4.03357 4.6198C2.97759 4.6198 2.14946 4.44318 1.66625 4.0866ZM1.66833 3.19266C1.66916 3.77335 2.54603 4.14367 4.03357 4.14367C5.38865 4.14367 6.32342 3.74669 6.42506 3.18808C6.37174 2.53699 5.3874 2.00129 4.0469 2.00129C2.70349 2.00129 1.71748 2.53907 1.66833 3.19266ZM4.04649 6.76218C2.4398 6.76218 1.19012 6.05569 1.19012 5.04386V3.24431C1.19012 2.23248 2.4398 1.52557 4.04649 1.52557C5.65317 1.52557 6.90285 2.23248 6.90285 3.24431V5.04345C6.90285 6.05569 5.65317 6.76218 4.04649 6.76218ZM9.87669 1.52474C10.3187 0.682869 11.3597 0.358367 12.2019 0.800756C12.2324 0.817002 12.2324 0.817002 12.2623 0.834081C13.1113 1.32396 13.4229 2.39619 12.9693 3.26472L8.20628 12.387C7.85428 13.0614 7.15654 13.4847 6.39548 13.4851L2.4094 13.488C1.15679 13.4888 0.140379 12.4741 0.13913 11.2215C0.13913 11.2127 0.13913 11.2127 0.13913 11.204L0.146211 10.2117C0.154959 8.95913 1.17762 7.95063 2.43022 7.95938C2.65642 7.96105 2.88094 7.99646 3.09672 8.06436L5.96684 8.96996L9.87669 1.52474Z" fill="#8CA3B8"/>
</g>
<defs>
<clipPath id="clip0_2206_1549">
<rect width="13.33" height="13.33" fill="white" transform="translate(0 0.335022)"/>
</clipPath>
</defs>
</svg>
