<svg width="41" height="37" viewBox="0 0 41 37" fill="none" xmlns="http://www.w3.org/2000/svg">
<g clip-path="url(#clip0_10957_11531)">
<path d="M11.1484 6.04664V32.2663H22.3051C32.4396 32.2663 36.8339 26.4073 36.8339 18.1408C36.8339 10.2231 32.44 4.06934 22.3051 4.06934H13.0806C12.8268 4.06934 12.5755 4.12048 12.3411 4.21986C12.1066 4.31923 11.8936 4.46489 11.7142 4.6485C11.5348 4.83212 11.3925 5.0501 11.2954 5.28999C11.1983 5.52988 11.1484 5.78699 11.1484 6.04664Z" fill="#CC0066"/>
<path d="M2.99453 1.15592C2.48212 1.1564 1.99082 1.36488 1.62849 1.73559C1.26616 2.1063 1.0624 2.60896 1.06193 3.13322V33.2022C1.0624 33.7265 1.26616 34.2291 1.62849 34.5999C1.99082 34.9706 2.48212 35.179 2.99453 35.1795H21.0239C33.0739 35.1795 39.7109 29.1234 39.7109 18.1272C39.7109 3.36048 28.0027 1.15592 21.0239 1.15592H2.99453ZM21.0239 36.1677H2.99453C2.22606 36.1669 1.4893 35.8542 0.945909 35.2982C0.402519 34.7423 0.0968843 33.9885 0.0960693 33.2022L0.0960693 3.13322C0.0968843 2.34698 0.402519 1.59318 0.945909 1.03722C1.4893 0.481262 2.22606 0.168558 2.99453 0.167725L21.0239 0.167725C38.1235 0.167725 40.6767 11.4195 40.6767 18.1272C40.6767 29.7611 33.6975 36.1677 21.0239 36.1677Z" fill="white"/>
<path d="M14.982 19.7067C15.176 19.7067 15.3647 19.6743 15.5481 19.6104C15.731 19.5461 15.8938 19.4394 16.0363 19.29C16.1797 19.1415 16.294 18.9467 16.3794 18.7068C16.4651 18.4674 16.5082 18.1745 16.5082 17.8293C16.5082 17.5134 16.4779 17.2286 16.4185 16.9743C16.3666 16.7373 16.2656 16.5143 16.1225 16.3205C15.9798 16.1353 15.7922 15.9917 15.5784 15.9038C15.3519 15.807 15.0735 15.7589 14.7423 15.7589H13.7817V19.7072H14.9825L14.982 19.7067ZM15.0766 14.601C15.4707 14.601 15.8384 14.6658 16.1779 14.7945C16.5105 14.9181 16.8121 15.1156 17.0611 15.3728C17.31 15.6302 17.504 15.9519 17.6447 16.338C17.7842 16.7241 17.8545 17.1773 17.8545 17.6979C17.8545 18.1542 17.7974 18.5754 17.683 18.9615C17.5686 19.3467 17.3958 19.6806 17.1644 19.961C16.928 20.2458 16.6319 20.4724 16.298 20.6238C15.9523 20.7849 15.545 20.865 15.0766 20.865H12.4354V14.601H15.0766ZM23.326 14.6015V15.7589H20.0937V17.1012H23.0599V18.1718H20.0937V19.7072H23.3946V20.865H18.7474V14.601L23.326 14.6015ZM28.0128 18.4436L27.2409 16.145H27.2237L26.4268 18.4436H28.0128ZM27.9358 14.601L30.2247 20.865H28.8273L28.3642 19.47H26.0745L25.5946 20.865H24.2399L26.5552 14.601H27.9358ZM32.4177 14.6015V19.7067H35.4014V20.8646H31.0713V14.6006H32.4172L32.4177 14.6015Z" fill="white"/>
<path d="M8.93134 17.733C8.93134 18.1124 8.85829 18.4881 8.71637 18.8387C8.57444 19.1893 8.36642 19.5078 8.10417 19.7761C7.84193 20.0444 7.5306 20.2573 7.18796 20.4025C6.84532 20.5477 6.47808 20.6224 6.10721 20.6224C5.73634 20.6224 5.3691 20.5477 5.02646 20.4025C4.68382 20.2573 4.37249 20.0444 4.11025 19.7761C3.848 19.5078 3.63998 19.1893 3.49806 18.8387C3.35613 18.4881 3.28308 18.1124 3.28308 17.733C3.28308 16.9666 3.58062 16.2317 4.11025 15.6898C4.63988 15.1479 5.35821 14.8435 6.10721 14.8435C6.85622 14.8435 7.57454 15.1479 8.10417 15.6898C8.6338 16.2317 8.93134 16.9666 8.93134 17.733ZM8.24609 32.2662C5.8829 32.2662 3.96657 30.306 3.96657 27.8877V24.4731C3.96657 23.8924 4.19201 23.3356 4.59329 22.925C4.99458 22.5145 5.53883 22.2838 6.10633 22.2838C6.67383 22.2838 7.21809 22.5145 7.61937 22.925C8.02065 23.3356 8.24609 23.8924 8.24609 24.4731V32.2662Z" fill="white"/>
</g>
<defs>
<clipPath id="clip0_10957_11531">
<rect width="40.9039" height="36" fill="white" transform="translate(0.0960693 0.167725)"/>
</clipPath>
</defs>
</svg>
