<svg width="14" height="14" viewBox="0 0 14 14" fill="none" xmlns="http://www.w3.org/2000/svg">
<g clip-path="url(#clip0_2206_1127)">
<path d="M1.15221 0.335007L2.70974 2.85188V11.1386L1.04973 13.665H10.7811L13.33 10.3325H6.61876V0.335007H1.15221ZM3.15046 1.44598H5.50195V11.4435H11.0764L10.2279 12.5545H3.11422L3.82654 11.4706V2.53821L3.74364 2.40491L3.15046 1.44598ZM7.73598 1.5522V2.68567C9.97084 3.19263 11.645 5.18088 11.645 7.55528C11.645 8.13972 11.5425 8.7 11.3559 9.22153H12.5273C12.6785 8.69167 12.7618 8.13306 12.7618 7.55528C12.7618 4.56603 10.5907 2.07624 7.73598 1.5522ZM1.59293 4.05366C1.03057 4.84971 0.652334 5.78198 0.524032 6.79173C0.492374 7.04166 0.476128 7.2966 0.476128 7.55528C0.476128 7.86687 0.499455 8.17305 0.54486 8.47214C0.690657 9.42315 1.05932 10.3017 1.59293 11.0573V4.05366Z" fill="#8CA3B8"/>
</g>
<defs>
<clipPath id="clip0_2206_1127">
<rect width="13.33" height="13.33" fill="white" transform="translate(0 0.335007)"/>
</clipPath>
</defs>
</svg>
