<svg width="16" height="16" viewBox="0 0 16 16" fill="none" xmlns="http://www.w3.org/2000/svg">
<path fill-rule="evenodd" clip-rule="evenodd" d="M7.25924 1.33301C5.48437 1.33301 3.98459 2.51079 3.49883 4.12743L3.48306 4.13479C3.35015 4.19742 3.21106 4.27906 3.0787 4.36602C2.81551 4.53893 2.5282 4.76646 2.30587 4.99238C1.68195 5.62636 1.33331 6.48398 1.33331 7.37603C1.33331 8.26808 1.68195 9.1257 2.30587 9.75968C2.41683 9.87244 2.68519 10.0801 2.94725 10.2508C3.08531 10.3408 3.24392 10.4352 3.40203 10.5097C3.53731 10.5733 3.76067 10.6663 3.99998 10.6663H4.66665V9.99967V9.40708V7.37603V5.25893C4.66665 3.82708 5.82739 2.66634 7.25924 2.66634H7.99998C9.84093 2.66634 11.3333 4.15872 11.3333 5.99967V7.37603V9.40708C11.3333 10.8389 10.1726 11.9997 8.74072 11.9997H8.55284C8.27829 11.2229 7.53746 10.6663 6.66665 10.6663C5.56208 10.6663 4.66665 11.5618 4.66665 12.6663C4.66665 13.7709 5.56208 14.6663 6.66665 14.6663C7.53746 14.6663 8.27829 14.1098 8.55284 13.333H8.74072C10.5096 13.333 12.0053 12.1631 12.4962 10.5548C12.5339 10.5392 12.5681 10.5237 12.5979 10.5097C12.756 10.4352 12.9146 10.3408 13.0527 10.2508C13.3148 10.0801 13.5831 9.87244 13.6941 9.75968C14.318 9.1257 14.6666 8.26808 14.6666 7.37603C14.6666 6.48398 14.318 5.62636 13.6941 4.99238C13.4718 4.76646 13.1845 4.53893 12.9213 4.36602C12.7889 4.27906 12.6498 4.19742 12.5169 4.13479C12.4515 4.10396 12.3505 4.05917 12.2317 4.02974C11.489 2.43692 9.87339 1.33301 7.99998 1.33301H7.25924ZM12.6666 8.88803C12.7078 8.85534 12.7317 8.83473 12.7404 8.82722C12.7437 8.82432 12.7448 8.82338 12.7438 8.82445C13.1201 8.4421 13.3333 7.92128 13.3333 7.37603C13.3333 6.83078 13.1201 6.30997 12.7438 5.92762C12.7198 5.90321 12.6939 5.8782 12.6666 5.85286V5.99967V7.37603V8.88803ZM3.25619 5.92762C3.28021 5.90321 3.30604 5.8782 3.33331 5.85286V7.37603V8.88803C3.29218 8.85534 3.26829 8.83473 3.25959 8.82722C3.25623 8.82432 3.25514 8.82338 3.25619 8.82445C2.87991 8.4421 2.66665 7.92128 2.66665 7.37603C2.66665 6.83078 2.87991 6.30997 3.25619 5.92762ZM5.99998 12.6663C5.99998 12.2982 6.29846 11.9997 6.66665 11.9997C7.03484 11.9997 7.33331 12.2982 7.33331 12.6663C7.33331 13.0345 7.03484 13.333 6.66665 13.333C6.29846 13.333 5.99998 13.0345 5.99998 12.6663Z" fill="#B0C4DE"/>
</svg>