<svg width="20" height="20" viewBox="0 0 20 20" stroke="white" fill="none" xmlns="http://www.w3.org/2000/svg">
<g clip-path="url(#clip0_2071_37125)">
<path d="M1.66669 13.3337V6.66699C1.66669 3.90557 3.90526 1.66699 6.66669 1.66699H13.3334C16.0948 1.66699 18.3334 3.90557 18.3334 6.66699V13.3337C18.3334 16.0951 16.0948 18.3337 13.3334 18.3337H6.66669C3.90526 18.3337 1.66669 16.0951 1.66669 13.3337Z" stroke-width="1.5"/>
<path d="M5 10.8333V9.16667C5 8.24619 5.74619 7.5 6.66667 7.5H9.16667C10.0872 7.5 10.8333 8.24619 10.8333 9.16667V10.8333C10.8333 11.7538 10.0872 12.5 9.16667 12.5H6.66667C5.74619 12.5 5 11.7538 5 10.8333Z" stroke-width="1.5"/>
<path d="M14.1999 7.68294L11.6444 9.59961C11.3777 9.79961 11.3777 10.1996 11.6444 10.3996L14.1999 12.3163C14.5296 12.5635 14.9999 12.3283 14.9999 11.9163V8.08294C14.9999 7.67092 14.5296 7.43572 14.1999 7.68294Z" stroke-width="1.5" stroke-linecap="round" stroke-linejoin="round"/>
</g>
<defs>
<clipPath id="clip0_2071_37125">
<rect width="20" height="20" fill="white"/>
</clipPath>
</defs>
</svg>
