<svg width="13" height="8" viewBox="0 0 13 8" fill="none" xmlns="http://www.w3.org/2000/svg">
<path fill-rule="evenodd" clip-rule="evenodd" d="M2.08281 0.667542C1.16257 0.667542 0.416565 1.41355 0.416565 2.33379V5.66629C0.416565 6.58652 1.16257 7.33254 2.08281 7.33254H11.2472C12.1674 7.33254 12.9134 6.58652 12.9134 5.66629V2.33379C12.9134 1.41355 12.1674 0.667542 11.2472 0.667542H2.08281ZM1.24969 2.33379C1.24969 1.87366 1.62269 1.50067 2.08281 1.50067H11.2472C11.7073 1.50067 12.0803 1.87366 12.0803 2.33379V5.66629C12.0803 6.12643 11.7073 6.49942 11.2472 6.49942H2.08281C1.62269 6.49942 1.24969 6.12643 1.24969 5.66629V2.33379ZM3.28585 2.91698H2.49938V5.24973H4.33892V4.63988H3.28585V2.91698ZM5.60922 2.91698H4.82275V5.24973H5.60922V2.91698ZM8.74715 2.91698L7.76073 5.24973H6.98759L6.00117 2.91698H6.84762L7.40415 4.27997L7.97401 2.91698H8.74715ZM11.0315 5.24973V4.65654H9.86512V4.34995H10.8515V3.78343H9.86512V3.51016H10.9882V2.91698H9.09202V5.24973H11.0315Z" fill="#8CA3B8"/>
</svg>
