<svg width="90" height="59" viewBox="0 0 18 18" fill="none" xmlns="http://www.w3.org/2000/svg">
<g clip-path="url(#clip0_11847_12352)">
<path d="M3.27446 15.6759V14.7489C3.2799 14.6709 3.26865 14.5927 3.24147 14.5194C3.21428 14.4462 3.17179 14.3795 3.11682 14.324C3.06185 14.2684 2.99566 14.2252 2.92268 14.1973C2.84969 14.1693 2.77159 14.1572 2.69357 14.1618C2.59147 14.1552 2.48944 14.176 2.39814 14.2222C2.30684 14.2684 2.2296 14.3383 2.17447 14.4245C2.12423 14.3408 2.05237 14.2723 1.96645 14.2261C1.88053 14.1799 1.78374 14.1577 1.68627 14.1618C1.6013 14.1576 1.51669 14.1756 1.44082 14.214C1.36494 14.2525 1.30043 14.3102 1.25368 14.3812V14.1989H0.93231V15.6759H1.25675V14.8571C1.24974 14.8065 1.254 14.7551 1.26923 14.7064C1.28447 14.6577 1.31029 14.613 1.34486 14.5755C1.37942 14.538 1.42186 14.5086 1.46914 14.4894C1.51641 14.4702 1.56735 14.4618 1.61828 14.4647C1.83148 14.4647 1.93964 14.6037 1.93964 14.854V15.6759H2.26408V14.8571C2.25759 14.8066 2.26222 14.7554 2.27765 14.7069C2.29308 14.6585 2.31893 14.614 2.35338 14.5766C2.38783 14.5392 2.43006 14.5098 2.47709 14.4905C2.52411 14.4711 2.5748 14.4623 2.6256 14.4647C2.84497 14.4647 2.95002 14.6037 2.95002 14.854V15.6759H3.27446ZM8.07615 14.1989H7.5509V13.7509H7.22645V14.1989H6.92675V14.4925H7.22645V15.1661C7.22645 15.509 7.35935 15.713 7.7394 15.713C7.88135 15.7134 8.0206 15.6738 8.14105 15.5986L8.0484 15.3236C7.9622 15.3751 7.8644 15.4038 7.7641 15.4071C7.6034 15.4071 7.5509 15.3082 7.5509 15.1599V14.4925H8.07615V14.1989ZM10.8169 14.1618C10.7386 14.1595 10.6611 14.1784 10.5926 14.2165C10.524 14.2545 10.4671 14.3104 10.4276 14.3781V14.1989H10.1094V15.6759H10.4307V14.8478C10.4307 14.6037 10.5358 14.4677 10.7459 14.4677C10.8146 14.4668 10.8829 14.4794 10.9467 14.5048L11.0456 14.202C10.9722 14.1757 10.8949 14.1622 10.8169 14.1618ZM6.67335 14.3163C6.49145 14.2082 6.28235 14.1546 6.07085 14.1618C5.69695 14.1618 5.45595 14.3411 5.45595 14.6346C5.45595 14.8756 5.63515 15.0239 5.96575 15.0703L6.11715 15.0919C6.2933 15.1166 6.37675 15.163 6.37675 15.2464C6.37675 15.3607 6.2593 15.4256 6.03995 15.4256C5.86345 15.4307 5.6904 15.3763 5.54865 15.2711L5.39725 15.5214C5.5844 15.6521 5.8086 15.7193 6.03685 15.713C6.46325 15.713 6.7104 15.5121 6.7104 15.2309C6.7104 14.9714 6.5158 14.8354 6.19445 14.7891L6.04305 14.7674C5.90395 14.7489 5.79275 14.7211 5.79275 14.6223C5.79275 14.5141 5.89775 14.4492 6.0739 14.4492C6.23565 14.4516 6.3941 14.4952 6.5343 14.5759L6.67335 14.3163ZM15.2819 14.1618C15.2035 14.1595 15.126 14.1784 15.0575 14.2165C14.9889 14.2545 14.932 14.3104 14.8925 14.3781V14.1989H14.5743V15.6759H14.8956V14.8478C14.8956 14.6037 15.0007 14.4677 15.2108 14.4677C15.2795 14.4668 15.3478 14.4794 15.4116 14.5048L15.5105 14.202C15.4371 14.1757 15.3598 14.1622 15.2819 14.1618ZM11.1414 14.9374C11.1371 15.0414 11.1547 15.1452 11.1929 15.2421C11.2312 15.3389 11.2893 15.4267 11.3635 15.4998C11.4377 15.5728 11.5264 15.6295 11.6238 15.6663C11.7213 15.703 11.8254 15.7189 11.9293 15.713C12.1223 15.7227 12.3118 15.6598 12.4608 15.5368L12.3063 15.2773C12.1952 15.362 12.0597 15.4086 11.92 15.4101C11.7996 15.4028 11.6865 15.3499 11.6038 15.262C11.5212 15.1741 11.4751 15.058 11.4751 14.9374C11.4751 14.8168 11.5212 14.7007 11.6038 14.6128C11.6865 14.5249 11.7996 14.472 11.92 14.4647C12.0597 14.4662 12.1952 14.5128 12.3063 14.5975L12.4608 14.338C12.3118 14.215 12.1222 14.1522 11.9293 14.1618C11.8254 14.1559 11.7213 14.1718 11.6239 14.2086C11.5264 14.2453 11.4377 14.302 11.3635 14.375C11.2893 14.4481 11.2312 14.5358 11.1929 14.6327C11.1547 14.7295 11.1371 14.8333 11.1414 14.9374ZM14.151 14.9374V14.1989H13.8296V14.3781C13.7747 14.3074 13.7038 14.2509 13.6226 14.2133C13.5414 14.1757 13.4524 14.158 13.363 14.1618C13.1639 14.1716 12.9762 14.2576 12.8387 14.402C12.7012 14.5463 12.6245 14.7381 12.6245 14.9374C12.6245 15.1368 12.7012 15.3285 12.8387 15.4729C12.9762 15.6173 13.1639 15.7032 13.363 15.713C13.4524 15.7168 13.5414 15.6992 13.6226 15.6615C13.7038 15.6239 13.7748 15.5674 13.8296 15.4967V15.6759H14.151V14.9374ZM12.9551 14.9374C12.9601 14.8502 12.9905 14.7664 13.0426 14.6963C13.0946 14.6262 13.166 14.5729 13.248 14.5429C13.33 14.5129 13.4189 14.5076 13.5039 14.5276C13.5889 14.5475 13.6662 14.5919 13.7262 14.6553C13.7863 14.7186 13.8265 14.7982 13.8419 14.8841C13.8573 14.9701 13.8472 15.0586 13.8128 15.1389C13.7785 15.2191 13.7214 15.2876 13.6486 15.3358C13.5758 15.384 13.4905 15.4098 13.4032 15.4101C13.342 15.411 13.2813 15.3991 13.2249 15.3753C13.1686 15.3515 13.1177 15.3163 13.0756 15.2719C13.0335 15.2275 13.0011 15.1748 12.9804 15.1173C12.9596 15.0597 12.951 14.9984 12.9551 14.9374ZM9.0773 14.1618C8.8769 14.1724 8.6884 14.2601 8.5513 14.4067C8.4142 14.5532 8.3392 14.7472 8.34195 14.9478C8.34475 15.1485 8.42515 15.3403 8.5663 15.4829C8.70745 15.6256 8.89835 15.708 9.09895 15.713C9.3194 15.7207 9.535 15.647 9.70455 15.5059L9.54695 15.268C9.42495 15.3658 9.27385 15.4202 9.11745 15.4225C9.0113 15.4314 8.9058 15.3987 8.82335 15.3312C8.74085 15.2637 8.6879 15.1668 8.6756 15.061H9.77255C9.77565 15.0208 9.7787 14.9807 9.7787 14.9374C9.77565 14.477 9.49135 14.1618 9.0773 14.1618ZM9.0711 14.4492C9.1682 14.4473 9.26205 14.484 9.3321 14.5512C9.4022 14.6183 9.4428 14.7106 9.445 14.8076H8.6787C8.68435 14.7085 8.72855 14.6155 8.8019 14.5485C8.87525 14.4815 8.97185 14.4459 9.0711 14.4492ZM17.1327 14.9374V13.6057H16.8113V14.3781C16.7565 14.3075 16.6855 14.2509 16.6043 14.2133C16.5232 14.1757 16.4342 14.158 16.3448 14.1618C16.1457 14.1716 15.9579 14.2576 15.8204 14.4019C15.683 14.5463 15.6063 14.7381 15.6063 14.9374C15.6063 15.1368 15.683 15.3285 15.8204 15.4729C15.9579 15.6173 16.1457 15.7032 16.3448 15.713C16.4342 15.7168 16.5232 15.6992 16.6043 15.6615C16.6855 15.6239 16.7565 15.5674 16.8113 15.4967V15.6759H17.1327V14.9374ZM17.6684 15.4618C17.6883 15.4617 17.7081 15.4656 17.7265 15.4734C17.7442 15.4808 17.7603 15.4914 17.774 15.5049C17.7876 15.5182 17.7985 15.5341 17.806 15.5516C17.8137 15.5696 17.8177 15.589 17.8177 15.6086C17.8177 15.6282 17.8137 15.6475 17.806 15.6655C17.7984 15.6829 17.7876 15.6988 17.774 15.7121C17.7603 15.7255 17.7442 15.7362 17.7265 15.7437C17.7082 15.7516 17.6884 15.7556 17.6684 15.7555C17.639 15.7558 17.6102 15.7474 17.5855 15.7314C17.5608 15.7154 17.5414 15.6925 17.5297 15.6655C17.522 15.6475 17.518 15.6281 17.518 15.6086C17.518 15.589 17.522 15.5696 17.5297 15.5516C17.5372 15.5341 17.548 15.5183 17.5616 15.5049C17.5752 15.4913 17.5914 15.4806 17.6092 15.4734C17.628 15.4656 17.6481 15.4617 17.6684 15.4618ZM17.6684 15.7231C17.6836 15.7232 17.6987 15.7201 17.7127 15.7141C17.7261 15.7083 17.7383 15.7 17.7486 15.6896C17.77 15.6681 17.7819 15.639 17.7819 15.6086C17.7819 15.5783 17.77 15.5492 17.7486 15.5277C17.7383 15.5174 17.7261 15.5091 17.7127 15.5034C17.6987 15.4975 17.6836 15.4945 17.6684 15.4946C17.6529 15.4945 17.6375 15.4975 17.6232 15.5034C17.6096 15.509 17.5972 15.5173 17.5867 15.5277C17.5654 15.5492 17.5534 15.5783 17.5534 15.6086C17.5534 15.639 17.5654 15.6681 17.5867 15.6896C17.5972 15.7 17.6096 15.7083 17.6232 15.7141C17.6375 15.7201 17.6529 15.7232 17.6684 15.7231ZM17.677 15.5399C17.6915 15.539 17.7058 15.5431 17.7175 15.5516C17.7222 15.5555 17.7259 15.5604 17.7284 15.5659C17.7308 15.5714 17.732 15.5774 17.7317 15.5835C17.7319 15.5886 17.731 15.5938 17.729 15.5986C17.7271 15.6034 17.7241 15.6077 17.7204 15.6113C17.7114 15.6193 17.7001 15.624 17.6882 15.6248L17.7328 15.6763H17.6979L17.6565 15.6252H17.6432V15.6763H17.6141V15.5399H17.677ZM17.6432 15.5655V15.6018H17.6767C17.6831 15.6021 17.6895 15.6006 17.695 15.5973C17.6973 15.5958 17.6991 15.5937 17.7003 15.5913C17.7015 15.5889 17.702 15.5862 17.7019 15.5835C17.702 15.5808 17.7015 15.5782 17.7003 15.5758C17.6991 15.5734 17.6973 15.5714 17.695 15.57C17.6895 15.5667 17.6831 15.5652 17.6767 15.5655H17.6432ZM15.9369 14.9374C15.9419 14.8502 15.9723 14.7664 16.0243 14.6964C16.0764 14.6263 16.1478 14.5729 16.2298 14.543C16.3118 14.513 16.4007 14.5076 16.4857 14.5276C16.5707 14.5476 16.648 14.592 16.708 14.6553C16.7681 14.7187 16.8082 14.7982 16.8236 14.8842C16.839 14.9701 16.8289 15.0587 16.7945 15.1389C16.7602 15.2192 16.7031 15.2876 16.6303 15.3358C16.5575 15.384 16.4722 15.4098 16.3849 15.4101C16.3238 15.411 16.2631 15.3991 16.2067 15.3753C16.1503 15.3515 16.0995 15.3163 16.0574 15.2719C16.0153 15.2275 15.9829 15.1748 15.9621 15.1172C15.9414 15.0597 15.9328 14.9984 15.9369 14.9374ZM5.08515 14.9374V14.1989H4.76379V14.3781C4.70894 14.3074 4.63796 14.2509 4.55679 14.2133C4.47562 14.1757 4.38661 14.158 4.29722 14.1618C4.0981 14.1716 3.91036 14.2576 3.77289 14.402C3.63542 14.5463 3.55874 14.7381 3.55874 14.9374C3.55874 15.1368 3.63542 15.3285 3.77289 15.4729C3.91036 15.6173 4.0981 15.7032 4.29722 15.713C4.38661 15.7168 4.47562 15.6992 4.55679 15.6615C4.63796 15.6239 4.70894 15.5674 4.76379 15.4967V15.6759H5.08515V14.9374ZM3.88937 14.9374C3.89436 14.8502 3.92475 14.7664 3.97679 14.6964C4.02883 14.6263 4.10024 14.5729 4.18223 14.543C4.26421 14.513 4.35317 14.5076 4.43815 14.5276C4.52313 14.5476 4.60041 14.592 4.66045 14.6553C4.7205 14.7187 4.76069 14.7983 4.77606 14.8842C4.79144 14.9701 4.78133 15.0587 4.74698 15.1389C4.71263 15.2192 4.65554 15.2876 4.58276 15.3358C4.50998 15.384 4.42469 15.4098 4.33739 15.4101C4.27621 15.411 4.21551 15.3991 4.15913 15.3753C4.10276 15.3515 4.05192 15.3163 4.00983 15.2719C3.96774 15.2275 3.93531 15.1748 3.91458 15.1172C3.89384 15.0597 3.88526 14.9984 3.88937 14.9374Z" fill="white"/>
<path d="M11.4338 2.94287H6.56655V11.6895H11.4338V2.94287Z" fill="#FF5F00"/>
<path d="M6.87555 7.3165C6.87475 6.47414 7.06565 5.64264 7.43375 4.88496C7.8018 4.12728 8.33745 3.46326 9.0001 2.94319C8.1795 2.29818 7.194 1.89706 6.1562 1.78568C5.11845 1.67429 4.07024 1.85713 3.13145 2.31331C2.19267 2.76948 1.40117 3.48057 0.84741 4.36531C0.29366 5.25006 0 6.27275 0 7.3165C0 8.36025 0.29366 9.38295 0.84741 10.2677C1.40117 11.1525 2.19267 11.8635 3.13145 12.3197C4.07024 12.7759 5.11845 12.9587 6.1562 12.8473C7.194 12.736 8.1795 12.3348 9.0001 11.6898C8.33745 11.1698 7.80185 10.5057 7.43375 9.74805C7.06565 8.99035 6.87475 8.15885 6.87555 7.3165Z" fill="#EB001B"/>
<path d="M18 7.3165C18 8.36025 17.7065 9.3829 17.1527 10.2677C16.599 11.1524 15.8075 11.8635 14.8687 12.3197C13.93 12.7759 12.8818 12.9587 11.8441 12.8473C10.8063 12.736 9.82075 12.3348 9.0002 11.6898C9.66225 11.1692 10.1975 10.5051 10.5655 9.7475C10.9336 8.98995 11.1248 8.1587 11.1248 7.3165C11.1248 6.47427 10.9336 5.64304 10.5655 4.88547C10.1975 4.12791 9.66225 3.46379 9.0002 2.94319C9.82075 2.29818 10.8063 1.89706 11.8441 1.78567C12.8818 1.67429 13.93 1.85713 14.8687 2.31331C15.8075 2.76949 16.599 3.48059 17.1527 4.36533C17.7065 5.25008 18 6.27276 18 7.3165Z" fill="#F79E1B"/>
<path d="M17.4693 10.7632V10.5842H17.5415V10.5477H17.3576V10.5842H17.4299V10.7632H17.4693ZM17.8263 10.7632V10.5473H17.77L17.7051 10.6958L17.6403 10.5473H17.5839V10.7632H17.6237V10.6004L17.6845 10.7408H17.7257L17.7866 10.6V10.7632H17.8263Z" fill="#F79E1B"/>
</g>
<defs>
<clipPath id="clip0_11847_12352">
<rect width="68" height="18" fill="white"/>
</clipPath>
</defs>
</svg>