<svg width="14" height="12" viewBox="0 0 14 12" fill="none" xmlns="http://www.w3.org/2000/svg">
<path fill-rule="evenodd" clip-rule="evenodd" d="M13.6666 1.66663C13.6666 2.21891 13.2189 2.66663 12.6666 2.66663L1.33331 2.66663C0.781028 2.66663 0.333313 2.21891 0.333313 1.66663C0.333313 1.11434 0.781028 0.666626 1.33331 0.666626H12.6666C13.2189 0.666626 13.6666 1.11434 13.6666 1.66663ZM13.6666 6.33329C13.6666 6.88558 13.2189 7.33329 12.6666 7.33329L1.33331 7.33329C0.781028 7.33329 0.333313 6.88558 0.333313 6.33329C0.333313 5.78101 0.781028 5.33329 1.33331 5.33329L12.6666 5.33329C13.2189 5.33329 13.6666 5.78101 13.6666 6.33329ZM12.6666 12C13.2189 12 13.6666 11.5522 13.6666 11C13.6666 10.4477 13.2189 9.99996 12.6666 9.99996L1.33331 9.99996C0.781028 9.99996 0.333313 10.4477 0.333313 11C0.333313 11.5522 0.781028 12 1.33331 12L12.6666 12Z" fill="#8CA3B8"/>
</svg>
