<svg width="14" height="14" viewBox="0 0 14 14" fill="none" xmlns="http://www.w3.org/2000/svg">
<g clip-path="url(#clip0_2206_1452)">
<path d="M0.282426 10.6986L0.339912 3.88869L1.93035 3.9016L2.36441 7.86394H2.37232L2.87303 3.90951L4.4618 3.92409L4.40431 10.7341L3.37874 10.7261L3.42039 5.86194L2.77597 10.7232L1.91285 10.7153L1.34966 5.84278L1.30675 10.7086L0.282843 10.6991L0.282426 10.6986ZM4.95751 10.7403L5.01666 3.92868L6.60376 3.94326L7.03907 7.9056H7.04698L7.54936 3.95117L9.13813 3.96575L9.07898 10.7774L8.05507 10.7678L8.09672 5.9036L7.44897 10.7632L6.58585 10.7553L6.02266 5.88444L5.981 10.7486L4.95709 10.7407L4.95751 10.7403ZM9.22394 10.7774L10.4982 3.977L11.8812 3.98991L13.0409 10.8128L11.8416 10.8015L11.73 10.0184L10.5511 10.0088L10.4253 10.787L9.22394 10.7774ZM11.4938 8.35549L11.178 6.04315H11.1685L10.8144 8.34757L11.4938 8.35549ZM0.237854 0.334991H13.0917V1.28725H0.237854V0.334991ZM0.237854 12.7127H13.0917V13.665H0.237854V12.7127Z" fill="#8CA3B8"/>
</g>
<defs>
<clipPath id="clip0_2206_1452">
<rect width="13.33" height="13.33" fill="white" transform="translate(0 0.334991)"/>
</clipPath>
</defs>
</svg>
