<svg width="14" height="14" viewBox="0 0 14 14" fill="none" xmlns="http://www.w3.org/2000/svg">
<g clip-path="url(#clip0_2206_1764)">
<path d="M11.2501 6.54179L11.6271 5.77198C11.72 5.58203 11.7687 5.37333 11.7687 5.16171C11.7687 4.99925 11.7096 4.84179 11.6021 4.71974L10.5261 3.49546L10.7436 4.25569C10.8481 4.62143 10.5028 4.95635 10.1404 4.83971L7.70724 4.05866C7.33483 3.9391 6.92993 3.97743 6.58668 4.16488L5.41406 4.80472C5.31492 4.85887 5.19995 4.87595 5.08956 4.85304L2.69641 4.35733C2.65225 4.34817 2.60685 4.34359 2.56186 4.34359C2.32233 4.34359 2.11239 4.47064 1.99575 4.66059L4.45472 5.27835C6.28384 5.73782 7.59727 7.3395 7.69016 9.2232L7.72015 9.82805V9.8318C7.73306 10.0942 7.53061 10.3179 7.26818 10.3308C7.25902 10.3313 7.25027 10.3317 7.2411 10.3313H4.28559C3.85112 10.9094 3.16004 11.2835 2.38107 11.2835C1.0664 11.2835 0.000831604 10.2179 0.000831604 8.90328C0.000831604 7.58861 1.0664 6.52304 2.38107 6.52304C3.69574 6.52304 4.76131 7.58861 4.76131 8.90328C4.76131 9.06615 4.74506 9.2257 4.71382 9.37941H6.74456L6.73915 9.27027C6.66708 7.80522 5.64525 6.5597 4.22269 6.20229L1.30592 5.46955C1.09431 5.41623 0.946012 5.22587 0.946012 5.008C0.946012 4.11531 1.66958 3.39216 2.56186 3.39216C2.67183 3.39216 2.7818 3.4034 2.88969 3.4259L5.11205 3.8862L6.13138 3.33009C6.70332 3.01808 7.37857 2.95435 7.99883 3.15347L9.58677 3.66334C9.48679 3.18304 9.77339 2.69941 10.2529 2.56236C10.6044 2.46197 10.9823 2.57278 11.2234 2.84729L12.3178 4.0924C12.5777 4.38816 12.7214 4.7689 12.7214 5.16296C12.7214 5.51954 12.6398 5.87154 12.4827 6.19187L12.159 6.85296C12.8605 7.26702 13.3308 8.03058 13.3308 8.90411C13.3308 10.2188 12.2653 11.2844 10.9506 11.2844C9.63592 11.2844 8.57035 10.2188 8.57035 8.90411C8.57035 7.58944 9.63592 6.52387 10.9506 6.52387C11.0522 6.52387 11.1526 6.53012 11.2509 6.54262L11.2501 6.54179ZM2.38024 10.3313C3.16921 10.3313 3.80863 9.69183 3.80863 8.90286C3.80863 8.11389 3.16921 7.47447 2.38024 7.47447C1.59127 7.47447 0.951844 8.11389 0.951844 8.90286C0.951844 9.69183 1.59127 10.3313 2.38024 10.3313ZM10.9498 10.3313C11.7387 10.3313 12.3782 9.69183 12.3782 8.90286C12.3782 8.11389 11.7387 7.47447 10.9498 7.47447C10.1608 7.47447 9.52137 8.11389 9.52137 8.90286C9.52137 9.69183 10.1608 10.3313 10.9498 10.3313Z" fill="#8CA3B8"/>
</g>
<defs>
<clipPath id="clip0_2206_1764">
<rect width="13.33" height="13.33" fill="white" transform="translate(0 0.334991)"/>
</clipPath>
</defs>
</svg>
