<svg width="14" height="14" viewBox="0 0 14 14" fill="none" xmlns="http://www.w3.org/2000/svg">
<g clip-path="url(#clip0_2206_1778)">
<path fill-rule="evenodd" clip-rule="evenodd" d="M11.6388 5.33792H10.6598C10.614 5.33792 10.5807 5.32542 10.564 5.2796L10.4391 4.99217L10.3141 4.70891C10.3058 4.68808 10.2933 4.67975 10.2683 4.67975H9.16438C9.14355 4.67975 9.13105 4.68391 9.12272 4.70474L8.86029 5.30876C8.85612 5.32125 8.83529 5.33375 8.81863 5.33375L8.77697 5.33792H7.86054C7.77722 5.33792 7.75223 5.33792 7.80222 5.24627L7.81888 5.20878L7.83971 5.15879C7.81594 5.1681 7.79233 5.17783 7.76889 5.18795L7.69391 5.21711C7.50601 5.28743 7.30718 5.3241 7.10656 5.32542L6.04432 5.33375H5.51529C5.46114 5.33375 5.4528 5.32959 5.4528 5.27543V2.03874C5.4528 2.01791 5.4653 2.00542 5.48613 2.00542H6.97742C7.2107 2.00542 7.43564 2.03458 7.65642 2.11789C7.80467 2.16383 7.93582 2.253 8.03305 2.37398C8.13028 2.49496 8.18915 2.64222 8.20212 2.79689C8.21878 2.96351 8.20212 3.1218 8.1188 3.27177C8.05412 3.38991 7.96107 3.49011 7.84804 3.56336V3.57169C7.95635 3.62584 8.06465 3.6925 8.14796 3.77997C8.23128 3.87578 8.29376 3.98825 8.33958 4.11322C8.34729 4.10117 8.35425 4.08865 8.36041 4.07573L8.71449 3.33425L8.90611 2.93435L9.09356 2.53445L9.331 2.03458C9.3435 2.00542 9.356 2.00125 9.37682 2.00125H10.0808C10.11 2.00125 10.1225 2.01375 10.1391 2.03874C10.284 2.35152 10.4326 2.66258 10.5849 2.97184L10.7681 3.35925L10.9389 3.71749C11.2216 4.23641 11.4558 4.78023 11.6388 5.34208V5.33792ZM6.72749 4.52979H6.89411L7.06907 4.52562C7.14405 4.51729 7.21903 4.49646 7.28568 4.4548C7.38982 4.38399 7.42315 4.19237 7.25652 4.11322C7.17321 4.07157 7.08573 4.05907 6.99409 4.0549H6.46922C6.44006 4.0549 6.43589 4.06324 6.44006 4.08406V4.50063C6.44006 4.52562 6.44839 4.53395 6.47338 4.53395H6.72749V4.52979ZM6.68583 3.24261H6.87745C6.9566 3.24261 7.03574 3.23428 7.10656 3.19679C7.13938 3.18094 7.167 3.15607 7.18619 3.12508C7.20537 3.09409 7.21532 3.05827 7.21486 3.02183C7.21486 2.93852 7.17321 2.8802 7.10239 2.8552C7.03158 2.83438 6.9566 2.81771 6.88161 2.81355C6.74562 2.80763 6.60947 2.80624 6.47338 2.80938C6.44839 2.80938 6.44006 2.81771 6.44006 2.84271V3.20928C6.44006 3.23428 6.44839 3.24261 6.46922 3.24261H6.68166H6.68583ZM9.93918 3.86745L9.70591 3.32592L9.46847 3.86745H9.93918Z" fill="#8CA3B8"/>
<path d="M0.845619 10.7324L0.841453 10.7032C0.834452 10.6732 0.831648 10.6424 0.833122 10.6116L1.04557 9.6785C1.0539 9.6535 1.07889 9.62851 1.10389 9.61185C1.62876 9.32025 2.14529 9.02866 2.67016 8.7454L3.39915 8.34133L4.12397 7.93727L4.31558 7.82896L4.50304 7.72482L4.51137 7.72065C4.5322 7.70399 4.55303 7.68733 4.56136 7.6665L4.67383 7.32909V7.31242L4.67799 7.2916H3.07423C3.02008 7.2916 2.99925 7.30826 2.98675 7.35408L2.93676 7.47072L2.87011 7.63734C2.85762 7.679 2.83679 7.69566 2.7868 7.69566H1.45797C1.39132 7.69566 1.38715 7.68316 1.40381 7.62068L1.4663 7.36241C1.52045 7.13747 1.5746 6.90836 1.64125 6.68758C1.7204 6.42515 1.89119 6.23769 2.17029 6.17521C2.21611 6.16688 2.27026 6.16688 2.32025 6.16688H5.77772C5.82771 6.16688 5.88186 6.16688 5.93185 6.17521C6.14013 6.22519 6.27343 6.41681 6.24843 6.65009C6.23177 6.77506 6.20678 6.90003 6.18178 7.02083L6.11513 7.32909L5.99433 7.89561C5.94434 8.14555 5.80271 8.31217 5.57777 8.42464L4.9196 8.75789L4.59052 8.92452L3.75323 9.34108L3.72407 9.35358L3.69491 9.37024L3.69907 9.3869H3.7324L3.76572 9.39107H5.56527C5.65692 9.39107 5.65692 9.39107 5.63609 9.48271L5.51112 10.0659L5.38615 10.6491C5.38198 10.6782 5.36949 10.6991 5.36116 10.7199L5.35283 10.7491C3.8532 10.7324 2.35358 10.7324 0.849785 10.7324H0.845619ZM4.24477 3.87995L4.23227 3.88411C4.22833 3.87973 4.22416 3.87556 4.21978 3.87162L4.21144 3.85912L4.18228 3.81746L4.15313 3.77164L3.40331 2.65942L3.19503 2.35116L2.98675 2.03874C2.97842 2.01791 2.95759 2.00125 2.93676 2.00125H1.82038C1.79538 2.00125 1.77872 2.00125 1.77455 2.00958C1.76622 2.01791 1.76622 2.03041 1.76622 2.05957V5.24211C1.76622 5.28376 1.76622 5.30876 1.77872 5.32125C1.78705 5.32959 1.81204 5.32959 1.8537 5.32959H2.69099C2.74514 5.32959 2.75348 5.32959 2.75348 5.27127V3.40507C2.77014 3.40923 2.77847 3.41756 2.77847 3.42173L2.89094 3.58835L3.22419 4.0799L4.04065 5.29209C4.06148 5.31709 4.07814 5.33375 4.11147 5.33375H5.17787C5.23202 5.33375 5.23202 5.32959 5.23202 5.27543V2.0554C5.23202 2.01375 5.23202 2.00542 5.1862 2.00542H4.29892C4.26976 2.00542 4.25727 2.00542 4.24893 2.01375L4.24477 2.0554V3.87995ZM5.83187 10.7074L5.8402 10.7449H7.49812L7.80638 9.38274C7.82304 9.30776 7.84803 9.23694 7.88136 9.17029L7.91468 9.11614C7.99562 8.9793 8.11076 8.86587 8.24879 8.787C8.38683 8.70812 8.54301 8.66651 8.70199 8.66625H9.61843L9.50179 8.43298C9.48096 8.39549 9.48096 8.37049 9.51429 8.333C10.0814 7.7824 10.6438 7.22696 11.2014 6.66675L11.6304 6.24602C11.6416 6.23405 11.6501 6.21985 11.6554 6.20437L11.6637 6.1877C11.6429 6.17521 11.6221 6.16688 11.5971 6.16688H9.80588C9.77407 6.16509 9.74278 6.17552 9.7184 6.19604L8.2521 7.62068L8.21878 7.64151L8.17712 7.67067L8.19795 7.57902L8.36041 6.93752L8.52287 6.29601C8.53536 6.23353 8.54369 6.2002 8.5312 6.18354C8.5187 6.16688 8.48954 6.16688 8.41873 6.16688H6.9191C6.86911 6.16688 6.83162 6.17521 6.81913 6.23769C6.80766 6.30344 6.79376 6.36875 6.77747 6.43348L6.75247 6.54178C6.61501 7.18329 6.46921 7.8248 6.31925 8.4663L5.83187 10.6533C5.82936 10.6698 5.82936 10.6867 5.83187 10.7032V10.7074Z" fill="#8CA3B8"/>
<path fill-rule="evenodd" clip-rule="evenodd" d="M7.66475 12.8319C7.63967 12.8319 7.61491 12.8263 7.59232 12.8154C7.56973 12.8045 7.54989 12.7886 7.53427 12.769C7.51865 12.7494 7.50767 12.7265 7.50213 12.7021C7.49659 12.6776 7.49665 12.6522 7.50229 12.6278L8.21044 9.47439C8.23537 9.36203 8.2983 9.26172 8.38861 9.19038C8.47892 9.11904 8.59108 9.08105 8.70615 9.08282H12.1303C12.3636 9.08282 12.5677 9.24528 12.6177 9.47439L13.33 12.6236C13.3356 12.648 13.3357 12.6734 13.3302 12.6979C13.3246 12.7223 13.3136 12.7452 13.298 12.7649C13.2824 12.7845 13.2626 12.8003 13.24 12.8112C13.2174 12.8221 13.1926 12.8277 13.1675 12.8277H12.2178C12.1851 12.828 12.1531 12.8187 12.1257 12.8009C12.0983 12.7831 12.0767 12.7577 12.0636 12.7277L11.5888 11.678C11.576 11.6487 11.5551 11.6237 11.5285 11.606C11.5019 11.5883 11.4708 11.5786 11.4388 11.578H9.39765C9.3657 11.5786 9.33457 11.5883 9.30798 11.606C9.28139 11.6237 9.26046 11.6487 9.24769 11.678L8.7728 12.7277C8.75974 12.7577 8.73817 12.7831 8.71076 12.8009C8.68336 12.8187 8.65134 12.828 8.61868 12.8277H7.66475V12.8319ZM9.23102 9.49939C9.20893 9.49939 9.18774 9.50816 9.17211 9.52379C9.15649 9.53941 9.14771 9.5606 9.14771 9.5827V9.91595H8.80613C8.78403 9.91595 8.76284 9.92473 8.74722 9.94035C8.73159 9.95597 8.72282 9.97716 8.72282 9.99926V10.2492C8.72282 10.295 8.76447 10.3325 8.80613 10.3325H9.14771V10.6658C9.14771 10.7116 9.1852 10.7491 9.23102 10.7491H9.48513C9.50722 10.7491 9.52841 10.7403 9.54404 10.7247C9.55966 10.709 9.56844 10.6879 9.56844 10.6658V10.3325H9.91002C9.93212 10.3325 9.95331 10.3237 9.96893 10.3081C9.98456 10.2925 9.99333 10.2713 9.99333 10.2492V9.99926C9.99333 9.97716 9.98456 9.95597 9.96893 9.94035C9.95331 9.92473 9.93212 9.91595 9.91002 9.91595H9.56844V9.5827C9.56844 9.5606 9.55966 9.53941 9.54404 9.52379C9.52841 9.50816 9.50722 9.49939 9.48513 9.49939H9.23102ZM11.3805 10.4825C11.3805 10.6283 11.2555 10.7491 11.1097 10.7491C11.0742 10.7496 11.0388 10.7432 11.0058 10.7301C10.9727 10.717 10.9426 10.6975 10.917 10.6727C10.8915 10.648 10.8711 10.6184 10.857 10.5858C10.8429 10.5531 10.8353 10.518 10.8348 10.4825C10.8348 10.3325 10.9598 10.2117 11.1097 10.2117C11.2597 10.2117 11.3805 10.3367 11.3805 10.4825ZM11.8345 10.7491C11.9845 10.7491 12.1053 10.6283 12.1053 10.4825C12.1053 10.3325 11.9803 10.2117 11.8345 10.2117C11.7986 10.2112 11.763 10.2178 11.7296 10.2311C11.6963 10.2445 11.666 10.2643 11.6404 10.2895C11.6148 10.3147 11.5945 10.3448 11.5806 10.3779C11.5667 10.411 11.5596 10.4466 11.5596 10.4825C11.5596 10.6283 11.6846 10.7491 11.8345 10.7491ZM12.1053 9.76599C12.1053 9.91595 11.9803 10.0368 11.8345 10.0368C11.7986 10.0373 11.763 10.0307 11.7296 10.0173C11.6963 10.004 11.666 9.98413 11.6404 9.95893C11.6148 9.93374 11.5945 9.9037 11.5806 9.87057C11.5667 9.83745 11.5596 9.8019 11.5596 9.76599C11.5596 9.62019 11.6846 9.49939 11.8345 9.49939C11.9845 9.49939 12.1053 9.62019 12.1053 9.76599ZM11.1056 10.0368C11.2597 10.0368 11.3805 9.91178 11.3805 9.76599C11.3805 9.62019 11.2555 9.49939 11.1097 9.49939C11.0742 9.49883 11.0388 9.50529 11.0058 9.51839C10.9727 9.53149 10.9426 9.55098 10.917 9.57574C10.8915 9.60049 10.8711 9.63004 10.857 9.66268C10.8429 9.69532 10.8353 9.73043 10.8348 9.76599C10.8348 9.91595 10.9598 10.0368 11.1097 10.0368H11.1056Z" fill="#8CA3B8"/>
</g>
<defs>
<clipPath id="clip0_2206_1778">
<rect width="13.33" height="13.33" fill="white" transform="translate(0 0.334991)"/>
</clipPath>
</defs>
</svg>
