<svg width="13" height="12" viewBox="0 0 13 12" fill="none" xmlns="http://www.w3.org/2000/svg">
<path d="M6.5 11.8964C6.43082 11.8964 6.36165 11.8862 6.29119 11.8657C6.27069 11.8593 6.25148 11.8529 6.23226 11.8452C6.18615 11.8272 6.13875 11.8029 6.09647 11.7747C6.08238 11.7657 6.06573 11.7542 6.05036 11.7427C6.0004 11.7043 5.95556 11.6607 5.91841 11.612L0.15885 4.6201C0.152445 4.61242 0.146039 4.60473 0.140915 4.59704C0.131948 4.58423 0.1217 4.56886 0.112732 4.55349C0.102484 4.53812 0.0909546 4.5189 0.0794252 4.49712C0.0704579 4.47791 0.0602096 4.45613 0.0525234 4.43435C0.0435561 4.41257 0.0358698 4.38695 0.0281836 4.36005C0.0192163 4.32931 0.0115301 4.296 0.00768694 4.26141C0.00384382 4.23195 0.00128174 4.19864 0.00128174 4.16405C0.00128174 4.12818 0.00256278 4.09744 0.00768694 4.06413C0.0115301 4.03082 0.0192163 3.9988 0.0269025 3.96805C0.0333078 3.94371 0.040994 3.92065 0.0499613 3.8976C0.0589286 3.87197 0.0691769 3.84764 0.0807063 3.8233C0.0871115 3.81049 0.0960787 3.79639 0.105046 3.7823C0.105046 3.7823 0.105046 3.78102 0.106327 3.77974L1.70891 0.703962C1.71916 0.683465 1.73197 0.662968 1.74478 0.645034C1.75759 0.625818 1.7768 0.604041 1.79346 0.584825C1.80755 0.569452 1.82036 0.556642 1.83317 0.542551C1.86007 0.51693 1.88825 0.49259 1.92156 0.470812C1.94206 0.456721 1.96127 0.44391 1.98177 0.432381C2.02404 0.408041 2.06248 0.392669 2.08938 0.38242C2.11116 0.373453 2.13293 0.367048 2.15471 0.360643C2.21876 0.343989 2.28025 0.335022 2.34174 0.335022H10.6544C10.8914 0.335022 11.1156 0.450316 11.2527 0.642472C11.2668 0.661687 11.2796 0.683465 11.2911 0.705243L12.8834 3.76437C12.8885 3.77205 12.8924 3.77974 12.8962 3.78615C12.9052 3.80024 12.9142 3.81561 12.9206 3.82842C12.9283 3.84251 12.9347 3.8566 12.9411 3.87198C12.9462 3.88222 12.95 3.89247 12.9552 3.90528C12.9564 3.90913 12.959 3.91425 12.9603 3.91809C12.9667 3.93731 12.9744 3.96293 12.9795 3.98599C12.9833 4.00136 12.9872 4.01673 12.9898 4.03339C12.9936 4.0526 12.9987 4.07822 13 4.10897C13.0013 4.13075 13.0013 4.15765 13 4.18327C13 4.19864 13 4.21529 12.9974 4.23323C12.9974 4.25244 12.9936 4.27806 12.9885 4.30753C12.9833 4.33187 12.9769 4.35621 12.968 4.38055C12.968 4.38055 12.968 4.38183 12.968 4.38311C12.9629 4.39848 12.9577 4.41386 12.9526 4.42923C12.9449 4.45229 12.9359 4.47406 12.9244 4.49584C12.9219 4.49968 12.9193 4.50481 12.918 4.50865C12.9116 4.52146 12.9039 4.53427 12.895 4.54708C12.886 4.56374 12.8732 4.58295 12.8591 4.60217C12.854 4.60857 12.8488 4.61626 12.8437 4.62266L7.08672 11.6107C7.05085 11.6581 7.00473 11.7043 6.95093 11.744C6.93684 11.7542 6.91762 11.7683 6.8984 11.7798C6.86254 11.8029 6.8177 11.826 6.77158 11.8452C6.74724 11.8554 6.72675 11.8618 6.70497 11.8682C6.6422 11.8874 6.57174 11.8977 6.50256 11.8977L6.5 11.8964ZM1.07992 4.1269L6.49872 10.705L11.9175 4.12818L10.4764 1.35985H2.52237L1.07992 4.1269ZM1.7909 0.588668C1.7909 0.588668 1.78321 0.597635 1.77937 0.602759C1.78321 0.597635 1.78705 0.593792 1.7909 0.588668Z" fill="#8CA3B8"/>
<path d="M12.4786 4.7354H0.521388C0.238278 4.7354 0.00897217 4.5061 0.00897217 4.22299C0.00897217 3.93988 0.238278 3.71057 0.521388 3.71057H12.4799C12.763 3.71057 12.9923 3.93988 12.9923 4.22299C12.9923 4.5061 12.763 4.7354 12.4799 4.7354H12.4786Z" fill="#8CA3B8"/>
<path d="M6.5 11.8964C6.30144 11.8964 6.12081 11.7824 6.03626 11.6031L2.65303 4.44204C2.63894 4.41129 2.62741 4.37927 2.61844 4.34596L1.78961 0.978104C1.72172 0.70268 1.88953 0.425975 2.16496 0.35808C2.44038 0.290185 2.71708 0.458001 2.78498 0.733425L3.601 4.05004L6.49872 10.1849L9.39643 4.05388L10.1548 0.733425C10.2176 0.458001 10.4917 0.285061 10.7684 0.347832C11.0438 0.410603 11.2168 0.686027 11.154 0.96145L10.3841 4.33699C10.3764 4.37286 10.3636 4.40873 10.3482 4.44204L6.96373 11.6031C6.87919 11.7824 6.69856 11.8964 6.5 11.8964Z" fill="#8CA3B8"/>
<path d="M3.11679 4.7354C2.98484 4.7354 2.85417 4.68544 2.75425 4.58551C2.55441 4.38567 2.55441 4.06029 2.75425 3.86045L6.13876 0.484904C6.3386 0.285061 6.66271 0.285061 6.86255 0.484904L10.2458 3.86045C10.4456 4.06029 10.4469 4.38439 10.2458 4.58551C10.0459 4.78536 9.72183 4.78664 9.52071 4.58551L6.49873 1.57123L3.47676 4.58551C3.37684 4.68544 3.24617 4.7354 3.11551 4.7354H3.11679Z" fill="#8CA3B8"/>
</svg>
