<svg width="12" height="14" viewBox="0 0 12 14" fill="none" xmlns="http://www.w3.org/2000/svg">
<path d="M7.97862 13.335H3.39705C2.76162 13.335 2.24626 12.8183 2.24626 12.1842C2.24626 11.5501 2.76297 11.0334 3.39705 11.0334H4.5357V10.854C3.30531 11.0968 2.02501 10.7218 1.11436 9.81112C0.396638 9.09205 0 8.13553 0 7.11831C0 6.10108 0.396638 5.14321 1.11571 4.42549L4.87433 0.665524C5.31548 0.224366 6.06154 0.224366 6.5027 0.665524L10.2613 4.42414C10.9804 5.14321 11.377 6.09973 11.377 7.11696C11.377 8.13418 10.9804 9.0907 10.2613 9.80978C9.54224 10.5288 8.58572 10.9255 7.56849 10.9255C7.3243 10.9255 7.08147 10.9012 6.83997 10.8526V11.0321H7.97862C8.61405 11.0321 9.12941 11.5488 9.12941 12.1829C9.12941 12.8169 8.6127 13.3336 7.97862 13.3336V13.335ZM3.3984 12.1114C3.35928 12.1114 3.3269 12.1437 3.3269 12.1829C3.3269 12.222 3.35928 12.2544 3.3984 12.2544H7.97862C8.01775 12.2544 8.05012 12.222 8.05012 12.1829C8.05012 12.1437 8.01775 12.1114 7.97862 12.1114H6.30033C6.00218 12.1114 5.76069 11.8699 5.76069 11.5717V10.1214C5.76069 9.94064 5.85108 9.772 6.00218 9.67217C6.15328 9.57233 6.3435 9.55344 6.51079 9.62495C6.85886 9.772 7.21503 9.8462 7.56849 9.8462C8.29701 9.8462 8.98236 9.56289 9.49907 9.04618C10.0144 8.53082 10.2977 7.84547 10.2977 7.11561C10.2977 6.38574 10.0144 5.70039 9.49907 5.18638L5.74045 1.42777C5.72156 1.40888 5.65681 1.40888 5.63927 1.42777L1.88066 5.18638C1.3653 5.70174 1.08064 6.38709 1.08064 7.11696C1.08064 7.84682 1.36395 8.53217 1.88066 9.04618C2.66584 9.83136 3.83956 10.0607 4.86893 9.62899C5.03622 9.55884 5.22644 9.57773 5.37619 9.67756C5.52729 9.7774 5.61768 9.94604 5.61768 10.1268V11.5717C5.61768 11.8699 5.37619 12.1114 5.07804 12.1114H3.39975H3.3984Z" fill="#8CA3B8"/>
</svg>
