<svg width="16" height="16" viewBox="0 0 16 16" fill="none" xmlns="http://www.w3.org/2000/svg">
<path d="M1.33332 12.1663C1.33332 8.48926 3.6617 6.16374 5.2604 4.97624C5.53123 4.77311 5.78123 4.60645 5.99477 4.46842L4.50779 2.3127C4.2005 1.89811 4.52081 1.33301 5.02342 1.33301H10.9765C11.4791 1.33301 11.776 1.89811 11.4922 2.3127L9.98175 4.46842C10.2187 4.60645 10.4687 4.77311 10.7396 4.97624C12.3385 6.16374 14.6666 8.48926 14.6666 12.1663C14.6666 13.5465 13.5469 14.6663 12.1666 14.6663H3.83331C2.45258 14.6663 1.33332 13.5465 1.33332 12.1663ZM8.97133 5.29134H7.02863L6.66925 5.52051C5.263 6.42155 2.58331 8.54655 2.58331 12.1663C2.58331 12.8564 3.14295 13.4163 3.83331 13.4163H12.1666C12.8568 13.4163 13.4166 12.8564 13.4166 12.1663C13.4166 8.54655 10.737 6.42155 9.33071 5.52051L8.97133 5.29134ZM9.78644 2.58301H6.21352L7.21873 4.04134H8.75779L9.78644 2.58301Z" fill="#D3EAFD"/>
</svg>
