<svg width="14" height="14" viewBox="0 0 14 14" fill="none" xmlns="http://www.w3.org/2000/svg">
<path fill-rule="evenodd" clip-rule="evenodd" d="M3.63659 9.13988C4.3535 10.163 5.26118 10.9698 6.40632 11.4851L6.50296 11.0548C5.42031 10.5529 4.57552 9.76348 3.90444 8.77955C3.75723 8.56392 3.61814 8.34284 3.48746 8.1168C3.38665 7.95018 3.43914 7.83146 3.62784 7.78772C3.68491 7.77439 3.74656 7.76981 3.8078 7.76564C3.82404 7.76564 3.83987 7.76439 3.85529 7.76314C3.86945 7.76231 3.8832 7.76106 3.89569 7.76106C5.03541 7.8552 6.10056 8.1443 7.05865 8.73665C7.11156 8.63667 7.18195 8.5492 7.26527 8.47588C6.94515 8.23334 6.60354 8.02057 6.24469 7.84021C5.58652 7.50196 4.88794 7.29992 4.15938 7.17704C3.8607 7.12872 3.56661 7.03208 3.28543 6.91794C2.91677 6.76423 2.67975 6.47471 2.59185 6.0794C2.52241 5.76813 2.45506 5.45639 2.38982 5.14421C2.37232 5.06507 2.35483 4.98592 2.3415 4.91136C2.33733 4.88511 2.33275 4.85887 2.33275 4.82804C2.33275 4.81971 2.33192 4.81055 2.33067 4.80055C2.32942 4.78972 2.32817 4.77806 2.32817 4.76681C2.8597 5.09173 3.38624 5.10922 3.95693 4.82388L3.96401 4.87386L3.97026 4.92469C3.98359 4.99508 3.99692 5.06507 3.98359 5.12672C3.92652 5.38124 4.00108 5.57869 4.20312 5.7324C4.40057 5.88653 4.61135 5.92568 4.84421 5.79405C4.87503 5.77656 4.92752 5.7853 4.96709 5.79405C4.99375 5.79947 5.01999 5.8078 5.04749 5.81655C5.0654 5.82238 5.08415 5.82821 5.10331 5.83321C5.1208 5.83779 5.13413 5.84237 5.15163 5.85112C5.10747 6.07065 5.08123 6.29018 5.23494 6.47888C5.35783 6.62843 5.52029 6.72923 5.70482 6.77756C5.97684 6.84795 6.26718 6.65009 6.47755 6.26393L6.51504 6.28143C6.53378 6.29059 6.55295 6.29976 6.57419 6.30767C6.64917 6.34725 6.72332 6.38265 6.78914 6.37349C6.96951 6.3385 7.10114 6.41306 7.23278 6.48763L7.25444 6.50012C7.28776 6.51887 7.324 6.53928 7.36024 6.55344C7.47855 6.61051 7.60602 6.65883 7.73348 6.70299C7.79055 6.72049 7.81263 6.74673 7.82096 6.80838C7.85637 7.0454 8.0759 7.23869 8.31251 7.26035C8.48413 7.27368 8.60702 7.1812 8.7299 7.03666C8.73993 7.04703 8.74912 7.05817 8.75739 7.06998L8.76531 7.0804C8.79155 7.1158 8.8178 7.14663 8.84446 7.17287C9.08148 7.38782 9.36682 7.4803 9.67841 7.49363H9.7309C9.75756 7.49363 9.7838 7.49363 9.81005 7.49779C10.0779 7.52404 10.2099 7.73482 10.1266 7.98934L10.1208 8.00392C10.1096 8.03516 10.0971 8.0689 10.0779 8.09931L10.0529 8.14138C10.0312 8.17762 10.0104 8.2122 9.99167 8.24969H10.4882C10.5007 8.22886 10.512 8.20803 10.5236 8.1872C10.5357 8.16513 10.5478 8.14305 10.5611 8.12097C11.3601 6.65883 11.8254 5.11339 11.6629 3.42298C11.6588 3.36174 11.6413 3.31759 11.5884 3.2826C11.2593 3.05432 10.9164 2.8702 10.5478 2.72024C9.78797 2.41323 8.99358 2.24619 8.18129 2.17162C6.87286 2.04874 5.57319 2.07498 4.28643 2.34283C4.2326 2.35131 4.17757 2.33879 4.13272 2.30784C3.56203 1.88628 2.7893 1.89961 2.24486 2.34741C1.67 2.78647 1.51171 3.54586 1.82329 4.19154C1.84537 4.23986 1.8587 4.30109 1.86287 4.35816C1.88036 4.49021 1.89369 4.62184 1.90661 4.75348L1.91994 4.86637C1.94576 5.09214 1.97159 5.31792 2.01658 5.5437C2.28443 6.86087 2.86387 8.0464 3.63701 9.13988H3.63659ZM5.88353 4.53728L5.92435 4.52062C5.99933 4.49021 6.07806 4.45939 6.15263 4.46355C6.56503 4.48105 6.97826 4.50312 7.36483 4.67891C7.39011 4.68779 7.41676 4.69216 7.44356 4.69183C7.45022 4.69183 7.45689 4.69308 7.46313 4.69433C7.46973 4.69559 7.47642 4.69629 7.48313 4.69641L7.4873 4.66558L7.47188 4.65892C7.46647 4.65684 7.46105 4.65475 7.45689 4.65225C7.43897 4.64392 7.42148 4.63476 7.40398 4.63059C7.33817 4.6131 7.33358 4.57352 7.3515 4.51645C7.36899 4.44606 7.41273 4.45064 7.45689 4.46813C7.5227 4.49438 7.59269 4.5252 7.6585 4.55561C7.69808 4.57352 7.73765 4.59102 7.77264 4.60851C7.85179 4.64351 7.88678 4.69183 7.83429 4.76681L7.90011 4.8193C7.95301 4.85887 8.00133 4.89844 8.04507 4.94676C8.09923 5.00716 8.15005 5.07298 8.20087 5.13797L8.24669 5.19712C8.2646 5.2192 8.28168 5.24127 8.29834 5.26377C8.3275 5.30251 8.35666 5.34041 8.38749 5.37707C8.40374 5.39533 8.4219 5.41181 8.44164 5.42623L8.46247 5.44289L8.50162 5.46913L8.49038 5.49538C8.4864 5.50397 8.48279 5.51272 8.47955 5.52162C8.46755 5.54582 8.45738 5.57088 8.44914 5.5966C8.45848 5.59861 8.46794 5.6 8.47746 5.60077C8.48746 5.60202 8.49746 5.60285 8.50621 5.60493C8.6645 5.62284 8.8178 5.64492 8.9186 5.7853C8.86612 5.81613 8.81363 5.84571 8.76073 5.87528C8.70824 5.90486 8.65534 5.93443 8.60243 5.96526C8.54595 5.99583 8.49039 6.02806 8.43581 6.0619C8.50537 6.09523 8.53703 6.11064 8.56702 6.10814C8.59202 6.10606 8.61618 6.09231 8.65992 6.06648C8.81821 5.97401 8.99317 5.93027 9.17354 5.96109C9.81921 6.08398 10.337 6.38224 10.5915 7.03666L10.5961 7.03249C10.6003 7.02791 10.6048 7.02333 10.6094 7.01458C11.0352 6.00483 11.2809 4.95551 11.2459 3.8487C11.2418 3.64251 11.171 3.51962 10.9868 3.41881C10.1966 2.98392 9.34016 2.75564 8.4533 2.63692C7.20153 2.47058 5.93198 2.49135 4.68633 2.69858C4.653 2.70274 4.6201 2.70857 4.58719 2.71399C4.55428 2.7194 4.52137 2.72482 4.48846 2.7294C4.82213 3.37507 4.76506 3.96742 4.326 4.52937C4.39182 4.54686 4.45347 4.56478 4.51054 4.58227C4.50179 4.57352 4.49304 4.56478 4.4843 4.55145C4.47555 4.5427 4.46638 4.53395 4.45764 4.52062C4.48638 4.50979 4.5147 4.49771 4.54345 4.48563C4.57678 4.47109 4.61039 4.45721 4.64426 4.44397C4.64948 4.44196 4.65462 4.43973 4.65967 4.43731L4.66883 4.43314C4.69716 4.42064 4.72715 4.40815 4.7434 4.41981C4.82671 4.4548 4.91002 4.49479 4.98917 4.53395C5.0504 4.56478 5.11206 4.59518 5.17329 4.62143C5.17329 4.62143 5.17787 4.62143 5.17787 4.62601C5.21286 4.64351 5.25702 4.66142 5.29201 4.65684L5.45864 4.63059L5.62568 4.60435C5.70066 4.58227 5.76189 4.56894 5.82313 4.56019C5.8006 4.57152 5.77797 4.58263 5.75523 4.59352L5.68733 4.62601C5.67608 4.63267 5.664 4.63851 5.65192 4.64351C5.63993 4.64882 5.62825 4.6548 5.61693 4.66142C5.61693 4.66558 5.6161 4.66975 5.61485 4.67433C5.6136 4.67867 5.6129 4.68315 5.61276 4.68766C5.63359 4.69516 5.654 4.70141 5.67525 4.70807C5.69066 4.71224 5.70607 4.71724 5.72232 4.72265C5.87145 4.77097 6.021 4.8193 6.17012 4.86303C6.1922 4.86762 6.22303 4.86303 6.24511 4.8547C6.33258 4.80597 6.42048 4.75806 6.52129 4.69641C6.53045 4.69224 6.5392 4.68641 6.54795 4.681C6.55646 4.67547 6.56522 4.67033 6.57419 4.66558C6.5242 4.65225 6.47421 4.63392 6.42589 4.61601C6.41092 4.61052 6.39593 4.60511 6.3809 4.59977C6.20553 4.52937 6.03849 4.46813 5.84979 4.56478H5.83646C5.83146 4.56478 5.82938 4.56311 5.82729 4.56186C5.82604 4.56103 5.82521 4.56019 5.82313 4.56019C5.8437 4.55376 5.86387 4.54611 5.88353 4.53728ZM3.18004 2.41281C3.78155 2.40865 4.27352 2.90019 4.27352 3.50629C4.27412 3.64989 4.24643 3.7922 4.19204 3.9251C4.13764 4.05799 4.0576 4.17888 3.95649 4.28084C3.85537 4.3828 3.73517 4.46385 3.60273 4.51936C3.47029 4.57487 3.32822 4.60375 3.18462 4.60435C2.89419 4.60446 2.61557 4.48942 2.40982 4.28445C2.20407 4.07948 2.08797 3.8013 2.08698 3.51087C2.08654 3.36699 2.11448 3.22443 2.1692 3.09136C2.22392 2.95829 2.30435 2.83732 2.40587 2.73537C2.5074 2.63341 2.62804 2.55248 2.76088 2.49721C2.89372 2.44193 3.03616 2.41298 3.18004 2.41281ZM8.83529 6.93585C8.82306 6.92699 8.80977 6.91972 8.79572 6.91419C8.90986 6.62884 9.0065 6.35641 8.68158 6.14563C9.19978 5.89986 10.1704 6.57594 10.2404 7.23452C10.0716 7.1208 9.88211 7.11206 9.69633 7.10372L9.67425 7.10289C9.6505 7.10289 9.62676 7.10206 9.6026 7.10081C9.57761 7.09956 9.55178 7.09831 9.5247 7.09831C9.31392 7.0854 9.10314 7.0679 8.90986 6.97542C8.88289 6.96666 8.85766 6.95327 8.83529 6.93585ZM4.60718 5.70241C4.43597 5.69366 4.326 5.56161 4.36141 5.39498L4.3914 5.41373C4.40723 5.42331 4.42223 5.43248 4.43597 5.44289C4.44556 5.44955 4.45514 5.45539 4.4643 5.4608C4.48804 5.47538 4.51012 5.48871 4.53262 5.50454C4.61176 5.56619 4.66842 5.5487 4.71674 5.46497C4.72411 5.4493 4.7338 5.43484 4.74548 5.42206L4.75631 5.4079C4.75881 5.40373 4.76173 5.4004 4.76506 5.39707C4.76854 5.39395 4.77149 5.3903 4.77381 5.38624C4.76229 5.35376 4.74445 5.32388 4.72132 5.29834C4.67758 5.23669 4.63384 5.17546 4.68175 5.07423C4.70924 5.10881 4.73382 5.14296 4.76048 5.17962L4.78255 5.21045C4.81338 5.25002 4.84421 5.29376 4.8792 5.34666L5.03749 5.18837C5.04166 5.21586 5.02791 5.24669 5.01541 5.27501L5.01125 5.28501C4.98459 5.34208 4.95834 5.39915 5.01541 5.45164C5.0504 5.48288 5.14705 5.4783 5.19995 5.45622C5.30076 5.41248 5.32742 5.31584 5.2791 5.18837H5.78814C5.78814 5.1867 5.78897 5.18504 5.7898 5.18295C5.79164 5.17919 5.79264 5.17507 5.79272 5.17087C5.79272 5.16921 5.79355 5.16754 5.79438 5.16504C5.79602 5.16137 5.79688 5.1574 5.79688 5.15338C5.7469 5.14005 5.69691 5.12589 5.64775 5.11172C5.59823 5.0972 5.54851 5.08331 5.49863 5.07007H5.52487L5.53737 5.0709C5.70899 5.0834 5.87895 5.09631 5.99017 5.2721C6.02534 5.32512 6.07818 5.36395 6.1393 5.38165C6.23178 5.40373 6.30634 5.44331 6.36341 5.52204C6.43381 5.61868 6.50379 5.7199 6.56961 5.82071L6.71457 6.03149C6.73082 6.05565 6.74873 6.0769 6.76706 6.09814L6.80247 6.14146C6.80955 6.15063 6.81788 6.15979 6.82663 6.17021C6.83413 6.17854 6.84246 6.18812 6.85079 6.19853C6.8315 6.19344 6.81246 6.18746 6.79372 6.18062C6.71395 6.15615 6.63478 6.12976 6.55628 6.10147C6.53462 6.09314 6.51254 6.04899 6.51254 6.02274C6.51254 5.7199 6.36341 5.52204 6.09139 5.41248C5.80563 5.29834 5.55111 5.32917 5.33158 5.55286C5.28326 5.60577 5.23952 5.63201 5.16496 5.61451C5.09414 5.60118 5.03291 5.59244 4.97167 5.67575C4.93627 5.72407 4.83546 5.76364 4.7434 5.71532C4.71549 5.70157 4.68175 5.69866 4.64967 5.69574C4.64133 5.69516 4.633 5.69447 4.62468 5.69366C4.61593 5.70657 4.61135 5.70657 4.60718 5.70199V5.70241ZM7.51812 5.16213C7.52229 5.17337 7.52604 5.1842 7.52937 5.19545C7.5325 5.20644 7.53611 5.21728 7.5402 5.22794C7.47355 5.23211 7.40732 5.23544 7.34275 5.23877C7.16083 5.24822 6.97893 5.25794 6.79705 5.26793L6.63126 5.27626C6.55628 5.28043 6.36341 5.08756 6.36341 5.00425C6.35924 4.98217 6.37216 4.95593 6.38965 4.9426L6.41381 4.9251L6.43797 4.90761L6.45297 4.89636C6.5971 4.79014 6.73956 4.68558 6.94743 4.7364C6.99742 4.74973 7.04949 4.75556 7.10239 4.76139C7.11947 4.76306 7.13655 4.76473 7.15363 4.76723L7.16488 4.76806C7.20986 4.77222 7.2586 4.77639 7.30317 4.78472C7.33817 4.78889 7.38649 4.81096 7.39523 4.84179C7.43897 4.9426 7.47855 5.04757 7.51812 5.16213ZM4.50637 4.7364C4.42306 4.74473 4.38307 4.78014 4.37891 4.87262C4.38724 4.87678 4.3964 4.88095 4.40057 4.88553C4.42473 4.90094 4.44889 4.9151 4.47305 4.92968C4.49721 4.94385 4.52137 4.95801 4.54553 4.97342C4.46638 5.12255 4.47971 5.19295 4.59385 5.25002C4.59208 5.25198 4.59067 5.25424 4.58969 5.25669L4.58552 5.26335C4.58366 5.26517 4.58211 5.26728 4.58094 5.2696C4.57969 5.2721 4.57844 5.27418 4.57636 5.27626C4.57232 5.27409 4.56866 5.27128 4.56553 5.26793C4.56232 5.26426 4.55852 5.26116 4.55428 5.25877L4.51679 5.23253C4.50461 5.22353 4.49225 5.21478 4.47971 5.20628C4.4618 5.19378 4.44347 5.18379 4.42389 5.17296C4.40654 5.16377 4.38932 5.15433 4.37224 5.14463C4.36431 5.13997 4.35625 5.13552 4.34808 5.1313C4.37432 5.33333 4.36558 5.35541 4.22519 5.35083V5.2192C4.22519 5.1942 4.22519 5.16879 4.22436 5.14338C4.22353 5.06798 4.22269 4.99217 4.22936 4.91635C4.23353 4.8547 4.25144 4.79763 4.27352 4.7364C4.27571 4.73134 4.27725 4.72602 4.2781 4.72057C4.2792 4.7155 4.28059 4.71049 4.28226 4.70557C4.31309 4.6181 4.36141 4.58269 4.47097 4.61351C4.55428 4.63517 4.64217 4.63976 4.73007 4.63976C4.76506 4.63976 4.80047 4.63976 4.83546 4.64392V4.67933L4.75631 4.69224C4.66883 4.71432 4.58969 4.72765 4.50637 4.7364ZM7.1932 5.35083L7.76389 5.37749V5.41248H7.73348C7.42148 5.42581 7.11405 5.43872 6.84204 5.64076C6.80798 5.59429 6.77438 5.54749 6.74123 5.50037C6.7279 5.48246 6.7154 5.46455 6.70332 5.44664C6.68322 5.41704 6.6621 5.38814 6.64001 5.35999C6.64181 5.35413 6.6432 5.34814 6.64417 5.34208C6.64532 5.33616 6.64685 5.33031 6.64875 5.32459L7.1932 5.35083ZM8.25127 6.014C8.26252 6.01816 8.2721 6.02274 8.2821 6.02733L8.31292 6.04024C8.13672 6.16937 7.98592 6.1173 7.82346 6.0619L7.81221 6.05774C7.76389 6.04024 7.71557 6.02274 7.66725 6.00941C7.68516 5.99192 7.70266 5.97442 7.72015 5.96151L7.76847 5.91735C7.78514 5.90194 7.80097 5.88736 7.8168 5.87361C7.75098 5.8078 7.77306 5.75073 7.84762 5.71532C7.89594 5.69366 7.94843 5.67158 7.99675 5.65409L8.12838 5.60118C8.15215 5.5913 8.17433 5.57797 8.1942 5.56161C8.21861 5.54371 8.24521 5.52901 8.27335 5.51787C8.31005 5.50531 8.3487 5.49938 8.38749 5.50037C8.39489 5.50019 8.40226 5.4995 8.40956 5.49829C8.41706 5.49704 8.42498 5.49579 8.43164 5.49579C8.43372 5.49996 8.43456 5.50371 8.43581 5.50704C8.43693 5.51075 8.43832 5.51437 8.43997 5.51787C8.44247 5.52204 8.44372 5.52537 8.44456 5.5287C8.44564 5.53256 8.44703 5.53632 8.44872 5.53995L8.40956 5.56619C8.40479 5.56903 8.40007 5.57194 8.3954 5.57494C8.37791 5.58619 8.35999 5.59785 8.33916 5.60118C8.27395 5.62222 8.2081 5.64125 8.14171 5.65825C8.10506 5.6695 8.06923 5.6795 8.03341 5.68949C7.98425 5.70366 7.93552 5.71782 7.88678 5.73282C7.86928 5.7374 7.85637 5.75948 7.84304 5.78114C7.84096 5.7853 7.83762 5.78989 7.83429 5.79447C7.83096 5.79863 7.82763 5.80322 7.82554 5.8078C7.82971 5.80988 7.83304 5.81321 7.83637 5.81613C7.83971 5.81988 7.84304 5.82321 7.84762 5.82529C7.85429 5.83029 7.86095 5.83654 7.86678 5.84196C7.87533 5.85098 7.88515 5.8587 7.89594 5.86487L8.04049 5.92527L8.25127 6.014ZM4.16812 4.9251C4.15938 5.02633 4.15063 5.12713 4.14188 5.24127H4.0669C4.0669 5.23919 4.06607 5.23794 4.06482 5.23711C4.06357 5.23586 4.06273 5.23461 4.06273 5.23253C4.05857 5.22836 4.05857 5.22378 4.05857 5.2192C4.05857 5.20378 4.05732 5.18754 4.05607 5.17087C4.05482 5.15421 4.05399 5.13797 4.05399 5.12255C4.04525 5.01447 4.0408 4.90607 4.04066 4.79763C4.04066 4.67475 4.10231 4.57394 4.20312 4.49479C4.19895 4.50354 4.19437 4.51229 4.1902 4.52562C4.16218 4.5747 4.13849 4.62613 4.11939 4.67933C4.11106 4.70557 4.11106 4.75848 4.11939 4.76264C4.19395 4.79305 4.18604 4.84512 4.17687 4.90177V4.90302C4.16813 4.90719 4.16812 4.91635 4.16812 4.9251ZM7.55353 5.02591C7.64517 5.22378 7.77722 5.31167 7.99217 5.32042C7.86512 5.07007 7.67641 4.9426 7.55353 5.02591ZM7.45689 6.20478L7.59268 6.07981C7.59935 6.08398 7.60726 6.08773 7.61476 6.09106C7.62243 6.094 7.62982 6.09762 7.63684 6.10189C7.65975 6.11355 7.68183 6.12397 7.70266 6.13355L7.75515 6.15854C7.59269 6.40473 7.54436 6.42681 7.32067 6.33017L7.45689 6.2052V6.20478ZM6.24885 6.1852H6.34591C6.27093 6.30392 6.20512 6.40057 6.1393 6.49263C6.13513 6.49263 6.12972 6.49138 6.12389 6.49054C6.11897 6.48926 6.11395 6.48842 6.10889 6.48804C6.10459 6.47342 6.10015 6.45884 6.09556 6.44431L6.08223 6.40057C6.06473 6.34766 6.04724 6.29518 6.03391 6.24227C6.03391 6.22936 6.06473 6.18979 6.08681 6.18979C6.13513 6.18104 6.18762 6.18104 6.24927 6.18562L6.24885 6.1852ZM5.99059 6.5497C5.98809 6.55178 5.98684 6.55511 5.986 6.55844C5.98475 6.56178 5.9835 6.56511 5.98142 6.56719C5.93852 6.56094 5.89561 6.55386 5.84979 6.54636C5.79688 6.53803 5.73982 6.52845 5.674 6.51887C5.72459 6.45807 5.7743 6.39656 5.82313 6.33433C5.83437 6.32142 5.84396 6.30934 5.85395 6.29684L5.88478 6.25977L5.99892 6.5322C5.99657 6.53483 5.99486 6.53797 5.99392 6.54136C5.99282 6.54421 5.99198 6.54699 5.99059 6.5497ZM6.16554 5.8078C6.17471 5.78989 6.18345 5.77239 6.19678 5.75489C6.22303 5.80322 6.24927 5.84737 6.27593 5.89111L6.31967 5.96776C6.33383 5.99317 6.348 6.01858 6.36341 6.04482H6.02974C6.05015 6.00775 6.07057 5.97317 6.09139 5.93735C6.11555 5.89653 6.14013 5.85445 6.16596 5.8078H6.16554ZM7.82554 6.54095C7.7818 6.52762 7.73807 6.51887 7.67183 6.50596C7.66686 6.50568 7.66195 6.50469 7.65725 6.50304C7.65484 6.50216 7.65232 6.5016 7.64975 6.50137C7.69266 6.4743 7.72515 6.43306 7.75639 6.39348L7.76847 6.37849C7.82554 6.29934 7.88261 6.22478 8.01425 6.22936C7.9686 6.29214 7.92753 6.35813 7.89136 6.42681C7.86928 6.4618 7.84762 6.50137 7.82554 6.54095ZM6.06473 5.74615C6.06723 5.74823 6.0689 5.75156 6.0714 5.75489C6.07348 5.75823 6.07556 5.76156 6.07806 5.76364L5.91144 6.014C5.90007 6.00704 5.88896 5.99967 5.87811 5.99192C5.86728 5.98442 5.85645 5.97651 5.84521 5.97026C5.81913 5.9534 5.79356 5.93576 5.76856 5.91735L5.73107 5.89111L6.05599 5.72865C6.05599 5.73282 6.06015 5.74198 6.06473 5.74615ZM5.11664 4.65267C5.11206 4.66183 5.11206 4.67058 5.11206 4.67475L4.73882 4.5956C4.72679 4.59354 4.71484 4.59104 4.70299 4.5881C4.68733 4.58403 4.67148 4.58069 4.6555 4.57811C4.6555 4.56519 4.65634 4.55311 4.65759 4.54061C4.65887 4.5283 4.65956 4.51592 4.65967 4.50354C4.65967 4.49521 4.66092 4.48688 4.66175 4.47855C4.663 4.46855 4.66425 4.45772 4.66425 4.44647C4.74756 4.4773 4.82671 4.50812 4.90127 4.53895L4.99458 4.57561C5.03749 4.59227 5.07998 4.60893 5.1208 4.62643C5.1208 4.63517 5.1208 4.64392 5.11664 4.65267ZM5.64067 6.12605L5.65192 6.014C5.84104 6.14146 5.83646 6.18062 5.61693 6.37391C5.62318 6.29351 5.63151 6.2127 5.64067 6.12605ZM6.36758 5.11797C6.23135 5.10485 6.09526 5.09027 5.95934 5.07423C5.95934 5.04216 5.96184 5.01258 5.96476 4.97467L5.96809 4.92968L6.00766 4.94718C6.02099 4.95259 6.03391 4.95801 6.04724 4.96468C6.13305 4.99758 6.21095 5.03049 6.28926 5.0634L6.36758 5.09673V5.11797ZM8.60702 7.01083C8.49288 6.76048 8.50621 6.7384 8.77822 6.74715C8.75732 6.78155 8.73537 6.81531 8.71241 6.84837C8.68949 6.88128 8.66992 6.91294 8.64992 6.94376C8.63576 6.96626 8.62201 6.98875 8.60702 7.01083ZM6.3809 5.45205C6.61835 5.72407 6.64459 5.74198 6.76289 5.70657C6.66209 5.58369 6.54795 5.49579 6.3809 5.45205ZM8.72115 6.44014H8.73865C8.74115 6.44639 8.74281 6.4543 8.74531 6.4618C8.74781 6.46972 8.74948 6.47721 8.75198 6.48388C8.76531 6.5322 8.77822 6.58052 8.79572 6.63301H8.55869L8.59493 6.58302C8.6141 6.55553 8.63159 6.53053 8.65117 6.50596C8.6595 6.49263 8.66867 6.48055 8.67741 6.46847C8.68574 6.45639 8.69491 6.44431 8.70366 6.43098C8.70782 6.44014 8.71241 6.44014 8.72115 6.44014ZM8.32625 7.0504C8.36999 6.96251 8.40082 6.90086 8.44039 6.81713C8.45497 6.86128 8.46955 6.90127 8.48413 6.94126L8.50621 7.00208L8.51704 7.03249L8.52787 7.06332C8.51495 7.06332 8.50162 7.06248 8.48871 7.06123C8.47538 7.05998 8.46205 7.05915 8.44914 7.05915C8.4129 7.05915 8.37707 7.0554 8.33792 7.05165L8.32625 7.0504ZM8.60285 6.40473L8.63326 6.43556C8.62701 6.44431 8.62034 6.45222 8.61368 6.45972C8.60701 6.46722 8.60035 6.47513 8.5941 6.48388L8.48413 6.62009C8.47996 6.61135 8.47538 6.60676 8.46663 6.59802C8.44914 6.57594 8.43581 6.55844 8.44039 6.55386L8.49413 6.50387C8.52912 6.47055 8.56494 6.43681 8.60243 6.40473H8.60285ZM8.34791 6.69883C8.35172 6.68255 8.35617 6.66643 8.36124 6.6505C8.41831 6.72965 8.39207 6.78672 8.36541 6.83504C8.35018 6.86034 8.34118 6.88889 8.33916 6.91835C8.33708 6.91835 8.335 6.91752 8.3325 6.91627C8.33042 6.91544 8.32833 6.91419 8.32625 6.91419C8.32241 6.91416 8.3186 6.91345 8.315 6.91211C8.31157 6.91064 8.3079 6.90979 8.30417 6.90961C8.31188 6.85861 8.32203 6.80801 8.33458 6.75798L8.34791 6.69883Z" fill="#8CA3B8"/>
<path fill-rule="evenodd" clip-rule="evenodd" d="M6.83163 12.4153C6.80664 12.4153 6.78197 12.4096 6.75945 12.3988C6.73694 12.388 6.71715 12.3722 6.70155 12.3527C6.68594 12.3332 6.67493 12.3104 6.66933 12.286C6.66373 12.2617 6.66367 12.2364 6.66917 12.212L7.38024 9.05613C7.40522 8.94535 7.46718 8.84638 7.55592 8.77551C7.64466 8.70464 7.75489 8.6661 7.86845 8.66623H11.2943C11.4077 8.66629 11.5177 8.70491 11.6063 8.77577C11.6948 8.84662 11.7567 8.94549 11.7816 9.05613L12.4931 12.212C12.4986 12.2364 12.4986 12.2617 12.493 12.286C12.4874 12.3104 12.4763 12.3332 12.4607 12.3527C12.4451 12.3722 12.4254 12.388 12.4028 12.3988C12.3803 12.4096 12.3557 12.4153 12.3307 12.4153H11.3788C11.3468 12.4152 11.3154 12.4059 11.2885 12.3885C11.2616 12.371 11.2403 12.3462 11.2272 12.317L10.7523 11.2639C10.7391 11.2346 10.7178 11.2097 10.6908 11.1923C10.6638 11.1749 10.6324 11.1656 10.6003 11.1656H8.56244C8.53032 11.1656 8.49888 11.1749 8.4719 11.1923C8.44493 11.2097 8.42357 11.2346 8.4104 11.2639L7.93552 12.317C7.92235 12.3463 7.90099 12.3711 7.87401 12.3886C7.84704 12.406 7.81559 12.4153 7.78347 12.4153H6.83163ZM8.39665 9.08279C8.37456 9.08279 8.35337 9.09157 8.33774 9.10719C8.32212 9.12282 8.31334 9.14401 8.31334 9.1661V9.49935H7.97426C7.95216 9.49935 7.93097 9.50813 7.91535 9.52376C7.89972 9.53938 7.89095 9.56057 7.89095 9.58267V9.8326C7.89095 9.87843 7.92844 9.91592 7.97426 9.91592H8.31334V10.2492C8.31334 10.295 8.35083 10.3325 8.39665 10.3325H8.65284C8.67493 10.3325 8.69612 10.3237 8.71175 10.3081C8.72737 10.2925 8.73615 10.2713 8.73615 10.2492V9.91592H9.07523C9.09733 9.91592 9.11852 9.90714 9.13414 9.89152C9.14977 9.87589 9.15854 9.8547 9.15854 9.8326V9.58267C9.15854 9.56057 9.14977 9.53938 9.13414 9.52376C9.11852 9.50813 9.09733 9.49935 9.07523 9.49935H8.73615V9.1661C8.73615 9.14401 8.72737 9.12282 8.71175 9.10719C8.69612 9.09157 8.67493 9.08279 8.65284 9.08279H8.39665ZM10.5469 10.0646C10.5464 10.1361 10.5175 10.2045 10.4666 10.2547C10.4156 10.305 10.3469 10.3329 10.2753 10.3325C10.2399 10.3328 10.2048 10.326 10.172 10.3127C10.1391 10.2994 10.1092 10.2797 10.084 10.2549C10.0588 10.23 10.0387 10.2004 10.0249 10.1677C10.0112 10.1351 10.004 10.1001 10.0037 10.0646C10.0037 9.91675 10.125 9.79678 10.2749 9.79678C10.4249 9.79678 10.5469 9.91675 10.5469 10.0646ZM10.9993 10.3325C11.1493 10.3325 11.2709 10.2125 11.2709 10.0646C11.2707 10.0292 11.2635 9.99416 11.2497 9.96152C11.236 9.92888 11.2159 9.89927 11.1907 9.87439C11.1654 9.84951 11.1356 9.82985 11.1027 9.81654C11.0699 9.80322 11.0348 9.79651 10.9993 9.79678C10.9639 9.79651 10.9288 9.80322 10.8959 9.81654C10.8631 9.82985 10.8332 9.84951 10.808 9.87439C10.7828 9.89927 10.7627 9.92888 10.7489 9.96152C10.7352 9.99416 10.728 10.0292 10.7277 10.0646C10.7277 10.2125 10.8494 10.3325 10.9993 10.3325ZM11.2709 9.35064C11.2707 9.38607 11.2635 9.42111 11.2497 9.45375C11.236 9.48639 11.2159 9.516 11.1907 9.54088C11.1654 9.56576 11.1356 9.58542 11.1027 9.59874C11.0699 9.61205 11.0348 9.61877 10.9993 9.61849C10.9639 9.61877 10.9288 9.61205 10.8959 9.59874C10.8631 9.58542 10.8332 9.56576 10.808 9.54088C10.7828 9.516 10.7627 9.48639 10.7489 9.45375C10.7352 9.42111 10.728 9.38607 10.7277 9.35064C10.7277 9.20276 10.8494 9.08279 10.9993 9.08279C11.1493 9.08279 11.2709 9.20276 11.2709 9.35064ZM10.2753 9.61849C10.4253 9.61849 10.5469 9.49852 10.5469 9.35064C10.5464 9.27912 10.5175 9.21075 10.4666 9.16053C10.4156 9.11031 10.3469 9.08235 10.2753 9.08279C10.2399 9.08252 10.2048 9.08923 10.172 9.10255C10.1391 9.11587 10.1092 9.13553 10.084 9.1604C10.0588 9.18528 10.0387 9.21489 10.0249 9.24753C10.0112 9.28017 10.004 9.31521 10.0037 9.35064C10.0037 9.49852 10.1254 9.61849 10.2753 9.61849Z" fill="#8CA3B8"/>
</svg>
