<svg width="13" height="14" viewBox="0 0 13 14" fill="none" xmlns="http://www.w3.org/2000/svg">
<path d="M6.49928 13.335C2.91546 13.335 0 10.4196 0 6.8343C0 3.24904 2.91546 0.335022 6.49928 0.335022C10.0831 0.335022 12.9986 3.25048 12.9986 6.8343C12.9986 10.4181 10.0831 13.3336 6.49928 13.3336V13.335ZM6.49928 1.48738C3.55069 1.48738 1.15235 3.88571 1.15235 6.8343C1.15235 9.78289 3.55069 12.1812 6.49928 12.1812C9.44787 12.1812 11.8462 9.78289 11.8462 6.8343C11.8462 3.88571 9.44931 1.48738 6.49928 1.48738Z" fill="#8CA3B8"/>
<path d="M6.49926 11.1383C4.12685 11.1383 2.19666 9.20816 2.19666 6.83575C2.19666 4.46334 4.12685 2.53314 6.49926 2.53314C8.87167 2.53314 10.8019 4.46334 10.8019 6.83575C10.8019 9.20816 8.87167 11.1383 6.49926 11.1383ZM6.49926 3.68406C4.76208 3.68406 3.34901 5.09713 3.34901 6.83431C3.34901 8.57148 4.76208 9.98455 6.49926 9.98455C8.23643 9.98455 9.64951 8.57148 9.64951 6.83431C9.64951 5.09713 8.23643 3.68406 6.49926 3.68406Z" fill="#8CA3B8"/>
<path d="M6.49927 13.335C6.18094 13.335 5.9231 13.0772 5.9231 12.7588V10.5621C5.9231 10.2438 6.18094 9.98596 6.49927 9.98596C6.81761 9.98596 7.07545 10.2438 7.07545 10.5621V12.7588C7.07545 13.0772 6.81761 13.335 6.49927 13.335Z" fill="#8CA3B8"/>
<path d="M6.49927 3.68405C6.18094 3.68405 5.9231 3.42621 5.9231 3.10788V0.911199C5.9231 0.592861 6.18094 0.335022 6.49927 0.335022C6.81761 0.335022 7.07545 0.592861 7.07545 0.911199V3.10788C7.07545 3.42621 6.81761 3.68405 6.49927 3.68405Z" fill="#8CA3B8"/>
<path d="M2.77285 7.41047H0.576177C0.257839 7.41047 0 7.15263 0 6.83429C0 6.51596 0.257839 6.25812 0.576177 6.25812H2.77285C3.09119 6.25812 3.34903 6.51596 3.34903 6.83429C3.34903 7.15263 3.09119 7.41047 2.77285 7.41047Z" fill="#8CA3B8"/>
<path d="M12.4238 7.41047H10.2271C9.90878 7.41047 9.65094 7.15263 9.65094 6.83429C9.65094 6.51596 9.90878 6.25812 10.2271 6.25812H12.4238C12.7421 6.25812 13 6.51596 13 6.83429C13 7.15263 12.7421 7.41047 12.4238 7.41047Z" fill="#8CA3B8"/>
<path d="M2.31049 11.6008C2.16357 11.6008 2.0152 11.5446 1.90285 11.4322C1.67814 11.2075 1.67814 10.8431 1.90285 10.6169L3.45564 9.0627C3.68035 8.83799 4.04623 8.83799 4.27093 9.0627C4.49564 9.28741 4.49564 9.65184 4.27093 9.87799L2.71814 11.4322C2.60578 11.5446 2.45886 11.6008 2.31049 11.6008Z" fill="#8CA3B8"/>
<path d="M9.13532 4.77593C8.98839 4.77593 8.84003 4.71975 8.72767 4.6074C8.50297 4.38269 8.50297 4.01826 8.72767 3.79211L10.2805 2.23787C10.5052 2.01316 10.8711 2.01316 11.0958 2.23787C11.3205 2.46258 11.3205 2.82701 11.0958 3.05316L9.54297 4.6074C9.43061 4.71975 9.28369 4.77593 9.13532 4.77593Z" fill="#8CA3B8"/>
<path d="M3.86469 4.77592C3.71777 4.77592 3.5694 4.71974 3.45705 4.60739L1.90425 3.05315C1.67954 2.82844 1.67954 2.46401 1.90425 2.23786C2.12896 2.01171 2.49483 2.01315 2.71954 2.23786L4.27234 3.7921C4.49705 4.01681 4.49705 4.38124 4.27234 4.60739C4.15998 4.71974 4.01306 4.77592 3.86469 4.77592Z" fill="#8CA3B8"/>
<path d="M10.6881 11.6008C10.5412 11.6008 10.3928 11.5446 10.2805 11.4322L8.72767 9.87799C8.50297 9.65328 8.50297 9.28885 8.72767 9.0627C8.95238 8.83799 9.31682 8.83799 9.54297 9.0627L11.0958 10.6169C11.3205 10.8416 11.3205 11.2061 11.0958 11.4322C10.9834 11.5446 10.8365 11.6008 10.6881 11.6008Z" fill="#8CA3B8"/>
<path d="M6.4993 8.29347C5.75748 8.29347 5.15393 7.68992 5.15393 6.9481C5.15393 6.20627 5.75748 5.60272 6.4993 5.60272C7.24113 5.60272 7.84468 6.20627 7.84468 6.9481C7.84468 7.68992 7.24113 8.29347 6.4993 8.29347ZM6.4993 6.75652C6.39271 6.75652 6.30629 6.84294 6.30629 6.94954C6.30629 7.05613 6.39271 7.14256 6.4993 7.14256C6.6059 7.14256 6.69232 7.05613 6.69232 6.94954C6.69232 6.84294 6.6059 6.75652 6.4993 6.75652Z" fill="#8CA3B8"/>
<path d="M6.49927 9.32194C6.18094 9.32194 5.9231 9.0641 5.9231 8.74577V5.15186C5.9231 4.83352 6.18094 4.57568 6.49927 4.57568C6.81761 4.57568 7.07545 4.83352 7.07545 5.15186V8.74577C7.07545 9.0641 6.81761 9.32194 6.49927 9.32194Z" fill="#8CA3B8"/>
<path d="M8.29698 7.52571H4.70307C4.38473 7.52571 4.12689 7.26787 4.12689 6.94953C4.12689 6.63119 4.38473 6.37335 4.70307 6.37335H8.29698C8.61531 6.37335 8.87315 6.63119 8.87315 6.94953C8.87315 7.26787 8.61531 7.52571 8.29698 7.52571Z" fill="#8CA3B8"/>
</svg>
