<svg width="14" height="14" viewBox="0 0 14 14" fill="none" xmlns="http://www.w3.org/2000/svg">
<g clip-path="url(#clip0_2206_1591)">
<path d="M4.43514 6.99166L4.03191 6.57135C3.94068 6.47638 3.94402 6.326 4.03899 6.23477C4.13397 6.14354 4.28435 6.14687 4.37557 6.24185L4.74257 6.62384C4.9321 6.40264 5.12455 6.18811 5.32076 5.98067L4.97917 5.62492C4.88795 5.52995 4.89128 5.37957 4.98626 5.28834C5.08123 5.19711 5.23161 5.20044 5.32284 5.29542L5.65276 5.63908C5.65775 5.63409 5.66234 5.6295 5.66734 5.62451C5.86562 5.42622 6.0689 5.23252 6.27718 5.04423L5.92602 4.67849C5.83479 4.58352 5.83813 4.43314 5.9331 4.34191C6.02808 4.25068 6.17846 4.25401 6.26968 4.34899L6.63501 4.72973C7.35233 4.11613 8.12464 3.55836 8.95235 3.0564C8.4004 2.65233 7.84637 2.37782 7.36108 2.25118C6.16179 2.6615 4.9271 3.35341 3.97276 4.30775C3.06424 5.21627 2.39149 6.36599 1.97243 7.4982C2.04241 8.03099 2.32442 8.68291 2.7893 9.33566C3.30501 8.4892 3.85404 7.70815 4.43598 6.9925L4.43514 6.99166ZM4.76714 7.33783C4.17729 8.06806 3.6216 8.86869 3.10006 9.73931C3.23878 9.90593 3.38915 10.0713 3.55078 10.2329C4.35975 11.0419 5.25869 11.5705 5.99392 11.7559C7.18112 11.3422 8.40248 10.6482 9.35766 9.69307C10.267 8.78371 10.9381 7.61984 11.3542 6.47471C11.2422 5.69824 10.6873 4.67599 9.77839 3.76705C9.63801 3.62667 9.49471 3.49462 9.35016 3.37132C8.49496 3.87869 7.69933 4.44563 6.96409 5.07298L7.48022 5.61076C7.57144 5.70573 7.56811 5.85611 7.47313 5.94734C7.37816 6.03857 7.22778 6.03524 7.13655 5.94026L6.60543 5.38706C6.39924 5.57327 6.19845 5.76447 6.00225 5.96067C5.99517 5.96775 5.98809 5.97483 5.98059 5.98233L6.53295 6.5576C6.62418 6.65258 6.62085 6.80296 6.52587 6.89419C6.43089 6.98541 6.28052 6.98208 6.18929 6.88711L5.64901 6.32433C5.45322 6.53219 5.26119 6.74714 5.07207 6.96875L5.58569 7.50403C5.67692 7.59901 5.67358 7.74939 5.57861 7.84062C5.48363 7.93184 5.33325 7.92851 5.24202 7.83354L4.76589 7.33741L4.76714 7.33783ZM1.69208 11.3318C1.95868 10.7932 2.23569 10.2754 2.52395 9.7793C2.15988 9.299 1.88162 8.80746 1.70458 8.33966C1.38632 9.54769 1.37466 10.6578 1.69208 11.3318ZM2.0095 11.7663C2.59102 12.2716 3.83321 12.3341 5.21953 11.9875C4.5547 11.6947 3.85362 11.2085 3.21462 10.5695C3.08548 10.4404 2.96218 10.3083 2.84596 10.1746C2.55603 10.6824 2.27693 11.2131 2.0095 11.7663ZM10.9394 2.00541C10.2895 1.73506 9.26019 1.74631 8.13422 2.02291C8.54912 2.20828 8.97776 2.46863 9.3964 2.79396C9.8917 2.51195 10.4061 2.2491 10.9394 2.00541ZM11.4072 2.31742C10.846 2.56402 10.3062 2.83145 9.78755 3.12013C9.89836 3.21886 10.0079 3.32258 10.1158 3.43047C10.8194 4.13404 11.3372 4.91177 11.6163 5.6345C11.9903 4.18861 11.9324 2.88644 11.4072 2.31742ZM1.27885 12.3861C-0.261599 10.8457 0.622347 6.31017 3.29876 3.63375C5.9581 0.974418 10.537 0.0996366 12.0512 1.61384C13.5654 3.12805 12.6906 7.70732 10.0312 10.3662C7.35483 13.0426 2.8193 13.9266 1.27885 12.3861Z" fill="#8CA3B8"/>
</g>
<defs>
<clipPath id="clip0_2206_1591">
<rect width="13.33" height="13.33" fill="white" transform="translate(0 0.334991)"/>
</clipPath>
</defs>
</svg>
