<svg width="14" height="14" viewBox="0 0 14 14" fill="none" xmlns="http://www.w3.org/2000/svg">
<path d="M3.74906 6.58343C3.74906 6.35337 3.93556 6.16687 4.16562 6.16687C4.39569 6.16687 4.58219 6.35337 4.58219 6.58343C4.58219 6.8135 4.39569 7 4.16562 7C3.93556 7 3.74906 6.8135 3.74906 6.58343Z" fill="#8CA3B8"/>
<path d="M3.74906 8.66626C3.74906 8.43619 3.93556 8.24969 4.16562 8.24969C4.39569 8.24969 4.58219 8.43619 4.58219 8.66626C4.58219 8.89632 4.39569 9.08282 4.16562 9.08282C3.93556 9.08282 3.74906 8.89632 3.74906 8.66626Z" fill="#8CA3B8"/>
<path d="M5.83188 6.16687C5.60181 6.16687 5.41531 6.35337 5.41531 6.58343C5.41531 6.8135 5.60181 7 5.83188 7C6.06194 7 6.24844 6.8135 6.24844 6.58343C6.24844 6.35337 6.06194 6.16687 5.83188 6.16687Z" fill="#8CA3B8"/>
<path d="M5.41531 8.66626C5.41531 8.43619 5.60181 8.24969 5.83188 8.24969C6.06194 8.24969 6.24844 8.43619 6.24844 8.66626C6.24844 8.89632 6.06194 9.08282 5.83188 9.08282C5.60181 9.08282 5.41531 8.89632 5.41531 8.66626Z" fill="#8CA3B8"/>
<path d="M7.49813 8.24969C7.26806 8.24969 7.08157 8.43619 7.08157 8.66626C7.08157 8.89632 7.26806 9.08282 7.49813 9.08282C7.7282 9.08282 7.91469 8.89632 7.91469 8.66626C7.91469 8.43619 7.7282 8.24969 7.49813 8.24969Z" fill="#8CA3B8"/>
<path d="M7.08157 6.58343C7.08157 6.35337 7.26806 6.16687 7.49813 6.16687C7.7282 6.16687 7.91469 6.35337 7.91469 6.58343C7.91469 6.8135 7.7282 7 7.49813 7C7.26806 7 7.08157 6.8135 7.08157 6.58343Z" fill="#8CA3B8"/>
<path d="M9.16437 6.16687C8.93431 6.16687 8.74781 6.35337 8.74781 6.58343C8.74781 6.8135 8.93431 7 9.16437 7C9.39444 7 9.58094 6.8135 9.58094 6.58343C9.58094 6.35337 9.39444 6.16687 9.16437 6.16687Z" fill="#8CA3B8"/>
<path fill-rule="evenodd" clip-rule="evenodd" d="M2.08281 3.66753C2.08281 2.97735 2.64232 2.41785 3.3325 2.41785H9.9975C10.6877 2.41785 11.2472 2.97735 11.2472 3.66753V10.3325C11.2472 11.0227 10.6877 11.5822 9.9975 11.5822H3.3325C2.64232 11.5822 2.08281 11.0227 2.08281 10.3325V3.66753ZM10.4141 4.91722V10.3325C10.4141 10.5626 10.2276 10.7491 9.9975 10.7491H3.3325C3.10244 10.7491 2.91593 10.5626 2.91593 10.3325V4.91722H10.4141Z" fill="#8CA3B8"/>
</svg>
