<svg width="13" height="9" viewBox="0 0 13 9" fill="none" xmlns="http://www.w3.org/2000/svg">
<path d="M7.48996 8.44098H5.44869C5.19751 8.44098 4.99407 8.23754 4.99407 7.98636V6.84298C4.99407 5.6189 6.00447 4.21638 6.80802 3.29463C6.63413 3.27076 6.47501 3.23553 6.3318 3.20371C6.1329 3.15938 5.96128 3.12187 5.81125 3.12187C5.77261 3.12187 5.76466 3.12983 5.75784 3.13665C5.69532 3.20143 5.65555 3.40033 5.65896 3.53899C5.65896 3.54354 5.65896 3.55036 5.65896 3.55377V4.19479C5.65896 4.44597 5.45551 4.64941 5.20433 4.64941H4.06095C3.80977 4.64941 3.60632 4.44597 3.60632 4.19479V0.953312C3.60632 0.702132 3.80977 0.498687 4.06095 0.498687H5.20433C5.33049 0.498687 5.44414 0.549832 5.52598 0.631665C5.77943 0.462317 6.10221 0.335022 6.49887 0.335022C7.15353 0.335022 7.67635 0.594158 8.05824 0.782828C8.09234 0.799876 8.13098 0.819198 8.16849 0.837383C8.1844 0.777145 8.21281 0.71918 8.25259 0.669171C8.33897 0.558925 8.47081 0.498687 8.61061 0.498687H9.50849C9.75967 0.498687 9.96312 0.702132 9.96312 0.953312C9.96312 2.13647 9.24367 3.46171 8.60947 4.63009L8.57878 4.68692C8.03551 5.68709 7.95254 6.78274 7.94572 6.89185V7.98636C7.94572 8.23754 7.74227 8.44098 7.49109 8.44098H7.48996ZM5.90332 7.53173H7.03533V6.87821C7.03533 6.87139 7.03533 6.86457 7.03533 6.85662C7.03761 6.80093 7.1058 5.49047 7.77864 4.25162L7.80933 4.19479C8.29123 3.30713 8.82655 2.3206 8.99818 1.46704C8.97885 1.50682 8.95385 1.54546 8.9243 1.58297C8.79587 1.74663 8.60151 1.83756 8.37648 1.83756C8.14121 1.83756 7.91503 1.72617 7.65362 1.59661C7.33538 1.43862 6.93986 1.24314 6.49774 1.24314C5.91923 1.24314 5.62599 1.83301 5.61349 1.85915C5.52143 2.05009 5.30776 2.15239 5.10204 2.10579C4.89518 2.05805 4.74857 1.8762 4.74857 1.6648V1.40794H4.51444V3.7413H4.74857V3.56172C4.74402 3.42874 4.75084 2.87069 5.1009 2.50699C5.28616 2.31491 5.53052 2.21262 5.81012 2.21262C6.06016 2.21262 6.2977 2.2649 6.52729 2.31605C6.97509 2.41493 7.36153 2.50131 7.84797 2.24217C8.04915 2.13534 8.29919 2.19444 8.43217 2.3797C8.56515 2.56609 8.539 2.82068 8.37079 2.97639C7.68431 3.61514 5.90332 5.55298 5.90332 6.84298V7.53173Z" fill="#8CA3B8"/>
<path d="M10.7166 7.92387C10.7018 7.92387 10.6871 7.92387 10.6734 7.9216L9.31863 7.74657C9.13224 7.7227 9.0004 7.55108 9.02426 7.36468L9.12201 6.60659C9.22544 5.80645 9.98352 4.9779 10.5916 4.43008C10.5029 4.40394 10.42 4.37325 10.3449 4.34597C10.2188 4.30051 10.1097 4.26073 10.0142 4.24823C10.004 4.24709 9.99943 4.24823 9.99943 4.24823C9.97557 4.26641 9.92897 4.38007 9.91874 4.48009L9.86191 4.91653C9.85054 5.00631 9.80395 5.08701 9.73234 5.1427C9.66074 5.19839 9.56981 5.22226 9.48003 5.2109L8.72194 5.11315C8.63215 5.10179 8.55032 5.05519 8.49576 4.98358C8.44007 4.91198 8.4162 4.82105 8.42757 4.73127L8.70603 2.57975C8.72989 2.39336 8.90265 2.26152 9.08791 2.28538L9.846 2.38313C9.92897 2.39336 10.0006 2.43314 10.0529 2.48997C10.2427 2.40131 10.4666 2.35244 10.7189 2.3854C11.1621 2.44223 11.4906 2.66159 11.7304 2.82184C11.7418 2.82866 11.7532 2.83662 11.7645 2.84457C11.7804 2.8173 11.7997 2.79115 11.8225 2.76842C11.8975 2.69568 12.0009 2.66045 12.1055 2.67409L12.701 2.75137C12.7908 2.76274 12.8727 2.80934 12.9272 2.88094C12.9818 2.95255 13.0068 3.04347 12.9954 3.13326C12.8931 3.92772 12.2987 4.74945 11.7747 5.47458L11.7497 5.50868C11.3099 6.11674 11.1621 6.82709 11.1474 6.9021L11.053 7.62723C11.0417 7.71702 10.9951 7.79771 10.9235 7.8534C10.8632 7.9 10.7905 7.92387 10.7155 7.92387H10.7166ZM9.74371 7.1135L10.4222 7.20102L10.4734 6.80436C10.4734 6.80436 10.4745 6.79413 10.4757 6.78844C10.4825 6.75207 10.6416 5.87919 11.1985 5.1086L11.2235 5.07451C11.3792 4.8597 11.5406 4.63579 11.6918 4.40962C11.1474 4.81196 9.90396 5.88374 9.79826 6.69411L9.74371 7.11464V7.1135ZM9.14815 4.47895L9.22998 4.48918L9.24021 4.40735C9.2493 4.31415 9.30386 3.9334 9.57777 3.71291C9.72439 3.5947 9.9051 3.54583 10.1006 3.57084C10.2699 3.59243 10.4256 3.64926 10.5757 3.70268C10.8575 3.80383 11.1008 3.89248 11.4326 3.76746C11.5929 3.70722 11.7725 3.77542 11.8532 3.92658C11.8804 3.97773 11.8941 4.03342 11.8929 4.08911C12.0055 3.90271 12.1032 3.71745 12.1782 3.53674C12.0793 3.60493 11.9566 3.63335 11.8248 3.6163C11.66 3.5947 11.5167 3.49923 11.3508 3.38785C11.1462 3.25146 10.9144 3.09689 10.6302 3.06052C10.2688 3.01392 10.0301 3.3708 10.0278 3.37421C9.94261 3.50946 9.7744 3.56629 9.62437 3.51173C9.47434 3.45718 9.38114 3.30602 9.4016 3.1469L9.41865 3.01278L9.33682 3.00255L9.14588 4.47781L9.14815 4.47895Z" fill="#8CA3B8"/>
<path d="M1.856 7.97613C1.68665 7.97613 1.54003 7.84998 1.51844 7.67835L1.42183 6.92027C1.31954 6.11899 1.84349 5.12677 2.29471 4.44256C2.20151 4.43915 2.11513 4.4312 2.03444 4.42438C1.90146 4.41187 1.78553 4.40164 1.69006 4.41415C1.67983 4.41528 1.67642 4.41756 1.67642 4.41756C1.65369 4.44597 1.64346 4.58349 1.65596 4.65964C1.65596 4.66419 1.6571 4.66874 1.65823 4.67328L1.71279 5.09949C1.72416 5.18928 1.69915 5.28021 1.6446 5.35067C1.5889 5.42228 1.50821 5.46888 1.41842 5.48024L0.660333 5.57685C0.473937 5.60072 0.302316 5.46888 0.279584 5.28134L0.00226317 3.12756C-0.00910245 3.03777 0.0159019 2.94685 0.0704569 2.87524C0.126148 2.80364 0.206844 2.75704 0.296633 2.74567L1.05472 2.64907C1.13769 2.63884 1.21725 2.65816 1.28203 2.70021C1.43774 2.57064 1.64005 2.46381 1.90032 2.43085C2.34358 2.37402 2.71637 2.50359 2.98915 2.59792C3.00165 2.60247 3.01529 2.60701 3.02779 2.61156C3.03575 2.58087 3.04825 2.55132 3.0653 2.52404C3.11872 2.43426 3.21078 2.37402 3.31534 2.36152L3.9109 2.28537C4.00069 2.27286 4.09161 2.299 4.16322 2.35356C4.23482 2.40925 4.28142 2.48995 4.29279 2.57974C4.39394 3.37419 4.02683 4.31868 3.70291 5.15178L3.687 5.19156C3.41536 5.89168 3.45059 6.61453 3.45514 6.69182L3.5472 7.41694C3.55857 7.50673 3.53356 7.59766 3.47901 7.66926C3.42332 7.74087 3.34262 7.78746 3.25283 7.79883L1.89805 7.97159C1.88327 7.97386 1.8685 7.97386 1.85486 7.97386L1.856 7.97613ZM3.35285 4.14478C2.92664 4.67101 1.99466 6.02238 2.09808 6.83275L2.1515 7.25328L2.83003 7.1669L2.78002 6.77024C2.78002 6.77024 2.77889 6.76001 2.77889 6.75433C2.77548 6.71682 2.70955 5.83258 3.05393 4.9472L3.06984 4.90742C3.16532 4.66078 3.26647 4.40278 3.35512 4.14592L3.35285 4.14478ZM0.721707 3.37874L0.90924 4.854L0.991072 4.84377L0.980843 4.76194C0.966068 4.66987 0.922879 4.28685 1.13201 4.00498C1.24453 3.85382 1.40705 3.76062 1.60254 3.73562C1.77189 3.71402 1.93669 3.7288 2.09467 3.74358C2.39245 3.77085 2.65045 3.79472 2.94028 3.59014C3.08007 3.49126 3.27102 3.51172 3.38808 3.63788C3.42786 3.68106 3.454 3.73107 3.46764 3.78449C3.52902 3.57536 3.57789 3.37192 3.60403 3.17757C3.52561 3.26963 3.41422 3.32759 3.28238 3.34464C3.11758 3.36624 2.95392 3.30941 2.76638 3.24349C2.53452 3.16279 2.27084 3.07187 1.9867 3.10824C1.62641 3.1537 1.48775 3.55036 1.48207 3.56627C1.43092 3.7163 1.28203 3.81404 1.12405 3.79699C0.966068 3.78108 0.83991 3.65947 0.819452 3.50262L0.802403 3.36851L0.720571 3.37874H0.721707Z" fill="#8CA3B8"/>
</svg>
