<svg width="14" height="14" viewBox="0 0 14 14" fill="none" xmlns="http://www.w3.org/2000/svg">
<g clip-path="url(#clip0_2206_1631)">
<path d="M1.3305 11.2848H11.9991L6.66458 2.66775L1.3305 11.2848ZM7.0699 1.51262L13.2588 11.5101C13.455 11.8271 13.2271 12.2366 12.8539 12.2366H0.476129C0.103305 12.2366 -0.124971 11.8271 0.0712301 11.5101L6.2601 1.51262C6.4463 1.21187 6.88411 1.21187 7.0699 1.51262ZM3.80863 10.8086C3.27043 10.8086 2.85637 10.3533 2.85637 9.85637C2.85637 9.35941 3.31167 8.90411 3.80863 8.90411C4.30559 8.90411 4.76089 9.35941 4.76089 9.85637C4.76089 10.3533 4.34683 10.8086 3.80863 10.8086ZM6.665 10.8086C6.1268 10.8086 5.71274 10.3533 5.71274 9.85637C5.71274 9.35941 6.16804 8.90411 6.665 8.90411C7.16196 8.90411 7.61726 9.35941 7.61726 9.85637C7.61726 10.3533 7.2032 10.8086 6.665 10.8086ZM5.23661 8.4284C4.69841 8.4284 4.28434 7.97309 4.28434 7.47613C4.28434 6.97917 4.73965 6.52387 5.23661 6.52387C5.73356 6.52387 6.18887 6.97917 6.18887 7.47613C6.18887 7.97309 5.7748 8.4284 5.23661 8.4284ZM8.09339 8.4284C7.55519 8.4284 7.14113 7.97309 7.14113 7.47613C7.14113 6.97917 7.59643 6.52387 8.09339 6.52387C8.59035 6.52387 9.04565 6.97917 9.04565 7.47613C9.04565 7.97309 8.63159 8.4284 8.09339 8.4284ZM9.52137 10.8086C8.98317 10.8086 8.5691 10.3533 8.5691 9.85637C8.5691 9.35941 9.02441 8.90411 9.52137 8.90411C10.0183 8.90411 10.4736 9.35941 10.4736 9.85637C10.4736 10.3533 10.0596 10.8086 9.52137 10.8086ZM6.665 6.04774C6.1268 6.04774 5.71274 5.59244 5.71274 5.09548C5.71274 4.59852 6.16804 4.14322 6.665 4.14322C7.16196 4.14322 7.61726 4.59852 7.61726 5.09548C7.61726 5.59244 7.2032 6.04774 6.665 6.04774Z" fill="#8CA3B8"/>
</g>
<defs>
<clipPath id="clip0_2206_1631">
<rect width="13.33" height="13.33" fill="white" transform="translate(0 0.334999)"/>
</clipPath>
</defs>
</svg>
