<svg width="14" height="14" viewBox="0 0 14 14" fill="none" xmlns="http://www.w3.org/2000/svg">
<g clip-path="url(#clip0_2206_2163)">
<path d="M3.91027 9.98761C4.648 10.3504 5.45905 10.5508 6.30009 10.5691L7.70557 8.95912C7.72182 8.00894 7.50229 7.07042 7.0674 6.23021L4.28768 5.58288C3.70741 6.16398 3.25752 6.86381 2.97217 7.63528L3.91027 9.98761ZM3.76364 10.4458L2.82388 11.229C3.83821 12.1508 5.18579 12.7128 6.665 12.7128C6.94868 12.7128 7.22778 12.6919 7.50062 12.6519L6.29634 11.0448C5.4074 11.0265 4.54803 10.8199 3.76406 10.4454L3.76364 10.4458ZM0.963093 7.35952H2.56769C2.88844 6.54222 3.3804 5.80282 4.00816 5.18964V3.3676C3.47955 3.23763 2.93552 3.18431 2.39149 3.20889C1.49588 4.21738 0.952262 5.54539 0.952262 7.00002C0.952262 7.12083 0.955594 7.24038 0.963093 7.35952ZM10.5036 8.85956C10.9997 8.35427 11.3984 7.7615 11.6775 7.11208L10.9189 4.52397C10.2758 4.19656 9.57469 3.99369 8.84571 3.92829L7.55603 6.14274C7.94218 6.93462 8.15463 7.80191 8.17962 8.6846L10.5036 8.85956ZM10.7798 9.25696V10.9628C11.6833 10.0247 12.2694 8.77833 12.364 7.39701L12.0932 7.34952C11.7796 8.06142 11.3342 8.70876 10.7798 9.25696ZM11.1076 3.408C10.2678 2.37076 9.07231 1.63345 7.70641 1.38184C7.51395 1.60679 7.33983 1.84548 7.1857 2.09625L8.74531 3.44299C9.51637 3.49382 10.2612 3.6871 10.9498 4.0091L11.1076 3.408ZM6.71207 1.96003C6.84496 1.73342 6.992 1.51556 7.15321 1.3077C6.99242 1.29395 6.82954 1.28728 6.66542 1.28728C5.20828 1.28728 3.87861 1.83298 2.86928 2.73109C3.32542 2.74734 3.77864 2.81399 4.22103 2.93062L6.71207 1.96003ZM6.665 13.665C2.98384 13.665 0 10.6812 0 7.00002C0 3.31886 2.98384 0.335022 6.665 0.335022C10.3462 0.335022 13.33 3.31886 13.33 7.00002C13.33 10.6812 10.3462 13.665 6.665 13.665Z" fill="#8CA3B8"/>
</g>
<defs>
<clipPath id="clip0_2206_2163">
<rect width="13.33" height="13.33" fill="white" transform="translate(0 0.335022)"/>
</clipPath>
</defs>
</svg>
