<svg width="14" height="14" viewBox="0 0 14 14" fill="none" xmlns="http://www.w3.org/2000/svg">
<g clip-path="url(#clip0_2206_1325)">
<path d="M10.5511 6.17771L11.495 7.8123C11.7579 8.2676 11.6021 8.84996 11.1464 9.11281C11.0064 9.19362 10.8477 9.23736 10.6861 9.24028L7.71473 9.28943C7.6056 9.2911 7.49729 9.28568 7.39065 9.27277L8.30792 10.8615C8.76822 11.6584 8.49496 12.6777 7.69807 13.1376C6.90119 13.5975 5.88186 13.3247 5.42198 12.5278L4.35099 10.6724C3.21253 11.3298 1.75664 10.9399 1.09931 9.80097L0.623175 8.97618C-0.0341607 7.83771 0.355742 6.38182 1.49462 5.72449L4.08856 4.22695C4.14271 3.97534 4.23769 3.7304 4.37432 3.50296L5.90269 0.954015C6.17304 0.502877 6.75789 0.356664 7.20903 0.627013C7.34774 0.710326 7.46313 0.82738 7.54394 0.967761L8.72573 3.01475C9.44305 2.87145 10.2404 3.25802 10.6694 4.00117C11.0985 4.74432 11.0339 5.62826 10.5511 6.17771ZM10.2924 5.72949C10.544 5.33042 10.5515 4.74973 10.2566 4.23903C9.96167 3.72832 9.45513 3.44464 8.984 3.46297L10.2924 5.72949ZM4.35391 5.91736L4.03149 5.35916L1.96992 6.54928C1.28676 6.94377 1.05265 7.8173 1.44714 8.50046L1.92327 9.32526C2.31775 10.0084 3.19128 10.2425 3.87445 9.84804L5.93601 8.65792L4.35391 5.91736ZM6.43839 7.6236C6.69791 8.07265 7.18028 8.34592 7.69891 8.33759L10.6702 8.28843L6.71873 1.44389L5.19037 3.99284C4.92377 4.43773 4.91918 4.99217 5.17829 5.44123L6.43839 7.6236ZM6.41214 9.4823L5.17537 10.1963L6.24635 12.0517C6.44339 12.3932 6.88036 12.5103 7.22194 12.3128C7.56352 12.1154 7.68058 11.6788 7.48313 11.3373L6.41214 9.4823ZM12.3507 6.13314C12.3053 6.25644 12.1686 6.31976 12.0449 6.27435C11.9212 6.22895 11.8583 6.09231 11.9037 5.96859C12.219 5.11131 12.1453 4.15738 11.68 3.35133C11.2147 2.54528 10.4249 2.00417 9.52512 1.84879C9.39556 1.8263 9.3085 1.70341 9.331 1.57386C9.35349 1.44431 9.47638 1.35725 9.60593 1.37974C10.6436 1.55886 11.5554 2.18329 12.092 3.11347C12.6285 4.04366 12.7143 5.14505 12.3507 6.13314Z" fill="#8CA3B8"/>
</g>
<defs>
<clipPath id="clip0_2206_1325">
<rect width="13.33" height="13.33" fill="white" transform="translate(0 0.335007)"/>
</clipPath>
</defs>
</svg>
