<svg width="20" height="20" viewBox="0 0 20 20" fill="none" xmlns="http://www.w3.org/2000/svg">
<g clip-path="url(#clip0_2071_37093)">
<path d="M10 6.66699L13.1703 8.97024M10 6.66699L6.82985 8.97024M10 6.66699V4.16699M13.1703 8.97024L11.9594 12.6971M13.1703 8.97024L15.4167 7.91699M11.9594 12.6971H8.04076M11.9594 12.6971L13.3334 14.5837M8.04076 12.6971L6.82985 8.97024M8.04076 12.6971L6.66669 14.5837M6.82985 8.97024L4.58335 7.91699M4.58335 7.91699L1.70784 10.8337M4.58335 7.91699L3.75002 4.48819M15.4167 7.91699L18.2922 10.8337M15.4167 7.91699L16.25 4.48819M10 4.16699L7.18697 2.15373M10 4.16699L12.8131 2.15373M6.66669 14.5837L2.78154 14.167M6.66669 14.5837L8.75002 18.2406M13.3334 14.5837L17.2185 14.167M13.3334 14.5837L11.25 18.2406M18.3334 10.0003C18.3334 14.6027 14.6024 18.3337 10 18.3337C5.39765 18.3337 1.66669 14.6027 1.66669 10.0003C1.66669 5.39795 5.39765 1.66699 10 1.66699C14.6024 1.66699 18.3334 5.39795 18.3334 10.0003Z" stroke="white" stroke-width="1.5" stroke-linecap="round" stroke-linejoin="round"/>
</g>
<defs>
<clipPath id="clip0_2071_37093">
<rect width="20" height="20" fill="white"/>
</clipPath>
</defs>
</svg>
