<svg width="14" height="14" viewBox="0 0 14 14" fill="none" xmlns="http://www.w3.org/2000/svg">
<g clip-path="url(#clip0_2206_1514)">
<path d="M10.1737 6.07481L11.2651 4.98342L10.1737 3.89203L9.08231 4.98342L10.1737 6.07481ZM10.5103 6.4114L11.2647 7.16579C11.6267 6.75423 11.8887 6.2731 12.052 5.76989L11.6021 5.32L10.5103 6.4114ZM12.2265 4.02158C12.154 3.43339 11.9437 2.88894 11.5984 2.46655L10.5103 3.55461L11.6017 4.646L12.2265 4.02116V4.02158ZM12.2515 4.67017L11.9387 4.983L12.1878 5.23211C12.2219 5.04465 12.2432 4.85678 12.2515 4.67017ZM9.83713 6.4114L8.74573 5.32L7.65434 6.4114L8.74573 7.50279L9.83713 6.4114ZM10.1737 6.74798L9.08231 7.83937L9.54512 8.30217C10.0408 8.13472 10.5161 7.86812 10.9289 7.50279L10.1737 6.74798ZM7.76514 8.48296L8.40873 7.83937L7.31734 6.74798L6.22844 7.83687C6.65375 8.1897 7.18904 8.40548 7.76514 8.48338V8.48296ZM8.40832 8.51337C8.60868 8.50587 8.81113 8.48213 9.01233 8.44339L8.74532 8.17637L8.40832 8.51337ZM7.65392 3.55503L8.74532 4.64642L9.83671 3.55503L8.74532 2.46363L7.65392 3.55503ZM7.31734 3.21844L8.40873 2.12705L7.95885 1.67716C7.45522 1.84046 6.97451 2.10247 6.56294 2.46447L7.31734 3.21844ZM9.70674 1.50179L9.0819 2.12663L10.1733 3.21803L11.2614 2.12997C10.839 1.78422 10.2949 1.57427 9.70674 1.50179ZM9.05815 1.47721C8.87153 1.48554 8.68366 1.50679 8.49621 1.54095L8.74532 1.79005L9.05815 1.47721ZM7.31734 3.89161L6.22594 4.983L7.31734 6.0744L8.40873 4.983L7.31734 3.89161ZM6.98076 3.55503L6.22594 2.80022C5.86062 3.21303 5.59402 3.68791 5.42656 4.18404L5.88936 4.64684L6.98076 3.55503ZM5.24536 5.96317C5.32325 6.53928 5.53903 7.07456 5.89186 7.49987L6.98034 6.41098L5.88895 5.31959L5.24536 5.96317ZM5.21536 5.32L5.55236 4.983L5.28535 4.71599C5.24619 4.91719 5.22286 5.11964 5.21536 5.32ZM4.28351 10.2838L6.96493 9.28193C6.36758 9.10197 5.82105 8.79163 5.37866 8.34966C4.94793 7.91894 4.64259 7.38948 4.46097 6.81046L3.48371 9.48438L4.28351 10.2842V10.2838ZM3.86445 10.5374L3.19129 9.86428L1.33967 11.7159L2.01283 12.3891L3.86445 10.5374ZM4.58344 3.71415C4.82546 3.07181 5.20328 2.46572 5.71566 1.95334C7.50479 0.164208 10.5469 0.0517366 12.1116 1.61676C13.6762 3.18179 13.5641 6.22394 11.775 8.01266C11.2763 8.51129 10.6894 8.88245 10.0662 9.12488C10.0358 9.1453 10.0021 9.16279 9.96626 9.17612L4.54595 11.2014L2.349 13.3984C2.16321 13.5842 1.86162 13.5842 1.67583 13.3984L0.329503 12.0521C0.143716 11.8663 0.143716 11.5647 0.329503 11.3789L2.61143 9.09698L4.55761 3.77206C4.56511 3.75206 4.57344 3.73248 4.58344 3.71415ZM0.237859 2.23911C0.237859 1.35058 0.938101 0.618262 1.82163 0.575356C1.83871 0.573273 1.85662 0.57244 1.87453 0.573689C1.88745 0.573273 1.88745 0.573273 1.90411 0.573273C2.82305 0.573273 3.57036 1.32059 3.57036 2.23952C3.57036 3.15846 2.82305 3.90577 1.90411 3.90577C0.985172 3.90577 0.237859 3.15804 0.237859 2.23911ZM1.81788 1.04524C1.83329 1.04857 1.84829 1.04982 1.86287 1.0494L1.81788 1.04524ZM1.86412 1.0494L1.85579 1.05065C1.22053 1.07648 0.71399 1.60177 0.71399 2.23952C0.71399 2.89561 1.24802 3.42964 1.90411 3.42964C2.56019 3.42964 3.09423 2.89561 3.09423 2.23952C3.09423 1.58344 2.56019 1.0494 1.90411 1.0494C1.89911 1.0494 1.89911 1.0494 1.88995 1.04982H1.88578C1.87953 1.04982 1.87953 1.04982 1.87203 1.05024L1.86412 1.0494ZM1.42839 2.47738C1.29676 2.47738 1.19054 2.37074 1.19054 2.23952C1.19054 2.10831 1.29718 2.00167 1.42839 2.00167C1.56003 2.00167 1.66625 2.10831 1.66625 2.23952C1.66625 2.37074 1.55961 2.47738 1.42839 2.47738ZM2.38024 2.47738C2.24861 2.47738 2.14238 2.37074 2.14238 2.23952C2.14238 2.10831 2.24902 2.00167 2.38024 2.00167C2.51187 2.00167 2.6181 2.10831 2.6181 2.23952C2.6181 2.37074 2.51146 2.47738 2.38024 2.47738Z" fill="#8CA3B8"/>
</g>
<defs>
<clipPath id="clip0_2206_1514">
<rect width="13.33" height="13.33" fill="white" transform="translate(0 0.334999)"/>
</clipPath>
</defs>
</svg>
