<svg width="14" height="14" viewBox="0 0 14 14" fill="none" xmlns="http://www.w3.org/2000/svg">
<g clip-path="url(#clip0_2206_1437)">
<path d="M13.1509 3.87368C13.1709 3.91367 13.1509 3.97324 13.1109 3.97324L11.3801 5.20668C11.3601 5.22667 11.3205 5.20668 11.3005 5.18668L11.0618 4.88843H6.82413C6.82413 4.88843 6.80413 4.88843 6.78414 4.86843C6.76414 4.82844 6.76414 4.78887 6.78414 4.76887L7.73932 3.87368L7.81888 3.85368H13.1109C13.1309 3.85368 13.1509 3.87368 13.1509 3.87368ZM10.8031 9.40438C10.9423 9.40438 11.0618 9.38439 11.201 9.34481C11.2605 9.34481 11.2805 9.36481 11.2805 9.36481C11.2605 9.54393 10.9027 10.1009 9.33059 10.1009C8.29585 10.1009 7.00283 9.06613 6.66459 8.01181C6.52545 7.69356 6.46547 7.33531 6.46547 6.97707C6.46547 6.49969 6.52504 6.02189 6.68416 5.56451C6.68416 5.54451 6.72415 5.52452 6.74373 5.52452H8.53454C8.55453 5.52452 8.57452 5.52452 8.5941 5.54451C8.61368 5.56451 8.6141 5.5845 8.6141 5.60408C8.55453 5.9819 8.51454 6.39971 8.51454 6.77795C8.53454 6.93708 8.53453 7.09621 8.55453 7.23534C8.63409 8.44879 9.62884 9.36397 10.8027 9.40396L10.8031 9.40438ZM6.42631 3.85368C6.44631 3.85368 6.4663 3.87368 6.48588 3.89367C6.48588 3.93366 6.48588 3.95324 6.46589 3.97324L5.21245 5.34623C5.21245 5.36622 5.19245 5.36622 5.17246 5.36622C5.15246 5.36622 5.15246 5.36622 5.13247 5.34623L4.65509 4.90842H1.0739C1.03391 4.88843 1.01433 4.86843 1.01433 4.80886V4.64974C0.994337 4.41105 1.0739 4.15236 1.25302 3.99323C1.41215 3.89367 1.61127 3.83411 1.79039 3.8541H6.42589L6.42631 3.85368ZM3.58119 5.52493C3.58119 5.52493 6.10806 8.7083 6.30676 9.02656C6.38632 9.14611 6.42631 9.26525 6.42631 9.40438C6.42631 9.72263 6.20762 10.1009 5.86937 10.1009H0.13955C0.119555 10.1009 0.119555 10.1009 0.0995605 10.0809C0.0795655 10.0409 0.0795655 10.0013 0.0995605 9.98132L1.65126 8.54876C1.67125 8.52877 1.69125 8.52877 1.71082 8.52877C1.7304 8.52877 1.73082 8.52877 1.75081 8.54876C1.81038 8.62832 1.87037 8.68789 1.94993 8.74788C2.12905 8.88701 2.36774 8.94699 2.60643 8.94699H4.23769L4.25769 8.927V8.907C4.17812 8.82744 1.41257 5.6045 1.41257 5.6045C1.39257 5.5845 1.39257 5.5845 1.39257 5.56451C1.39257 5.54451 1.41257 5.50494 1.45214 5.50494H3.5212L3.58077 5.52493H3.58119Z" fill="#8CA3B8"/>
</g>
<defs>
<clipPath id="clip0_2206_1437">
<rect width="13.33" height="13.33" fill="white" transform="translate(0 0.334991)"/>
</clipPath>
</defs>
</svg>
