<svg width="14" height="14" viewBox="0 0 14 14" fill="none" xmlns="http://www.w3.org/2000/svg">
<g clip-path="url(#clip0_2206_1556)">
<path d="M3.36541 6.47512L8.52995 11.6397C9.26601 11.4814 9.96334 11.104 10.554 10.5137C12.1928 8.87494 12.1686 6.18894 10.494 4.51436C8.81946 2.83978 6.13346 2.81562 4.49471 4.45437C3.90319 5.04589 3.52495 5.74155 3.36582 6.47554L3.36541 6.47512ZM7.93593 11.7188L3.28501 7.06789C3.24252 7.82353 3.42497 8.60001 3.8382 9.32857C3.99983 9.61308 3.91194 9.85011 3.71448 10.1009C3.62951 10.2088 3.55161 10.2896 3.33083 10.5083C3.10547 10.7311 2.99758 10.8428 2.88011 10.9815C2.42064 11.5234 2.36274 11.8684 2.75098 12.257C3.13921 12.6457 3.48329 12.5873 4.02524 12.1275C4.16271 12.0104 4.27393 11.9033 4.49512 11.6792C4.71465 11.4572 4.79588 11.3789 4.9046 11.2935C5.15579 11.0965 5.39323 11.0086 5.67774 11.1689C6.40548 11.5793 7.18112 11.7605 7.93593 11.7192V11.7188ZM1.9041 3.90535C0.983917 3.90535 0.237854 3.15928 0.237854 2.2391C0.237854 1.31891 0.983917 0.572845 1.9041 0.572845C2.82429 0.572845 3.57035 1.31891 3.57035 2.2391C3.57035 3.15928 2.82429 3.90535 1.9041 3.90535ZM1.9041 3.42963C2.56144 3.42963 3.09422 2.89685 3.09422 2.23951C3.09422 1.58218 2.56144 1.04939 1.9041 1.04939C1.24677 1.04939 0.713985 1.58218 0.713985 2.23951C0.713985 2.89685 1.24677 3.42963 1.9041 3.42963ZM5.17204 12.3482C4.93168 12.5915 4.80671 12.7123 4.64134 12.8527C3.76697 13.595 2.89011 13.7425 2.07739 12.9298C1.26468 12.117 1.41214 11.2398 2.15362 10.3654C2.29484 10.1988 2.41648 10.073 2.66141 9.83095C2.7793 9.71431 2.8497 9.64349 2.89844 9.59101C1.89036 7.62442 2.22777 5.37373 3.82112 3.78038C5.83437 1.76713 9.12313 1.79671 11.1668 3.84036C13.2104 5.88402 13.24 9.17278 11.2268 11.186C9.63759 12.7752 7.38315 13.1114 5.41531 12.1075C5.36241 12.1562 5.29076 12.2274 5.17204 12.3474V12.3482Z" fill="#8CA3B8"/>
</g>
<defs>
<clipPath id="clip0_2206_1556">
<rect width="13.33" height="13.33" fill="white" transform="translate(0 0.334991)"/>
</clipPath>
</defs>
</svg>
