<svg width="14" height="14" viewBox="0 0 14 14" fill="none" xmlns="http://www.w3.org/2000/svg">
<g clip-path="url(#clip0_2206_1389)">
<path d="M9.80505 6.61761L10.8964 5.52622L9.80505 4.43483L8.71365 5.52622L9.80505 6.61761ZM10.142 6.9542L10.8964 7.70859C11.2584 7.29703 11.5204 6.8159 11.6837 6.31269L11.2339 5.8628L10.142 6.9542ZM11.8583 4.56479C11.7858 3.97661 11.5754 3.43216 11.2301 3.00977L10.142 4.09783L11.2334 5.18922L11.8583 4.56438V4.56479ZM11.8829 5.21297L11.57 5.5258L11.8191 5.77491C11.8533 5.58746 11.8745 5.39959 11.8829 5.21297ZM9.46846 6.9542L8.37707 5.8628L7.28568 6.9542L8.37707 8.04559L9.46846 6.9542ZM9.80505 7.29078L8.71365 8.38217L9.17645 8.84497C9.67216 8.67752 10.1475 8.41092 10.5603 8.04559L9.80505 7.29078ZM7.3969 9.02618L8.04049 8.38259L6.94909 7.2912L5.8602 8.38009C6.28551 8.73292 6.82079 8.94828 7.3969 9.02618ZM8.04007 9.05617C8.24044 9.04867 8.44289 9.02493 8.64408 8.98619L8.37707 8.71917L8.04007 9.05617ZM7.28526 4.09783L8.37665 5.18922L9.46805 4.09783L8.37665 3.00643L7.28526 4.09783ZM6.94868 3.76125L8.04007 2.66985L7.59018 2.21996C7.08656 2.38326 6.60584 2.64527 6.19428 3.00727L6.94868 3.76125ZM9.3385 2.04501L8.71365 2.66985L9.80505 3.76125L10.8931 2.67318C10.4707 2.32744 9.92668 2.11749 9.3385 2.04501ZM8.68991 2.02001C8.50329 2.02835 8.31542 2.04959 8.12796 2.08375L8.37707 2.33285L8.68991 2.02001ZM6.94868 4.43441L5.85728 5.5258L6.94868 6.6172L8.04007 5.5258L6.94868 4.43441ZM6.61209 4.09783L5.85728 3.34302C5.49196 3.75583 5.22536 4.23071 5.0579 4.72684L5.5207 5.18964L6.61209 4.09824V4.09783ZM4.87711 6.50639C4.95501 7.0825 5.17079 7.61778 5.52362 8.04309L6.61251 6.9542L5.52112 5.8628L4.87711 6.50639ZM4.84712 5.86322L5.18412 5.52622L4.9171 5.2592C4.87794 5.4604 4.85462 5.66285 4.84712 5.86322ZM4.27101 7.8194C3.62576 9.57812 3.10547 10.6987 2.68682 11.2127L2.65433 11.249L1.64459 12.2587L2.67225 11.2319C2.94468 10.9861 3.42956 10.7191 4.11522 10.4125C4.41014 10.2809 4.73798 10.1438 5.09414 10.0026C5.41156 9.8768 5.74189 9.75141 6.07764 9.62853C5.68316 9.44774 5.32117 9.20238 5.01124 8.89205C4.69924 8.58004 4.45305 8.21596 4.27185 7.81898L4.27101 7.8194ZM3.89236 6.03026C3.88736 4.77724 4.37557 3.46799 5.34741 2.49615C7.13655 0.707009 10.1787 0.594537 11.7433 2.15956C13.3079 3.72459 13.1959 6.76674 11.4067 8.55546C10.4349 9.5273 9.12563 10.0155 7.87261 10.0105C7.86553 10.013 7.85845 10.0155 7.85137 10.018C7.81471 10.0301 7.74473 10.053 7.646 10.0863C7.48146 10.1417 7.29776 10.2046 7.09989 10.2738C6.53503 10.4717 5.97017 10.6795 5.44405 10.8878C5.09997 11.024 4.78463 11.1556 4.50345 11.2814C3.9061 11.5485 3.48454 11.7805 3.3275 11.9217L1.98117 13.268C1.79538 13.4538 1.49379 13.4538 1.308 13.268L0.634838 12.5949C0.449051 12.4091 0.449051 12.1075 0.634838 11.9217L1.96284 10.5937C2.3894 10.0543 3.04507 8.51797 3.88694 6.04567C3.88861 6.04068 3.89069 6.03526 3.89236 6.03026ZM1.55128 3.37634C1.63834 3.00727 1.82579 2.6661 2.10155 2.39034C2.36274 2.12915 2.68308 1.9467 3.03091 1.85422C2.90344 1.4814 2.59685 1.1923 2.21319 1.08941C2.11863 1.42641 1.9391 1.73675 1.68458 1.99127C1.42172 2.25412 1.09931 2.43699 0.749393 2.52864C0.850201 2.93187 1.15679 3.25429 1.55128 3.37634ZM2.03074 3.423C2.5981 3.36301 3.04632 2.90438 3.09089 2.33244C2.84762 2.40783 2.62392 2.54155 2.43814 2.72692C2.24152 2.92354 2.10322 3.16306 2.03074 3.423ZM0.731064 2.03793C0.96059 1.96086 1.17137 1.83131 1.34799 1.65469C1.51795 1.48473 1.64459 1.2827 1.72248 1.06275C1.21719 1.14023 0.816459 1.53514 0.731064 2.03793ZM1.9041 3.90538C0.983917 3.90538 0.237854 3.15931 0.237854 2.23913C0.237854 1.31894 0.983917 0.572876 1.9041 0.572876C2.82429 0.572876 3.57035 1.31894 3.57035 2.23913C3.57035 3.15931 2.82429 3.90538 1.9041 3.90538Z" fill="#8CA3B8"/>
</g>
<defs>
<clipPath id="clip0_2206_1389">
<rect width="13.33" height="13.33" fill="white" transform="translate(0 0.335022)"/>
</clipPath>
</defs>
</svg>
