<svg width="58" height="20" viewBox="0 0 58 20" fill="none" xmlns="http://www.w3.org/2000/svg">
<path d="M24.9996 19.0186H20.3069L23.2397 0.994069H27.9329L24.9996 19.0186ZM16.3591 0.994069L11.8852 13.3915L11.3558 10.7218L11.3563 10.7228L9.7773 2.61697C9.7773 2.61697 9.58638 0.994069 7.55124 0.994069H0.155146L0.0683594 1.29927C0.0683594 1.29927 2.3301 1.76984 4.97707 3.35947L9.05409 19.019H13.9435L21.4095 0.994069H16.3591V0.994069ZM53.2696 19.0186H57.5786L53.8217 0.993587H50.0494C48.3074 0.993587 47.8831 2.33684 47.8831 2.33684L40.8843 19.0186H45.7761L46.7544 16.3412H52.72L53.2696 19.0186ZM48.1059 12.6427L50.5716 5.89748L51.9587 12.6427H48.1059ZM41.2512 5.32855L41.9209 1.45789C41.9209 1.45789 39.8544 0.671997 37.7002 0.671997C35.3715 0.671997 29.8413 1.6898 29.8413 6.63902C29.8413 11.2956 36.3319 11.3534 36.3319 13.7993C36.3319 16.2453 30.51 15.807 28.5887 14.2646L27.891 18.3117C27.891 18.3117 29.9864 19.3295 33.1878 19.3295C36.3902 19.3295 41.2213 17.6715 41.2213 13.1586C41.2213 8.47213 34.6724 8.03579 34.6724 5.99825C34.6728 3.96022 39.2431 4.22203 41.2512 5.32855V5.32855Z" fill="white"/>
</svg>
