<svg width="14" height="14" viewBox="0 0 14 14" fill="none" xmlns="http://www.w3.org/2000/svg">
<g clip-path="url(#clip0_2206_2548)">
<path d="M1.07182 8.16806C1.19678 8.76875 1.4159 9.33486 1.71332 9.85056C2.31359 10.0118 2.93635 10.0947 3.57077 10.0947C5.312 10.0947 6.95534 9.4694 8.24294 8.35427C8.16171 7.88855 8.02633 7.43783 7.84054 7.01085C5.97601 7.78608 3.96817 8.19056 1.90411 8.19056C1.62543 8.19056 1.348 8.18306 1.0714 8.16848L1.07182 8.16806ZM0.993085 7.68693C1.29551 7.70526 1.5996 7.71401 1.90452 7.71401C3.89653 7.71401 5.83354 7.32536 7.63351 6.58096C7.28443 5.92654 6.81246 5.33835 6.23802 4.84889C5.24869 5.46124 4.08689 5.8099 2.85637 5.8099C2.26693 5.8099 1.68791 5.73034 1.13097 5.57579C1.01391 6.0311 0.951845 6.50848 0.951845 7.00002C0.951845 7.23246 0.965592 7.46157 0.992668 7.68693H0.993085ZM2.09406 10.4275C2.54186 11.024 3.10422 11.5297 3.74781 11.913C4.07981 11.97 4.41848 11.9988 4.76089 11.9988C5.97726 11.9988 7.1378 11.6334 8.11922 10.9611C8.25877 10.4525 8.33125 9.92221 8.33125 9.38026C8.33125 9.22363 8.325 9.06825 8.31334 8.91413C6.97867 9.97761 5.32034 10.5704 3.57077 10.5704C3.07048 10.5704 2.57644 10.5221 2.09406 10.4275ZM5.01166 12.4699C5.53487 12.6278 6.09014 12.7128 6.665 12.7128C6.89244 12.7128 7.11697 12.6994 7.33775 12.6736C7.54895 12.3566 7.72848 12.0213 7.87428 11.6714C7.00367 12.1546 6.02808 12.4307 5.01166 12.4699ZM8.12255 3.06975C7.71515 3.65086 7.2157 4.15823 6.64709 4.57355C8.008 5.78158 8.80738 7.51531 8.80738 9.38026C8.80738 10.5158 8.51204 11.6068 7.96468 12.5645C8.90027 12.347 9.74715 11.8996 10.4436 11.2848C10.6211 10.5983 10.7119 9.88847 10.7119 9.16615C10.7119 6.8409 9.76589 4.66519 8.12255 3.06975ZM8.38582 2.66277C10.1625 4.35193 11.188 6.67844 11.188 9.16615C11.188 9.66477 11.1472 10.1584 11.0664 10.6429C11.8858 9.65394 12.3786 8.38468 12.3786 7.00002C12.3786 4.61728 10.9198 2.5753 8.84654 1.71843C8.71824 2.04834 8.56328 2.36368 8.38582 2.66277ZM8.39873 1.55513C7.85345 1.38184 7.27318 1.2877 6.67083 1.28728C5.92227 2.31328 5.45655 3.52256 5.33242 4.79516C6.7179 4.16073 7.83013 3.00727 8.39873 1.55513ZM4.83837 4.99511C4.92377 3.67419 5.35366 2.41034 6.07057 1.31811C5.35949 1.39184 4.68674 1.59554 4.07773 1.90588C3.53953 2.94562 3.20961 4.10991 3.11589 5.32877C3.7149 5.30295 4.29393 5.18756 4.83837 4.99511ZM2.63809 5.33002C2.7139 4.28737 2.95468 3.28137 3.34416 2.35118C2.39357 3.03143 1.66042 3.99577 1.26843 5.12008C1.71166 5.24255 2.17029 5.31336 2.63767 5.33002H2.63809ZM6.665 13.665C2.98384 13.665 0 10.6812 0 7.00002C0 3.31886 2.98384 0.335022 6.665 0.335022C10.3462 0.335022 13.33 3.31886 13.33 7.00002C13.33 10.6812 10.3462 13.665 6.665 13.665Z" fill="#8CA3B8"/>
</g>
<defs>
<clipPath id="clip0_2206_2548">
<rect width="13.33" height="13.33" fill="white" transform="translate(0 0.335022)"/>
</clipPath>
</defs>
</svg>
