<svg width="14" height="14" viewBox="0 0 14 14" fill="none" xmlns="http://www.w3.org/2000/svg">
<g clip-path="url(#clip0_2206_1704)">
<path d="M4.08773 1.88586C3.54328 2.9306 3.21003 4.10156 3.11589 5.32833C3.71491 5.30251 4.29393 5.18754 4.83837 4.99508C4.92377 3.67417 5.35366 2.40948 6.0714 1.31725C5.36366 1.38849 4.69466 1.58594 4.08815 1.88628L4.08773 1.88586ZM3.35916 2.31534C2.37774 2.99642 1.62626 3.97326 1.24052 5.11172C1.69291 5.23919 2.16113 5.31251 2.63809 5.32958C2.71516 4.2736 2.96051 3.2551 3.35916 2.31534ZM6.67042 1.28726C5.92185 2.31326 5.45614 3.52254 5.332 4.79513C6.71957 4.15988 7.83304 3.00433 8.40082 1.54928C7.85512 1.37974 7.27402 1.28768 6.67042 1.28726ZM1.09264 8.16929C1.16513 8.49004 1.2651 8.79663 1.39215 9.0849C1.49838 9.32567 1.38924 9.60643 1.14888 9.71266C0.908524 9.81888 0.627344 9.70974 0.521121 9.46938C0.174541 8.68416 0.000417432 7.7973 0.000417432 6.8667C0.000417432 3.25719 2.98675 0.335417 6.66542 0.335417C10.3441 0.335417 13.3304 3.25719 13.3304 6.8667C13.3304 7.77397 13.1413 8.65625 12.7793 9.47063C12.6727 9.71099 12.3915 9.81929 12.1511 9.71266C11.9108 9.60602 11.8025 9.32484 11.9091 9.08448C12.2169 8.3909 12.3782 7.64026 12.3782 6.86712C12.3782 4.5427 10.9219 2.54861 8.84987 1.71049C8.72074 2.04332 8.56536 2.36199 8.38624 2.66358C10.1629 4.35275 11.1885 6.67925 11.1885 9.16696C11.1885 9.23777 11.1876 9.30859 11.186 9.37899C11.183 9.51062 11.0739 9.61435 10.9423 9.61143C10.8106 9.60851 10.7069 9.49938 10.7098 9.36774C10.7115 9.30068 10.7123 9.23361 10.7123 9.16654C10.7123 6.84129 9.76672 4.66558 8.12339 3.07015C7.71599 3.65125 7.21653 4.15863 6.64792 4.57394C8.01008 5.78364 8.80863 7.51695 8.80863 9.38066C8.80863 9.51229 8.70199 9.61851 8.57077 9.61851C8.43956 9.61851 8.33292 9.51187 8.33292 9.38066C8.33292 8.54878 8.16129 7.74523 7.84221 7.01083C5.97767 7.78605 3.96984 8.19054 1.90577 8.19054C1.63418 8.19054 1.36383 8.18345 1.09389 8.16971L1.09264 8.16929ZM1.00642 7.68774C1.30467 7.70524 1.60377 7.71399 1.90452 7.71399C3.89653 7.71399 5.83396 7.32534 7.63351 6.58094C7.28443 5.92694 6.81288 5.33875 6.23802 4.84887C5.24869 5.46122 4.0869 5.80988 2.85637 5.80988C2.25819 5.80988 1.67125 5.72823 1.10722 5.56911C1.00558 5.98525 0.951846 6.41973 0.951846 6.86628C0.951846 7.14663 0.970591 7.42114 1.00642 7.68774ZM0.128302 12.6798C-0.0512363 12.4878 -0.0408223 12.1866 0.151213 12.0071C0.343248 11.8275 0.644423 11.838 0.823961 12.03C0.881031 12.0908 1.05474 12.2845 1.06224 12.2928C1.35883 12.6178 1.52462 12.7127 1.87495 12.7127C2.11364 12.7127 2.21528 12.6515 2.48979 12.3766C2.92719 11.9379 3.22211 11.7605 3.77572 11.7605C4.32934 11.7605 4.62468 11.9379 5.05957 12.3766L5.0604 12.3774C5.33325 12.6523 5.43364 12.7127 5.67067 12.7127C5.90811 12.7127 6.01058 12.6515 6.28676 12.3762L6.2876 12.3753C6.72707 11.9375 7.02283 11.7605 7.57811 11.7605C8.13338 11.7605 8.42914 11.9379 8.86695 12.3762C9.1423 12.6519 9.24352 12.7127 9.48096 12.7127C9.7184 12.7127 9.82005 12.6519 10.0954 12.3766C10.5336 11.9379 10.8285 11.7609 11.3838 11.7609C12.1074 11.7609 12.5389 12.0308 13.048 12.6115C13.0696 12.6361 13.1584 12.7386 13.1809 12.764C13.1921 12.7769 13.1921 12.7769 13.2034 12.7894C13.3779 12.986 13.36 13.2868 13.1634 13.4613C12.9668 13.6358 12.666 13.6179 12.4915 13.4213C12.4785 13.4067 12.4785 13.4067 12.4661 13.3926C12.4415 13.3642 12.3523 13.2618 12.3328 13.2393C11.9866 12.8448 11.7766 12.7132 11.3842 12.7132C11.1464 12.7132 11.0447 12.774 10.7694 13.0497C10.3312 13.4884 10.0362 13.6654 9.48138 13.6654C8.92652 13.6654 8.63159 13.4884 8.19378 13.0502C7.91802 12.7744 7.8168 12.7132 7.57852 12.7132C7.33983 12.7132 7.23694 12.7744 6.96034 13.0506C6.52045 13.4888 6.22553 13.6654 5.6715 13.6654C5.11622 13.6654 4.8213 13.4875 4.38557 13.0485C4.11231 12.7736 4.01233 12.7132 3.77656 12.7132C3.54078 12.7132 3.43997 12.7736 3.16671 13.0477L3.16504 13.0493C2.72807 13.4875 2.43189 13.6654 1.8762 13.6654C1.21428 13.6654 0.820629 13.4392 0.360327 12.9352C0.346997 12.9206 0.178706 12.7327 0.129135 12.6802L0.128302 12.6798ZM0.128302 10.7757C-0.0512363 10.5837 -0.0408223 10.2825 0.151213 10.103C0.343248 9.92344 0.644423 9.93385 0.823961 10.1259C0.881031 10.1867 1.05474 10.3804 1.06224 10.3887C1.35883 10.7137 1.52462 10.8086 1.87495 10.8086C2.11364 10.8086 2.21528 10.7474 2.48979 10.4725C2.92719 10.0338 3.22211 9.85637 3.77572 9.85637C4.32934 9.85637 4.62468 10.0338 5.05957 10.4725L5.0604 10.4733C5.33325 10.7482 5.43364 10.8086 5.67067 10.8086C5.90811 10.8086 6.01058 10.7474 6.28676 10.472L6.2876 10.4712C6.72707 10.0334 7.02283 9.85637 7.57811 9.85637C8.13338 9.85637 8.42914 10.0338 8.86695 10.472C9.1423 10.7478 9.24352 10.8086 9.48096 10.8086C9.7184 10.8086 9.82005 10.7478 10.0954 10.4725C10.5336 10.0338 10.8285 9.85679 11.3838 9.85679C12.1074 9.85679 12.5389 10.1267 13.048 10.7074C13.0696 10.732 13.1584 10.8345 13.1809 10.8599C13.1921 10.8728 13.1921 10.8728 13.2034 10.8853C13.3779 11.0819 13.36 11.3827 13.1634 11.5572C12.9668 11.7317 12.666 11.7138 12.4915 11.5172C12.4785 11.5026 12.4785 11.5026 12.4661 11.4885C12.4415 11.4601 12.3523 11.3577 12.3328 11.3352C11.9866 10.9407 11.7766 10.809 11.3842 10.809C11.1464 10.809 11.0447 10.8699 10.7694 11.1456C10.3312 11.5843 10.0362 11.7613 9.48138 11.7613C8.92652 11.7613 8.63159 11.5843 8.19378 11.146C7.91802 10.8703 7.8168 10.809 7.57852 10.809C7.33983 10.809 7.23694 10.8703 6.96034 11.1465C6.52045 11.5847 6.22553 11.7613 5.6715 11.7613C5.11622 11.7613 4.8213 11.5834 4.38557 11.1444C4.11231 10.8694 4.01233 10.809 3.77656 10.809C3.54078 10.809 3.43997 10.8694 3.16671 11.1435L3.16504 11.1452C2.72807 11.5834 2.43189 11.7613 1.8762 11.7613C1.21428 11.7613 0.820629 11.5351 0.360327 11.0311C0.346997 11.0165 0.178706 10.8286 0.129135 10.7761L0.128302 10.7757Z" fill="#8CA3B8"/>
</g>
<defs>
<clipPath id="clip0_2206_1704">
<rect width="13.33" height="13.33" fill="white" transform="translate(0 0.335)"/>
</clipPath>
</defs>
</svg>
