<svg xmlns="http://www.w3.org/2000/svg" width="172" height="52" viewBox="0 0 172 52" fill="none"><script xmlns=""/>
<path d="M30.1394 21.2559L29.3357 24.5249C30.2472 24.7537 33.0584 25.6949 33.5133 23.8455C33.9886 21.9163 31.0526 21.4933 30.1394 21.2559Z" fill="#8CA3B8"/>
<path d="M28.9305 26.1733L28.043 29.7787C29.1374 30.0543 32.5146 31.1532 33.0139 29.12C33.5355 27.0001 30.0249 26.4507 28.9305 26.1733Z" fill="#8CA3B8"/>
<path d="M33.7732 11.5232C30.9484 10.8094 27.9782 10.9606 25.2382 11.9579C22.4982 12.9551 20.1115 14.7535 18.3799 17.1257C16.6482 19.4979 15.6494 22.3373 15.5098 25.2849C15.3701 28.2324 16.0959 31.1558 17.5953 33.6853C19.0947 36.2147 21.3004 38.2367 23.9335 39.4955C26.5666 40.7543 29.5088 41.1934 32.3881 40.7573C35.2673 40.3211 37.9544 39.0293 40.1094 37.0452C42.2644 35.0611 43.7905 32.4738 44.4949 29.6105C44.9626 27.7093 45.0562 25.7333 44.7705 23.7954C44.4848 21.8574 43.8253 19.9955 42.8297 18.316C41.8341 16.6364 40.5219 15.172 38.968 14.0065C37.414 12.841 35.6488 11.9972 33.7732 11.5232ZM36.7058 23.8749C36.4938 25.3275 35.6986 26.0312 34.6436 26.2791C36.0919 27.0435 36.8289 28.2169 36.1278 30.2501C35.2557 32.7739 33.1849 32.9871 30.4301 32.4601L29.7615 35.1745L28.1456 34.7672L28.8056 32.0875C28.3867 31.9817 27.9592 31.8708 27.518 31.7408L26.8562 34.4327L25.2437 34.0236L25.9123 31.304C25.5344 31.2052 25.1514 31.1012 24.7598 31.0024L22.6582 30.472L23.4602 28.6C23.4602 28.6 24.6572 28.9207 24.6332 28.8964C24.7071 28.9206 24.785 28.9298 24.8623 28.9233C24.9397 28.9169 25.0151 28.895 25.0841 28.8589C25.1531 28.8228 25.2143 28.7733 25.2643 28.713C25.3143 28.6528 25.3521 28.5832 25.3754 28.5081L26.4304 24.2147L26.6014 24.258C26.5458 24.2358 26.4887 24.2178 26.4304 24.2043L27.188 21.1467C27.2068 20.8 27.0888 20.3597 26.4339 20.1933C26.4595 20.1777 25.2608 19.8987 25.2608 19.8987L25.6917 18.1497L27.9147 18.7131C28.2567 18.798 28.5987 18.8864 28.9407 18.9592L29.6008 16.2708L31.2167 16.6781L30.5669 19.3145C31.0001 19.4139 31.4316 19.5168 31.8614 19.6231L32.5061 17.004L34.1203 17.4113L33.4671 20.1067C35.5071 20.8208 36.9982 21.8885 36.7058 23.8749Z" fill="#8CA3B8"/>
<path d="M58.64 20.1067C59.7051 20.0807 60.7622 20.3 61.7317 20.748C62.5728 21.1541 63.3132 21.7464 63.8982 22.4814C64.4836 23.2443 64.9137 24.1174 65.1636 25.0502C65.4419 26.0836 65.5788 27.1509 65.5706 28.2222C65.58 31.5639 64.3119 34.7795 62.0326 37.1939C60.927 38.3462 59.6102 39.2688 58.1561 39.91C56.6299 40.5856 54.9803 40.927 53.315 40.9119C53.091 40.9119 52.696 40.9119 52.1386 40.8928C51.4975 40.8714 50.8581 40.8135 50.2234 40.7195C49.4518 40.6069 48.6864 40.4542 47.9303 40.2619C47.1391 40.0689 46.3704 39.7911 45.6371 39.4334L52.0838 11.9756L57.8585 11.0691L55.55 20.8122C56.0305 20.595 56.5289 20.421 57.0394 20.2922C57.5635 20.1646 58.101 20.1023 58.64 20.1067ZM53.7973 36.2735C54.6573 36.2742 55.5034 36.0535 56.2562 35.6322C57.03 35.2027 57.7091 34.6176 58.2518 33.9127C58.8193 33.178 59.2657 32.355 59.5736 31.4756C59.8966 30.5667 60.061 29.6077 60.0593 28.6416C60.0593 27.4283 59.8592 26.4906 59.4625 25.8094C59.0658 25.1282 58.3271 24.7867 57.26 24.7867C56.8029 24.8041 56.3486 24.868 55.904 24.9774C55.3416 25.108 54.8213 25.3818 54.3923 25.773L51.9334 36.1192C52.0821 36.147 52.2138 36.1712 52.325 36.1955C52.4405 36.2215 52.5576 36.2401 52.6755 36.251C52.8248 36.2675 52.975 36.275 53.1252 36.2735H53.7973ZM71.5556 40.3867H66.0409L70.6972 20.5227H76.253L71.5556 40.3867ZM74.2386 18.1012C73.4869 18.1088 72.7537 17.8651 72.1524 17.4079C71.5283 16.9451 71.2187 16.2327 71.2187 15.2724C71.2157 14.7588 71.3231 14.2508 71.5334 13.7835C71.7365 13.3293 72.0219 12.9177 72.3747 12.5702C72.7271 12.2288 73.1364 11.9536 73.5837 11.7572C74.0494 11.5576 74.5504 11.4568 75.056 11.4608C75.8077 11.4533 76.5409 11.6969 77.1422 12.1542C77.7612 12.6164 78.0713 13.3276 78.0724 14.2879C78.0752 14.8035 77.9666 15.3135 77.7544 15.782C77.554 16.2366 77.2703 16.6483 76.9182 16.9954C76.5659 17.3372 76.1558 17.6119 75.7075 17.8066C75.2434 18.0096 74.7424 18.1117 74.2369 18.1064L74.2386 18.1012ZM81.0786 15.5723L86.855 14.671L85.4357 20.5262H91.6225L90.5093 25.1334H84.3618L82.7236 32.0806C82.5813 32.6113 82.4942 33.1556 82.4637 33.7047C82.4267 34.1495 82.4898 34.5969 82.6484 35.0134C82.8023 35.3866 83.0875 35.6887 83.4487 35.861C83.8334 36.0638 84.384 36.166 85.1057 36.166C85.6884 36.1668 86.2699 36.1088 86.8413 35.9927C87.4161 35.8773 87.9819 35.7197 88.5342 35.5212L88.9463 39.8286C88.1547 40.118 87.346 40.3571 86.525 40.5444C85.509 40.759 84.4726 40.8584 83.435 40.8408C81.725 40.8408 80.3957 40.5843 79.4473 40.0712C78.56 39.617 77.8493 38.8733 77.4295 37.96C77.0234 36.9893 76.8477 35.9355 76.9165 34.8834C76.9742 33.6484 77.146 32.4216 77.4295 31.2191L81.0837 15.5844L81.0786 15.5723ZM91.3797 32.455C91.369 30.8066 91.6463 29.1693 92.1987 27.619C92.7197 26.1552 93.5185 24.809 94.55 23.6566C95.589 22.5099 96.8529 21.596 98.2607 20.9734C99.7941 20.3019 101.45 19.967 103.121 19.9906C104.129 19.9782 105.136 20.0864 106.12 20.313C106.949 20.5096 107.755 20.7943 108.526 21.1623L106.624 25.5494C106.116 25.3437 105.6 25.1611 105.077 25.0016C104.441 24.822 103.782 24.7385 103.122 24.7538C101.281 24.7538 99.8253 25.3986 98.7429 26.6795C97.6605 27.9604 97.115 29.6903 97.115 31.8552C97.115 33.139 97.3892 34.179 97.9375 34.9752C98.483 35.7691 99.4919 36.1643 100.954 36.1643C101.656 36.166 102.356 36.0905 103.042 35.939C103.654 35.806 104.253 35.6162 104.831 35.3722L105.248 39.8667C104.494 40.1594 103.723 40.406 102.939 40.6051C101.949 40.8321 100.935 40.9392 99.9194 40.924C98.3793 40.924 97.0751 40.6975 96.0069 40.2446C95.0046 39.8362 94.1024 39.211 93.3632 38.4124C92.6627 37.6392 92.1462 36.7136 91.8533 35.7067C91.5395 34.654 91.3816 33.5599 91.3848 32.4602L91.3797 32.455ZM115.877 40.9136C114.709 40.9378 113.548 40.7317 112.457 40.307C111.536 39.9387 110.714 39.3569 110.055 38.6083C109.408 37.8539 108.92 36.974 108.62 36.0222C108.287 34.9574 108.125 33.8456 108.139 32.7288C108.143 31.1881 108.387 29.6577 108.863 28.1944C109.329 26.715 110.056 25.3333 111.007 24.1159C111.954 22.9025 113.13 21.893 114.466 21.1467C115.834 20.3806 117.397 19.9958 119.159 19.9958C120.326 19.9725 121.488 20.1779 122.579 20.6007C123.501 20.9694 124.326 21.551 124.988 22.2994C125.633 23.0548 126.12 23.9352 126.419 24.8872C126.754 25.9551 126.918 27.0705 126.903 28.191C126.898 29.73 126.66 31.2592 126.199 32.7254C125.745 34.1984 125.038 35.5785 124.111 36.8022C123.179 38.0228 122.005 39.0324 120.665 39.7662C119.289 40.5346 117.693 40.9188 115.877 40.9188V40.9136ZM118.634 24.7503C117.855 24.7374 117.095 24.9888 116.474 25.4644C115.841 25.9601 115.31 26.5766 114.911 27.2792C114.481 28.0282 114.16 28.8362 113.958 29.6782C113.755 30.4861 113.65 31.3161 113.644 32.1499C113.644 33.4118 113.842 34.394 114.239 35.0966C114.637 35.7986 115.356 36.1522 116.4 36.1522C117.18 36.1654 117.942 35.912 118.562 35.4328C119.196 34.9408 119.729 34.3271 120.13 33.6267C120.56 32.8778 120.882 32.0698 121.084 31.2278C121.284 30.4198 121.389 29.5907 121.397 28.7578C121.397 27.5011 121.197 26.5166 120.798 25.8111C120.4 25.1056 119.68 24.7538 118.637 24.7538L118.634 24.7503ZM132.919 40.3867H127.399L132.057 20.5227H137.611L132.919 40.3867ZM135.599 18.1012C134.847 18.1096 134.114 17.8658 133.514 17.4079C132.892 16.9457 132.58 16.2338 132.579 15.2724C132.577 14.7586 132.685 14.2505 132.897 13.7835C133.098 13.3286 133.383 12.9168 133.736 12.5702C134.089 12.2284 134.499 11.9531 134.947 11.7572C135.411 11.5556 135.911 11.453 136.416 11.4556C137.168 11.4477 137.902 11.6914 138.504 12.149C139.125 12.617 139.437 13.3276 139.437 14.2827C139.438 14.7983 139.329 15.3079 139.118 15.7768C138.918 16.2313 138.635 16.643 138.283 16.9902C137.93 17.3313 137.52 17.606 137.073 17.8014C136.607 18.0046 136.105 18.1067 135.599 18.1012ZM141.584 21.4258C142.002 21.301 142.471 21.1519 142.979 20.989C143.543 20.8122 144.113 20.6625 144.689 20.54C145.39 20.3863 146.098 20.2706 146.811 20.1934C147.695 20.098 148.583 20.0528 149.472 20.0582C152.38 20.0582 154.387 20.915 155.493 22.6287C156.598 24.3424 156.792 26.6841 156.072 29.6539L153.545 40.3867H147.993L150.452 29.8862C150.602 29.231 150.718 28.5966 150.807 27.9795C150.897 27.4413 150.89 26.8911 150.787 26.3554C150.698 25.9076 150.455 25.5061 150.103 25.2218C149.74 24.9323 149.19 24.7884 148.444 24.7884C147.706 24.7909 146.97 24.8675 146.247 25.0172L142.628 40.3867H137.076L141.585 21.4292L141.584 21.4258Z" fill="#8CA3B8"/>
<script xmlns=""/></svg>