<svg xmlns="http://www.w3.org/2000/svg" width="136" height="54" viewBox="0 0 136 54" fill="none"><script xmlns=""/>
<path d="M24.1205 27.0033L20.0976 31.024L16.0769 27.0033L20.0976 22.9827L24.1205 27.0033ZM33.8843 17.2395L40.7765 24.1318L44.7949 20.1201L33.882 9.19824L22.9692 20.1201L26.9898 24.1408L33.8843 17.2395ZM47.6687 22.9827L43.6481 27.0033L47.6665 31.024L51.6871 27.0033L47.6687 22.9827ZM33.8843 36.7671L26.9921 29.8749L22.9692 33.8911L33.882 44.8017L44.7949 33.8911L40.7743 29.8704L33.8843 36.7671ZM33.8843 31.024L37.9049 27.0033L33.8843 22.9827L29.8636 27.0033L33.8843 31.024ZM59.733 17.2373H68.8014C71.0341 17.2373 72.7927 17.8513 73.908 18.9666C74.3474 19.3983 74.6931 19.9161 74.9234 20.4874C75.1537 21.0588 75.2638 21.6716 75.2467 22.2874V22.3416C75.2467 24.5472 74.075 25.7752 72.6799 26.5564C74.9374 27.421 76.3348 28.7326 76.3348 31.3559V31.4078C76.3348 34.9792 73.4339 36.7649 69.0249 36.7649H59.7307L59.733 17.2373ZM67.8804 25.1386C69.7789 25.1386 70.9777 24.5268 70.9777 23.0752V23.0188C70.9777 21.7365 69.9731 21.0096 68.1603 21.0096H63.9162V25.1319L67.8804 25.1386ZM69.0249 33.0084C70.9235 33.0084 72.0658 32.3311 72.0658 30.8885V30.8321C72.0658 29.5205 71.0906 28.7123 68.885 28.7123H63.9184V33.0016L69.0249 33.0084ZM80.5744 17.2441H84.5386L93.6907 29.2699V17.2373H97.9303V36.7671H94.2731L84.8141 24.3508V36.7671H80.5722L80.5744 17.2441ZM103.314 17.2441H112.39C114.622 17.2441 116.381 17.8581 117.496 18.9733C117.936 19.4051 118.281 19.9228 118.512 20.4942C118.742 21.0656 118.852 21.6783 118.835 22.2941V22.3483C118.835 24.5539 117.663 25.782 116.268 26.5631C118.526 27.4278 119.923 28.7394 119.923 31.3626V31.4078C119.923 34.9792 117.022 36.7649 112.613 36.7649H103.312L103.314 17.2441ZM111.462 25.1454C113.36 25.1454 114.559 24.5336 114.559 23.082V23.0256C114.559 21.7433 113.555 21.0164 111.742 21.0164H107.498V25.1319L111.462 25.1454ZM112.615 33.0016C114.514 33.0016 115.656 32.3243 115.656 30.8818V30.8253C115.656 29.5137 114.681 28.7055 112.476 28.7055H107.509V32.9948L112.615 33.0016Z" fill="#8CA3B8"/>
<script xmlns=""/></svg>