<svg xmlns="http://www.w3.org/2000/svg" width="60" height="60" viewBox="0 0 60 60" fill="none"><script xmlns=""/>
<g clip-path="url(#clip0_7720_41492)">
<path d="M-0.00335693 30V60H29.7926H59.5983V30V0H29.7926H-0.00335693V30Z" fill="black"/>
<path d="M52.4772 17.2928V27.2798L51.1268 28.6302L49.7667 29.9903L51.1268 31.3504L52.4772 32.7008V42.6878V52.6652H29.7926H7.11776V42.7073V32.7105L8.46815 31.3601L9.82825 30L8.46815 28.6399L7.11776 27.2895V17.2928V7.31543H29.8023H52.4869V17.2928H52.4772ZM9.31336 17.9145V26.318L11.1495 28.1542L12.9954 30L11.1495 31.8459L9.31336 33.682V42.0855V50.489H29.7926H50.2719V42.0855V33.682L48.4358 31.8459L46.5899 30L48.4358 28.1542L50.2719 26.318V17.9145V9.51103H29.7926H9.31336V17.9145Z" fill="white"/>
<path d="M25.7512 16.1658L27.1793 17.5939V20.9942V24.3944L25.7609 25.8128L24.3328 27.2409H20.5342H16.7356V20.9844V14.728H20.5342H24.3328L25.7512 16.1658ZM18.9409 20.9942V25.0453H21.1657H23.3904L24.1191 24.2584L24.8477 23.4812V20.9942V18.4974L24.1093 17.7105L23.371 16.9236H21.1463H18.9409V20.9942Z" fill="white"/>
<path d="M41.3146 20.9845C42.733 24.4042 43.8891 27.2021 43.8891 27.2215C43.8891 27.241 43.3548 27.2507 42.6942 27.2507H41.4992L41.1883 26.5123L40.8775 25.774H37.7007H34.5238L34.2324 26.4929L33.9409 27.2118L32.7266 27.2312C31.7648 27.241 31.5122 27.2312 31.5413 27.1632C31.5608 27.1147 32.7071 24.3362 34.0964 20.9942C35.4856 17.6425 36.632 14.8737 36.6514 14.8252C36.6806 14.7669 36.9332 14.7474 37.7201 14.7571L38.7402 14.7766L41.3146 20.9845ZM36.6223 20.7707C36.0491 22.16 35.5536 23.3452 35.5342 23.4132C35.4953 23.5298 35.6216 23.5395 37.7104 23.5395C39.4882 23.5395 39.9157 23.5201 39.8963 23.4521C39.8477 23.2578 37.7492 18.2448 37.7104 18.2448C37.6812 18.2448 37.2052 19.3912 36.6223 20.7707Z" fill="white"/>
<path d="M26.2272 33.8374V34.9352L22.9533 38.9864L19.6987 43.0278L22.9533 43.0473L26.2272 43.057V44.1645V45.2623H21.4766H16.7356V44.1353L16.7453 43.0278L20.029 39.0058L23.3127 34.9838L20.0193 34.9644L16.7356 34.9449V33.8471V32.7493H21.4766H26.2272V33.8374Z" fill="white"/>
<path d="M37.5064 37.1988L40.6249 41.6677L40.6443 37.1988L40.654 32.7493H41.7615H42.8593V39.0058V45.2623H41.6061H40.3529L37.5647 41.2111L34.7764 37.1697L34.757 41.2208L34.7473 45.2623H33.5815H32.406V39.0058V32.7493H33.3969H34.3781L37.5064 37.1988Z" fill="white"/>
</g>
<defs>
<clipPath id="clip0_7720_41492">
<rect width="59.6017" height="60" fill="white" transform="translate(-0.00335693)"/>
</clipPath>
</defs>
<script xmlns=""/></svg>