<svg xmlns="http://www.w3.org/2000/svg" width="172" height="52" viewBox="0 0 172 52" fill="none"><script xmlns=""/>
<path d="M155.14 26.0607C154.718 27.307 154.504 28.607 154.186 29.874C153.856 31.1948 153.536 32.5191 153.247 33.8503C153.167 34.223 153.015 34.3408 152.649 34.3322C151.717 34.3114 150.782 34.3131 149.848 34.3322C149.47 34.3322 149.373 34.2472 149.468 33.8486C150.039 31.4722 150.587 29.0888 151.13 26.7072C151.261 26.2223 151.323 25.7209 151.313 25.2183C151.266 24.3066 150.785 23.8143 149.894 23.764C148.304 23.6739 148.222 23.7415 147.856 25.2998C147.187 28.1476 146.503 30.9903 145.847 33.8416C145.764 34.2004 145.636 34.3443 145.26 34.3356C144.326 34.3114 143.393 34.3166 142.459 34.3356C142.097 34.3356 141.961 34.268 142.061 33.859C143.025 29.8723 143.971 25.87 144.927 21.8764C144.971 21.691 144.992 21.4951 145.236 21.4136C147.396 20.6926 149.597 20.3251 151.861 20.7012C153.571 20.9872 154.687 21.9856 155.033 23.7606C155.043 23.8091 155.103 23.8455 155.14 23.8871V26.0607Z" fill="#8CA3B8"/>
<path d="M91.0325 32.923C90.1274 33.3568 89.1187 33.5192 88.1255 33.391C85.8718 33.105 84.4969 31.5329 84.3635 29.127C84.1207 24.5371 86.8807 21.2143 91.4087 20.6146C93.3282 20.3603 95.2799 20.6117 97.0757 21.3443C97.3903 21.4691 97.5596 21.6009 97.4638 22.0013C96.5524 25.7817 95.6615 29.5673 94.7586 33.3494C94.6632 33.718 94.549 34.0813 94.4166 34.4379C93.4488 37.1887 91.5284 38.7557 88.6539 39.0486C86.7592 39.241 84.8919 39.1266 83.0913 38.3553C82.633 38.1594 82.5458 37.9861 82.7767 37.5319C83.0785 36.9219 83.3407 36.2925 83.5615 35.6478C83.7189 35.2075 83.8745 35.0793 84.3601 35.3011C85.7057 35.9309 87.2124 36.1165 88.6676 35.8315C89.3309 35.6949 89.9278 35.3314 90.3584 34.8019C90.7889 34.2724 91.0269 33.6091 91.0325 32.923ZM88.0845 28.2673C88.1204 28.9051 88.1204 29.7389 88.9395 30.1566C89.8355 30.609 90.7179 30.3785 91.5592 29.933C91.6647 29.8765 91.7566 29.797 91.8281 29.7002C91.8997 29.6033 91.9492 29.4917 91.973 29.3731C92.3749 27.6745 92.7733 25.9758 93.1871 24.2823C93.2863 23.8767 93.1495 23.7727 92.7596 23.7381C90.0613 23.4919 88.1033 25.3067 88.0845 28.2673Z" fill="#8CA3B8"/>
<path d="M56.3503 29.1547C56.3418 25.0155 59.0128 21.6182 62.9099 20.8191C63.7838 20.6079 64.6921 20.5884 65.574 20.7619C66.0699 20.8763 66.2136 20.6857 66.3128 20.2419C66.6548 18.6941 67.0498 17.1601 67.3866 15.6139C67.4687 15.2378 67.6158 15.0679 67.9851 15.0159C69.0111 14.8738 70.0314 14.7149 71.046 14.5393C71.5129 14.4595 71.371 14.7369 71.3179 14.9605C70.846 16.963 70.3695 18.9673 69.8884 20.9734C69.2847 23.5093 68.6743 26.0434 68.0826 28.5827C67.7147 30.2184 67.7921 31.9247 68.3066 33.5193C68.4486 33.9821 68.3648 34.1121 67.8945 34.1519C67.1824 34.2164 66.4745 34.3217 65.7741 34.4674C65.2868 34.5679 64.955 34.4674 64.837 33.9578C64.6951 33.3286 64.4386 33.4378 64.006 33.7342C62.0908 35.0307 59.625 34.9995 58.0483 33.6718C56.8052 32.6318 56.4786 31.1654 56.352 29.6314C56.3383 29.4771 56.3503 29.3142 56.3503 29.1547ZM64.4301 23.7987C60.7159 23.7034 59.3257 28.4787 60.4765 30.7043C60.8442 31.415 61.5179 31.5277 62.219 31.4687C62.586 31.4444 62.9428 31.337 63.2634 31.1543C63.5839 30.9716 63.8599 30.7183 64.071 30.4131C64.1017 30.3715 64.0881 30.297 64.0949 30.2398C64.295 28.3193 64.8234 26.4681 65.2628 24.5978C65.4338 23.8681 65.4167 23.8455 64.6695 23.8039C64.5891 23.7953 64.5104 23.8005 64.4301 23.7987Z" fill="#8CA3B8"/>
<path d="M127.437 34.6666C124.061 34.6666 122.146 32.8553 122.016 29.5203C121.905 26.6569 122.823 24.1366 125.009 22.2039C126.748 20.6647 128.788 20.2054 131.019 20.6855C133.071 21.1258 134.352 22.5749 134.631 24.9495C135.007 28.1527 134.118 30.9607 131.636 33.1205C130.481 34.157 128.979 34.7096 127.437 34.6666ZM125.749 28.5861C125.768 29.2014 125.768 29.6607 125.891 30.1131C126.171 31.1323 126.857 31.5986 127.893 31.453C128.832 31.3195 129.485 30.7597 129.973 29.9901C130.819 28.6633 131.157 27.068 130.922 25.5059C130.751 24.1297 129.942 23.5282 128.603 23.7917C128.133 23.8931 127.705 24.1346 127.372 24.485C126.185 25.6533 125.807 27.1266 125.749 28.5809V28.5861Z" fill="#8CA3B8"/>
<path d="M75.6921 34.6667C72.6141 34.6667 70.7434 33.0893 70.4869 29.9087C70.2081 26.442 71.3897 23.4953 74.3805 21.5193C76.082 20.3927 77.963 20.2332 79.8782 20.8C81.4497 21.2697 82.4056 22.3999 82.8758 23.9668C83.8403 27.1891 82.4175 31.4305 79.714 33.3892C78.4862 34.2853 77.3081 34.6563 75.6921 34.6667ZM79.4131 26.4593C79.3977 26.1872 79.3925 25.9064 79.3669 25.6273C79.2096 23.9443 77.8279 23.2128 76.3658 24.0448C76.0368 24.2323 75.7464 24.4824 75.5108 24.7815C74.2985 26.3259 73.9547 28.0921 74.3019 29.9815C74.5208 31.1844 75.3039 31.6333 76.4941 31.4063C77.0043 31.3108 77.4724 31.0563 77.833 30.6783C78.9753 29.5117 79.3601 28.0505 79.4131 26.4524V26.4593Z" fill="#8CA3B8"/>
<path d="M103.64 34.6546C102.601 34.6806 101.653 34.6008 100.756 34.223C98.9139 33.4464 98.0469 31.9696 97.8075 30.0352C97.3339 26.2028 99.6047 21.7274 103.993 20.6995C104.998 20.4338 106.052 20.4278 107.06 20.6822C108.442 21.0652 109.454 21.8955 109.767 23.355C110.121 25.0467 109.714 26.5512 108.389 27.7143C107.267 28.6971 105.894 29.0888 104.465 29.3159C103.622 29.4585 102.769 29.5321 101.915 29.536C101.537 29.536 101.486 29.6816 101.573 30.0058C101.794 30.888 102.49 31.4132 103.586 31.4843C104.699 31.5664 105.817 31.4323 106.881 31.0891C107.276 30.9574 107.37 31.0735 107.394 31.4358C107.438 32.1378 107.478 32.8398 107.565 33.5348C107.614 33.8815 107.476 33.9924 107.192 34.0808C106.046 34.4644 104.847 34.6582 103.64 34.6546ZM102.5 26.891C102.763 26.8598 103.244 26.8303 103.709 26.7384C104.468 26.5876 105.234 26.4264 105.874 25.9411C106.121 25.7529 106.303 25.4905 106.396 25.1913C106.488 24.892 106.484 24.571 106.387 24.2736C106.163 23.6583 105.655 23.5335 105.087 23.53C103.615 23.53 102.329 24.5527 101.766 26.189C101.515 26.9291 101.515 26.9291 102.5 26.891Z" fill="#8CA3B8"/>
<path d="M116.423 34.6822C115.606 34.6996 114.793 34.5772 114.017 34.32C112.076 33.6093 110.939 32.2018 110.708 30.1461C110.33 26.8528 111.187 23.9702 113.935 21.9648C116.361 20.1933 119.056 20.1205 121.826 21.1154C122.202 21.2489 122.192 21.4274 122.049 21.736C121.722 22.4449 121.407 23.1608 121.115 23.8836C120.992 24.1886 120.853 24.2684 120.542 24.128C119.661 23.7384 118.684 23.6255 117.739 23.8038C116.01 24.0933 114.808 25.48 114.578 27.4057C114.492 27.9794 114.478 28.5617 114.535 29.139C114.74 30.7458 115.494 31.4582 117.1 31.453C117.858 31.462 118.612 31.3292 119.323 31.0613C119.646 30.9365 119.757 31.0353 119.783 31.3473C119.843 32.1065 119.892 32.8692 119.976 33.6266C120.012 33.9594 119.822 34.0478 119.583 34.1154C119.029 34.2714 118.48 34.4621 117.915 34.5592C117.42 34.6285 116.922 34.6696 116.423 34.6822Z" fill="#8CA3B8"/>
<path d="M136.967 34.3322C136.491 34.3322 136.014 34.3166 135.537 34.3322C135.166 34.3478 135.062 34.2646 135.161 33.8555C135.805 31.1896 136.419 28.5151 137.042 25.844C137.384 24.362 137.746 22.8835 138.078 21.398C138.164 21.0132 138.292 20.8312 138.735 20.8538C139.628 20.9006 140.523 20.9006 141.416 20.8538C141.943 20.826 141.948 21.0358 141.85 21.4431C140.967 25.1409 140.088 28.8427 139.215 32.5486C139.114 32.9767 138.978 33.4014 138.919 33.8347C138.861 34.268 138.651 34.3547 138.275 34.3322C137.842 34.32 137.404 34.3322 136.967 34.3322Z" fill="#8CA3B8"/>
<path d="M140.592 19.2157C139.34 19.2053 138.54 18.4409 138.565 17.2726C138.593 15.9085 139.795 14.7333 141.168 14.7316C142.391 14.7316 143.22 15.5116 143.22 16.6642C143.214 17.007 143.141 17.3452 143.005 17.6593C142.869 17.9733 142.674 18.2571 142.43 18.4943C142.185 18.7314 141.897 18.9172 141.582 19.041C141.266 19.1649 140.93 19.2242 140.592 19.2157Z" fill="#8CA3B8"/>
<path d="M32.1538 10.4988C29.1292 10.4988 26.1726 11.4079 23.6577 13.1112C21.1429 14.8145 19.1828 17.2355 18.0254 20.0679C16.8679 22.9004 16.5651 26.0172 17.1551 29.0241C17.7452 32.0311 19.2017 34.7931 21.3404 36.961C23.4791 39.1289 26.2039 40.6052 29.1704 41.2033C32.1368 41.8014 35.2117 41.4945 38.006 40.3212C40.8004 39.148 43.1887 37.1611 44.8691 34.612C46.5494 32.0628 47.4463 29.0658 47.4463 26C47.4463 21.8888 45.8352 17.946 42.9673 15.039C40.0994 12.1319 36.2096 10.4988 32.1538 10.4988ZM32.6326 35.2733H26.5057V27.0192H24.346V24.9946H26.5057V16.7422H31.7742C33.0208 16.7422 41.2527 16.4545 41.2527 26.1508C41.2527 36.0065 32.6326 35.2733 32.6326 35.2733Z" fill="#8CA3B8"/>
<path d="M32.359 20.1396H29.965V24.993H33.7954V27.0123H29.965V31.8656H32.5027V31.8414C33.1542 31.8414 37.8379 31.9055 37.8293 26.2046C37.8208 20.5036 33.2636 20.1396 32.359 20.1396Z" fill="#8CA3B8"/>
<script xmlns=""/></svg>