<svg xmlns="http://www.w3.org/2000/svg" width="172" height="52" viewBox="0 0 172 52" fill="none"><script xmlns=""/>
<path d="M59.0966 22.1606H57.2891V19.0857C57.2905 18.868 57.2454 18.6525 57.1568 18.4541C57.0683 18.2557 56.9384 18.0792 56.7761 17.9365C56.6075 17.7912 56.4097 17.6849 56.1965 17.6251C55.9833 17.5652 55.7597 17.5532 55.5415 17.5898C55.194 17.6516 54.8796 17.8368 54.6547 18.1121C54.4297 18.3875 54.3088 18.7351 54.3137 19.0926V22.1537H52.6156C52.222 22.1591 51.846 22.3201 51.5678 22.6025C51.2895 22.8848 51.1311 23.2661 51.1262 23.6652C51.1242 23.864 51.1613 24.0613 51.2354 24.2454C51.3095 24.4295 51.4192 24.5968 51.5579 24.7374C51.6966 24.878 51.8616 24.9891 52.0433 25.0642C52.2249 25.1394 52.4195 25.177 52.6156 25.1749H54.3137V35.2438C54.3141 35.6443 54.4711 36.0282 54.7503 36.3115C55.0295 36.5948 55.4081 36.7544 55.8031 36.7553C56.1967 36.7499 56.5728 36.5889 56.851 36.3065C57.1292 36.0242 57.2876 35.6429 57.2925 35.2438V25.1818H59.1C59.2963 25.1842 59.4911 25.1467 59.6729 25.0717C59.8547 24.9967 60.0199 24.8856 60.1588 24.7449C60.2977 24.6043 60.4075 24.4369 60.4818 24.2527C60.556 24.0685 60.5932 23.8711 60.5911 23.6721C60.5909 23.4734 60.552 23.2767 60.4768 23.0932C60.4016 22.9097 60.2914 22.743 60.1526 22.6026C60.0139 22.4623 59.8492 22.351 59.668 22.2752C59.4868 22.1993 59.2926 22.1604 59.0966 22.1606Z" fill="#8CA3B8"/>
<path d="M40.514 21.9059H40.502C36.6716 21.9059 33.556 25.2842 33.556 29.4372C33.556 33.5903 36.6716 36.9686 40.502 36.9686C43.067 36.9686 45.3704 35.7258 46.5024 33.7255L46.5281 33.6752C46.6846 33.3787 46.7399 33.038 46.6854 32.7063C46.645 32.4603 46.5442 32.2286 46.3925 32.0323C46.2407 31.8361 46.0427 31.6816 45.8167 31.5831C45.4946 31.4418 45.1337 31.42 44.7973 31.5214C44.4608 31.6228 44.1704 31.841 43.9767 32.1378C43.1217 33.3806 42.0479 33.9335 40.5089 33.9335C38.6381 33.9335 37.3317 32.5312 36.8084 30.94H45.986C46.3854 30.9405 46.7687 30.7803 47.0518 30.4947C47.3348 30.2091 47.4946 29.8213 47.4959 29.4164C47.4788 25.2703 44.3512 21.9059 40.514 21.9059ZM36.8084 27.9206C37.33 26.3294 38.633 24.9254 40.514 24.9254C42.3505 24.9254 43.7014 26.312 44.223 27.9206H36.8084Z" fill="#8CA3B8"/>
<path d="M71.2632 21.9405C70.0529 21.9405 68.8739 22.3301 67.8962 23.0533V13.182C67.8958 12.7817 67.7387 12.398 67.4595 12.1149C67.1803 11.8319 66.8017 11.6727 66.4068 11.6722C66.0132 11.6772 65.637 11.8378 65.3584 12.1198C65.0799 12.4018 64.921 12.7829 64.9157 13.182V35.1866C64.9142 35.4047 64.9592 35.6204 65.0478 35.8191C65.1363 36.0178 65.2663 36.1947 65.4287 36.3376C65.5974 36.4826 65.7952 36.5886 66.0084 36.6485C66.2216 36.7083 66.445 36.7205 66.6633 36.6842C67.0111 36.6224 67.3257 36.437 67.5507 36.1613C67.7757 35.8855 67.8964 35.5375 67.8911 35.1797V30.153C67.8911 30.1322 67.8911 30.0317 67.8757 29.9138C67.8757 29.8324 67.8586 29.7405 67.8569 29.7041V29.6417C67.7594 28.1181 68.1493 26.7609 68.9274 25.922C69.5088 25.2928 70.2954 24.9721 71.2666 24.9721C73.1733 24.9721 74.042 26.8025 74.042 28.5029V35.1866C74.0397 35.3856 74.0766 35.5831 74.1506 35.7674C74.2247 35.9517 74.3343 36.1192 74.473 36.26C74.6117 36.4008 74.7768 36.512 74.9586 36.5873C75.1403 36.6625 75.3351 36.7002 75.5314 36.6981C75.9264 36.6972 76.305 36.5376 76.5842 36.2543C76.8633 35.971 77.0203 35.5871 77.0208 35.1866V28.4908C77.0242 25.3153 75.0064 21.9405 71.2632 21.9405Z" fill="#8CA3B8"/>
<path d="M141.062 22.3011L141.03 22.2907C140.809 22.2233 140.575 22.2095 140.349 22.2505C140.122 22.2914 139.907 22.3859 139.723 22.5264C139.536 22.6669 139.383 22.8497 139.278 23.0603C139.172 23.2709 139.116 23.5035 139.114 23.7397V28.028C139.114 30.81 138.735 34.0028 135.782 34.0028C133.875 34.0028 133.006 32.1741 133.006 30.4737V23.7467C133.006 23.3464 132.849 22.9627 132.569 22.6796C132.29 22.3966 131.912 22.2374 131.517 22.2369C131.123 22.2423 130.748 22.4031 130.469 22.6851C130.191 22.967 130.033 23.3479 130.027 23.7467V30.4807C130.027 32.1707 130.54 33.7567 131.477 34.9492C131.929 35.521 132.489 35.9963 133.123 36.3478C133.757 36.6993 134.454 36.9199 135.173 36.997C135.891 37.074 136.618 37.0059 137.311 36.7967C138.003 36.5874 138.648 36.2411 139.208 35.7777C139.311 36.0704 139.502 36.3232 139.753 36.5009C140.004 36.6786 140.304 36.7724 140.611 36.7692C141.006 36.7687 141.385 36.6093 141.664 36.3259C141.943 36.0425 142.1 35.6583 142.1 35.2577V23.7675C142.1 23.4436 142.001 23.1277 141.814 22.8646C141.628 22.6014 141.365 22.4043 141.062 22.3011Z" fill="#8CA3B8"/>
<path d="M88.6334 21.9059H88.6214C84.791 21.9059 81.6737 25.2842 81.6737 29.4372C81.6737 33.5903 84.791 36.9686 88.6214 36.9686C91.1864 36.9686 93.4898 35.7258 94.6218 33.7255L94.6475 33.6752C94.804 33.3787 94.8593 33.038 94.8048 32.7063C94.7644 32.4603 94.6636 32.2286 94.5119 32.0323C94.3601 31.8361 94.1621 31.6816 93.9361 31.5831C93.614 31.4418 93.2531 31.42 92.9167 31.5214C92.5803 31.6228 92.2898 31.841 92.0962 32.1378C91.2412 33.3806 90.1673 33.9335 88.6283 33.9335C86.7575 33.9335 85.4511 32.5312 84.9278 30.94H94.1037C94.5033 30.9405 94.8867 30.7804 95.1701 30.4948C95.4534 30.2092 95.6135 29.8214 95.6153 29.4164C95.6068 25.2703 92.4758 21.9059 88.6334 21.9059ZM84.9278 27.9206C85.4511 26.3276 86.7575 24.9254 88.6283 24.9254C90.4648 24.9254 91.8157 26.312 92.3373 27.9206H84.9278Z" fill="#8CA3B8"/>
<path d="M162.574 21.9406C161.681 21.9428 160.801 22.1539 160.001 22.5573C159.202 22.9608 158.505 23.5457 157.965 24.2667C157.458 23.5427 156.786 22.9539 156.006 22.5503C155.226 22.1468 154.361 21.9406 153.485 21.9492C152.233 21.9475 151.014 22.3594 150.014 23.1227C149.926 22.8963 149.784 22.6952 149.602 22.5368C149.433 22.3915 149.235 22.2853 149.022 22.2254C148.809 22.1655 148.585 22.1535 148.367 22.1902C148.02 22.2519 147.705 22.4371 147.48 22.7125C147.255 22.9878 147.134 23.3354 147.139 23.693V35.1867C147.138 35.4047 147.183 35.6205 147.271 35.8192C147.36 36.0179 147.49 36.1948 147.652 36.3376C147.926 36.5723 148.274 36.7001 148.632 36.6982C148.716 36.698 148.799 36.6911 148.882 36.6774C149.232 36.6181 149.549 36.4338 149.777 36.1578C150.004 35.8818 150.126 35.5324 150.122 35.1728V30.2294C150.14 30.0954 150.14 29.9595 150.122 29.8255V29.8134C150.06 28.0159 150.435 26.6362 151.206 25.8267C151.758 25.2478 152.505 24.96 153.489 24.96C155.679 24.96 156.264 27.1544 156.264 28.4492V35.1867C156.262 35.3857 156.299 35.5831 156.373 35.7674C156.447 35.9517 156.556 36.1192 156.695 36.26C156.834 36.4008 156.999 36.5121 157.181 36.5873C157.362 36.6626 157.557 36.7002 157.753 36.6982C158.148 36.6977 158.527 36.5382 158.807 36.2548C159.086 35.9714 159.243 35.5873 159.243 35.1867V29.9867C159.243 28.2534 159.94 24.96 162.577 24.96C164.766 24.96 165.351 27.1544 165.351 28.4492V35.1867C165.349 35.3857 165.385 35.5831 165.46 35.7674C165.534 35.9517 165.643 36.1192 165.782 36.26C165.921 36.4008 166.086 36.5121 166.267 36.5873C166.449 36.6626 166.644 36.7002 166.84 36.6982C167.236 36.6977 167.615 36.5383 167.894 36.2549C168.174 35.9716 168.331 35.5874 168.331 35.1867V28.4492C168.335 25.2946 166.315 21.9406 162.574 21.9406Z" fill="#8CA3B8"/>
<path d="M118.396 21.9059H118.382C114.552 21.9059 111.436 25.2842 111.436 29.4372C111.436 33.5903 114.552 36.9686 118.382 36.9686C120.947 36.9686 123.252 35.7258 124.383 33.7255L124.41 33.6752C124.567 33.3787 124.622 33.038 124.567 32.7063C124.527 32.4603 124.426 32.2286 124.274 32.0323C124.123 31.8361 123.925 31.6816 123.699 31.5831C123.377 31.4418 123.016 31.42 122.679 31.5214C122.343 31.6228 122.052 31.841 121.859 32.1378C121.004 33.3806 119.93 33.9335 118.389 33.9335C116.52 33.9335 115.214 32.5312 114.69 30.94H123.859C124.259 30.9405 124.642 30.7804 124.926 30.4948C125.209 30.2092 125.369 29.8214 125.371 29.4164C125.362 25.2703 122.233 21.9059 118.396 21.9059ZM114.69 27.9206C115.214 26.3276 116.52 24.9254 118.389 24.9254C120.227 24.9254 121.578 26.312 122.1 27.9206H114.69Z" fill="#8CA3B8"/>
<path d="M106.799 22.1676C105.55 22.1676 104.383 22.698 103.427 23.4555C103.375 23.0977 103.198 22.7705 102.929 22.5333C102.76 22.3883 102.563 22.2821 102.349 22.2222C102.136 22.1624 101.913 22.1502 101.694 22.1867C101.347 22.2484 101.032 22.4335 100.807 22.7088C100.582 22.9842 100.46 23.3318 100.465 23.6895V35.1451C100.463 35.3446 100.501 35.5424 100.576 35.727C100.651 35.9116 100.761 36.0792 100.9 36.2199C101.04 36.3607 101.206 36.4718 101.388 36.5468C101.571 36.6218 101.766 36.6591 101.963 36.6565C102.048 36.6564 102.133 36.6495 102.218 36.6357C102.565 36.5739 102.88 36.3885 103.105 36.1128C103.33 35.837 103.451 35.489 103.445 35.1312V30.1045C103.445 28.782 103.787 25.6533 107.019 25.1784C107.391 25.1372 107.734 24.9555 107.979 24.6695C108.224 24.3836 108.354 24.0145 108.343 23.6357C108.343 23.4446 108.305 23.2555 108.231 23.0797C108.157 22.904 108.048 22.7452 107.912 22.6131C107.613 22.3222 107.213 22.1622 106.799 22.1676Z" fill="#8CA3B8"/>
<path d="M15.3787 36.23L3.66522 29.3452L15.3787 45.7842L27.0905 29.3452L15.3787 36.2387V36.23Z" fill="#8CA3B8"/>
<path d="M27.0905 27.1371L15.3787 7.79138L3.66522 27.1371L15.3787 34.0306L27.0905 27.1371Z" fill="#8CA3B8"/>
<script xmlns=""/></svg>