<svg xmlns="http://www.w3.org/2000/svg" width="173" height="52" viewBox="0 0 173 52" fill="none"><script xmlns=""/>
<path d="M32.4112 10.452C35.4627 10.4517 38.4458 11.3633 40.9832 13.0715C43.5206 14.7797 45.4984 17.2079 46.6664 20.0489C47.8344 22.8899 48.1402 26.0161 47.545 29.0322C46.9499 32.0484 45.4806 34.8189 43.323 36.9935C41.1654 39.1681 38.4163 40.6491 35.4234 41.2492C32.4306 41.8492 29.3284 41.5414 26.5091 40.3647C23.6898 39.1879 21.2801 37.1951 19.5848 34.6382C17.8894 32.0813 16.9845 29.0752 16.9845 26C16.9845 21.8767 18.6097 17.9223 21.5027 15.0065C24.3958 12.0908 28.3196 10.4525 32.4112 10.452ZM29.9653 16.4372L27.5659 25.5754L25.913 26.2202L25.1184 29.2188L26.7713 28.5896L25.3953 33.8174H40.1529L41.166 29.9382H32.2856L33.2987 26.137L34.9189 25.5234L35.7136 22.5247L34.0916 23.1539L35.8529 16.432H29.9653V16.4372Z" fill="#8CA3B8"/>
<path d="M54.5304 35.4934L58.5672 16.0697H62.5232L59.1709 32.24H68.9749L68.3041 35.4865L54.5304 35.4934Z" fill="#8CA3B8"/>
<path d="M73.772 21.4222H77.5388L74.6148 35.4934H70.848L73.772 21.4222ZM74.8762 16.0697H78.6499L77.9396 19.5138H74.159L74.8762 16.0697Z" fill="#8CA3B8"/>
<path d="M79.276 24.2441L79.8539 21.4223H81.6943L82.1553 19.1689L86.4811 16.5464L85.468 21.4223H87.7694L87.188 24.2441H84.8746L83.6517 30.1375C83.4338 31.2075 83.3243 31.8171 83.3232 31.9661C83.3166 32.0935 83.3381 32.2207 83.3859 32.3388C83.4338 32.4568 83.5069 32.5628 83.6001 32.6491C83.7841 32.812 84.1161 32.8935 84.5994 32.8935C84.7714 32.8935 85.1825 32.864 85.8481 32.8016L85.2564 35.6235C84.5985 35.7567 83.9289 35.8234 83.2578 35.8228C81.9254 35.8228 80.957 35.5639 80.3527 35.0463C79.7484 34.5286 79.4469 33.8115 79.448 32.8952C79.448 32.463 79.6103 31.4652 79.9348 29.9017L81.1044 24.2441H79.276Z" fill="#8CA3B8"/>
<path d="M100.888 29.6399H91.4278C91.4278 29.7907 91.414 29.9051 91.414 29.9866C91.414 30.9226 91.6795 31.6778 92.2104 32.2521C92.4529 32.5283 92.7515 32.7486 93.0859 32.8982C93.4204 33.0477 93.7829 33.123 94.1488 33.1187C95.4021 33.1187 96.3768 32.4647 97.0728 31.1566L100.454 31.7199C99.7973 33.0893 98.919 34.116 97.8193 34.8001C96.7068 35.4885 95.4233 35.8449 94.1179 35.8279C92.2408 35.8279 90.7157 35.2294 89.5427 34.0322C88.3696 32.835 87.7826 31.2519 87.7814 29.2829C87.7549 27.4424 88.3116 25.6414 89.3707 24.1418C90.8178 22.1103 92.8818 21.0946 95.5627 21.0946C97.2701 21.0946 98.6283 21.6267 99.6374 22.691C100.646 23.7553 101.15 25.2459 101.149 27.163C101.159 27.9961 101.071 28.8275 100.888 29.6399ZM97.7075 27.3173C97.7161 27.1439 97.7196 27.0226 97.7196 26.9342C97.7196 25.8942 97.4874 25.1125 97.023 24.589C96.7877 24.3289 96.4986 24.1241 96.1761 23.989C95.8537 23.8539 95.5057 23.7919 95.1568 23.8073C94.7662 23.8087 94.3798 23.8878 94.0197 24.0401C93.6596 24.1924 93.3329 24.4148 93.0584 24.6947C92.4403 25.2852 92.0224 26.1594 91.8045 27.3173H97.7075Z" fill="#8CA3B8"/>
<path d="M111.736 30.1929L115.396 30.7891C114.793 32.4323 113.899 33.6821 112.715 34.5383C111.515 35.4002 110.072 35.851 108.599 35.8245C106.82 35.8245 105.409 35.29 104.366 34.2211C103.322 33.1523 102.803 31.683 102.807 29.8133C102.801 28.3159 103.124 26.8358 103.755 25.4799C104.364 24.1442 105.359 23.0243 106.609 22.2663C107.865 21.4887 109.314 21.0827 110.788 21.0946C112.436 21.0946 113.751 21.5274 114.732 22.3929C115.714 23.2584 116.266 24.3978 116.39 25.811L112.801 26.1958C112.713 25.4089 112.474 24.8311 112.083 24.4625C111.666 24.0809 111.116 23.8809 110.552 23.9061C109.797 23.916 109.072 24.206 108.516 24.7207C107.885 25.2685 107.401 26.0878 107.063 27.1786C106.742 28.1697 106.571 29.2041 106.557 30.2466C106.557 31.0775 106.759 31.7176 107.162 32.1671C107.35 32.3847 107.582 32.558 107.844 32.6748C108.105 32.7916 108.388 32.8491 108.674 32.8431C109.315 32.8293 109.931 32.5957 110.422 32.181C110.986 31.7396 111.424 31.0769 111.736 30.1929Z" fill="#8CA3B8"/>
<path d="M117.804 29.6503C117.804 27.0434 118.533 24.9634 119.992 23.4103C121.45 21.8573 123.368 21.0825 125.744 21.0859C127.808 21.0859 129.416 21.6574 130.57 22.8002C131.723 23.9431 132.302 25.4823 132.305 27.4178C132.344 29.5925 131.57 31.7023 130.136 33.3285C128.68 34.9925 126.741 35.8245 124.318 35.8245C123.105 35.8483 121.905 35.5753 120.821 35.0289C119.845 34.5389 119.049 33.75 118.545 32.7755C118.051 31.8097 117.796 30.7372 117.804 29.6503ZM128.557 26.9342C128.557 26.0329 128.297 25.3107 127.775 24.7675C127.514 24.4972 127.199 24.285 126.852 24.1447C126.504 24.0044 126.131 23.939 125.757 23.9529C124.968 23.9435 124.201 24.2127 123.588 24.7138C122.952 25.2246 122.457 25.9624 122.104 26.9273C121.775 27.7793 121.597 28.6827 121.578 29.5966C121.578 30.6043 121.849 31.4039 122.393 31.9955C122.651 32.2834 122.968 32.5117 123.322 32.6649C123.676 32.818 124.058 32.8924 124.443 32.883C125.475 32.883 126.343 32.437 127.047 31.5449C128.051 30.2807 128.552 28.7438 128.551 26.9342H128.557Z" fill="#8CA3B8"/>
<path d="M136.61 21.4222H140.384L137.46 35.4934H133.692L136.61 21.4222ZM137.715 16.0697H141.488L140.778 19.5138H137.004L137.715 16.0697Z" fill="#8CA3B8"/>
<path d="M144.144 21.4222H147.72L147.352 23.2491C148.098 22.5695 148.942 22.0089 149.856 21.5869C150.632 21.256 151.466 21.0874 152.309 21.0911C153.456 21.0911 154.36 21.4222 155.023 22.0843C155.686 22.7465 156.017 23.6253 156.016 24.7207C156.016 25.2141 155.871 26.1507 155.582 27.5305L153.939 35.4934H150.166L151.822 27.5027C152.069 26.3102 152.191 25.5995 152.19 25.3707C152.202 25.1602 152.169 24.9495 152.096 24.752C152.023 24.5546 151.909 24.3745 151.764 24.2233C151.602 24.0785 151.414 23.9672 151.21 23.8958C151.005 23.8245 150.789 23.7944 150.573 23.8073C150.021 23.8073 149.407 24.0413 148.733 24.5093C148.055 24.9808 147.507 25.6192 147.142 26.3639C146.861 26.9117 146.545 28.0291 146.194 29.7162L144.999 35.4934H141.225L144.144 21.4222Z" fill="#8CA3B8"/>
<script xmlns=""/></svg>