<svg xmlns="http://www.w3.org/2000/svg" width="139" height="28" viewBox="0 0 139 28" fill="none"><script xmlns=""/>
<path d="M6.58497 26.6249V4.71862L2.37283 9.16429L0.400146 7.15674L6.98337 0.397217H9.86518V26.6249H6.58497Z" fill="#557086"/>
<path d="M15.0022 19.9793C15.0022 16.4787 17.9981 14.0774 21.2695 13.0972C18.2333 12.2221 15.4322 10.2653 15.4322 6.80853C15.4164 2.08281 20.0357 0 24.4093 0C28.7829 0 33.4356 2.08807 33.4356 6.80853C33.4356 10.2653 30.6029 12.2343 27.5684 13.0972C30.8153 14.0774 33.834 16.4822 33.834 19.9793C33.834 24.4232 29.5727 27.0941 24.4093 27.0941C19.246 27.0941 15.0022 24.4634 15.0022 19.9793ZM30.538 19.6292C30.538 16.2127 26.0415 14.7722 24.4269 14.5534C22.8035 14.7477 18.2737 16.1724 18.2737 19.6292C18.2737 22.4629 21.1555 24.1956 24.4269 24.1956C27.6983 24.1956 30.5222 22.4629 30.5222 19.6292H30.538ZM30.1414 7.24609C30.1414 4.53318 27.5842 2.92294 24.4585 2.92294C21.3327 2.92294 18.7774 4.53318 18.7774 7.24609C18.7774 10.4351 22.9246 11.4957 24.4989 11.7705C26.0258 11.4957 30.115 10.4351 30.115 7.24609H30.1414Z" fill="#557086"/>
<path d="M44.224 15.1222V20.5288H41.4651V15.1222H36.7159V12.6124H41.4809V7.39832H44.224V12.6124H48.989V15.1222H44.224Z" fill="#557086"/>
<path d="M68.3961 23.9427C67.9484 24.3457 67.4242 24.6541 66.8549 24.8497C66.2855 25.0452 65.6826 25.1238 65.0822 25.0809C62.6404 24.8808 60.924 23.184 60.5775 20.6347C60.2702 18.3064 60.8143 16.2592 62.8067 14.8319C63.8423 14.0991 65.1261 13.8081 66.3758 14.0229C67.6255 14.2376 68.739 14.9404 69.4714 15.9769C69.6032 16.1653 69.722 16.3624 69.8272 16.5668C70.0305 16.9797 70.0166 17.2018 69.5523 17.3163C69.4864 17.3163 69.4298 17.3638 69.3675 17.3823C68.999 17.5153 68.6432 17.8229 68.2644 17.7524C67.8855 17.6818 67.8763 17.1648 67.6684 16.871C67.4226 16.519 67.093 16.234 66.7094 16.0418C66.3258 15.8496 65.9003 15.7564 65.4716 15.7705C65.0429 15.7847 64.6246 15.9057 64.2544 16.1227C63.8843 16.3397 63.5741 16.6459 63.3519 17.0133C62.8975 17.7313 62.6466 18.5596 62.6263 19.4094C62.6059 20.2593 62.8168 21.0987 63.2364 21.8376C63.814 22.8856 64.9032 23.3309 66.1807 23.147C66.6592 23.072 67.1038 22.8533 67.4555 22.5197C67.8072 22.1861 68.0494 21.7535 68.15 21.279C68.2655 20.8476 68.15 20.7435 67.7284 20.7666C67.2318 20.7955 66.7247 20.7666 66.2269 20.7666C65.729 20.7666 65.6112 20.6243 65.6066 20.1651C65.6066 19.027 65.5835 19.027 66.682 19.027H69.6354C69.982 19.027 70.109 19.1369 70.0801 19.5012V24.2435C70.0801 24.7177 69.8768 24.8831 69.4368 24.8507C69.3498 24.8461 69.2627 24.8461 69.1757 24.8507C68.6559 24.8438 68.0784 24.9432 68.3961 23.9427Z" fill="#557086"/>
<path d="M60.5902 5.28615V0.543922C60.5902 0.291774 60.529 0.00839726 60.9783 0.00839726C62.5307 0.0604461 64.0889 -0.0922303 65.6367 0.102085C66.3045 0.173377 66.931 0.460128 67.4219 0.919109C67.9127 1.37809 68.2413 1.98442 68.358 2.6467C68.6421 4.20122 68.0981 5.42263 66.749 6.11662C66.4175 6.2878 66.4221 6.41503 66.5781 6.69494C67.2076 7.82266 67.814 8.9608 68.4723 10.0839C68.6849 10.4633 68.6756 10.6055 68.179 10.6009C66.0906 10.5627 66.5884 10.7999 65.6702 9.15049C65.2717 8.44378 64.9125 7.72782 64.5244 7.00839C64.358 6.70419 62.8819 6.496 62.6832 6.75624C62.621 6.89258 62.5978 7.04354 62.6162 7.19229V9.88958C62.6162 10.402 62.4083 10.5836 61.9116 10.5963C60.633 10.6345 60.633 10.6437 60.633 9.34018L60.5902 5.28615ZM62.5689 3.38926V4.63149C62.5689 4.8501 62.5689 5.02475 62.8726 5.0155C63.6142 5.05016 64.3574 5.02502 65.095 4.94032C65.4756 4.89564 65.8231 4.70171 66.0612 4.40102C66.2993 4.10033 66.4088 3.71738 66.3655 3.33605V3.30945C66.3617 2.93468 66.2169 2.57514 65.96 2.30263C65.703 2.03011 65.3529 1.86468 64.9795 1.83936C64.7189 1.80736 64.4566 1.79153 64.194 1.79194C62.5689 1.75377 62.5689 1.75377 62.5689 3.38001V3.38926Z" fill="#557086"/>
<path d="M81.655 17.9654C83.4915 16.7336 84.6697 16.7856 86.0292 18.1505C86.4162 17.7154 86.9162 17.3965 87.4736 17.229C88.0309 17.0616 88.6236 17.0522 89.1859 17.202C89.6768 17.2926 90.1199 17.554 90.437 17.94C90.754 18.3261 90.9246 18.8119 90.9185 19.3117C90.952 20.9518 90.9185 22.5966 90.9474 24.2413C90.9474 24.645 90.8007 24.8289 90.3699 24.8439C89.1247 24.9006 89.1247 24.9145 89.1247 23.6723V20.1885C89.1247 19.3499 88.8591 19.0041 88.2295 18.8572C87.9162 18.795 87.5913 18.8345 87.302 18.9699C87.0126 19.1053 86.7739 19.3296 86.6205 19.6101C86.3769 20.0806 86.2625 20.6076 86.289 21.1369V24.2888C86.289 24.7202 86.1666 24.8532 85.7312 24.8486C84.4768 24.8486 84.4768 24.8486 84.4768 23.6248V20.4071C84.4768 19.4586 84.1071 18.9277 83.4106 18.8329C83.0358 18.8176 82.6671 18.9324 82.367 19.1579C82.0669 19.3834 81.8537 19.7058 81.7635 20.0705C81.5904 20.8638 81.5347 21.6783 81.5984 22.4879V24.1928C81.5984 24.667 81.3997 24.8567 80.9215 24.8428C79.5008 24.8046 79.7895 25.0082 79.7757 23.7185V18.1979C79.7757 17.8856 79.7526 17.5201 80.0933 17.4021C80.5559 17.2599 81.0504 17.2599 81.5129 17.4021C81.6977 17.4299 81.5556 17.7433 81.655 17.9654Z" fill="#557086"/>
<path d="M120.035 23.7102C119.368 24.1867 118.562 24.4284 117.744 24.3973C117.284 24.3833 116.832 24.2771 116.414 24.085C114.871 23.3644 114.185 21.1853 114.889 19.2641C115.178 18.4974 115.739 17.8646 116.465 17.4874C117.192 17.1103 118.032 17.0156 118.824 17.2215C119.257 17.3689 119.658 17.6009 120.002 17.9039C120.187 17.4297 121.479 17.0943 121.838 17.3915C121.976 17.5072 121.919 17.6761 121.919 17.8183C121.919 20.009 121.947 22.2031 121.919 24.3927C121.886 26.1565 121.111 26.972 119.378 27.2368C118.471 27.3999 117.539 27.3548 116.652 27.105C116.25 26.9922 115.884 26.7749 115.593 26.4751C115.302 26.1752 115.095 25.8036 114.993 25.3978C114.878 25.0427 114.993 24.9236 115.34 24.9236H116.518C116.607 24.9124 116.697 24.9244 116.78 24.9585C116.863 24.9925 116.936 25.0474 116.992 25.1179C117.254 25.4661 117.629 25.7129 118.052 25.8166C118.476 25.9203 118.922 25.8745 119.316 25.6869C119.95 25.3978 120.182 24.8148 120.035 23.7102ZM116.527 20.7955C116.527 21.9996 117.227 22.7479 118.335 22.7433C119.443 22.7387 120.148 21.9996 120.148 20.7666C120.148 19.5336 119.472 18.7471 118.345 18.7471C117.219 18.7471 116.518 19.5151 116.527 20.7712V20.7955Z" fill="#557086"/>
<path d="M94.2797 17.831C94.6381 17.5427 95.0525 17.3321 95.4965 17.2126C95.9405 17.0932 96.4045 17.0674 96.859 17.137C98.7244 17.484 99.9268 19.3219 99.6992 21.4791C99.6558 21.849 99.5785 22.2141 99.4682 22.5698C98.8202 24.7165 96.4651 25.887 94.4125 24.351C94.1145 25.2046 93.3996 24.7824 92.8798 24.7975C92.36 24.8125 92.4859 24.2573 92.4859 23.9254V14.9787C92.4859 14.4432 92.6141 14.2593 93.1685 14.2848C94.4749 14.3461 94.3086 14.0858 94.3236 15.4414C94.2843 16.1932 94.2797 16.9508 94.2797 17.831ZM97.8488 20.954C97.8119 20.66 97.7564 20.3687 97.6825 20.0818C97.5947 19.7274 97.3938 19.4114 97.1102 19.1818C96.8267 18.9522 96.4761 18.8215 96.1116 18.8095C95.736 18.8004 95.3676 18.9139 95.062 19.1327C94.7563 19.3516 94.53 19.664 94.4172 20.0229C94.1493 20.7516 94.1779 21.5566 94.4969 22.2644C94.6108 22.5648 94.8139 22.8231 95.0789 23.0045C95.3438 23.1858 95.6579 23.2816 95.9788 23.2788C96.3084 23.293 96.635 23.211 96.919 23.0428C97.203 22.8747 97.4321 22.6276 97.5786 22.3315C97.7664 21.8947 97.8586 21.4226 97.8488 20.947V20.954Z" fill="#557086"/>
<path d="M122.634 10.0815C122.43 10.5176 121.28 10.8449 120.859 10.5893C120.692 10.4898 120.73 10.3232 120.73 10.1764V0.597051C120.73 0.202636 120.873 0.0603694 121.265 0.0372366C122.515 -0.0333185 122.515 -0.0437284 122.515 1.25518V3.026C122.515 3.35795 122.558 3.54302 122.951 3.32441C125.317 2.03013 127.528 3.70379 127.869 6.03558C127.963 6.6855 127.941 7.34707 127.803 7.98914C127.395 9.96584 125.076 11.9217 122.634 10.0815ZM126.051 6.7631C126.045 6.52382 126.024 6.28511 125.989 6.0483C125.926 5.64374 125.725 5.27345 125.421 4.99964C125.117 4.72582 124.728 4.56517 124.319 4.54467C123.931 4.51477 123.545 4.62605 123.233 4.85806C122.92 5.09007 122.701 5.42726 122.617 5.80772C122.374 6.59277 122.442 7.44132 122.806 8.17768C122.947 8.46568 123.172 8.70412 123.451 8.86148C123.73 9.01885 124.05 9.08773 124.369 9.05904C124.666 9.0558 124.955 8.96379 125.2 8.79481C125.444 8.62582 125.633 8.38757 125.741 8.11059C125.944 7.6964 126.05 7.24082 126.048 6.7793L126.051 6.7631Z" fill="#557086"/>
<path d="M87.2454 3.66432C87.6344 3.3277 88.0998 3.09165 88.601 2.97683C89.1021 2.862 89.6238 2.8719 90.1202 3.00566C90.6167 3.13942 91.0728 3.39295 91.4488 3.74409C91.8248 4.09523 92.1091 4.53328 92.2768 5.01991C92.7196 6.12772 92.7581 7.35642 92.3854 8.48983C91.8079 10.3104 89.5832 11.6798 87.2316 10.101C87.2316 10.8737 87.1981 11.5804 87.2316 12.2825C87.2639 12.8457 87.0941 13.0551 86.5016 13.0354C85.3996 12.9926 85.3939 13.0354 85.3939 11.9216V4.36178C85.3939 2.93911 85.2148 3.1473 86.7383 3.11492C87.1218 3.10566 87.2789 3.2329 87.2454 3.66432ZM87.2119 6.78725C87.1738 8.08616 87.7894 8.97677 88.7839 9.07624C89.9864 9.19191 90.7764 8.33252 90.7857 6.87863C90.7857 5.56584 90.0707 4.65094 89.0011 4.61277C87.9315 4.5746 87.2454 5.46521 87.2119 6.78378V6.78725Z" fill="#557086"/>
<path d="M78.4936 24.8242H76.7795C76.694 24.8242 76.5485 24.8242 76.5288 24.7918C76.1823 24.1232 75.785 24.6206 75.4257 24.7536C74.6685 25.0462 73.8353 25.0763 73.059 24.8392C72.598 24.7115 72.1889 24.4416 71.8897 24.0679C71.5905 23.6942 71.4165 23.2356 71.3923 22.7572C71.3776 22.2833 71.5051 21.8159 71.7583 21.4153C72.0116 21.0147 72.3789 20.6993 72.813 20.5099C73.467 20.2644 74.1443 20.0866 74.8343 19.979C75.1508 19.898 75.4777 19.8506 75.7803 19.7558C75.994 19.6945 76.3151 19.7187 76.3198 19.3868C76.3238 19.2434 76.2885 19.1017 76.2176 18.9771C76.1467 18.8525 76.043 18.7497 75.9178 18.6801C75.5279 18.465 75.0687 18.4137 74.641 18.5373C74.2133 18.6609 73.8521 18.9493 73.6366 19.3394C73.6079 19.4317 73.5458 19.5101 73.4625 19.5591C73.3792 19.608 73.2806 19.6241 73.1861 19.6042L72.5335 19.5672C71.6903 19.5094 71.5863 19.3775 71.9363 18.6188C72.0654 18.3153 72.2596 18.0441 72.5052 17.8242C72.7507 17.6043 73.0415 17.4412 73.357 17.3465C74.3792 17.0043 75.4802 16.9761 76.5184 17.2655C77.6839 17.5639 78.1563 18.1712 78.1805 19.3845C78.2036 20.7401 78.1805 22.1003 78.1805 23.4558C78.128 23.9342 78.2383 24.4164 78.4936 24.8242ZM74.5606 23.4026C75.8531 23.4026 76.4826 22.7249 76.359 21.5069C76.359 21.3265 76.359 21.1657 76.0749 21.2409C75.4073 21.4213 74.7165 21.5347 74.0489 21.7151C73.9122 21.7344 73.7826 21.7876 73.6716 21.8698C73.5607 21.952 73.4721 22.0607 73.4138 22.186C73.3555 22.3112 73.3294 22.4491 73.3378 22.5871C73.3463 22.725 73.389 22.8586 73.4621 22.9758C73.5867 23.1382 73.7526 23.2639 73.9424 23.3398C74.1323 23.4157 74.339 23.439 74.541 23.4073L74.5606 23.4026Z" fill="#557086"/>
<path d="M73.8918 7.22472C73.1676 7.22472 72.448 7.25826 71.7238 7.22472C71.189 7.1958 71.2075 7.40978 71.3645 7.80304C71.5109 8.11441 71.7283 8.38701 71.9991 8.59887C72.27 8.81073 72.5867 8.95593 72.9239 9.02278C73.261 9.08962 73.6091 9.07624 73.9401 8.98372C74.2712 8.89119 74.5759 8.72211 74.8297 8.49008C74.9903 8.34319 75.085 7.99273 75.383 8.13499C75.8307 8.3586 76.2612 8.61531 76.6709 8.903C76.761 8.95968 76.6328 9.09153 76.5715 9.17713C75.7953 10.3719 73.8398 11.0729 72.2308 10.7513C70.6218 10.4298 69.6227 9.32865 69.3143 7.59947C69.0059 5.87029 69.6793 4.21976 70.9141 3.42746C71.4373 3.07694 72.0417 2.86712 72.6693 2.81821C73.2969 2.76929 73.9265 2.88292 74.4976 3.14816C75.0687 3.4134 75.5619 3.82133 75.93 4.33271C76.2981 4.84408 76.5286 5.4417 76.5993 6.06807C76.7933 7.45604 76.8545 7.20621 75.5909 7.22472C75.0284 7.23397 74.4601 7.22472 73.8918 7.22472ZM72.9493 5.89227H74.251C74.6819 5.89227 74.7246 5.72224 74.5918 5.3764C74.4764 5.04478 74.2522 4.76206 73.9559 4.57429C73.6595 4.38652 73.3084 4.30478 72.9597 4.34237C72.5971 4.35622 72.2476 4.48156 71.9587 4.70134C71.6698 4.92112 71.4555 5.22467 71.3449 5.57072C71.2698 5.86913 71.3969 5.90152 71.6337 5.89689C72.0691 5.88764 72.5046 5.89689 72.94 5.89689L72.9493 5.89227Z" fill="#557086"/>
<path d="M135.987 7.22471H133.753C133.322 7.22471 133.279 7.38086 133.398 7.73595C133.616 8.26332 134.034 8.68251 134.56 8.90136C135.087 9.1202 135.678 9.12079 136.205 8.903C136.454 8.79926 136.682 8.64981 136.877 8.46232C136.98 8.3136 137.138 8.21182 137.315 8.1793C137.493 8.14678 137.677 8.18616 137.825 8.28882C137.857 8.31056 137.886 8.33494 137.913 8.36169C138.941 8.99784 138.953 8.99784 138.029 9.78436C135.719 11.7703 132.168 10.808 131.468 8.01123C130.994 6.0299 131.723 4.0532 133.262 3.269C135.936 1.92267 138.806 3.77098 138.767 6.7956C138.767 7.11367 138.663 7.21777 138.354 7.21314C137.559 7.21546 136.773 7.22471 135.987 7.22471ZM135.041 5.89226H136.347C136.693 5.89226 136.758 5.79279 136.654 5.47124C136.557 5.13152 136.348 4.83472 136.061 4.62898C135.773 4.42323 135.425 4.3206 135.073 4.33773C134.702 4.33824 134.342 4.45579 134.042 4.67364C133.742 4.89149 133.518 5.19854 133.403 5.55105C133.322 5.83558 133.436 5.89804 133.687 5.89804C134.149 5.88879 134.605 5.89804 135.064 5.89804L135.041 5.89226Z" fill="#557086"/>
<path d="M97.276 10.8125C96.7787 10.8183 96.2852 10.7259 95.8236 10.5406C95.362 10.3553 94.9414 10.0808 94.5858 9.73264C94.2302 9.3845 93.9466 8.96961 93.7512 8.51168C93.5558 8.05374 93.4524 7.56174 93.447 7.06378C93.4447 6.94024 93.4493 6.81667 93.4609 6.69366C93.5406 4.34683 95.1934 2.8166 97.5602 2.90103C99.6901 2.96812 101.242 4.73546 101.177 7.01058C101.111 9.28569 99.4718 10.8738 97.276 10.8125ZM99.2396 6.81626C99.2497 6.43059 99.1707 6.0478 99.0086 5.69779C98.8664 5.33847 98.6122 5.03466 98.2839 4.8315C97.9555 4.62834 97.5705 4.53665 97.1859 4.57006C96.8139 4.57211 96.4524 4.69401 96.155 4.91773C95.8575 5.14145 95.6398 5.4551 95.5342 5.8123C95.2883 6.50128 95.3101 7.25767 95.5954 7.93126C95.7675 8.37647 96.1009 8.74033 96.5291 8.95022C96.9573 9.16011 97.4488 9.2006 97.9055 9.06361C98.7291 8.84501 99.235 8.0157 99.235 6.81626H99.2396Z" fill="#557086"/>
<path d="M103.922 3.75939C104.585 3.16065 105.456 2.8459 106.348 2.88265C106.904 2.88201 107.439 3.09591 107.842 3.47994C108.245 3.86397 108.484 4.38861 108.511 4.94494C108.586 6.66949 108.554 8.40446 108.577 10.1591C108.577 10.4806 108.455 10.6321 108.103 10.6321C106.731 10.742 106.736 10.7478 106.736 9.39107V6.10158C106.736 5.26649 106.352 4.80268 105.718 4.71362C105.369 4.65271 105.01 4.71851 104.706 4.89918C104.401 5.07984 104.171 5.36349 104.056 5.69907C103.923 6.09426 103.864 6.51071 103.882 6.92743V9.95089C103.882 10.4251 103.772 10.6241 103.257 10.6194C102.002 10.6194 102.002 10.6437 102.002 9.3876V4.00112C102.002 3.11514 102.002 3.11514 102.864 3.11051C102.974 3.11745 103.084 3.11745 103.194 3.11051C103.623 3.05846 103.964 3.12439 103.922 3.75939Z" fill="#557086"/>
<path d="M112.897 10.8125C111.772 10.8117 110.678 10.4465 109.778 9.77155C109.489 9.55295 109.451 9.3968 109.778 9.19323C109.925 9.0968 110.059 8.98387 110.18 8.85665C110.536 8.47727 110.825 8.35351 111.308 8.78031C111.633 9.04697 112.022 9.22505 112.437 9.29738C112.851 9.3697 113.278 9.33384 113.674 9.19323C114.048 9.08798 114.385 8.88904 114.385 8.4391C114.385 7.98917 113.995 7.91283 113.65 7.82724C112.803 7.61442 111.917 7.56237 111.109 7.19224C109.593 6.49826 109.334 4.82229 110.55 3.69919C110.753 3.49581 110.994 3.33465 111.26 3.22496C111.994 2.90699 112.799 2.79289 113.592 2.89466C114.385 2.99644 115.135 3.31032 115.765 3.80328C116.125 4.07394 116.281 4.33881 115.812 4.65226C115.742 4.70343 115.678 4.76371 115.623 4.83154C115.244 5.24446 114.96 5.55213 114.44 4.88359C113.966 4.30527 113.218 4.24396 112.494 4.37235C112.11 4.43828 111.742 4.5898 111.708 5.03626C111.675 5.48273 112.073 5.65622 112.437 5.74182C113.119 5.89796 113.811 6.01247 114.492 6.15936C115.6 6.39069 116.238 6.99793 116.385 7.90358C116.44 8.3858 116.349 8.87347 116.122 9.30246C115.895 9.73145 115.544 10.0817 115.115 10.3071C114.435 10.6735 113.668 10.8482 112.897 10.8125Z" fill="#557086"/>
<path d="M80.8037 10.8032C79.7973 10.758 78.8285 10.4075 78.0257 9.79812C77.722 9.57604 77.6423 9.3956 78.0257 9.177C78.1005 9.13108 78.1689 9.07547 78.229 9.0116C78.6645 8.56167 79.0191 8.28639 79.6486 8.86471C79.9728 9.11468 80.3572 9.27437 80.7629 9.32759C81.1686 9.38081 81.5812 9.32566 81.9587 9.16775C82.1347 9.13777 82.2943 9.04598 82.4088 8.90883C82.5233 8.77169 82.5853 8.59817 82.5836 8.4194C82.5836 7.99723 82.2244 7.91163 81.8975 7.84108C81.1964 7.67915 80.4768 7.56117 79.7907 7.36686C78.6356 7.03027 78.0154 6.31894 77.983 5.3809C77.9903 4.87506 78.159 4.38482 78.4646 3.98191C78.7701 3.57899 79.1963 3.28455 79.6809 3.14165C80.3809 2.8804 81.1356 2.80162 81.8743 2.9127C82.613 3.02377 83.3114 3.32106 83.9038 3.77664C84.3289 4.09009 84.471 4.37 83.965 4.72509C83.93 4.74955 83.8982 4.7783 83.8703 4.81068C83.4684 5.2849 83.1554 5.52664 82.5917 4.87661C82.028 4.22658 81.2333 4.22426 80.4571 4.46137C80.3058 4.48947 80.1688 4.56926 80.0696 4.68717C79.9704 4.80507 79.9151 4.95377 79.9131 5.10794C79.9129 5.25253 79.9652 5.39226 80.0601 5.50119C80.1551 5.61011 80.2863 5.6808 80.4294 5.70014C81.1721 5.88057 81.9252 6.01821 82.6679 6.17436C83.823 6.42535 84.4663 7.04184 84.5992 8.02498C84.6287 8.50805 84.5142 8.989 84.2703 9.40683C84.0264 9.82465 83.6641 10.1605 83.2293 10.3718C82.4755 10.7355 81.6364 10.8847 80.8037 10.8032Z" fill="#557086"/>
<path d="M108.92 18.0936C109.413 17.5961 110.048 17.2646 110.738 17.1451C111.075 17.0612 111.426 17.0542 111.766 17.1247C112.105 17.1953 112.425 17.3416 112.7 17.5527C112.976 17.7638 113.2 18.0344 113.357 18.3442C113.514 18.6541 113.599 18.9954 113.606 19.3427C113.682 21.0014 113.635 22.66 113.654 24.3337C113.654 24.6945 113.517 24.8079 113.148 24.846C111.827 24.9212 111.827 24.9305 111.827 23.6327V20.3479C111.827 19.5509 111.438 19.0339 110.824 18.9252C110.475 18.8645 110.116 18.9292 109.81 19.1078C109.504 19.2864 109.271 19.5675 109.152 19.9014C109.008 20.3157 108.937 20.7523 108.944 21.1911V24.277C108.944 24.7084 108.793 24.846 108.367 24.8553C107.096 24.8553 107.096 24.8877 107.096 23.6559V18.0623C107.096 17.4655 107.305 17.2666 107.859 17.3279C107.989 17.3418 108.121 17.3418 108.251 17.3279C108.721 17.2353 109.048 17.3545 108.92 18.0936Z" fill="#557086"/>
<path d="M130.524 5.36137V9.96596C130.524 10.4969 130.391 10.6958 129.831 10.6865C128.647 10.6623 128.647 10.6865 128.647 9.5195V0.960353C128.647 0.0130641 128.647 0.0130642 129.594 0.0130642C129.725 0.0223186 129.856 0.0223186 129.987 0.0130642C130.4 -0.0401413 130.503 0.149548 130.499 0.543962V5.3394L130.524 5.36137Z" fill="#557086"/>
<path d="M102.526 19.5197V24.1798C102.526 24.654 102.431 24.8437 101.91 24.8391C100.698 24.8391 100.698 24.8391 100.698 23.6246V15.0932C100.698 14.804 100.561 14.3819 100.906 14.2685C101.393 14.133 101.907 14.133 102.393 14.2685C102.596 14.3206 102.508 14.6155 102.508 14.804C102.523 16.3709 102.529 17.9428 102.526 19.5197Z" fill="#557086"/>
<path d="M103.898 21.0083V17.7952C103.898 17.4251 103.993 17.321 104.371 17.321C105.739 17.321 105.739 17.2782 105.739 18.6337V24.1463C105.739 24.6922 105.569 24.8669 105.024 24.853C103.893 24.853 103.893 24.853 103.893 23.7149L103.898 21.0083Z" fill="#557086"/>
<path d="M117.436 6.84293V3.55575C117.436 3.21917 117.522 3.11507 117.872 3.08153C119.267 3.03873 119.267 3.02601 119.267 4.43249V9.81781C119.267 10.3961 119.13 10.6379 118.495 10.6089C117.44 10.5569 117.435 10.6089 117.435 9.51824L117.436 6.84293Z" fill="#557086"/>
<path d="M105.166 14.5151H104.315C104.158 14.5151 104.031 14.6425 104.031 14.7997V15.6521C104.031 15.8093 104.158 15.9366 104.315 15.9366H105.166C105.323 15.9366 105.45 15.8093 105.45 15.6521V14.7997C105.45 14.6425 105.323 14.5151 105.166 14.5151Z" fill="#557086"/>
<path d="M118.775 0.293945H117.924C117.767 0.293945 117.64 0.421335 117.64 0.578479V1.43092C117.64 1.58807 117.767 1.71546 117.924 1.71546H118.775C118.932 1.71546 119.059 1.58807 119.059 1.43092V0.578479C119.059 0.421335 118.932 0.293945 118.775 0.293945Z" fill="#557086"/>
<script xmlns=""/></svg>