<svg xmlns="http://www.w3.org/2000/svg" width="160" height="36" viewBox="0 0 160 36" fill="none"><script xmlns=""/>
<g clip-path="url(#clip0_2762_50065)">
<path fill-rule="evenodd" clip-rule="evenodd" d="M10.5439 1.09875H34.4993C35.071 1.09875 35.599 1.40374 35.884 1.89853L42.8632 14.0124C43.2252 14.6406 43.1176 15.4336 42.6014 15.943L23.391 34.8997C22.7687 35.5137 21.7677 35.5137 21.1453 34.8997L1.96084 15.9686C1.4326 15.4473 1.33368 14.6313 1.72213 13.9992L9.18235 1.85966C9.47289 1.38688 9.98847 1.09875 10.5439 1.09875ZM31.4063 6.50718V9.90615H24.5823V12.2628C29.375 12.5146 32.9708 13.5489 32.9976 14.7887L32.9973 17.3732C32.9706 18.613 29.375 19.6473 24.5823 19.8992V25.6825H20.0511V19.8992C15.2585 19.6473 11.6627 18.613 11.636 17.3732L11.6362 14.7887C11.6629 13.5489 15.2585 12.5146 20.0511 12.2628V9.90615H13.2272V6.50718H31.4063ZM22.3167 18.1235C27.4314 18.1235 31.7064 17.2489 32.7526 16.0809C31.8654 15.0904 28.6563 14.311 24.5823 14.097V16.5643C23.8521 16.6027 23.0942 16.6229 22.3167 16.6229C21.5394 16.6229 20.7814 16.6027 20.0511 16.5643V14.097C15.9771 14.311 12.7681 15.0904 11.8809 16.0809C12.9271 17.2489 17.2022 18.1235 22.3167 18.1235Z" fill="#8CA3B8"/>
<path d="M52.2149 7.67244L57.7524 7.05042V12.4154H62.5594V17.0806H57.714V24.3116C57.714 26.0222 58.4318 26.8775 59.8675 26.8775C60.7904 26.8775 61.5595 26.7219 62.1748 26.4109L63.4439 31.076C62.1876 31.5685 60.8545 31.8537 59.4445 31.9313C57.214 32.035 55.4452 31.5037 54.1376 30.3374C52.8558 29.1452 52.2149 27.1366 52.2149 24.3116V17.0806H48.8307V12.4154H52.2149V7.67244Z" fill="#8CA3B8"/>
<path d="M83.2848 23.7285H69.3255C69.4792 24.7133 70.0048 25.5297 70.9021 26.1776C71.7995 26.7997 72.9916 27.1107 74.4785 27.1107C76.6064 27.1107 78.247 26.6052 79.4008 25.5945L82.5157 29.0933C80.6186 30.9854 77.9009 31.9313 74.3631 31.9313C70.9791 31.9313 68.3512 31.0113 66.4797 29.1711C64.6338 27.331 63.711 24.8429 63.711 21.7068C63.711 18.7523 64.621 16.3679 66.4413 14.5536C68.2614 12.7134 70.7098 11.7933 73.7863 11.7933C77.1447 11.7933 79.7084 12.83 81.4773 14.9034C83.2719 16.9769 83.8745 19.9185 83.2848 23.7285ZM69.3255 19.6465H78.324C78.2727 18.6615 77.8113 17.9099 76.9396 17.3915C76.068 16.8472 75.0169 16.5751 73.7863 16.5751C72.6838 16.5751 71.7353 16.8472 70.9406 17.3915C70.1459 17.9359 69.6074 18.6875 69.3255 19.6465Z" fill="#8CA3B8"/>
<path d="M87.9014 7.67244L93.4391 7.05042V12.4154H98.246V17.0806H93.4006V24.3116C93.4006 26.0222 94.1184 26.8775 95.554 26.8775C96.477 26.8775 97.2461 26.7219 97.8615 26.4109L99.1305 31.076C97.8743 31.5685 96.5411 31.8537 95.1312 31.9313C92.9007 32.035 91.1317 31.5037 89.8243 30.3374C88.5424 29.1452 87.9014 27.1366 87.9014 24.3116V17.0806H84.5174V12.4154H87.9014V7.67244Z" fill="#8CA3B8"/>
<path d="M101.207 4.29016H106.783V14.6702C108.142 12.8819 110.064 11.9877 112.551 11.9877C117.602 11.9877 120.127 15.059 120.127 21.2015V31.5037H114.589V21.2404C114.589 19.9185 114.256 18.8947 113.59 18.169C112.949 17.4434 112.077 17.0805 110.975 17.0805C109.77 17.0805 108.757 17.4952 107.937 18.3246C107.142 19.154 106.744 20.3073 106.744 21.7845V31.5037H101.207V4.29016Z" fill="#8CA3B8"/>
<path d="M141.845 23.7285H127.886C128.04 24.7133 128.565 25.5297 129.462 26.1776C130.359 26.7997 131.552 27.1107 133.039 27.1107C135.167 27.1107 136.808 26.6052 137.961 25.5945L141.077 29.0933C139.179 30.9854 136.462 31.9313 132.924 31.9313C129.539 31.9313 126.912 31.0113 125.04 29.1711C123.194 27.331 122.271 24.8429 122.271 21.7068C122.271 18.7523 123.181 16.3679 125.002 14.5536C126.822 12.7134 129.269 11.7933 132.347 11.7933C135.705 11.7933 138.268 12.83 140.038 14.9034C141.832 16.9769 142.434 19.9185 141.845 23.7285ZM127.886 19.6465H136.885C136.834 18.6615 136.372 17.9099 135.5 17.3915C134.628 16.8472 133.577 16.5751 132.347 16.5751C131.244 16.5751 130.295 16.8472 129.5 17.3915C128.706 17.9359 128.168 18.6875 127.886 19.6465Z" fill="#8CA3B8"/>
<path d="M144.141 12.3376H149.295L149.718 14.4369C150.923 12.7264 152.614 11.8711 154.794 11.8711C156.588 11.8711 158.14 12.4542 159.447 13.6205L157.139 18.0524C156.242 17.4045 155.23 17.0806 154.102 17.0806C152.845 17.0806 151.795 17.4823 150.949 18.2857C150.102 19.0632 149.679 20.1388 149.679 21.5125V31.5037H144.141V12.3376Z" fill="#8CA3B8"/>
</g>
<defs>
<clipPath id="clip0_2762_50065">
<rect width="159" height="35" fill="white" transform="translate(0.5 0.5)"/>
</clipPath>
</defs>
<script xmlns=""/></svg>