<svg xmlns="http://www.w3.org/2000/svg" width="53" height="34" viewBox="0 0 53 34" fill="none" style="&#10;"><script xmlns=""/>
<g clip-path="url(#clip0_5574_103735)">
<path d="M29.9429 14.5952C30.2468 14.4271 30.469 14.313 30.6834 14.1855C31.429 13.7415 32.1694 13.2905 32.9157 12.8478C34.2878 12.0334 35.665 11.2279 37.0318 10.4033C37.2035 10.3 37.3026 10.293 37.4484 10.4262C38.3942 11.2907 39.349 12.1463 40.2987 13.0102C40.8338 13.4986 41.3605 13.9971 41.8923 14.4887C41.9124 14.5071 41.9519 14.5052 42.0679 14.5331C42.0374 14.3054 42.0284 14.1081 41.9824 13.9185C41.753 12.9747 41.5088 12.0341 41.2795 11.0896C41.0728 10.2384 40.885 9.38281 40.6744 8.53225C40.6213 8.31723 40.6887 8.20877 40.8727 8.09905C42.1035 7.3671 43.3291 6.62437 44.5574 5.88735C44.8968 5.68375 45.2427 5.49029 45.5815 5.28479C45.6593 5.23786 45.7189 5.16174 45.8517 5.03933C45.7182 5.01527 45.5835 4.99875 45.4481 4.98986C43.6891 4.98986 41.9301 4.99451 40.1711 5.00381C39.8964 5.00381 39.7572 4.92833 39.7027 4.62325C39.5926 4.00103 39.4106 3.39086 39.2583 2.77626C39.1469 2.32529 39.0413 1.87369 38.9221 1.42463C38.8975 1.33203 38.8243 1.25147 38.7738 1.16585C38.7006 1.22927 38.6086 1.28572 38.5561 1.36437C37.7846 2.52128 37.0234 3.68453 36.2422 4.83509C36.1774 4.93024 35.9915 4.99049 35.8619 4.99113C33.098 4.99916 30.334 5.00106 27.57 4.99683C24.7629 4.99683 21.9557 4.99514 19.1486 4.99176C18.8111 4.99176 18.6304 5.10149 18.5189 5.44019C18.1076 6.70556 17.6561 7.95824 17.2279 9.2179C16.8813 10.2384 16.5503 11.2634 16.2056 12.284C15.7152 13.7345 15.2151 15.1819 14.7254 16.6331C14.3639 17.7032 14.0128 18.7776 13.6552 19.8482C13.3961 20.6195 13.1273 21.3876 12.8623 22.157C12.3816 23.5562 11.8906 24.9535 11.4268 26.3578C11.3348 26.6343 11.1884 26.6952 10.9085 26.6946C7.37845 26.6882 3.84814 26.6882 0.317612 26.6946C-0.0198936 26.6946 -0.0542256 26.6508 0.0520141 26.3343C0.526854 24.911 0.997806 23.4871 1.47718 22.0663C1.96627 20.6259 2.47286 19.1918 2.96065 17.7533C3.3746 16.5329 3.76457 15.3043 4.17981 14.0846C4.73109 12.4647 5.30311 10.8499 5.85374 9.23185C6.21392 8.17262 6.55142 7.10515 6.90318 6.04338C6.97573 5.82329 7.06837 5.60954 7.15128 5.39262C7.25234 5.12876 7.19987 5.0387 6.91095 5.03172C6.45749 5.02094 6.00403 5.02411 5.55057 5.02538C3.82309 5.03045 2.09562 5.03637 0.368142 5.04314C0.0520144 5.04314 -0.0244295 4.90867 0.0895838 4.54143C0.219144 4.12852 0.348705 3.71688 0.478266 3.3046C0.778846 2.32402 1.0872 1.34598 1.36964 0.360326C1.45321 0.0672935 1.59054 -0.0113556 1.89696 0.00386689C2.53245 0.0349461 3.17054 0.0133805 3.80733 0.0133805C18.1886 0.0133805 32.5698 0.0159173 46.951 0.0209915C47.6901 0.0209915 48.45 0.0419234 49.1658 0.200491C50.7692 0.55695 52.0311 1.4056 52.664 2.95702C53.0451 3.90143 53.0975 4.94256 52.813 5.91906C52.4165 7.33919 51.9061 8.72951 51.4345 10.1287C51.1669 10.919 50.922 11.722 50.5826 12.4831C49.8959 14.0219 48.8374 15.2872 47.4537 16.2856C46.7102 16.8264 45.8875 17.2541 45.0134 17.5541C44.9305 17.5826 44.8379 17.7729 44.8567 17.8712C45.1216 19.2292 45.4118 20.5827 45.6833 21.9394C45.9858 23.4522 46.2766 24.9668 46.5714 26.4802C46.6122 26.6888 46.4794 26.7409 46.3071 26.7434C46.0266 26.7478 45.7461 26.7434 45.4649 26.7434C41.9992 26.7434 38.5335 26.739 35.0677 26.7485C34.7574 26.7485 34.622 26.6527 34.5689 26.3565C34.28 24.7334 33.9768 23.1128 33.6795 21.4916C33.5324 20.6912 33.3821 19.8914 33.2448 19.0897C33.2066 18.8658 33.0809 18.7801 32.871 18.7789C32.288 18.7789 31.705 18.7865 31.1219 18.7744C30.8317 18.7681 30.6931 18.9108 30.6134 19.1594C30.3472 19.9948 30.079 20.8288 29.803 21.661C29.5037 22.5636 29.1921 23.4617 28.8915 24.3642C28.6687 25.0353 28.4472 25.707 28.2437 26.3838C28.1667 26.6375 28.0403 26.7332 27.7611 26.7326C24.4787 26.7326 21.1969 26.7383 17.9145 26.7428C17.5259 26.7428 17.4863 26.6749 17.6088 26.3083C17.9871 25.1748 18.3544 24.0382 18.734 22.9048C19.0313 22.0168 19.3501 21.132 19.6409 20.2409C19.9409 19.3281 20.2123 18.4066 20.5116 17.4938C20.8536 16.4511 21.2164 15.4147 21.5643 14.3739C21.9154 13.3223 22.2587 12.2681 22.6072 11.2152C22.9588 10.153 23.3114 9.09083 23.6651 8.02864C23.838 7.50727 24.0227 6.98907 24.1762 6.46263C24.2533 6.20004 24.3977 6.1252 24.653 6.17594C26.038 6.44931 27.4223 6.72649 28.8086 6.99098C30.3329 7.28211 31.8598 7.56182 33.3847 7.84661C33.5642 7.88022 33.7417 7.92335 33.9198 7.96648C34.0979 8.00961 34.1096 8.08636 34.0092 8.23795C33.0707 9.65279 32.1362 11.0706 31.2055 12.4914C30.8039 13.1003 30.3977 13.706 29.9974 14.3162C29.976 14.3618 29.9786 14.4291 29.9429 14.5952Z" fill="white"/>
<path d="M24.7428 33.9735C24.4623 33.9735 24.1805 33.9551 23.9007 33.9779C23.6014 34.0026 23.4913 33.851 23.4472 33.6011C23.3973 33.2986 23.3721 32.9903 23.2911 32.696C23.2574 32.573 23.0916 32.3833 23.0138 32.3954C22.9385 32.415 22.8685 32.4504 22.8085 32.4991C22.7486 32.5479 22.7001 32.6088 22.6666 32.6776C22.5438 32.9927 22.4426 33.3154 22.3634 33.6436C22.2987 33.8872 22.1587 33.9874 21.8983 33.9798C21.393 33.9639 20.8864 33.9658 20.3805 33.9703C20.1434 33.9703 20.1363 33.851 20.1933 33.6823C20.433 32.9732 20.674 32.2641 20.9162 31.555C21.2097 30.6956 21.5103 29.8425 21.796 28.978C21.8549 28.7985 21.9346 28.7242 22.1354 28.7242C23.4615 28.7357 24.7875 28.728 26.1136 28.7407C27.0101 28.7496 27.3586 29.198 27.0904 30.0232C26.9374 30.5244 26.7339 31.0095 26.4828 31.4713C26.3416 31.7212 26.043 31.8937 25.7968 32.077C25.6368 32.1956 25.585 32.2971 25.642 32.5C25.7501 32.885 25.8208 33.2808 25.8914 33.6747C25.9263 33.8726 25.8596 33.9969 25.6102 33.9798C25.3207 33.9608 25.0272 33.9754 24.7376 33.9754L24.7428 33.9735ZM23.7782 31.3698C24.1248 31.4078 24.4908 31.411 24.6573 30.9778C24.7687 30.6829 24.8763 30.3854 24.9631 30.0828C25.0654 29.7245 24.976 29.616 24.6048 29.6078C24.4228 29.604 24.2388 29.6148 24.0574 29.6027C23.8249 29.5868 23.6953 29.6959 23.6254 29.8995C23.5256 30.1888 23.4254 30.4765 23.3248 30.7628C23.111 31.3691 23.111 31.3691 23.7782 31.3698Z" fill="white"/>
<path d="M9.59136 28.749C10.2068 28.749 10.8222 28.7382 11.437 28.7528C11.8354 28.7617 12.1457 29.0515 12.1249 29.4384C12.1052 29.794 12.0375 30.1455 11.9235 30.4837C11.63 31.3514 11.332 32.221 10.9757 33.0652C10.7095 33.6995 10.1252 33.9475 9.45727 33.9627C8.53091 33.9842 7.60326 33.9703 6.6769 33.969C6.4398 33.969 6.20336 33.9601 5.96432 33.9544C5.20768 33.9367 5.00038 33.4572 5.19084 32.7982C5.40461 32.0573 5.65337 31.326 5.90796 30.5979C5.94812 30.4824 6.08481 30.3442 6.19947 30.3182C6.76889 30.2015 7.34478 30.1146 7.92003 30.027C8.24004 29.9788 8.29705 30.0537 8.1947 30.3486C7.94508 31.0674 7.69568 31.7863 7.44649 32.5051C7.28324 32.977 7.36357 33.0988 7.87339 33.0887C8.7557 33.0715 8.78938 33.2409 9.11329 32.2641C9.35816 31.5214 9.62634 30.7863 9.88093 30.0442C9.96644 29.7943 9.88093 29.6522 9.59719 29.6427C9.09061 29.6262 8.58338 29.6427 8.07615 29.6427C7.56892 29.6427 7.06493 29.6503 6.55964 29.6427C6.49486 29.6427 6.3964 29.5983 6.3815 29.5532C6.3666 29.5082 6.40611 29.4118 6.44628 29.363C6.59855 29.1764 6.79063 29.0248 7.00906 28.9186C7.2275 28.8125 7.467 28.7543 7.71079 28.7483C8.33657 28.7281 8.96299 28.7433 9.58942 28.7433L9.59136 28.749Z" fill="white"/>
<path d="M42.8839 30.8756C42.9927 30.7869 43.1009 30.6962 43.2078 30.6086C43.9029 30.0568 44.6045 29.5126 45.2905 28.95C45.3823 28.8694 45.4899 28.808 45.6067 28.7695C45.7235 28.731 45.8472 28.7163 45.97 28.7261C46.1864 28.7388 46.4047 28.7261 46.6224 28.7261L46.6548 28.8162C46.5972 28.8802 46.5362 28.9411 46.4721 28.9988C46.0652 29.3287 45.6558 29.6547 45.2477 29.9826C45.0741 30.1221 45.0333 30.2731 45.0793 30.5084C45.2853 31.555 45.4563 32.6085 45.639 33.6595C45.6772 33.877 45.6345 33.9842 45.3578 33.9734C44.7664 33.95 44.1724 33.9607 43.5803 33.9772C43.3471 33.9836 43.2518 33.9043 43.222 33.6804C43.1527 33.1571 43.0653 32.6364 42.9817 32.115C42.9428 31.8727 42.8347 31.8328 42.6397 31.9882C42.4116 32.1664 42.2134 32.351 42.1454 32.6598C42.0703 32.9979 41.9245 33.3208 41.8163 33.6518C41.7457 33.8675 41.622 33.9855 41.3719 33.9804C40.7928 33.9677 40.213 33.976 39.5503 33.976C39.628 33.7032 39.6844 33.4685 39.7608 33.2427C40.2376 31.834 40.7248 30.4279 41.1944 29.0166C41.2741 28.7775 41.403 28.7153 41.6446 28.7242C42.1298 28.742 42.6163 28.7306 43.1016 28.7306C43.406 28.7306 43.465 28.8067 43.3607 29.0946C43.1877 29.5817 43.0057 30.0651 42.8327 30.5534C42.8098 30.6406 42.7942 30.7295 42.7861 30.8192L42.8839 30.8756Z" fill="white"/>
<path d="M15.7455 28.7375C16.3933 28.7375 17.0411 28.728 17.6889 28.7375C18.5459 28.7534 18.8756 29.2164 18.5997 30.0061C18.4274 30.5027 18.3023 31.0291 18.0426 31.4795C17.5749 32.2894 16.7541 32.4201 15.8821 32.3846C15.4624 32.3675 15.04 32.3846 14.6222 32.3751C14.389 32.3713 14.2387 32.4474 14.1687 32.6859C14.0728 33.0189 13.9368 33.3404 13.839 33.6728C13.7787 33.8789 13.6634 33.9728 13.4503 33.9722C12.9554 33.9722 12.4598 33.9722 11.9649 33.9772C11.6831 33.9772 11.641 33.844 11.7207 33.6081C12.0854 32.5387 12.443 31.4668 12.8038 30.3961C12.9593 29.9357 13.1348 29.4809 13.267 29.0147C13.324 28.8136 13.4062 28.7306 13.6148 28.7318C14.3274 28.7375 15.04 28.7318 15.7526 28.7318L15.7455 28.7375ZM15.2214 31.4605C15.9145 31.4693 16.0026 31.4116 16.23 30.7805C16.3259 30.5135 16.4159 30.2439 16.506 29.9744C16.5837 29.7435 16.482 29.6306 16.2469 29.6198C16.0117 29.609 15.7934 29.6274 15.5699 29.5989C15.2803 29.5615 15.1579 29.7035 15.0854 29.9452C14.983 30.2877 14.891 30.6353 14.7576 30.9676C14.5742 31.43 14.5937 31.475 15.0912 31.4598C15.1352 31.4605 15.178 31.4605 15.2214 31.4605Z" fill="white"/>
<path d="M26.4019 33.9056C26.5573 33.6621 26.6875 33.4534 26.8229 33.2479C27.781 31.7979 28.7378 30.3474 29.7057 28.9038C29.7432 28.8562 29.7905 28.8169 29.8445 28.7883C29.8985 28.7597 29.958 28.7424 30.0192 28.7376C30.7091 28.723 31.399 28.7376 32.0922 28.73C32.3467 28.73 32.4666 28.8162 32.4575 29.0839C32.4076 30.5078 32.3746 31.9318 32.3215 33.3557C32.2995 33.9487 32.2826 33.9538 31.6737 33.9697C31.2111 33.9817 30.7473 33.9697 30.2841 33.9824C30.0587 33.9874 30.0023 33.8707 30.014 33.6849C30.0328 33.3678 30.0483 33.0506 30.0788 32.7373C30.1028 32.4665 29.992 32.344 29.7102 32.3567C29.3986 32.3694 29.0838 32.3459 28.7754 32.3808C28.6135 32.398 28.4631 32.4706 28.3504 32.5857C28.1181 32.876 27.9018 33.1784 27.7026 33.4914C27.3321 34.0299 27.1753 34.0902 26.4019 33.9056ZM30.1481 29.9731L30.0833 29.9509C29.786 30.3823 29.4809 30.8085 29.1958 31.248C29.1071 31.3844 29.1958 31.4637 29.3558 31.4599C29.5158 31.4561 29.6558 31.4561 29.8054 31.451C29.9939 31.4447 30.1092 31.3679 30.1099 31.163C30.1099 31.0584 30.1455 30.9537 30.1474 30.8459C30.152 30.5554 30.1481 30.2636 30.1481 29.9712V29.9731Z" fill="white"/>
<path d="M3.34974 28.7332C4.09471 28.7332 4.83968 28.7332 5.58401 28.7332C5.90791 28.7332 5.91309 28.7966 5.8496 29.0877C5.74077 29.5837 5.45315 29.7378 4.97637 29.6541C4.92249 29.6494 4.86829 29.6494 4.81442 29.6541C4.14718 29.6541 4.15172 29.682 3.95867 30.2947C3.62894 31.3425 3.26163 32.3789 2.90923 33.4198C2.87479 33.4969 2.84747 33.577 2.8276 33.6589C2.79392 33.8967 2.64881 33.9684 2.42079 33.9672C1.85979 33.9672 1.29879 33.9722 0.7365 33.9811C0.520134 33.9843 0.464422 33.8777 0.525316 33.6989C0.803871 32.8794 1.0889 32.0624 1.36746 31.2442C1.5184 30.8047 1.6622 30.3632 1.81509 29.9243C1.89412 29.6973 1.78269 29.6357 1.57928 29.6395C1.29879 29.6446 1.01893 29.6522 0.737141 29.6529C0.538265 29.6529 0.459234 29.5609 0.527253 29.3674C0.579725 29.2184 0.598512 29.0452 0.689852 28.9234C0.73362 28.871 0.787598 28.8275 0.848648 28.7956C0.909698 28.7637 0.976603 28.744 1.0455 28.7376C1.8112 28.7211 2.5782 28.7294 3.34455 28.7294L3.34974 28.7332Z" fill="white"/>
<path d="M37.1528 28.7332C37.8317 28.7332 38.5132 28.749 39.1908 28.7294C39.9436 28.7072 40.2098 29.3002 40.0129 29.8882C39.689 30.8478 39.3651 31.8062 39.0412 32.7652C38.9362 33.0747 38.8598 33.3995 38.7218 33.6913C38.6635 33.8149 38.4854 33.9551 38.3539 33.964C37.8291 33.9976 37.2999 33.9963 36.7739 33.9786C36.5335 33.9703 36.6029 33.7737 36.6482 33.6399C36.9306 32.8103 37.2222 31.9832 37.5098 31.1554C37.6393 30.7867 37.767 30.4178 37.8926 30.0486C37.993 29.755 37.9315 29.651 37.6128 29.6459C36.9229 29.6357 36.233 29.6459 35.5398 29.6459C35.2606 29.6459 34.9814 29.6497 34.7028 29.6389C34.6258 29.6357 34.5189 29.6085 34.4806 29.5545C34.3511 29.3712 34.7145 28.7389 34.9497 28.7376C35.683 28.7338 36.4163 28.7376 37.1522 28.7376L37.1528 28.7332Z" fill="white"/>
<path d="M34.0732 33.957C33.7719 33.957 33.4714 33.957 33.1701 33.957C32.9842 33.957 32.946 33.8632 32.9991 33.7097C33.2755 32.9143 33.553 32.1187 33.8315 31.3229C33.9112 31.0952 34.0116 30.8707 34.0596 30.636C34.1075 30.4013 34.2403 30.3189 34.4528 30.2878C35.0254 30.2009 35.5975 30.1058 36.1708 30.0214C36.3994 29.9872 36.4435 30.076 36.3651 30.2973C36.0412 31.224 35.7335 32.1538 35.4187 33.0824C35.3442 33.3018 35.2988 33.5378 35.1848 33.7351C35.1415 33.7954 35.0863 33.8468 35.0226 33.8862C34.9589 33.9256 34.8879 33.9522 34.8136 33.9647C34.572 34.0014 34.32 33.9748 34.0719 33.9748L34.0732 33.957Z" fill="white"/>
</g>
<defs>
<clipPath id="clip0_5574_103735">
<rect width="53" height="34" fill="white"/>
</clipPath>
</defs>
<script xmlns=""/></svg>