<svg xmlns="http://www.w3.org/2000/svg" width="138" height="52" viewBox="0 0 138 52" fill="none"><script xmlns=""/>
<path d="M57.2637 22.8589H55.2361V36.1817H57.2637V22.8589Z" fill="#8CA3B8"/>
<path d="M66.3468 17.2155H49.82V19.2559H66.3468V17.2155Z" fill="#8CA3B8"/>
<path d="M60.9261 22.8589H58.8985V36.1817H60.9261V22.8589Z" fill="#8CA3B8"/>
<path d="M116.941 36.1955H118.987V28.1715L116.941 25.8828V36.1955Z" fill="#8CA3B8"/>
<path d="M127.714 17.2154V32.0916L113.242 15.9056V36.1955H115.283V21.3147L129.764 37.5053V17.2154H127.714Z" fill="#8CA3B8"/>
<path d="M99.994 17.2062C94.7925 17.2062 90.5638 21.4618 90.5638 26.6962C90.5638 31.9307 94.7925 36.1863 99.994 36.1863C105.195 36.1863 109.424 31.9307 109.424 26.6962C109.424 21.4664 105.195 17.2062 99.994 17.2062ZM99.994 34.1412C95.9159 34.1412 92.596 30.8048 92.596 26.6962C92.596 22.5877 95.9114 19.2512 99.994 19.2512C104.072 19.2512 107.392 22.5877 107.392 26.6962C107.392 30.8002 104.072 34.1412 99.994 34.1412Z" fill="#8CA3B8"/>
<path d="M99.994 25.3313C99.245 25.3313 98.6377 25.9425 98.6377 26.6962C98.6377 27.4499 99.245 28.0611 99.994 28.0611C100.743 28.0611 101.35 27.4499 101.35 26.6962C101.35 25.9425 100.743 25.3313 99.994 25.3313Z" fill="#8CA3B8"/>
<path d="M87.0155 23.0381C87.0155 19.8303 84.4399 17.22 81.2752 17.22H70.4887V36.2001H72.5026V19.2788H81.2752C83.3074 19.2788 84.9605 20.9654 84.9605 23.0381C84.9605 25.1015 83.3302 26.779 81.3163 26.8019L74.1603 26.7973V36.2001H76.1742V28.8562H80.8916L84.7459 36.1955H87.0886L83.0653 28.5667C85.3898 27.79 87.0155 25.5289 87.0155 23.0381Z" fill="#8CA3B8"/>
<path d="M35.878 13.4562L8.39577 8.36877L22.8584 44.9871L43.0065 20.2807L35.878 13.4562ZM35.4396 15.6989L39.6455 19.7201L28.1466 21.8157L35.4396 15.6989ZM25.6486 21.3975L13.5287 11.2824L33.3343 14.9498L25.6486 21.3975ZM24.781 23.1898L22.8082 39.6285L12.1541 12.6427L24.781 23.1898ZM26.6076 24.0584L39.3395 21.7376L24.7399 39.6423L26.6076 24.0584Z" fill="#8CA3B8"/>
<script xmlns=""/></svg>