<svg xmlns="http://www.w3.org/2000/svg" width="135" height="34" viewBox="0 0 135 34" fill="none"><script xmlns=""/>
<path fill-rule="evenodd" clip-rule="evenodd" d="M15.4562 0.451023C9.92273 1.03679 4.97926 4.48042 2.48048 9.48971C-0.67686 15.8192 0.568201 23.4327 5.58572 28.4796C9.72706 32.6449 15.5367 34.2618 21.1652 32.8154C24.1814 32.0402 26.4913 30.713 28.712 28.4796C32.8532 24.3141 34.4607 18.4706 33.0226 12.8092C32.252 9.7754 30.9325 7.45204 28.712 5.21843C25.9175 2.40765 22.6429 0.850453 18.6731 0.444206C17.2303 0.296629 16.9076 0.29726 15.4562 0.451023ZM13.9394 5.3068C14.1623 5.53114 14.212 6.62439 14.0161 6.99277C13.9499 7.11737 13.3681 7.48259 12.7235 7.80438C10.1235 9.10215 8.24039 11.3239 7.35755 14.1348C6.98303 15.3277 6.87873 17.7966 7.14895 19.0746C7.39671 20.2462 7.99878 21.6876 8.65483 22.6796C9.67209 24.2178 11.4399 25.7204 13.007 26.379C13.9585 26.7788 14.1366 27.0104 14.1366 27.847C14.1366 28.4433 14.0889 28.6088 13.8733 28.7607C13.639 28.9258 13.5332 28.9195 12.9108 28.7042C12.5262 28.5711 11.7877 28.2323 11.2696 27.9511C8.07271 26.2168 5.69191 22.9637 5.03122 19.4276C4.74029 17.8702 4.83304 15.0339 5.21848 13.7014C6.33766 9.83322 9.25389 6.67514 12.9769 5.29973C13.5962 5.07086 13.7056 5.07174 13.9394 5.3068ZM21.5016 5.38028C25.12 6.74205 27.9872 9.90783 29.0991 13.7693C29.3496 14.6391 29.386 15.0471 29.3855 16.9752C29.3849 18.7426 29.3374 19.3612 29.1479 20.0682C28.0811 24.0481 25.2521 27.2299 21.5275 28.639C20.7751 28.9237 20.6724 28.9354 20.4293 28.7641C20.2069 28.6074 20.1611 28.448 20.1611 27.8298C20.1611 26.9635 20.3095 26.7682 21.2525 26.3927C24.1085 25.2555 26.6416 22.0251 27.1981 18.8103C27.4141 17.5624 27.2856 15.2438 26.9389 14.1348C26.074 11.3684 24.1838 9.11389 21.6849 7.86788C21.0885 7.57045 20.5016 7.24513 20.3807 7.14502C20.0862 6.90086 20.0702 5.59665 20.3583 5.3068C20.6101 5.05369 20.6385 5.05545 21.5016 5.38028ZM59.6968 8.42612C57.9235 8.97376 56.8144 9.90416 56.3001 11.2758C56.082 11.8578 56.0426 12.1857 56.0853 13.0617C56.1478 14.3441 56.3974 14.9094 57.2501 15.6999C58.0286 16.4217 59.0114 16.8518 61.4764 17.5491C64.5095 18.4073 65.2892 18.8199 65.7322 19.801C66.2059 20.8504 65.9205 21.9964 64.9848 22.802C64.2545 23.4308 63.4313 23.6661 61.9623 23.6661C60.1664 23.6661 58.8244 23.1754 57.4202 22.0051C57.1 21.7382 56.7791 21.52 56.7069 21.52C56.4936 21.52 55.6805 22.5967 55.6805 22.8793C55.6805 23.5656 58.0634 25.0055 59.7991 25.368C60.9655 25.6116 63.0401 25.6115 64.0677 25.3677C66.6242 24.7615 68.106 23.02 68.106 20.6212C68.106 18.7953 67.1686 17.3998 65.3771 16.5589C64.8416 16.3075 63.4998 15.8428 62.3953 15.5264C58.9455 14.5375 58.1202 13.9467 58.2182 12.5366C58.3266 10.9773 59.462 10.1299 61.5485 10.0512C63.2342 9.98774 64.5331 10.4067 65.8649 11.4433C66.1164 11.6391 66.4035 11.7993 66.5029 11.7993C66.6605 11.7993 67.2455 11.1663 67.5287 10.6891C67.8003 10.2314 66.2462 9.0817 64.6545 8.56271C63.1741 8.08009 61.0102 8.0205 59.6968 8.42612ZM96.1251 8.39229C93.2293 9.15555 91.2448 11.0065 90.2377 13.8836C89.909 14.8228 89.8847 15.0269 89.8847 16.849C89.8847 18.6711 89.909 18.8752 90.2377 19.8144C91.464 23.3178 94.2268 25.365 97.9502 25.5293C100.293 25.6327 102.082 25.0204 103.619 23.5886C104.851 22.4413 104.871 22.249 103.814 21.6924L103.142 21.3389L102.474 21.9708C101.147 23.225 100.055 23.6661 98.2773 23.6661C97.3666 23.6661 96.9318 23.6009 96.2978 23.3694C94.1564 22.5876 92.7727 21.0424 92.2012 18.795C91.7435 16.9949 91.9786 14.814 92.7963 13.2732C93.2333 12.4498 94.484 11.1651 95.2126 10.7913C96.3266 10.2195 97.0875 10.0319 98.2912 10.0319C100.059 10.0319 101.15 10.4821 102.531 11.7816L103.144 12.3586L103.82 11.9908C104.871 11.4193 104.852 11.2576 103.603 10.094C102.751 9.30111 101.529 8.64818 100.304 8.33169C99.2585 8.06128 97.2715 8.09019 96.1251 8.39229ZM39.6403 8.54226C39.5277 8.6555 39.4897 10.1144 39.4897 14.3292C39.4897 19.5306 39.5088 20.0399 39.7379 20.9411C40.5132 23.9901 42.7535 25.5597 46.33 25.5597C47.7233 25.5597 49.1146 25.2733 50.0481 24.7942C51.4452 24.0774 52.6135 22.4379 52.9854 20.6725C53.2265 19.528 53.2569 8.78086 53.0197 8.54226C52.9343 8.45642 52.5253 8.39077 52.0752 8.39077C51.3386 8.39077 51.2726 8.41413 51.159 8.71458C51.0863 8.90698 51.0366 11.2625 51.0366 14.516C51.0366 19.9221 51.0329 20.004 50.7468 20.7967C50.0367 22.7643 48.6493 23.6661 46.332 23.6661C44.2013 23.6661 42.9036 22.9393 42.0987 21.2955L41.6861 20.453L41.6234 14.5434C41.5695 9.47481 41.5339 8.61675 41.3723 8.51424C41.1016 8.3423 39.8185 8.363 39.6403 8.54226ZM70.7668 8.54226C70.6527 8.65702 70.6162 10.6765 70.6162 16.8588C70.6162 23.8736 70.6421 25.0454 70.8 25.1772C71.0976 25.4256 77.8531 25.2854 78.8371 25.0103C80.2799 24.607 81.634 23.8322 82.5972 22.8589C84.1861 21.2532 84.9244 19.3468 84.9244 16.849C84.9244 12.5608 82.4276 9.43442 78.3218 8.5814C77.1357 8.33497 71.0044 8.30329 70.7668 8.54226ZM120.492 8.58556C119.774 8.95116 119.599 9.87904 120.129 10.5123C120.502 10.9587 120.992 11.0786 121.526 10.8544C122.368 10.5002 122.586 9.56508 121.981 8.89738C121.559 8.43117 121.018 8.31781 120.492 8.58556ZM18.1485 9.01365C18.22 9.14797 18.2785 9.6205 18.2785 10.0637V10.8695L18.9661 11.0876C19.93 11.3932 20.812 12.2718 21.1103 13.2236C21.4069 14.1699 21.284 14.3248 20.2399 14.3223C19.3474 14.32 19.263 14.2774 19.0374 13.7168C18.7671 13.0449 18.1583 12.6645 17.234 12.5898C16.1487 12.5022 15.3425 12.8472 15.0635 13.5187C14.8047 14.142 14.9262 14.7313 15.3954 15.1284C15.8419 15.5063 15.8021 15.4937 17.8171 15.8992C19.6438 16.2668 20.4647 16.6293 21.0295 17.3181C21.5115 17.9056 21.666 18.4361 21.6653 19.5001C21.6646 20.5639 21.2817 21.4105 20.48 22.1202C19.9703 22.5714 18.7917 23.1611 18.3992 23.1611C18.3328 23.1611 18.2785 23.5547 18.2785 24.0358C18.2785 25.1535 18.1419 25.3072 17.1489 25.3072C16.1587 25.3072 16.0193 25.1519 16.0193 24.0499V23.1893L15.6114 23.1109C14.948 22.9835 13.974 22.4731 13.5168 22.0133C13.2824 21.7775 12.9651 21.3002 12.8116 20.9526C12.172 19.5036 12.3102 19.2157 13.6176 19.2737L14.4504 19.3107L14.7642 19.9636C15.3306 21.1425 15.8026 21.4253 17.204 21.4253C18.5939 21.4253 19.408 20.7482 19.408 19.5924C19.408 18.5443 18.8888 18.2125 16.5842 17.7876C13.7847 17.2715 12.756 16.3538 12.756 14.3723C12.756 13.3412 13.1437 12.4043 13.8012 11.8458C14.2914 11.4295 15.3562 10.9185 15.7369 10.9169C16.0009 10.9157 16.0193 10.8618 16.0193 10.0867C16.0193 8.8657 16.1019 8.7695 17.1489 8.7695C17.8803 8.7695 18.0392 8.80838 18.1485 9.01365ZM78.1841 10.4724C79.9522 10.9356 81.3583 12.0702 82.0969 13.6298C82.6149 14.7237 82.7907 15.5502 82.7907 16.8918C82.7907 19.8462 81.2944 22.1012 78.7015 23.0544C78.054 23.2924 77.6243 23.3347 75.3542 23.3833L72.7499 23.4391V16.8617V10.2844H75.1082C76.792 10.2844 77.6718 10.3382 78.1841 10.4724ZM111.156 12.83C108.062 13.1564 105.971 15.6642 105.963 19.0582C105.955 22.9486 108.368 25.5597 111.972 25.5597C113.652 25.5597 114.88 25.0879 116.019 24.0044C118.071 22.0521 118.562 18.4751 117.145 15.7931C115.998 13.6214 113.828 12.5479 111.156 12.83ZM130.206 12.833C129.256 12.9554 128.337 13.3656 127.378 14.0957L126.594 14.6928V14.0287C126.594 13.6635 126.526 13.2965 126.443 13.2132C126.248 13.0167 125.057 13.0167 124.862 13.2132C124.645 13.4314 124.645 24.9376 124.862 25.1557C125.057 25.3523 126.248 25.3523 126.443 25.1557C126.555 25.0438 126.594 23.8633 126.594 20.6271V16.25L127.168 15.7176C127.968 14.9762 128.973 14.5349 130.003 14.4732C131.358 14.3921 132.197 14.8049 132.631 15.766C132.843 16.2347 132.864 16.6686 132.867 20.5957C132.869 24.3474 132.895 24.9363 133.066 25.1089C133.303 25.3469 134.379 25.3797 134.601 25.1557C134.713 25.0434 134.752 23.7906 134.752 20.2998C134.752 15.1306 134.72 14.8638 133.981 13.9238C133.304 13.0615 131.801 12.6273 130.206 12.833ZM120.186 13.3953C120.106 13.606 120.073 15.8177 120.095 19.3964C120.134 25.7478 120.059 25.3019 121.096 25.3053C122.114 25.3086 122.075 25.5481 122.075 19.2278C122.075 15.9478 122.026 13.5781 121.953 13.3855C121.84 13.0872 121.771 13.0617 121.071 13.0617C120.366 13.0617 120.303 13.0855 120.186 13.3953ZM113.296 14.6935C114.154 15.0218 114.682 15.4486 115.166 16.2076C116.451 18.2216 116.154 21.3431 114.529 22.9052C113.822 23.5845 113.093 23.8554 111.972 23.8554C110.24 23.8554 109.156 23.1216 108.345 21.3997C107.981 20.6272 107.956 20.4824 107.962 19.1845C107.97 17.3759 108.253 16.5905 109.262 15.5819C110.357 14.4875 111.879 14.1523 113.296 14.6935Z" fill="#8CA3B8"/>
<script xmlns=""/></svg>