<svg width="39" height="38" viewBox="0 0 39 38" fill="none" xmlns="http://www.w3.org/2000/svg">
<rect x="0.5" width="38" height="38" rx="10" fill="#010E17"/>
<g clip-path="url(#clip0_2068_14136)">
<path d="M14.871 15.25L16.773 17.152L15.7125 18.2125L12 14.5L15.7125 10.7875L16.773 11.848L14.871 13.75H20.25C21.8413 13.75 23.3674 14.3821 24.4926 15.5073C25.6179 16.6326 26.25 18.1587 26.25 19.75C26.25 21.3413 25.6179 22.8674 24.4926 23.9926C23.3674 25.1178 21.8413 25.75 20.25 25.75H13.5V24.25H20.25C21.4435 24.25 22.5881 23.7759 23.432 22.932C24.2759 22.088 24.75 20.9434 24.75 19.75C24.75 18.5565 24.2759 17.4119 23.432 16.568C22.5881 15.7241 21.4435 15.25 20.25 15.25H14.871Z" fill="#8CA3B8"/>
</g>
<defs>
<clipPath id="clip0_2068_14136">
<rect width="18" height="18" fill="white" transform="translate(10.5 10)"/>
</clipPath>
</defs>
</svg>