<svg width="22" height="16" viewBox="0 0 22 16" fill="none" xmlns="http://www.w3.org/2000/svg">
<mask id="mask0_4541_144742" style="mask-type:alpha" maskUnits="userSpaceOnUse" x="0" y="0" width="22" height="16">
<rect width="21.3333" height="16" rx="2" fill="white"/>
</mask>
<g mask="url(#mask0_4541_144742)">
<rect width="21.3333" height="16" fill="#0A17A7"/>
<path fill-rule="evenodd" clip-rule="evenodd" d="M-0.977143 -1.5332L8.12722 4.91481V-1.06673H13.2066V4.91465L22.3105 -1.53305L23.4466 0.235565L16.2489 5.33327H21.3336V10.6666H16.2485L23.4466 15.7645L22.3104 17.5331L13.2066 11.0855V17.0666H8.12722V11.0853L-0.977073 17.5333L-2.11321 15.7646L5.08504 10.6666H0.000233173V5.33327H5.08471L-2.11328 0.235411L-0.977143 -1.5332Z" fill="white"/>
<path d="M14.2231 5.06581L23.8729 -1.59995" stroke="#DB1F35" stroke-width="0.666667" stroke-linecap="round"/>
<path d="M15.2476 10.9581L23.8981 17.0804" stroke="#DB1F35" stroke-width="0.666667" stroke-linecap="round"/>
<path d="M6.09942 5.04824L-2.92383 -1.33691" stroke="#DB1F35" stroke-width="0.666667" stroke-linecap="round"/>
<path d="M7.07809 10.8839L-2.92383 17.8484" stroke="#DB1F35" stroke-width="0.666667" stroke-linecap="round"/>
<path fill-rule="evenodd" clip-rule="evenodd" d="M0 9.6H9.14286V16H12.1905V9.6H21.3333V6.4H12.1905V0H9.14286V6.4H0V9.6Z" fill="#E6273E"/>
</g>
</svg>
